<svg width="16" height="17" viewBox="0 0 16 17" fill="none" xmlns="http://www.w3.org/2000/svg">
<path d="M10.3866 8.8393C10.3866 10.1593 9.31995 11.226 7.99995 11.226C6.67995 11.226 5.61328 10.1593 5.61328 8.8393C5.61328 7.5193 6.67995 6.45264 7.99995 6.45264C9.31995 6.45264 10.3866 7.5193 10.3866 8.8393Z" stroke="black" stroke-linecap="round" stroke-linejoin="round"/>
<path d="M7.9999 14.3528C10.3532 14.3528 12.5466 12.9661 14.0732 10.5661C14.6732 9.62612 14.6732 8.04612 14.0732 7.10612C12.5466 4.70612 10.3532 3.31946 7.9999 3.31946C5.64656 3.31946 3.45323 4.70612 1.92656 7.10612C1.32656 8.04612 1.32656 9.62612 1.92656 10.5661C3.45323 12.9661 5.64656 14.3528 7.9999 14.3528Z" stroke="black" stroke-linecap="round" stroke-linejoin="round"/>
</svg>
