<svg width="96" height="21" viewBox="0 0 96 21" fill="none" xmlns="http://www.w3.org/2000/svg">
<path d="M5.76201 15.7636H1.66458V4.21845H0L1.21642 0.158629H5.76201V1.83965C6.17814 1.30045 6.65834 0.856412 7.20251 0.539235C7.71468 0.222063 8.38693 0.0634766 9.2192 0.0634766C9.37925 0.0634766 9.57136 0.0634766 9.79543 0.0634766C10.0195 0.0634766 10.2436 0.0951938 10.4676 0.126911L9.18719 4.3136C7.7787 4.15502 6.78638 4.50389 6.21015 5.36027C5.98608 5.70915 5.85804 6.08979 5.82603 6.47039C5.76201 6.85099 5.76201 7.23158 5.76201 7.58051V15.7636Z" fill="#333132"/>
<path d="M27.5282 7.80245C27.5282 8.976 27.3041 10.0544 26.8879 11.0377C26.4718 12.0209 25.8956 12.8772 25.1594 13.575C24.4231 14.2728 23.5908 14.8437 22.6305 15.2561C21.6702 15.6684 20.6458 15.8587 19.5574 15.8587C18.4691 15.8587 17.4447 15.6684 16.4843 15.2561C15.524 14.8754 14.6917 14.3045 13.9554 13.575C13.2512 12.8455 12.675 11.9891 12.2589 11.0059C11.8427 10.0227 11.6187 8.91257 11.6187 7.7073C11.6187 6.75581 11.8107 5.80427 12.1948 4.88445C12.579 3.96467 13.1232 3.14002 13.8274 2.41052C14.5317 1.68102 15.3639 1.11011 16.3563 0.666066C17.3166 0.222021 18.405 0 19.5574 0C20.7098 0 21.7342 0.222021 22.7265 0.634345C23.6868 1.04667 24.5512 1.61758 25.2554 2.34708C25.9596 3.07658 26.5038 3.90123 26.92 4.82102C27.3361 5.80427 27.5282 6.78752 27.5282 7.80245ZM23.3667 7.96107C23.3667 7.42185 23.2707 6.88267 23.0466 6.40688C22.8546 5.93114 22.5664 5.51883 22.2143 5.16995C21.8622 4.82102 21.4461 4.53557 20.9979 4.34528C20.5498 4.15497 20.0696 4.05982 19.5574 4.05982C19.0132 4.05982 18.5331 4.15497 18.0529 4.377C17.6047 4.56729 17.1886 4.85274 16.8364 5.20166C16.4843 5.55054 16.2282 5.96285 16.0362 6.43864C15.8441 6.91439 15.7481 7.42185 15.7481 7.99279C15.7481 8.53197 15.8441 9.07115 16.0682 9.51522C16.2923 9.99097 16.5484 10.3716 16.9005 10.7204C17.2526 11.0694 17.6367 11.3231 18.0849 11.5451C18.5331 11.7354 19.0132 11.8623 19.4934 11.8623C20.0376 11.8623 20.5177 11.7671 20.9979 11.5451C21.4781 11.3231 21.8622 11.0377 22.2143 10.6887C22.5664 10.3398 22.8226 9.92753 23.0146 9.45179C23.2707 9.00771 23.3667 8.50025 23.3667 7.96107Z" fill="#333132"/>
<path d="M40.6209 0.158587H44.7184V14.59C44.7184 14.9389 44.7184 15.2561 44.7184 15.6049C44.7184 15.9221 44.6865 16.271 44.6222 16.6199C44.5584 16.9688 44.4302 17.286 44.2701 17.6348C44.1101 17.9838 43.854 18.3326 43.5339 18.6815C42.3495 20.0454 40.4288 20.7114 37.7399 20.7114C36.5875 20.7114 35.4351 20.5846 34.3147 20.3308C33.1943 20.0771 32.0419 19.7282 30.8895 19.2841L32.33 15.4781C33.0662 15.7635 33.8665 16.049 34.6668 16.3027C35.4671 16.5565 36.3954 16.6833 37.4198 16.6833C38.124 16.6833 38.7002 16.6199 39.1163 16.4613C39.5325 16.3344 39.8526 16.1124 40.0767 15.8587C40.3008 15.6049 40.4288 15.2878 40.4928 14.9071C40.5569 14.5265 40.5889 14.1142 40.5889 13.6702V11.45L39.5325 14.7803H37.2597C36.1714 14.7803 35.147 14.59 34.2507 14.2094C33.3224 13.8288 32.5221 13.2896 31.8498 12.6235C31.1776 11.9574 30.6334 11.1645 30.2813 10.2447C29.8971 9.32488 29.7051 8.34167 29.7051 7.29499C29.7051 6.34345 29.8971 5.42368 30.2493 4.53558C30.6014 3.64749 31.1136 2.88628 31.7538 2.22021C32.394 1.55415 33.1623 1.01496 34.0586 0.602629C34.9549 0.190304 35.9152 0 36.9716 0C37.6759 0 38.3161 0.0951523 38.8923 0.285456C39.4685 0.475759 40.0447 0.729499 40.5889 1.04667V0.158587H40.6209ZM40.6209 10.8156V8.08794C40.6209 6.75581 40.2687 5.77256 39.5965 5.10651C38.9243 4.44043 38.092 4.09154 37.1637 4.09154C36.6835 4.09154 36.2354 4.18669 35.8192 4.40871C35.4031 4.59901 35.051 4.88446 34.7629 5.20166C34.4747 5.51883 34.2507 5.89942 34.0906 6.31174C33.9306 6.72409 33.8665 7.10469 33.8665 7.517C33.8665 7.96108 33.9626 8.37339 34.1226 8.7857C34.2827 9.1663 34.5067 9.51522 34.8269 9.83239C35.147 10.1496 35.4991 10.3716 35.9472 10.5619C36.3634 10.7522 36.8756 10.8474 37.4198 10.8474H40.6209V10.8156Z" fill="#333132"/>
<path d="M59.4119 0.158629H63.5094V11.7354H65.1737L63.9576 15.7953H59.4119V12.2747L58.3554 15.7953H56.0189C54.8343 15.7953 53.8101 15.6367 52.9136 15.3512C52.0172 15.0658 51.1531 14.5266 50.3528 13.7971C49.5206 13.0359 48.8804 12.1478 48.4003 11.1328C47.9521 10.1179 47.6958 9.07122 47.6958 7.92939C47.6958 6.8827 47.8878 5.86773 48.3041 4.91624C48.7204 3.96471 49.2644 3.14006 49.9684 2.41056C50.6729 1.68106 51.5051 1.11015 52.4654 0.697825C53.4257 0.285498 54.4503 0.0634766 55.5387 0.0634766C56.339 0.0634766 57.043 0.190346 57.6194 0.412368C58.2277 0.634388 58.8036 0.951561 59.38 1.36389V0.158629H59.4119ZM59.4119 11.7354V8.3417C59.4119 7.64394 59.3157 7.00957 59.0918 6.47039C58.8998 5.93117 58.6116 5.48714 58.2596 5.13826C57.9076 4.78938 57.4913 4.5356 57.043 4.34532C56.5948 4.15502 56.0827 4.05986 55.5707 4.05986C55.0586 4.05986 54.5784 4.15502 54.1302 4.34532C53.682 4.5356 53.2976 4.82109 52.9456 5.16997C52.5935 5.51885 52.3373 5.93117 52.1453 6.40696C51.9533 6.8827 51.8571 7.42188 51.8571 7.99282C51.8571 8.46856 51.9533 8.94431 52.1453 9.38838C52.3373 9.83241 52.5935 10.2447 52.9775 10.5936C53.33 10.9425 53.7777 11.228 54.3222 11.4183C54.8662 11.6086 55.4745 11.7354 56.1789 11.7354H59.4119Z" fill="#333132"/>
<path d="M82.1734 15.7631H77.5958V6.94571C77.5958 5.99417 77.4038 5.29641 77.0194 4.85238C76.6355 4.40831 75.9633 4.18631 75.003 4.18631H72.2179V15.7631H68.1204V4.21802H66.4561L67.6403 0.158203H72.2179V3.61539L73.3063 0.158203H75.387C76.5393 0.158203 77.5638 0.285073 78.4279 0.570529C79.2925 0.855985 80.0608 1.4269 80.701 2.31498C81.1812 2.98105 81.4689 3.64711 81.5651 4.24974C81.6613 4.85238 81.6932 5.48671 81.6932 6.12108V11.735H83.3257L82.1734 15.7631Z" fill="#333132"/>
<path d="M94.5915 5.10654C93.8237 4.66251 93.1192 4.3136 92.447 4.09158C91.8068 3.86956 91.2624 3.74269 90.8465 3.74269C90.4945 3.74269 90.2063 3.83784 89.982 3.99642C89.79 4.15502 89.6619 4.40874 89.6619 4.69423C89.6619 5.01139 89.8862 5.29684 90.3664 5.58229C90.8146 5.86773 91.6149 6.21666 92.7671 6.62897C93.8237 7.04128 94.6239 7.61222 95.1679 8.3417C95.7123 9.07122 96.0001 9.99099 96.0001 11.0377C96.0001 11.6086 95.8724 12.1795 95.5842 12.7504C95.296 13.3213 94.944 13.8288 94.4315 14.2728C93.9513 14.7169 93.3435 15.0658 92.6709 15.3512C91.9988 15.6367 91.1986 15.7636 90.3664 15.7636C89.1817 15.7636 88.1576 15.6367 87.2931 15.3512C86.429 15.0658 85.5644 14.7486 84.7642 14.3363L85.8526 10.4351C86.6528 10.9108 87.4855 11.2914 88.3496 11.5769C89.2141 11.8306 89.9182 11.9892 90.4945 11.9892C90.9104 11.9892 91.2305 11.8941 91.4867 11.7354C91.7426 11.5769 91.8707 11.3231 91.8707 10.9742C91.8707 10.7522 91.7749 10.5619 91.6149 10.4033C91.4548 10.2447 91.2305 10.1179 91.0066 9.99099C90.3021 9.70555 89.63 9.45182 88.9578 9.16637C88.3176 8.88088 87.7094 8.56371 87.2292 8.18312C86.7171 7.80252 86.3328 7.35845 86.0126 6.81927C85.6925 6.28009 85.5325 5.614 85.5325 4.78938C85.5325 4.15502 85.6606 3.55238 85.9169 2.98147C86.1727 2.41056 86.5252 1.90308 86.973 1.45904C87.4212 1.015 87.9656 0.666105 88.6058 0.412368C89.246 0.158629 89.9501 0.0634766 90.7503 0.0634766C91.7106 0.0634766 92.6071 0.190346 93.4073 0.444086C94.2076 0.697826 95.0079 0.983282 95.7762 1.30045L94.5915 5.10654Z" fill="#333132"/>
</svg>
