<svg width="16" height="16" viewBox="0 0 16 16" fill="none" xmlns="http://www.w3.org/2000/svg">
<path d="M13.3334 4.66659V11.3333C13.3334 13.9999 12.6667 14.6666 10 14.6666H6.00002C3.33335 14.6666 2.66669 13.9999 2.66669 11.3333V4.66659C2.66669 1.99992 3.33335 1.33325 6.00002 1.33325H10C12.6667 1.33325 13.3334 1.99992 13.3334 4.66659Z" stroke="#404040" stroke-linecap="round" stroke-linejoin="round"/>
<path d="M9.33341 3.66675H6.66675" stroke="#404040" stroke-linecap="round" stroke-linejoin="round"/>
<path d="M8.00001 12.7334C8.5707 12.7334 9.03334 12.2708 9.03334 11.7001C9.03334 11.1294 8.5707 10.6667 8.00001 10.6667C7.42931 10.6667 6.96667 11.1294 6.96667 11.7001C6.96667 12.2708 7.42931 12.7334 8.00001 12.7334Z" stroke="#404040" stroke-linecap="round" stroke-linejoin="round"/>
</svg>
