<?xml version="1.0" encoding="UTF-8"?>
<svg version="1.1" xmlns="http://www.w3.org/2000/svg" width="512" height="512">
<path d="M0 0 C168.96 0 337.92 0 512 0 C512 168.96 512 337.92 512 512 C343.04 512 174.08 512 0 512 C0 343.04 0 174.08 0 0 Z " fill="#0052B3" transform="translate(0,0)"/>
<path d="M0 0 C168.96 0 337.92 0 512 0 C512 31.68 512 63.36 512 96 C343.04 96 174.08 96 0 96 C0 64.32 0 32.64 0 0 Z " fill="#0052B3" transform="translate(0,416)"/>
<path d="M0 0 C168.96 0 337.92 0 512 0 C512 21.12 512 42.24 512 64 C343.04 64 174.08 64 0 64 C0 42.88 0 21.76 0 0 Z " fill="#FEDA47" transform="translate(0,352)"/>
<path d="M0 0 C2.97127355 2.48861944 3.8412115 4.88599395 4.97265625 8.55078125 C5.31490234 9.64197266 5.65714844 10.73316406 6.00976562 11.85742188 C6.35716797 12.99759766 6.70457031 14.13777344 7.0625 15.3125 C7.76160892 17.55862794 8.46082432 19.80472274 9.16015625 22.05078125 C9.46574463 23.04762939 9.77133301 24.04447754 10.08618164 25.0715332 C11.01873737 28.06004668 12.01000642 31.03001925 13 34 C25.21 34.33 37.42 34.66 50 35 C46.8017864 38.1982136 44.31088782 40.66952285 40.75 43.19140625 C39.9765625 43.74376953 39.203125 44.29613281 38.40625 44.86523438 C37.6121875 45.42533203 36.818125 45.98542969 36 46.5625 C34.41582799 47.68762216 32.83247231 48.81389473 31.25 49.94140625 C30.14205078 50.72862061 30.14205078 50.72862061 29.01171875 51.53173828 C27.32002999 52.76642471 25.68371811 54.07648053 24.0625 55.40234375 C22 57 22 57 20 57 C20.33845947 57.94842773 20.67691895 58.89685547 21.02563477 59.87402344 C22.27943148 63.39630589 23.51912702 66.92341495 24.75463867 70.45214844 C25.29117073 71.97824084 25.83150951 73.50300049 26.37573242 75.02636719 C27.15769858 77.21730067 27.92581387 79.41267478 28.69140625 81.609375 C28.93717911 82.2886908 29.18295197 82.96800659 29.43617249 83.66790771 C30.6164115 87.09853459 31.44269412 89.55590264 30 93 C29.26064209 92.46427368 29.26064209 92.46427368 28.50634766 91.91772461 C27.81589355 91.41764893 27.12543945 90.91757324 26.4140625 90.40234375 C25.27167114 89.57488647 25.27167114 89.57488647 24.10620117 88.73071289 C22.44938047 87.53329598 20.79067896 86.33847725 19.13012695 85.14624023 C12.04165057 80.05670162 12.04165057 80.05670162 8.75390625 77.5078125 C7.90699219 76.86585938 7.06007812 76.22390625 6.1875 75.5625 C5.47980469 75.00691406 4.77210938 74.45132813 4.04296875 73.87890625 C2.01727438 72.77746945 2.01727438 72.77746945 -0.21484375 73.44921875 C-4.30346463 75.72577203 -7.99656834 78.46298347 -11.75 81.25 C-17.73463711 85.66240194 -23.77692605 89.9289338 -30 94 C-28.32943486 85.54994562 -25.56192311 77.62825598 -22.65820312 69.53125 C-22.30306641 68.50515625 -21.94792969 67.4790625 -21.58203125 66.421875 C-21.25436768 65.49987305 -20.9267041 64.57787109 -20.58911133 63.62792969 C-19.9140567 60.61662094 -19.97604812 58.90722735 -21 56 C-22.5850472 54.26704942 -22.5850472 54.26704942 -24.68359375 52.9140625 C-25.44236816 52.3787793 -26.20114258 51.84349609 -26.98291016 51.29199219 C-27.7929248 50.74188477 -28.60293945 50.19177734 -29.4375 49.625 C-30.2526709 49.05426758 -31.0678418 48.48353516 -31.90771484 47.89550781 C-34.26268464 46.24997911 -36.62932111 44.62278305 -39 43 C-41.04423783 41.58698266 -43.08487588 40.16896079 -45.125 38.75 C-45.89070313 38.22921875 -46.65640625 37.7084375 -47.4453125 37.171875 C-47.95835938 36.78515625 -48.47140625 36.3984375 -49 36 C-49 35.67 -49 35.34 -49 35 C-36.46 35 -23.92 35 -11 35 C-9.515 29.555 -9.515 29.555 -8 24 C-7.34132462 21.88484871 -6.66453757 19.77510329 -5.95703125 17.67578125 C-5.60576172 16.62841797 -5.25449219 15.58105469 -4.89257812 14.50195312 C-4.53615234 13.44943359 -4.17972656 12.39691406 -3.8125 11.3125 C-3.44447266 10.21744141 -3.07644531 9.12238281 -2.69726562 7.99414062 C-1.80095124 5.32847837 -0.90182617 2.6638015 0 0 Z " fill="#ECEFF1" transform="translate(150,162)"/>
<path d="M0 0 C0.66 0 1.32 0 2 0 C3.00486895 2.95670218 4.00306024 5.91561577 5 8.875 C5.28617188 9.71675781 5.57234375 10.55851563 5.8671875 11.42578125 C6.13789062 12.23144531 6.40859375 13.03710938 6.6875 13.8671875 C6.93886719 14.61081543 7.19023438 15.35444336 7.44921875 16.12060547 C8 18 8 18 8 20 C15.59 20 23.18 20 31 20 C26.5 24.5 26.5 24.5 23.765625 26.359375 C23.19199219 26.75253906 22.61835937 27.14570313 22.02734375 27.55078125 C21.44082031 27.94652344 20.85429688 28.34226563 20.25 28.75 C19.64800781 29.16121094 19.04601562 29.57242188 18.42578125 29.99609375 C16.95313343 31.00123432 15.47692498 32.00115478 14 33 C14.75444259 38.37740996 16.38511176 43.11964773 18.2578125 48.1953125 C19 51 19 51 18 55 C12.72 51.04 7.44 47.08 2 43 C-0.78358534 44.39179267 -2.9859053 45.60093161 -5.453125 47.3828125 C-6.071875 47.82753906 -6.690625 48.27226562 -7.328125 48.73046875 C-7.96234375 49.19066406 -8.5965625 49.65085938 -9.25 50.125 C-9.8996875 50.59292969 -10.549375 51.06085938 -11.21875 51.54296875 C-12.81435483 52.69274282 -14.40743025 53.84602566 -16 55 C-17.34207453 50.97377641 -15.96181573 48.3731692 -14.5625 44.5625 C-13.11280145 40.57486766 -12 37.32075192 -12 33 C-13.56449733 31.35931237 -13.56449733 31.35931237 -15.71875 30.01953125 C-16.48574219 29.49552734 -17.25273438 28.97152344 -18.04296875 28.43164062 C-18.85378906 27.89732422 -19.66460937 27.36300781 -20.5 26.8125 C-22.09549657 25.73826662 -23.68934677 24.66158243 -25.28125 23.58203125 C-25.99345703 23.10999268 -26.70566406 22.6379541 -27.43945312 22.15161133 C-28.21192383 21.58156372 -28.21192383 21.58156372 -29 21 C-29 20.67 -29 20.34 -29 20 C-21.41 20 -13.82 20 -6 20 C-5.01 16.37 -4.02 12.74 -3 9 C-2.02041136 5.98867196 -1.04061016 2.98898662 0 0 Z " fill="#E8EDF2" transform="translate(84,124)"/>
<path d="M0 0 C0.66 0 1.32 0 2 0 C2 0.66 2 1.32 2 2 C2.66 2 3.32 2 4 2 C5 5 5 5 4 9 C15.88 9 27.76 9 40 9 C40.495 9.99 40.495 9.99 41 11 C28.79 11 16.58 11 4 11 C0 2 0 2 0 0 Z " fill="#0C519E" transform="translate(159,186)"/>
<path d="M0 0 C3.08555832 1.54277916 3.28513794 4.13587801 4.35742188 7.29101562 C4.63134766 8.12310547 4.90527344 8.95519531 5.1875 9.8125 C5.47302734 10.63298828 5.75855469 11.45347656 6.05273438 12.29882812 C6.45008789 13.49088867 6.45008789 13.49088867 6.85546875 14.70703125 C7.09934326 15.4338208 7.34321777 16.16061035 7.59448242 16.90942383 C8 19 8 19 7 23 C3.37 20.36 -0.26 17.72 -4 15 C-3.67 14.01 -3.34 13.02 -3 12 C-1.02 12 0.96 12 3 12 C2.7834375 11.46890625 2.566875 10.9378125 2.34375 10.390625 C2.0653125 9.68421875 1.786875 8.9778125 1.5 8.25 C1.2215625 7.55390625 0.943125 6.8578125 0.65625 6.140625 C0 4 0 4 0 0 Z " fill="#DEECF5" transform="translate(173,232)"/>
<path d="M0 0 C1.7743383 6.35057217 -0.25316047 13.11391529 -3 19 C-1.68 19 -0.36 19 1 19 C1 18.01 1 17.02 1 16 C2.65 16 4.3 16 6 16 C1.85989729 20.54075781 -2.82390176 23.71842138 -8 27 C-6.68764148 20.63569826 -4.98780585 14.57878972 -2.875 8.4375 C-2.59785156 7.61958984 -2.32070312 6.80167969 -2.03515625 5.95898438 C-1.36094863 3.97123432 -0.68107796 1.98540651 0 0 Z " fill="#C9E0F3" transform="translate(128,229)"/>
<path d="M0 0 C18.81 0.495 18.81 0.495 38 1 C36.35 2.65 34.7 4.3 33 6 C32.34 6 31.68 6 31 6 C30.67 5.34 30.34 4.68 30 4 C20.43 3.67 10.86 3.34 1 3 C0.67 2.01 0.34 1.02 0 0 Z " fill="#D0EDFD" transform="translate(162,196)"/>
<path d="M0 0 C0.66 0 1.32 0 2 0 C1.34 2.31 0.68 4.62 0 7 C-12.54 7 -25.08 7 -38 7 C-37.67 6.34 -37.34 5.68 -37 5 C-24.79 4.67 -12.58 4.34 0 4 C0 2.68 0 1.36 0 0 Z " fill="#0B509C" transform="translate(139,190)"/>
<path d="M0 0 C7.59 0 15.18 0 23 0 C20.01439924 2.98560076 17.69975383 5.01780635 14.25 7.25 C13.45078125 7.77078125 12.6515625 8.2915625 11.828125 8.828125 C10.92320313 9.40820312 10.92320313 9.40820312 10 10 C10 9.01 10 8.02 10 7 C10.66 6.67 11.32 6.34 12 6 C12 4.68 12 3.36 12 2 C8.04 1.67 4.08 1.34 0 1 C0 0.67 0 0.34 0 0 Z " fill="#C4DCF4" transform="translate(92,144)"/>
<path d="M0 0 C0.33 0.66 0.66 1.32 1 2 C1.99 1.67 2.98 1.34 4 1 C7.34821429 7.96428571 7.34821429 7.96428571 6 12 C4.66102417 11.04956626 3.32894573 10.08940853 2 9.125 C1.2575 8.59132812 0.515 8.05765625 -0.25 7.5078125 C-0.8275 7.01023438 -1.405 6.51265625 -2 6 C-2 5.34 -2 4.68 -2 4 C-1.34 4 -0.68 4 0 4 C0 2.68 0 1.36 0 0 Z " fill="#E7F0FA" transform="translate(96,167)"/>
<path d="M0 0 C0.66 0.33 1.32 0.66 2 1 C-3.75 6 -3.75 6 -6 6 C-6.33 6.99 -6.66 7.98 -7 9 C-8.65204456 9.70211894 -10.31923769 10.36971413 -12 11 C-12.33 11.66 -12.66 12.32 -13 13 C-13.66 13 -14.32 13 -15 13 C-14.67 15.31 -14.34 17.62 -14 20 C-16 17 -16 17 -17 12 C-8.585 6.06 -8.585 6.06 0 0 Z " fill="#1A5DA6" transform="translate(187,207)"/>
<path d="M0 0 C0.495 1.98 0.495 1.98 1 4 C-2.22603545 5.61301773 -5.74710038 5.12053599 -9.2890625 5.09765625 C-10.51669815 5.09553383 -10.51669815 5.09553383 -11.76913452 5.09336853 C-14.38779325 5.0877629 -17.00636704 5.07520948 -19.625 5.0625 C-21.39843627 5.05748572 -23.17187387 5.05292269 -24.9453125 5.04882812 C-29.29690782 5.03779164 -33.6484395 5.02052325 -38 5 C-38.33 4.34 -38.66 3.68 -39 3 C-26.46 3 -13.92 3 -1 3 C-0.67 2.01 -0.34 1.02 0 0 Z " fill="#C1E8FC" transform="translate(140,194)"/>
<path d="M0 0 C11.55 0 23.1 0 35 0 C35 0.33 35 0.66 35 1 C25.1 1.33 15.2 1.66 5 2 C4.67 2.99 4.34 3.98 4 5 C2 3.625 2 3.625 0 2 C0 1.34 0 0.68 0 0 Z " fill="#DDEEFC" transform="translate(104,198)"/>
<path d="M0 0 C0.33 0 0.66 0 1 0 C1 1.98 1 3.96 1 6 C2.98 5.67 4.96 5.34 7 5 C3.80331012 7.6486859 0.60513403 9.93992341 -3 12 C-2.68950274 10.56206608 -2.3765224 9.1246682 -2.0625 7.6875 C-1.88847656 6.88699219 -1.71445313 6.08648437 -1.53515625 5.26171875 C-1 3 -1 3 0 0 Z " fill="#C0E0F7" transform="translate(70,167)"/>
<path d="M0 0 C0.66 0 1.32 0 2 0 C2.66 2.64 3.32 5.28 4 8 C3.01 7.34 2.02 6.68 1 6 C0.01 8.64 -0.98 11.28 -2 14 C-2.66 14 -3.32 14 -4 14 C-3.52188823 12.22888156 -3.0424722 10.45811517 -2.5625 8.6875 C-2.29566406 7.70136719 -2.02882813 6.71523437 -1.75390625 5.69921875 C-1.21920575 3.78482474 -0.62855462 1.88566385 0 0 Z " fill="#C4DDF2" transform="translate(84,124)"/>
<path d="M0 0 C1.5625 1.25 1.5625 1.25 3 3 C2.6875 5.1875 2.6875 5.1875 2 7 C1.34 6.67 0.68 6.34 0 6 C-0.33 8.31 -0.66 10.62 -1 13 C-1.99 13.33 -2.98 13.66 -4 14 C-3.52372025 12.04096255 -3.04388577 10.08278903 -2.5625 8.125 C-2.29566406 7.03445312 -2.02882812 5.94390625 -1.75390625 4.8203125 C-1 2 -1 2 0 0 Z " fill="#C3E0F5" transform="translate(150,162)"/>
<path d="M0 0 C7.57142857 1.85714286 7.57142857 1.85714286 10 5 C10.33 4.01 10.66 3.02 11 2 C11.33 4.31 11.66 6.62 12 9 C7.18966896 6.45335415 3.67557852 4.00972202 0 0 Z " fill="#C6E0F7" transform="translate(169,246)"/>
<path d="M0 0 C0.99 0 1.98 0 3 0 C3.19622241 4.21878192 2.80230168 7.17010894 1 11 C0.34 10.67 -0.32 10.34 -1 10 C-0.67 6.7 -0.34 3.4 0 0 Z " fill="#CAE3F4" transform="translate(130,218)"/>
<path d="M0 0 C0.33 0.99 0.66 1.98 1 3 C1.66 3.33 2.32 3.66 3 4 C1.02 5.32 -0.96 6.64 -3 8 C-2.25 2.25 -2.25 2.25 0 0 Z " fill="#B8DDF6" transform="translate(123,248)"/>
<path d="M0 0 C0.66 0.33 1.32 0.66 2 1 C2.625 3.5625 2.625 3.5625 3 6 C0.525 7.485 0.525 7.485 -2 9 C-1.34 6.03 -0.68 3.06 0 0 Z " fill="#DAE3F8" transform="translate(73,157)"/>
<path d="M0 0 C0.66 0 1.32 0 2 0 C2 0.66 2 1.32 2 2 C2.66 2 3.32 2 4 2 C4.33 2.99 4.66 3.98 5 5 C4.34 6.32 3.68 7.64 3 9 C2.01 6.03 1.02 3.06 0 0 Z " fill="#175FA6" transform="translate(159,186)"/>
<path d="M0 0 C1.88391785 3.26545761 2.49287967 6.28111761 3 10 C1.35 9.01 -0.3 8.02 -2 7 C-1.34 6.34 -0.68 5.68 0 5 C0.16687448 2.41645782 0.16687448 2.41645782 0 0 Z " fill="#B2D5F7" transform="translate(100,169)"/>
<path d="M0 0 C2.38564077 0.57584432 4.66682784 1.22227595 7 2 C7.6875 4.0625 7.6875 4.0625 8 6 C1.125 2.25 1.125 2.25 0 0 Z " fill="#D1E8FB" transform="translate(118,209)"/>
<path d="M0 0 C0.66 0 1.32 0 2 0 C2.66 2.64 3.32 5.28 4 8 C2 6.8125 2 6.8125 0 5 C-0.25 2.3125 -0.25 2.3125 0 0 Z " fill="#CBE7FB" transform="translate(84,124)"/>
</svg>
