<?xml version="1.0" encoding="UTF-8"?>
<svg version="1.1" xmlns="http://www.w3.org/2000/svg" width="512" height="512">
<path d="M0 0 C0.96494385 0.00021149 1.9298877 0.00042297 2.92407227 0.00064087 C18.83060339 0.0353275 34.08622663 1.04865983 49.6875 4.375 C51.01297852 4.64787842 51.01297852 4.64787842 52.36523438 4.92626953 C88.93947987 12.64826589 124.07618086 29.2875115 152.6875 53.375 C153.2654834 53.85291992 153.8434668 54.33083984 154.43896484 54.82324219 C166.75809006 65.01027568 177.78122706 75.80093604 187.6875 88.375 C188.66783203 89.55449219 188.66783203 89.55449219 189.66796875 90.7578125 C220.43364317 127.97138276 240.50585855 178.96677398 240.92578125 227.3671875 C240.93562042 228.30255341 240.94545959 229.23791931 240.95559692 230.20162964 C241.12554701 250.5571017 241.16817332 270.41300531 236.6875 290.375 C236.45144043 291.43944336 236.21538086 292.50388672 235.97216797 293.60058594 C228.95197062 324.170807 216.23143485 353.97819746 197.6875 379.375 C197.28853516 379.92269043 196.88957031 380.47038086 196.47851562 381.03466797 C183.76525067 398.31836192 169.56132417 414.08123051 152.6875 427.375 C151.50800781 428.35533203 151.50800781 428.35533203 150.3046875 429.35546875 C112.8181691 460.34679832 61.74667507 480.16590933 13.03515625 480.61328125 C12.14555206 480.6230751 11.25594788 480.63286896 10.33938599 480.64295959 C-9.53802841 480.81669696 -28.80196348 480.64211801 -48.3125 476.375 C-49.29863281 476.16069336 -50.28476563 475.94638672 -51.30078125 475.72558594 C-99.98378754 464.76712417 -148.26603564 438.34058735 -180.3125 399.375 C-181.0446875 398.53066406 -181.776875 397.68632812 -182.53125 396.81640625 C-210.36376864 364.35981411 -228.44097917 325.33356212 -236.3125 283.375 C-236.47621094 282.53372559 -236.63992187 281.69245117 -236.80859375 280.82568359 C-247.83980882 221.71523673 -233.52569831 156.07241156 -199.74609375 106.57421875 C-192.94650495 96.81209982 -185.55918895 87.60132942 -177.53515625 78.8203125 C-175.40201605 76.47348338 -173.32617927 74.08465414 -171.25 71.6875 C-168.24098796 68.30751387 -165.12349042 65.26884263 -161.66015625 62.359375 C-159.88872184 60.86205607 -158.15218241 59.32331459 -156.43359375 57.765625 C-123.77206484 28.38613784 -80.60955155 8.96120728 -37.3125 2.375 C-36.19238525 2.19984863 -35.07227051 2.02469727 -33.91821289 1.84423828 C-22.60784949 0.24022571 -11.41258657 -0.02315746 0 0 Z " fill="#F0C310" transform="translate(255.3125,15.625)"/>
<path d="M0 0 C4.91364308 4.12237882 9.54472218 8.40313914 14.06785583 12.94760132 C15.08138118 13.95984502 15.08138118 13.95984502 16.11538178 14.99253809 C18.36242167 17.23794041 20.60588591 19.48688044 22.84936523 21.73583984 C24.46592586 23.35268274 26.0827071 24.96930507 27.69969177 26.58572388 C32.07741245 30.96315813 36.4520472 35.34366456 40.82612872 39.72473478 C45.40207383 44.30693924 49.98085876 48.8863042 54.55934143 53.4659729 C62.23998571 61.14937022 69.91888274 68.8345097 77.59643555 76.52099609 C85.50183436 84.435584 93.40829029 92.34911343 101.31616211 100.26123047 C101.80419032 100.7495214 102.29221853 101.23781234 102.79503547 101.74089997 C105.24351148 104.19068108 107.6920082 106.64044148 110.14051521 109.0901916 C130.4302218 129.3902528 150.71626442 149.69397269 171 170 C169.34788099 173.52448977 167.44712319 175.73257462 164.625 178.4375 C161.49908077 181.48851701 158.68376459 184.54944553 156 188 C154.34501895 189.67827092 152.67606248 191.34278242 151 193 C150.02379746 193.97487033 149.04828982 194.95043689 148.07339001 195.92660999 C75.536695 268.463305 75.536695 268.463305 3 341 C-23.85885759 328.52387848 -45.10581752 279.84288631 -55 254 C-59.15740134 242.44077855 -62.2511705 230.63129199 -64.8125 218.625 C-65.00755127 217.71177979 -65.20260254 216.79855957 -65.40356445 215.85766602 C-68.44300615 200.72213126 -69.38109473 185.77561657 -69.3125 170.375 C-69.30926727 169.06122879 -69.30926727 169.06122879 -69.30596924 167.72091675 C-69.07210887 108.31835566 -47.05843056 52.15297574 -7.0546875 8.2734375 C-4.61899342 5.57842999 -2.29589529 2.81432325 0 0 Z " fill="#E22D3D" transform="translate(85,86)"/>
<path d="M0 0 C0.96494385 0.00021149 1.9298877 0.00042297 2.92407227 0.00064087 C18.83060339 0.0353275 34.08622663 1.04865983 49.6875 4.375 C50.57115234 4.55691895 51.45480469 4.73883789 52.36523438 4.92626953 C88.93947987 12.64826589 124.07618086 29.2875115 152.6875 53.375 C153.2654834 53.85291992 153.8434668 54.33083984 154.43896484 54.82324219 C166.75809006 65.01027568 177.78122706 75.80093604 187.6875 88.375 C188.66783203 89.55449219 188.66783203 89.55449219 189.66796875 90.7578125 C221.02284373 128.68406846 241.13638079 180.62936696 240.75 229.9375 C240.74548828 231.04158203 240.74097656 232.14566406 240.73632812 233.28320312 C240.7246514 235.980527 240.70827525 238.67773347 240.6875 241.375 C239.28564453 240.66537109 239.28564453 240.66537109 237.85546875 239.94140625 C231.22769206 236.60054788 224.58663332 233.30481869 217.86164868 230.16329628 C210.82220039 226.87012339 203.87384491 223.47163121 197.01956177 219.80775452 C185.99858468 213.9662411 174.84868006 208.39250876 163.68701172 202.82592773 C161.44572113 201.70624465 159.20452309 200.58637629 156.96340942 199.46633911 C152.17724089 197.0748226 147.39047984 194.68449851 142.60317612 192.29525566 C135.6632249 188.8316235 128.72461713 185.36530672 121.78634728 181.89830793 C110.49873456 176.25801833 99.21037488 170.61922558 87.92138672 164.98168945 C87.24874913 164.64578456 86.57611154 164.30987967 85.88309099 163.96379585 C81.10958069 161.57999045 76.33604332 159.19623927 71.5625 156.8125 C66.10593799 154.0876846 60.64938875 151.36284365 55.19287109 148.63793945 C54.52046571 148.30215083 53.84806033 147.9663622 53.15527903 147.62039816 C41.90008151 141.99966809 30.64568538 136.37733521 19.39184773 130.75388294 C12.47948725 127.29992749 5.56642551 123.84738329 -1.34758781 120.39673758 C-6.65418012 117.74819483 -11.95972638 115.09756144 -17.26491165 112.44620132 C-19.42470693 111.36723203 -21.58484472 110.28894801 -23.74536896 109.21143913 C-34.20257889 103.99573038 -44.6354389 98.75134823 -54.93625462 93.23163742 C-60.11119681 90.45875774 -65.35899228 87.89866156 -70.6875 85.4375 C-78.40964108 81.81571812 -85.98629319 77.9849742 -93.51489258 73.97802734 C-100.2265858 70.40656505 -107.00502062 66.99016811 -113.81689453 63.61474609 C-118.71846366 61.17978542 -123.61146385 58.72762998 -128.506073 56.27871704 C-131.39962651 54.83113371 -134.29358107 53.38435263 -137.1875 51.9375 C-138.89583333 51.08333333 -140.60416667 50.22916667 -142.3125 49.375 C-142.3125 48.385 -142.3125 47.395 -142.3125 46.375 C-140.94580078 45.09155273 -140.94580078 45.09155273 -139.0078125 43.80859375 C-138.28891846 43.32825684 -137.57002441 42.84791992 -136.8293457 42.35302734 C-136.04003662 41.84465332 -135.25072754 41.3362793 -134.4375 40.8125 C-133.21389771 40.01513428 -133.21389771 40.01513428 -131.96557617 39.20166016 C-103.18270819 20.66973189 -71.27707429 7.54158106 -37.3125 2.375 C-36.19238525 2.19984863 -35.07227051 2.02469727 -33.91821289 1.84423828 C-22.60784949 0.24022571 -11.41258657 -0.02315746 0 0 Z " fill="#26AD60" transform="translate(255.3125,15.625)"/>
<path d="M0 0 C1.86280503 48.27769691 -14.5497342 98.03600512 -43 137 C-43.39896484 137.54769043 -43.79792969 138.09538086 -44.20898438 138.65966797 C-56.92224933 155.94336192 -71.12617583 171.70623051 -88 185 C-88.78632813 185.65355469 -89.57265625 186.30710937 -90.3828125 186.98046875 C-127.8693309 217.97179832 -178.94082493 237.79090933 -227.65234375 238.23828125 C-228.98675003 238.25297203 -228.98675003 238.25297203 -230.34811401 238.26795959 C-250.22552841 238.44169696 -269.48946348 238.26711801 -289 234 C-289.98613281 233.78569336 -290.97226562 233.57138672 -291.98828125 233.35058594 C-323.67379996 226.21822966 -357.06210241 213.36492396 -382 192 C-378.34025143 188.97073574 -374.28393105 187.00681127 -370.05406189 184.91014099 C-368.84397826 184.30434671 -368.84397826 184.30434671 -367.60944849 183.68631417 C-364.90419548 182.33321118 -362.196124 180.98584896 -359.48803711 179.63842773 C-357.54768201 178.66935086 -355.60750591 177.6999155 -353.66749573 176.73014832 C-349.48570333 174.6407199 -345.30265932 172.55382593 -341.11863518 170.46887016 C-334.48669808 167.16404649 -327.85760918 163.853538 -321.22889709 160.54225159 C-310.72400949 155.29550359 -300.21726355 150.05248881 -289.70970017 144.81110197 C-288.51327375 144.21429926 -287.31684781 143.61749558 -286.12042236 143.02069092 C-285.52765962 142.72500721 -284.93489688 142.4293235 -284.32417163 142.12467968 C-267.3579096 133.66132098 -250.3940359 125.19317583 -233.43159109 116.72216946 C-226.85968222 113.44038825 -220.28665668 110.16085799 -213.71268833 106.88320434 C-209.59321514 104.82884609 -205.47459121 102.77278947 -201.35616112 100.71634102 C-199.46652357 99.77323603 -197.57653886 98.83082618 -195.68615341 97.88922119 C-185.67892719 92.90415761 -175.72764314 87.83443501 -165.84796572 82.60085052 C-158.91545567 78.93539486 -151.91612833 75.41608973 -144.8888061 71.93667984 C-141.8186875 70.41417406 -138.75547249 68.87792875 -135.69178772 67.3425293 C-134.46417941 66.72792686 -133.23654333 66.11337988 -132.00888062 65.49888611 C-131.38517452 65.18664534 -130.76146843 64.87440456 -130.11886215 64.55270195 C-115.47836583 57.22342447 -100.83656733 49.89675066 -86.19420719 42.57119751 C-77.75075824 38.34688164 -69.30769494 34.12179813 -60.86547852 29.89501953 C-53.45974511 26.18718169 -46.05331815 22.48073362 -38.64604276 18.77597713 C-34.7350143 16.81981054 -30.82434254 14.86293823 -26.91450691 12.90438843 C-23.25366808 11.07059331 -19.5919108 9.238646 -15.92941856 7.40815544 C-14.58298821 6.73480206 -13.23690371 6.06075664 -11.89118195 5.38598824 C-10.0628581 4.46936015 -8.23319766 3.55539947 -6.40345764 2.64160156 C-5.3780037 2.1284137 -4.35254976 1.61522583 -3.29602146 1.08648682 C-1 0 -1 0 0 0 Z " fill="#26AD60" transform="translate(496,258)"/>
<path d="M0 0 C2.95682754 0.87971055 5.51868165 2.05253474 8.26953125 3.45043945 C9.34452881 3.99273193 10.41952637 4.53502441 11.52709961 5.09375 C12.66284424 5.67423096 13.79858887 6.25471191 14.96875 6.8527832 C17.33070636 8.04814077 19.69268545 9.24345343 22.0546875 10.4387207 C23.19518555 11.01847656 24.33568359 11.59823242 25.51074219 12.19555664 C28.74189035 13.83370161 31.98356123 15.44884365 35.23046875 17.05541992 C41.53382484 20.17571333 47.75926618 23.424893 53.96875 26.7277832 C61.01870224 30.47505511 68.15456402 33.96362603 75.39277756 37.33065897 C80.78419533 39.85712685 86.06293802 42.54216501 91.31246948 45.34971619 C102.33697069 51.19466873 113.49084569 56.77066771 124.65673828 62.33935547 C126.89802887 63.45903856 129.13922691 64.57890692 131.38034058 65.69894409 C136.16650911 68.09046061 140.95327016 70.48078469 145.74057388 72.87002754 C152.6805251 76.3336597 159.61913287 79.79997648 166.55740272 83.26697528 C177.84501544 88.90726487 189.13337512 94.54605763 200.42236328 100.18359375 C201.09500087 100.51949864 201.76763846 100.85540353 202.46065901 101.20148735 C207.23416931 103.58529276 212.00770668 105.96904393 216.78125 108.3527832 C222.23781201 111.0775986 227.69436125 113.80243955 233.15087891 116.52734375 C233.82328429 116.86313238 234.49568967 117.19892101 235.18847097 117.54488505 C246.44366849 123.16561511 257.69806462 128.78794799 268.95190227 134.41140026 C275.86426275 137.86535571 282.77732449 141.31789991 289.69133781 144.76854562 C294.99793012 147.41708837 300.30347638 150.06772177 305.60866165 152.71908188 C307.76845693 153.79805117 309.92859472 154.8763352 312.08911896 155.95384407 C322.52522942 161.15902911 332.93815416 166.3909037 343.21683323 171.90206009 C348.90294622 174.9495903 354.68615998 177.75090716 360.53125 180.4777832 C368.0593957 183.99614574 375.40058304 187.73699021 382.65625 191.7902832 C382.65625 192.7802832 382.65625 193.7702832 382.65625 194.7902832 C251.65847778 260.28916931 251.65847778 260.28916931 249.7992382 261.21872807 C248.59043908 261.82316799 247.38170411 262.42773623 246.17303658 263.03243923 C242.93043666 264.65450815 239.68640279 266.27363557 236.44061279 267.88931274 C235.73243093 268.24227574 235.02424908 268.59523874 234.29460716 268.95889759 C232.94626536 269.63087166 231.59753362 270.30206419 230.24831581 270.97227764 C225.84239462 273.169522 221.49145028 275.45696754 217.15625 277.7902832 C212.27591866 280.41611445 207.36641309 282.96744318 202.40258789 285.43273926 C200.98566559 286.13886747 199.56876594 286.84504111 198.15188599 287.55125427 C197.41553547 287.91785849 196.67918495 288.2844627 195.92052078 288.66217613 C192.09253211 290.56936017 188.26802924 292.48350989 184.44311523 294.39685059 C182.78907901 295.22390998 181.13502581 296.05093541 179.48095703 296.87792969 C178.19986053 297.51847794 178.19986053 297.51847794 176.8928833 298.17196655 C89.27456665 341.98112488 89.27456665 341.98112488 1.65625 385.7902832 C-2.28520377 383.18806584 -6.04935551 380.51546792 -9.71875 377.5402832 C-10.59273438 376.83387695 -11.46671875 376.1274707 -12.3671875 375.3996582 C-13.01945312 374.86856445 -13.67171875 374.3374707 -14.34375 373.7902832 C-11.60446122 370.48073356 -7.94507395 368.92676423 -4.15625 367.1027832 C-2.70434838 366.39070407 -1.25252768 365.67845992 0.19921875 364.96606445 C0.94091309 364.60464355 1.68260742 364.24322266 2.44677734 363.87084961 C5.86169254 362.20074854 9.25845262 360.49486242 12.65625 358.7902832 C13.98948551 358.12342094 15.32281917 357.45675485 16.65625 356.7902832 C17.31625 356.4602832 17.97625 356.1302832 18.65625 355.7902832 C202.2578125 263.98950195 202.2578125 263.98950195 205.51219177 262.36238098 C207.63308426 261.30188932 209.75390453 260.24125323 211.87464905 259.1804657 C216.41402643 256.9100647 220.95396395 254.64085551 225.49780273 252.37939453 C231.95309745 249.16494064 238.38284276 245.92323132 244.71875 242.4777832 C253.38414029 237.82873907 262.25455788 233.63438958 271.13671875 229.41918945 C281.20948049 224.63536029 291.13995925 219.61832799 300.96875 214.3527832 C308.56164211 210.28782193 316.30188094 206.59163312 324.09765625 202.93481445 C328.34312566 200.94270267 332.57283572 198.92206232 336.78125 196.8527832 C337.89757812 196.30750977 339.01390625 195.76223633 340.1640625 195.20043945 C342.76717288 194.0336165 342.76717288 194.0336165 343.65625 191.7902832 C342.64498047 191.65299805 342.64498047 191.65299805 341.61328125 191.51293945 C337.90121706 190.60576392 334.71289633 188.97679134 331.34375 187.2277832 C329.91157801 186.49707984 328.47928287 185.76661781 327.046875 185.03637695 C326.31791016 184.6623877 325.58894531 184.28839844 324.83789062 183.90307617 C322.09653464 182.50478828 319.33945888 181.13965033 316.58129883 179.77490234 C310.09024571 176.55927561 303.67669443 173.22336341 297.29833984 169.7902832 C290.82064927 166.31651774 284.24565321 163.04729134 277.65917969 159.78588867 C275.688361 158.80624477 273.72236072 157.81759063 271.7578125 156.82543945 C264.62516823 153.22788076 257.45398097 149.73965823 250.21875 146.3527832 C243.38683791 143.15107669 236.70629204 139.7436174 230.06616211 136.16333008 C224.87998257 133.38710315 219.61319038 130.83608557 214.28125 128.3527832 C207.02461639 124.96910934 199.92479581 121.35939641 192.85864258 117.59570312 C184.84165691 113.33289254 176.7234309 109.28345851 168.58990479 105.24873352 C165.25489509 103.59075182 161.92342975 101.92573673 158.5925293 100.25952148 C157.15683658 99.54151077 155.72114212 98.82350352 154.28544617 98.10549927 C153.53005743 97.72769444 152.77466869 97.3498896 151.99638939 96.96063614 C148.00295684 94.96343651 144.00927567 92.96673413 140.015625 90.9699707 C138.28938686 90.10685453 136.56314991 89.24373599 134.83691406 88.38061523 C133.95233521 87.93832581 133.06775635 87.49603638 132.15637207 87.04034424 C113.59611003 77.76021322 95.03584798 68.48008219 76.47558594 59.19995117 C75.17845421 58.5514193 75.17845421 58.5514193 73.8551178 57.88978577 C72.17034177 57.04735253 70.48563737 56.20477602 68.80101013 55.36204529 C64.90199404 53.41176824 61.00191024 51.46371098 57.09887695 49.52148438 C56.37951965 49.16307465 55.66016235 48.80466492 54.91900635 48.43539429 C53.59856605 47.77762538 52.27768869 47.1207326 50.95623779 46.46499634 C46.70316839 44.34495928 42.51865011 42.12142892 38.34375 39.8527832 C32.74190952 36.82383105 27.05185585 34.0457326 21.28125 31.3527832 C9.13179604 25.67910735 -2.66420348 19.37330033 -14.34375 12.7902832 C-14.34375 9.7902832 -14.34375 9.7902832 -11.89453125 7.2746582 C-10.82319258 6.35370621 -9.74334375 5.44258376 -8.65625 4.5402832 C-7.86057617 3.83258789 -7.86057617 3.83258789 -7.04882812 3.1105957 C-3.02045958 -0.27026821 -3.02045958 -0.27026821 0 0 Z " fill="#FBFDF8" transform="translate(112.34375,64.209716796875)"/>
<path d="M0 0 C4.91364308 4.12237882 9.54472218 8.40313914 14.06785583 12.94760132 C14.7435394 13.62243045 15.41922296 14.29725959 16.11538178 14.99253809 C18.36242167 17.23794041 20.60588591 19.48688044 22.84936523 21.73583984 C24.46592586 23.35268274 26.0827071 24.96930507 27.69969177 26.58572388 C32.07741245 30.96315813 36.4520472 35.34366456 40.82612872 39.72473478 C45.40207383 44.30693924 49.98085876 48.8863042 54.55934143 53.4659729 C62.23998571 61.14937022 69.91888274 68.8345097 77.59643555 76.52099609 C85.50183436 84.435584 93.40829029 92.34911343 101.31616211 100.26123047 C101.80419032 100.7495214 102.29221853 101.23781234 102.79503547 101.74089997 C105.24351148 104.19068108 107.6920082 106.64044148 110.14051521 109.0901916 C130.4302218 129.3902528 150.71626442 149.69397269 171 170 C169.34788099 173.52448977 167.44712319 175.73257462 164.625 178.4375 C161.49908077 181.48851701 158.68376459 184.54944553 156 188 C154.34501895 189.67827092 152.67606248 191.34278242 151 193 C150.02379746 193.97487033 149.04828982 194.95043689 148.07339001 195.92660999 C75.536695 268.463305 75.536695 268.463305 3 341 C-0.17483377 339.50427507 -2.02236535 338.10891525 -4.25 335.375 C-4.77078125 334.74335938 -5.2915625 334.11171875 -5.828125 333.4609375 C-6.21484375 332.97882813 -6.6015625 332.49671875 -7 332 C-5.50306724 328.5043726 -3.4998151 326.25710864 -0.81323242 323.58618164 C0.05139114 322.72170914 0.91601471 321.85723663 1.80683899 320.96656799 C3.21149666 319.57739418 3.21149666 319.57739418 4.64453125 318.16015625 C5.61662305 317.1917995 6.58827059 316.22299661 7.55949402 315.25376892 C10.11613852 312.70474908 12.67872421 310.1617848 15.24261475 307.62005615 C17.83784013 305.04521239 20.42749503 302.46478025 23.01757812 299.88476562 C27.58785652 295.33360525 32.16301637 290.78739689 36.74177551 286.24476624 C37.85959663 285.13360695 37.85959663 285.13360695 39 284 C40.30749458 282.71088966 40.30749458 282.71088966 41.6414032 281.39573669 C44.0802299 278.99840035 44.0802299 278.99840035 46.3125 276.125 C48.90745833 272.93246451 51.9390905 270.3987705 55.0703125 267.74609375 C56.87149004 266.1162833 58.36578604 264.46018027 59.875 262.5625 C60.57625 261.716875 61.2775 260.87125 62 260 C62.66 260 63.32 260 64 260 C64.25394531 259.40703125 64.50789063 258.8140625 64.76953125 258.203125 C66.13626374 255.75602301 67.51742982 254.50652046 69.6875 252.75 C73.16093641 249.81189608 76.07527053 246.70907751 79.01171875 243.24609375 C83.11103175 238.61523918 87.59959501 234.34199253 92 230 C93.66745407 228.33412111 95.33401795 226.667351 97 225 C114.66666667 207.33333333 132.33333333 189.66666667 150 172 C148.33639169 167.66089603 145.03135603 164.75972622 141.79916382 161.55865479 C141.15633725 160.91411937 140.51351068 160.26958395 139.85120451 159.60551715 C137.69247682 157.44349093 135.52667045 155.28869811 133.36083984 153.13378906 C131.81333698 151.58685023 130.26627416 150.03947109 128.71961975 148.49168396 C124.51566176 144.28715115 120.30555716 140.08882178 116.09434462 135.89155674 C111.69585554 131.50555353 107.30301363 127.11390192 102.90957642 122.72283936 C95.53342691 115.35220371 88.15379399 107.98507098 80.77148438 100.62060547 C73.16790394 93.03538488 65.56642827 85.44806521 57.96777344 77.85791016 C57.49934058 77.39000274 57.03090772 76.92209533 56.54827993 76.44000891 C54.19828762 74.09262669 51.84833888 71.74520085 49.49840617 69.39775896 C30.0052466 49.9255156 10.50496269 30.46041988 -9 11 C-8.58862793 10.52296631 -8.17725586 10.04593262 -7.75341797 9.55444336 C-6.94348389 8.61290405 -6.94348389 8.61290405 -6.1171875 7.65234375 C-5.58206543 7.03093506 -5.04694336 6.40952637 -4.49560547 5.76928711 C-2.91642045 3.90112618 -1.42932148 1.98516872 0 0 Z " fill="#29221E" transform="translate(85,86)"/>
<path d="M0 0 C0.33 0.99 0.66 1.98 1 3 C0.01 3.33 -0.98 3.66 -2 4 C-2.73323796 6.01508358 -2.73323796 6.01508358 -3 8 C-3.66 8 -4.32 8 -5 8 C-5.23074219 8.55558594 -5.46148437 9.11117188 -5.69921875 9.68359375 C-7.35191392 12.62668155 -9.42008788 14.68443518 -11.8125 17.0625 C-13.09060547 18.34833984 -13.09060547 18.34833984 -14.39453125 19.66015625 C-16.83733477 21.85391833 -19.05469543 23.55485056 -22 25 C-22.66 24.67 -23.32 24.34 -24 24 C-16.08 16.08 -8.16 8.16 0 0 Z " fill="#481D21" transform="translate(215,278)"/>
<path d="M0 0 C1.65 0 3.3 0 5 0 C5 0.66 5 1.32 5 2 C7.97 2.33 10.94 2.66 14 3 C14 3.66 14 4.32 14 5 C17.96 6.98 21.92 8.96 26 11 C26 11.66 26 12.32 26 13 C27.32 13.33 28.64 13.66 30 14 C29.01 14.495 29.01 14.495 28 15 C25.47339935 13.88745151 23.06593839 12.71651569 20.625 11.4375 C19.17972772 10.69653613 17.73441478 9.95565155 16.2890625 9.21484375 C15.56879883 8.84214355 14.84853516 8.46944336 14.10644531 8.08544922 C11.08488737 6.52844335 8.04317242 5.01432327 5 3.5 C3.33333333 2.66666667 1.66666667 1.83333333 0 1 C0 0.67 0 0.34 0 0 Z " fill="#FEF8CB" transform="translate(282,169)"/>
<path d="M0 0 C0.33 0.66 0.66 1.32 1 2 C0.07161713 3.31896465 -0.86805732 4.62998689 -1.8125 5.9375 C-2.59560547 7.03384766 -2.59560547 7.03384766 -3.39453125 8.15234375 C-5 10 -5 10 -8 11 C-10.37904446 13.08166391 -11.96880156 14.94633868 -13.5625 17.6875 C-15 20 -15 20 -18 21 C-17.875 19.3125 -17.875 19.3125 -17 17 C-15.60470503 15.80403288 -14.20154096 14.61531906 -12.75 13.48828125 C-10.07054086 11.2095448 -7.89067639 8.54236211 -5.61328125 5.87109375 C-3.83681618 3.81073837 -1.96225415 1.88376398 0 0 Z " fill="#4C1D20" transform="translate(190,303)"/>
<path d="M0 0 C0.33 0.66 0.66 1.32 1 2 C-1.86495682 8.26709304 -7.78519211 14.06522961 -14 17 C-14.99 17 -15.98 17 -17 17 C-11.39 11.39 -5.78 5.78 0 0 Z " fill="#E1C025" transform="translate(122,392)"/>
<path d="M0 0 C1.21744727 3.65234182 0.64202228 4.62953322 -1 8 C-3 10 -3 10 -5.9375 10.9375 C-8.85839516 11.95087179 -10.08604685 12.66072393 -12 15 C-12.66 14.67 -13.32 14.34 -14 14 C-9.38 9.38 -4.76 4.76 0 0 Z " fill="#E4C22B" transform="translate(158,356)"/>
<path d="M0 0 C1.65 0 3.3 0 5 0 C5 0.66 5 1.32 5 2 C7.64 2.66 10.28 3.32 13 4 C13 4.66 13 5.32 13 6 C15.64 6.66 18.28 7.32 21 8 C21 8.66 21 9.32 21 10 C22.32 10.33 23.64 10.66 25 11 C25 11.66 25 12.32 25 13 C19.29676416 11.37317535 14.31986097 8.66802013 9.125 5.875 C8.24585938 5.40707031 7.36671875 4.93914062 6.4609375 4.45703125 C4.30505729 3.3087907 2.15153223 2.15636097 0 1 C0 0.67 0 0.34 0 0 Z " fill="#FCF7C6" transform="translate(430,243)"/>
<path d="M0 0 C5.77378925 0.4811491 9.95859836 2.18467181 15 5 C15 5.66 15 6.32 15 7 C16.32 7 17.64 7 19 7 C19.33 7.99 19.66 8.98 20 10 C14.89355216 8.71200424 10.69861783 6.95593157 6.0625 4.375 C4.91910156 3.74335938 3.77570313 3.11171875 2.59765625 2.4609375 C1.74042969 1.97882813 0.88320313 1.49671875 0 1 C0 0.67 0 0.34 0 0 Z " fill="#FEF9CF" transform="translate(340,198)"/>
<path d="M0 0 C0.66 0.33 1.32 0.66 2 1 C-8.58569133 9.57574994 -8.58569133 9.57574994 -13.1875 9.5 C-14.115625 9.335 -15.04375 9.17 -16 9 C-12.82117052 6.45079375 -9.50731355 4.58846828 -5.875 2.75 C-4.82054687 2.20859375 -3.76609375 1.6671875 -2.6796875 1.109375 C-1.79539063 0.74328125 -0.91109375 0.3771875 0 0 Z " fill="#3EAA6F" transform="translate(204,404)"/>
<path d="M0 0 C0.99 0 1.98 0 3 0 C3.87968819 3.43878112 4.2655503 5.36562983 2.875 8.6875 C0.79454776 11.2533911 -1.00663852 12.61844855 -4 14 C-4.66 13.67 -5.32 13.34 -6 13 C-3.36 10.36 -0.72 7.72 2 5 C1.34 3.35 0.68 1.7 0 0 Z " fill="#D1B027" transform="translate(253,253)"/>
<path d="M0 0 C5.75 -0.125 5.75 -0.125 8 1 C8 1.66 8 2.32 8 3 C8.99 3 9.98 3 11 3 C11 3.66 11 4.32 11 5 C12.65 5 14.3 5 16 5 C16 5.99 16 6.98 16 8 C10.31497465 6.35433477 5.23318364 3.70967216 0 1 C0 0.67 0 0.34 0 0 Z " fill="#43AC74" transform="translate(304,160)"/>
<path d="M0 0 C-1.26115314 2.52230627 -2.37533425 2.88890155 -4.875 4.125 C-5.92300781 4.65480469 -5.92300781 4.65480469 -6.9921875 5.1953125 C-9 6 -9 6 -12 6 C-11.3125 3.5625 -11.3125 3.5625 -10 1 C-6.69523705 -0.16113293 -3.48004838 -0.09942995 0 0 Z " fill="#E6C726" transform="translate(133,419)"/>
<path d="M0 0 C0.66 0.33 1.32 0.66 2 1 C1.01 1.33 0.02 1.66 -1 2 C-1 2.66 -1 3.32 -1 4 C-9.261959 8.59225513 -9.261959 8.59225513 -14 8 C-11.52010087 5.14181117 -8.86353122 3.80106607 -5.4375 2.25 C-4.46683594 1.80140625 -3.49617188 1.3528125 -2.49609375 0.890625 C-1.67238281 0.59671875 -0.84867187 0.3028125 0 0 Z " fill="#FEF9CD" transform="translate(373,299)"/>
<path d="M0 0 C0.66 0.99 1.32 1.98 2 3 C1.030625 3.556875 0.06125 4.11375 -0.9375 4.6875 C-4.18991279 6.68035805 -4.18991279 6.68035805 -4.875 9.75 C-4.91625 10.4925 -4.9575 11.235 -5 12 C-6.32 11.34 -7.64 10.68 -9 10 C-8.06409496 8.8944811 -7.12620142 7.79064547 -6.1875 6.6875 C-5.66542969 6.07261719 -5.14335938 5.45773437 -4.60546875 4.82421875 C-3.12827531 3.14575321 -1.59960869 1.56117966 0 0 Z " fill="#DEBF2F" transform="translate(96,418)"/>
<path d="M0 0 C0.33 1.32 0.66 2.64 1 4 C0.195625 4.61875 -0.60875 5.2375 -1.4375 5.875 C-4.03874519 7.74164041 -4.03874519 7.74164041 -5 10 C-6.32 9.67 -7.64 9.34 -9 9 C-6.03 6.03 -3.06 3.06 0 0 Z " fill="#E1C223" transform="translate(175,339)"/>
<path d="M0 0 C1.32 0 2.64 0 4 0 C4 0.66 4 1.32 4 2 C5.65 2 7.3 2 9 2 C9 2.66 9 3.32 9 4 C10.32 4 11.64 4 13 4 C13 4.66 13 5.32 13 6 C13.66 6 14.32 6 15 6 C15 6.66 15 7.32 15 8 C11.45756548 6.63408831 8.07372071 5.09068516 4.6875 3.375 C3.80449219 2.92898437 2.92148437 2.48296875 2.01171875 2.0234375 C1.34785156 1.68570313 0.68398438 1.34796875 0 1 C0 0.67 0 0.34 0 0 Z " fill="#FDF9C8" transform="translate(406,231)"/>
<path d="M0 0 C-1.45035853 2.90071706 -3.09262975 3.57724435 -6 5 C-8.67862483 5.52580413 -11.27180274 5.76879684 -14 6 C-11.72698066 3.45655714 -9.54913519 2.12383563 -6.4375 0.75 C-5.65246094 0.39421875 -4.86742187 0.0384375 -4.05859375 -0.328125 C-2 -1 -2 -1 0 0 Z " fill="#FEF8CF" transform="translate(345,315)"/>
<path d="M0 0 C2.31 0.33 4.62 0.66 7 1 C7 1.66 7 2.32 7 3 C7.763125 3.12375 8.52625 3.2475 9.3125 3.375 C12 4 12 4 15 6 C14.67 6.66 14.34 7.32 14 8 C9.38 5.69 4.76 3.38 0 1 C0 0.67 0 0.34 0 0 Z " fill="#42A872" transform="translate(336,176)"/>
<path d="M0 0 C4.13621084 3.3810038 7.81316569 6.66590534 11 11 C8 11 8 11 6.3125 9.625 C5 8 5 8 5 6 C3.68 5.67 2.36 5.34 1 5 C0.67 3.35 0.34 1.7 0 0 Z " fill="#C13343" transform="translate(187,208)"/>
<path d="M0 0 C0 0.66 0 1.32 0 2 C-0.99 2.33 -1.98 2.66 -3 3 C-3.33 3.99 -3.66 4.98 -4 6 C-6.64 6 -9.28 6 -12 6 C-8.59780735 3.25207517 -4.51535412 0 0 0 Z " fill="#42AD71" transform="translate(148,433)"/>
<path d="M0 0 C2.475 0.495 2.475 0.495 5 1 C5.33 1.99 5.66 2.98 6 4 C6.99 4.33 7.98 4.66 9 5 C9.33 6.65 9.66 8.3 10 10 C2.51708428 3.84965831 2.51708428 3.84965831 0 0 Z " fill="#E3BF2F" transform="translate(215,215)"/>
<path d="M0 0 C4.05606165 0.46800711 7.46588679 0.87953208 11 3 C11 3.99 11 4.98 11 6 C6.49197399 4.74194623 3.5087188 3.09592835 0 0 Z " fill="#FDF5C0" transform="translate(312,184)"/>
<path d="M0 0 C2.64 0.33 5.28 0.66 8 1 C8 1.66 8 2.32 8 3 C9.32 3.33 10.64 3.66 12 4 C12 4.66 12 5.32 12 6 C7.76570244 4.68938409 3.92592596 3.05643741 0 1 C0 0.67 0 0.34 0 0 Z " fill="#FDF6CA" transform="translate(248,152)"/>
<path d="M0 0 C0 0.66 0 1.32 0 2 C-0.99 2 -1.98 2 -3 2 C-3.33 2.99 -3.66 3.98 -4 5 C-6.64 5.33 -9.28 5.66 -12 6 C-8.59780735 3.25207517 -4.51535412 0 0 0 Z " fill="#47AD73" transform="translate(132,441)"/>
<path d="M0 0 C6.435 2.97 6.435 2.97 13 6 C13 6.33 13 6.66 13 7 C8.24451757 7.74304413 5.43931262 5.73243053 1.57421875 3.2890625 C1.05472656 2.86367187 0.53523438 2.43828125 0 2 C0 1.34 0 0.68 0 0 Z " fill="#E7CA43" transform="translate(379,218)"/>
<path d="M0 0 C2.31 0.33 4.62 0.66 7 1 C7 1.66 7 2.32 7 3 C8.65 3 10.3 3 12 3 C12 3.99 12 4.98 12 6 C7.76570244 4.68938409 3.92592596 3.05643741 0 1 C0 0.67 0 0.34 0 0 Z " fill="#FEF8CB" transform="translate(264,160)"/>
<path d="M0 0 C4.23429756 1.31061591 8.07407404 2.94356259 12 5 C12 5.33 12 5.66 12 6 C10.35 6 8.7 6 7 6 C7 5.34 7 4.68 7 4 C5.68 4 4.36 4 3 4 C3 3.34 3 2.68 3 2 C2.01 2 1.02 2 0 2 C0 1.34 0 0.68 0 0 Z " fill="#E8C632" transform="translate(168,113)"/>
<path d="M0 0 C-2.97 2.97 -5.94 5.94 -9 9 C-9 5.34648137 -8.11057699 3.93973224 -6 1 C-2.57142857 -1.28571429 -2.57142857 -1.28571429 0 0 Z " fill="#B0353E" transform="translate(91,404)"/>
<path d="M0 0 C1.65 0.33 3.3 0.66 5 1 C1.59780735 3.74792483 -2.48464588 7 -7 7 C-7 6.34 -7 5.68 -7 5 C-4.69 4.34 -2.38 3.68 0 3 C0 2.01 0 1.02 0 0 Z " fill="#E8C635" transform="translate(252,356)"/>
<path d="M0 0 C0.33 0.99 0.66 1.98 1 3 C-1.3125 5.0625 -1.3125 5.0625 -4 7 C-4.99 6.67 -5.98 6.34 -7 6 C-6.34 6 -5.68 6 -5 6 C-4.731875 5.38125 -4.46375 4.7625 -4.1875 4.125 C-3 2 -3 2 0 0 Z " fill="#491D24" transform="translate(154,340)"/>
<path d="M0 0 C1.24546405 2.49092811 0.7767578 3.41080733 0 6 C-0.5775 6.12375 -1.155 6.2475 -1.75 6.375 C-4.02612206 7.00725613 -5.90760206 7.91863468 -8 9 C-7.04270084 7.87411986 -6.08412105 6.7493285 -5.125 5.625 C-4.59132812 4.99851562 -4.05765625 4.37203125 -3.5078125 3.7265625 C-2.38567993 2.44163349 -1.20628025 1.20628025 0 0 Z " fill="#DEC424" transform="translate(184,330)"/>
<path d="M0 0 C1.98 0 3.96 0 6 0 C6 0.66 6 1.32 6 2 C7.32 2 8.64 2 10 2 C10 2.99 10 3.98 10 5 C6.08788267 3.84414715 3.1254959 2.64465038 0 0 Z " fill="#FDF6CA" transform="translate(206,131)"/>
<path d="M0 0 C1.24546405 2.49092811 0.7767578 3.41080733 0 6 C-2.31 6.66 -4.62 7.32 -7 8 C-6.02133662 6.85373678 -5.04205413 5.70800212 -4.0625 4.5625 C-3.51722656 3.92441406 -2.97195312 3.28632813 -2.41015625 2.62890625 C-1.63204305 1.73008851 -0.84063472 0.84063472 0 0 Z " fill="#E2C222" transform="translate(200,314)"/>
<path d="M0 0 C0 0.99 0 1.98 0 3 C-4.43076923 5.09230769 -4.43076923 5.09230769 -7.3125 4.625 C-7.869375 4.41875 -8.42625 4.2125 -9 4 C-2.25 0 -2.25 0 0 0 Z " fill="#FDF5C2" transform="translate(400,286)"/>
<path d="M0 0 C1.32 0.99 2.64 1.98 4 3 C2.63016497 6.16115776 2.0109362 6.9927092 -1 9 C-1 7.68 -1 6.36 -1 5 C-0.34 4.67 0.32 4.34 1 4 C0.67 2.68 0.34 1.36 0 0 Z " fill="#BE3545" transform="translate(232,253)"/>
<path d="M0 0 C1.65 0 3.3 0 5 0 C5 0.66 5 1.32 5 2 C6.65 2.33 8.3 2.66 10 3 C10 3.66 10 4.32 10 5 C2.42857143 3.14285714 2.42857143 3.14285714 0 0 Z " fill="#FDF9C9" transform="translate(330,193)"/>
<path d="M0 0 C2.64 0 5.28 0 8 0 C8.66 1.65 9.32 3.3 10 5 C5 3 5 3 0 1 C0 0.67 0 0.34 0 0 Z " fill="#FCF7C3" transform="translate(168,112)"/>
<path d="M0 0 C2.91517292 1.07401108 4.77810176 1.77810176 7 4 C3.66666667 4 0.33333333 4 -3 4 C-2.01 2.68 -1.02 1.36 0 0 Z " fill="#ECCC3A" transform="translate(96,76)"/>
<path d="M0 0 C-0.5625 1.9375 -0.5625 1.9375 -2 4 C-5.625 4.75 -5.625 4.75 -9 5 C-6.45523312 2.20075644 -3.92372883 0 0 0 Z " fill="#FCF5B9" transform="translate(107,433)"/>
<path d="M0 0 C0 3.90838866 -1.50567876 5.11594107 -4 8 C-4.99 7.67 -5.98 7.34 -7 7 C-4.69 4.69 -2.38 2.38 0 0 Z " fill="#3A1A1E" transform="translate(91,403)"/>
<path d="M0 0 C1 2 1 2 0.4375 4 C-1.57302108 6.79724672 -3.74418077 7.15065585 -7 8 C-6.02133662 6.85373678 -5.04205413 5.70800212 -4.0625 4.5625 C-3.51722656 3.92441406 -2.97195312 3.28632813 -2.41015625 2.62890625 C-1.63204305 1.73008851 -0.84063472 0.84063472 0 0 Z " fill="#DDBE30" transform="translate(122,392)"/>
<path d="M0 0 C-0.33 0.99 -0.66 1.98 -1 3 C-3.06640625 3.73046875 -3.06640625 3.73046875 -5.5625 4.1875 C-6.38878906 4.34605469 -7.21507812 4.50460937 -8.06640625 4.66796875 C-9.02353516 4.83232422 -9.02353516 4.83232422 -10 5 C-8.28489314 1.56978628 -3.75681361 0 0 0 Z " fill="#FEF6C2" transform="translate(277,348)"/>
<path d="M0 0 C0.66 0.33 1.32 0.66 2 1 C1.67 1.66 1.34 2.32 1 3 C0.34 3 -0.32 3 -1 3 C-1.28875 3.639375 -1.5775 4.27875 -1.875 4.9375 C-3 7 -3 7 -5 8 C-5 6.68 -5 5.36 -5 4 C-2.5 1.75 -2.5 1.75 0 0 Z " fill="#B73540" transform="translate(148,343)"/>
<path d="M0 0 C2.64 0.33 5.28 0.66 8 1 C8 1.66 8 2.32 8 3 C8.66 3.33 9.32 3.66 10 4 C9.01 4.495 9.01 4.495 8 5 C6.0546875 4.22265625 6.0546875 4.22265625 3.875 3.0625 C3.15054687 2.68222656 2.42609375 2.30195313 1.6796875 1.91015625 C1.12539063 1.60980469 0.57109375 1.30945313 0 1 C0 0.67 0 0.34 0 0 Z " fill="#47B07A" transform="translate(256,136)"/>
<path d="M0 0 C0 0.66 0 1.32 0 2 C-4.15267176 5.11450382 -4.15267176 5.11450382 -7.3125 4.6875 C-7.869375 4.460625 -8.42625 4.23375 -9 4 C-2.25 0 -2.25 0 0 0 Z " fill="#FDF5C1" transform="translate(141,416)"/>
<path d="M0 0 C2.0625 0.4375 2.0625 0.4375 4 1 C1.03 3.475 1.03 3.475 -2 6 C-1.125 1.125 -1.125 1.125 0 0 Z " fill="#302C0C" transform="translate(114,396)"/>
<path d="M0 0 C-1 3 -1 3 -2.8125 4.25 C-5.33943414 5.11637742 -6.52221994 4.88492145 -9 4 C-2.25 0 -2.25 0 0 0 Z " fill="#FDF8C8" transform="translate(185,394)"/>
<path d="M0 0 C-1.28913487 0.67154933 -2.58140204 1.33708859 -3.875 2 C-4.59429687 2.37125 -5.31359375 2.7425 -6.0546875 3.125 C-8 4 -8 4 -10 4 C-10 3.34 -10 2.68 -10 2 C-3.375 -1.125 -3.375 -1.125 0 0 Z " fill="#D0F5E6" transform="translate(304,355)"/>
<path d="M0 0 C1.65 0 3.3 0 5 0 C3.35 1.98 1.7 3.96 0 6 C-1.125 2.25 -1.125 2.25 0 0 Z " fill="#3F3308" transform="translate(173,336)"/>
<path d="M0 0 C0.66 0.33 1.32 0.66 2 1 C-0.06756277 3.7972908 -1.14440371 4.02692273 -4.6875 4.6875 C-5.780625 4.790625 -6.87375 4.89375 -8 5 C-5.45378681 2.99940392 -3.01962385 1.20784954 0 0 Z " fill="#4FB07A" transform="translate(377,317)"/>
<path d="M0 0 C1 2 1 2 0.375 4.0625 C-1 6 -1 6 -3.625 6.75 C-4.800625 6.87375 -4.800625 6.87375 -6 7 C-4.02 4.69 -2.04 2.38 0 0 Z " fill="#4D1D21" transform="translate(225,268)"/>
<path d="M0 0 C2.875 0.625 2.875 0.625 6 2 C7.375 5.125 7.375 5.125 8 8 C6.85073734 7.04578192 5.70569459 6.08647955 4.5625 5.125 C3.92441406 4.59132812 3.28632813 4.05765625 2.62890625 3.5078125 C1 2 1 2 0 0 Z " fill="#421B16" transform="translate(179,199)"/>
<path d="M0 0 C0.721875 0.144375 1.44375 0.28875 2.1875 0.4375 C3.5796875 0.7159375 3.5796875 0.7159375 5 1 C6.66666667 1.33333333 8.33333333 1.66666667 10 2 C10 2.99 10 3.98 10 5 C6.08788267 3.84414715 3.1254959 2.64465038 0 0 Z " fill="#FCF5BE" transform="translate(150,103)"/>
<path d="M0 0 C-5.75 3 -5.75 3 -8 3 C-8 2.01 -8 1.02 -8 0 C-4.94736336 -0.98120464 -3.05263664 -0.98120464 0 0 Z " fill="#E6C52B" transform="translate(117,428)"/>
<path d="M0 0 C0 0.66 0 1.32 0 2 C-2.90548882 4.04169485 -4.40142046 5 -8 5 C-8 4.34 -8 3.68 -8 3 C-2.25 0 -2.25 0 0 0 Z " fill="#3FAC6F" transform="translate(489,262)"/>
<path d="M0 0 C0 0.66 0 1.32 0 2 C1.32 2.33 2.64 2.66 4 3 C4 3.66 4 4.32 4 5 C-1.75 3.25 -1.75 3.25 -4 1 C-2 0 -2 0 0 0 Z " fill="#FCF7CB" transform="translate(224,137)"/>
</svg>
