<?xml version="1.0" encoding="UTF-8"?>
<svg version="1.1" xmlns="http://www.w3.org/2000/svg" width="512" height="512">
<path d="M0 0 C1.01790619 0.00215515 2.03581238 0.0043103 3.08456421 0.00653076 C17.69363523 0.05620146 32.02575853 0.30709809 46.375 3.3125 C47.34985352 3.51117676 48.32470703 3.70985352 49.32910156 3.91455078 C97.7109774 14.03517194 141.69928269 35.9516877 177.375 70.3125 C178.3640332 71.26068604 178.3640332 71.26068604 179.37304688 72.22802734 C188.86130305 81.37247479 197.6012044 90.66984009 205.375 101.3125 C206.23306152 102.46355017 207.09113451 103.61459177 207.94921875 104.765625 C213.98677396 112.95525981 219.36957302 121.45788276 224.375 130.3125 C224.7771875 131.01971191 225.179375 131.72692383 225.59375 132.45556641 C238.6191741 155.59095836 247.36801461 180.76212409 252.6875 206.75 C252.83485596 207.46889404 252.98221191 208.18778809 253.1340332 208.9284668 C256.10789088 224.57475609 256.74800362 240.04818046 256.6875 255.9375 C256.68534485 256.95540619 256.6831897 257.97331238 256.68096924 259.02206421 C256.63129854 273.63113523 256.38040191 287.96325853 253.375 302.3125 C253.07698486 303.77478027 253.07698486 303.77478027 252.77294922 305.26660156 C242.65232806 353.6484774 220.7358123 397.63678269 186.375 433.3125 C185.74287598 433.97185547 185.11075195 434.63121094 184.45947266 435.31054688 C175.31502521 444.79880305 166.01765991 453.5387044 155.375 461.3125 C154.22394983 462.17056152 153.07290823 463.02863451 151.921875 463.88671875 C143.73224019 469.92427396 135.22961724 475.30707302 126.375 480.3125 C125.66778809 480.7146875 124.96057617 481.116875 124.23193359 481.53125 C101.09654164 494.5566741 75.92537591 503.30551461 49.9375 508.625 C49.21860596 508.77235596 48.49971191 508.91971191 47.7590332 509.0715332 C33.08339502 511.86090125 18.55831162 512.66142619 3.64770508 512.62817383 C0.70811513 512.6250221 -2.2304558 512.64854926 -5.16992188 512.67382812 C-18.54306192 512.71848737 -31.43916711 511.51301542 -44.625 509.3125 C-46.33055054 509.03031616 -46.33055054 509.03031616 -48.07055664 508.74243164 C-91.33802759 500.97044532 -132.38793216 480.98345309 -165.625 452.3125 C-166.37007813 451.67828125 -167.11515625 451.0440625 -167.8828125 450.390625 C-181.38779833 438.57948485 -194.05918743 425.82889772 -204.625 411.3125 C-205.48149066 410.16255169 -206.33826433 409.01281411 -207.1953125 407.86328125 C-213.23534209 399.67315742 -218.61867614 391.16870382 -223.625 382.3125 C-224.0271875 381.60528809 -224.429375 380.89807617 -224.84375 380.16943359 C-237.8691741 357.03404164 -246.61801461 331.86287591 -251.9375 305.875 C-252.08485596 305.15610596 -252.23221191 304.43721191 -252.3840332 303.6965332 C-255.35789088 288.05024391 -255.99800362 272.57681954 -255.9375 256.6875 C-255.93534485 255.66959381 -255.9331897 254.65168762 -255.93096924 253.60293579 C-255.88129854 238.99386477 -255.63040191 224.66174147 -252.625 210.3125 C-252.42632324 209.33764648 -252.22764648 208.36279297 -252.02294922 207.35839844 C-241.90232806 158.9765226 -219.9858123 114.98821731 -185.625 79.3125 C-184.99287598 78.65314453 -184.36075195 77.99378906 -183.70947266 77.31445312 C-174.56502521 67.82619695 -165.26765991 59.0862956 -154.625 51.3125 C-153.47394983 50.45443848 -152.32290823 49.59636549 -151.171875 48.73828125 C-142.98224019 42.70072604 -134.47961724 37.31792698 -125.625 32.3125 C-124.91778809 31.9103125 -124.21057617 31.508125 -123.48193359 31.09375 C-100.34654164 18.0683259 -75.17537591 9.31948539 -49.1875 4 C-48.46860596 3.85264404 -47.74971191 3.70528809 -47.0090332 3.5534668 C-31.36274391 0.57960912 -15.88931954 -0.06050362 0 0 Z " fill="#F0EFEF" transform="translate(255.625,-0.3125)"/>
<path d="M0 0 C0 152.46 0 304.92 0 462 C-5.29652956 460.23449015 -9.5642994 458.25618063 -14.375 455.5625 C-15.16229492 455.12220459 -15.94958984 454.68190918 -16.76074219 454.22827148 C-34.70731606 444.02219242 -51.14505866 431.30743065 -66 417 C-66.65935547 416.36787598 -67.31871094 415.73575195 -67.99804688 415.08447266 C-77.48630305 405.94002521 -86.2262044 396.64265991 -94 386 C-94.85806152 384.84894983 -95.71613451 383.69790823 -96.57421875 382.546875 C-102.61177396 374.35724019 -107.99457302 365.85461724 -113 357 C-113.4021875 356.29278809 -113.804375 355.58557617 -114.21875 354.85693359 C-127.2441741 331.72154164 -135.99301461 306.55037591 -141.3125 280.5625 C-141.45985596 279.84360596 -141.60721191 279.12471191 -141.7590332 278.3840332 C-144.73289088 262.73774391 -145.37300362 247.26431954 -145.3125 231.375 C-145.31034485 230.35709381 -145.3081897 229.33918762 -145.30596924 228.29043579 C-145.25629854 213.68136477 -145.00540191 199.34924147 -142 185 C-141.80132324 184.02514648 -141.60264648 183.05029297 -141.39794922 182.04589844 C-131.27732806 133.6640226 -109.3608123 89.67571731 -75 54 C-74.36787598 53.34064453 -73.73575195 52.68128906 -73.08447266 52.00195312 C-63.94002521 42.51369695 -54.64265991 33.7737956 -44 26 C-42.84894983 25.14193848 -41.69790823 24.28386549 -40.546875 23.42578125 C-8.76238963 0 -8.76238963 0 0 0 Z " fill="#D70127" transform="translate(145,25)"/>
<path d="M0 0 C5.29652956 1.76550985 9.5642994 3.74381937 14.375 6.4375 C15.16229492 6.87779541 15.94958984 7.31809082 16.76074219 7.77172852 C34.70731606 17.97780758 51.14505866 30.69256935 66 45 C66.65935547 45.63212402 67.31871094 46.26424805 67.99804688 46.91552734 C77.48630305 56.05997479 86.2262044 65.35734009 94 76 C94.85806152 77.15105017 95.71613451 78.30209177 96.57421875 79.453125 C102.61177396 87.64275981 107.99457302 96.14538276 113 105 C113.60328125 106.06081787 113.60328125 106.06081787 114.21875 107.14306641 C127.2441741 130.27845836 135.99301461 155.44962409 141.3125 181.4375 C141.45985596 182.15639404 141.60721191 182.87528809 141.7590332 183.6159668 C144.73289088 199.26225609 145.37300362 214.73568046 145.3125 230.625 C145.30926727 232.15185928 145.30926727 232.15185928 145.30596924 233.70956421 C145.25629854 248.31863523 145.00540191 262.65075853 142 277 C141.70198486 278.46228027 141.70198486 278.46228027 141.39794922 279.95410156 C131.27732806 328.3359774 109.3608123 372.32428269 75 408 C74.05181396 408.9890332 74.05181396 408.9890332 73.08447266 409.99804688 C63.94002521 419.48630305 54.64265991 428.2262044 44 436 C42.84894983 436.85806152 41.69790823 437.71613451 40.546875 438.57421875 C8.76238963 462 8.76238963 462 0 462 C0 309.54 0 157.08 0 0 Z " fill="#D70126" transform="translate(367,25)"/>
<path d="M0 0 C3.68989124 1.22996375 3.97930089 2.16386943 5.9375 5.4375 C9.8006338 11.7483953 13.91654681 17.86890635 18.08764648 23.98022461 C18.59368408 24.73053955 19.09972168 25.48085449 19.62109375 26.25390625 C20.0792749 26.92752197 20.53745605 27.6011377 21.00952148 28.29516602 C22 30 22 30 22 32 C29.59 32 37.18 32 45 32 C41.62716195 42.11851415 41.62716195 42.11851415 39.80078125 45.47265625 C39.39972168 46.21990967 38.99866211 46.96716309 38.58544922 47.73706055 C38.16537598 48.50445557 37.74530273 49.27185059 37.3125 50.0625 C36.42436705 51.71538673 35.5376737 53.36904771 34.65234375 55.0234375 C33.98887939 56.2604541 33.98887939 56.2604541 33.31201172 57.52246094 C31.26957828 61.37929281 29.31617525 65.27894742 27.375 69.1875 C27.03251221 69.87658447 26.69002441 70.56566895 26.3371582 71.27563477 C25.55638383 72.84957031 24.77790079 74.42464224 24 76 C25.45690104 75.27154948 26.91378415 74.54306308 28.37060547 73.81445312 C29.731349 73.1342471 31.09236095 72.45457784 32.45361328 71.77539062 C37.23601953 69.38779569 42.01069838 66.98542147 46.78125 64.57421875 C49.14583182 63.3828095 51.51041515 62.19140325 53.875 61 C55.03435059 60.4119458 56.19370117 59.8238916 57.38818359 59.21801758 C58.47437988 58.67169678 59.56057617 58.12537598 60.6796875 57.5625 C61.65663574 57.06878906 62.63358398 56.57507813 63.64013672 56.06640625 C66 55 66 55 68 55 C68.33 62.26 68.66 69.52 69 77 C75.6 80.3 82.2 83.6 89 87 C89 87.66 89 88.32 89 89 C68.21 99.395 68.21 99.395 47 110 C48.7901553 115.37046589 50.98996598 120.08937007 53.609375 125.05273438 C55.08497109 127.9140268 56 129.73064098 56 133 C41.48 133 26.96 133 12 133 C12 143.89 12 154.78 12 166 C4.74 166 -2.52 166 -10 166 C-10 155.11 -10 144.22 -10 133 C-24.52 133 -39.04 133 -54 133 C-52.87678477 127.38392385 -52.87678477 127.38392385 -51.15234375 124.3359375 C-50.79462891 123.68882812 -50.43691406 123.04171875 -50.06835938 122.375 C-49.50858398 121.385 -49.50858398 121.385 -48.9375 120.375 C-45.98473809 115.49974933 -45.98473809 115.49974933 -45 110 C-45.49446121 109.7538797 -45.98892242 109.5077594 -46.49836731 109.25418091 C-51.6418025 106.69352006 -56.78383072 104.13005065 -61.92504883 101.56494141 C-63.844285 100.6078386 -65.76387947 99.65145392 -67.68383789 98.69580078 C-70.4425137 97.32252355 -73.1998932 95.94667396 -75.95703125 94.5703125 C-76.81649857 94.14315948 -77.67596588 93.71600647 -78.56147766 93.27590942 C-79.76238289 92.67551346 -79.76238289 92.67551346 -80.98754883 92.06298828 C-82.04344963 91.53670334 -82.04344963 91.53670334 -83.12068176 90.99978638 C-85 90 -85 90 -88 88 C-84.87517628 86.35383182 -81.75011114 84.70812246 -78.625 83.0625 C-77.73554688 82.59392578 -76.84609375 82.12535156 -75.9296875 81.64257812 C-75.07890625 81.19462891 -74.228125 80.74667969 -73.3515625 80.28515625 C-72.17327881 79.66459351 -72.17327881 79.66459351 -70.97119141 79.03149414 C-69.65378141 78.34211376 -68.32990658 77.66495329 -67 77 C-66.67 69.74 -66.34 62.48 -66 55 C-59.25001192 57.24999603 -59.25001192 57.24999603 -56.04589844 58.86352539 C-55.33205994 59.22052017 -54.61822144 59.57751495 -53.88275146 59.94532776 C-52.75743011 60.51573036 -52.75743011 60.51573036 -51.609375 61.09765625 C-50.43063812 61.68914711 -50.43063812 61.68914711 -49.22808838 62.29258728 C-46.73347782 63.54545964 -44.24171503 64.80388051 -41.75 66.0625 C-40.06008171 66.91247903 -38.36997937 67.76209225 -36.6796875 68.61132812 C-32.45107035 70.73682672 -28.22526878 72.86785421 -24 75 C-23.34 75.33 -22.68 75.66 -22 76 C-25.47751966 68.957537 -28.96158144 61.92207405 -32.65234375 54.98828125 C-33.09465332 54.15723877 -33.53696289 53.32619629 -33.99267578 52.4699707 C-34.85258378 50.86070522 -35.71664152 49.25364813 -36.58544922 47.64916992 C-36.98650879 46.89869385 -37.38756836 46.14821777 -37.80078125 45.375 C-38.15309814 44.72273438 -38.50541504 44.07046875 -38.8684082 43.3984375 C-40.45986947 40.02529501 -41.69040656 36.49224917 -43 33 C-35.74 33 -28.48 33 -21 33 C-20.01 30.525 -20.01 30.525 -19 28 C-17.58867207 25.75330717 -16.15470447 23.56710597 -14.6484375 21.38671875 C-14.02009506 20.46509697 -14.02009506 20.46509697 -13.37905884 19.52485657 C-12.04884436 17.57596907 -10.71204683 15.6317047 -9.375 13.6875 C-8.46831052 12.36162855 -7.56205578 11.0354597 -6.65625 9.70898438 C-4.44251733 6.46919211 -2.22287202 3.23352768 0 0 Z " fill="#D60127" transform="translate(255,179)"/>
<path d="M0 0 C5.09641312 1.69880437 8.51562998 3.30937799 13 6 C12.34 6.66 11.68 7.32 11 8 C11 7.34 11 6.68 11 6 C10.01 6.33 9.02 6.66 8 7 C7.67 6.01 7.34 5.02 7 4 C5.35 4 3.7 4 2 4 C2 155.14 2 306.28 2 462 C1.34 462 0.68 462 0 462 C0 309.54 0 157.08 0 0 Z " fill="#C6566C" transform="translate(367,25)"/>
<path d="M0 0 C1.13643966 3.40931897 0.86747764 4.00335456 -0.4375 7.1875 C-0.72496094 7.90292969 -1.01242188 8.61835938 -1.30859375 9.35546875 C-1.53675781 9.89816406 -1.76492187 10.44085938 -2 11 C-0.76846191 10.99476318 0.46307617 10.98952637 1.73193359 10.98413086 C6.29035722 10.96606447 10.84877767 10.95456196 15.40722656 10.94506836 C17.38216687 10.9400319 19.35710343 10.93320249 21.33203125 10.92456055 C24.16667605 10.91246492 27.00127166 10.9067649 29.8359375 10.90234375 C30.72243988 10.89718246 31.60894226 10.89202118 32.52230835 10.88670349 C38.77225659 10.88612829 38.77225659 10.88612829 41 12 C41 22.56 41 33.12 41 44 C46.94 44 52.88 44 59 44 C59 33.44 59 22.88 59 12 C59.66 12 60.32 12 61 12 C61 23.22 61 34.44 61 46 C53.74 46 46.48 46 39 46 C39 35.11 39 24.22 39 13 C24.48 13 9.96 13 -5 13 C-4.22998773 9.14993864 -3.6738858 6.99223427 -1.9375 3.6875 C-1.57527344 2.99011719 -1.21304688 2.29273438 -0.83984375 1.57421875 C-0.56269531 1.05472656 -0.28554687 0.53523438 0 0 Z " fill="#BC0C31" transform="translate(206,299)"/>
<path d="M0 0 C0.66 0.33 1.32 0.66 2 1 C0.72025519 4.07524036 -0.67108237 6.5980855 -3 9 C-6.60338943 10.14079009 -10.05691235 10.07566664 -13.8125 10 C-15.28106445 10.01740234 -15.28106445 10.01740234 -16.77929688 10.03515625 C-19.18832566 10.05865897 -21.59145667 10.04581036 -24 10 C-23.41089844 11.13179687 -22.82179687 12.26359375 -22.21484375 13.4296875 C-21.45531148 14.91124428 -20.69621958 16.39302687 -19.9375 17.875 C-19.54755859 18.62136719 -19.15761719 19.36773437 -18.75585938 20.13671875 C-18.39169922 20.85214844 -18.02753906 21.56757813 -17.65234375 22.3046875 C-17.31195068 22.96452637 -16.97155762 23.62436523 -16.62084961 24.30419922 C-16.41596924 24.86381348 -16.21108887 25.42342773 -16 26 C-16.33 26.66 -16.66 27.32 -17 28 C-18.5 26.75 -18.5 26.75 -20 25 C-20 23.68 -20 22.36 -20 21 C-20.66 21 -21.32 21 -22 21 C-24.50964189 16.40093532 -26.61033325 12.3254456 -27 7 C-26 6 -26 6 -23.77514648 5.88647461 C-22.81680908 5.89171143 -21.85847168 5.89694824 -20.87109375 5.90234375 C-19.31938477 5.90717773 -19.31938477 5.90717773 -17.73632812 5.91210938 C-16.64771484 5.92048828 -15.55910156 5.92886719 -14.4375 5.9375 C-12.7987793 5.94426758 -12.7987793 5.94426758 -11.12695312 5.95117188 C-8.41791505 5.96300174 -5.70898401 5.97948457 -3 6 C-2.690625 5.38125 -2.38125 4.7625 -2.0625 4.125 C-1.375 2.75 -0.6875 1.375 0 0 Z " fill="#FCE1E6" transform="translate(237,203)"/>
<path d="M0 0 C1 3 1 3 -2 11 C11.53 11 25.06 11 39 11 C39 11.66 39 12.32 39 13 C24.48 13 9.96 13 -5 13 C-4.22998773 9.14993864 -3.6738858 6.99223427 -1.9375 3.6875 C-1.57527344 2.99011719 -1.21304688 2.29273438 -0.83984375 1.57421875 C-0.56269531 1.05472656 -0.28554687 0.53523438 0 0 Z " fill="#CE2A48" transform="translate(206,299)"/>
<path d="M0 0 C7.59 0 15.18 0 23 0 C23 0.33 23 0.66 23 1 C12.605 1.495 12.605 1.495 2 2 C4.66915041 7.18005619 4.66915041 7.18005619 7.35571289 12.35107422 C7.6830542 12.9957666 8.01039551 13.64045898 8.34765625 14.3046875 C8.68804932 14.96452637 9.02844238 15.62436523 9.37915039 16.30419922 C9.58403076 16.86381348 9.78891113 17.42342773 10 18 C9.67 18.66 9.34 19.32 9 20 C7.5 18.75 7.5 18.75 6 17 C6 15.68 6 14.36 6 13 C5.34 13 4.68 13 4 13 C3.32065893 11.77779263 2.65708477 10.54681549 2 9.3125 C1.62875 8.62800781 1.2575 7.94351563 0.875 7.23828125 C0 5 0 5 0 0 Z " fill="#EDABB8" transform="translate(211,211)"/>
<path d="M0 0 C1.67542976 0.28604898 3.34385343 0.61781233 5 1 C4.01 1.495 4.01 1.495 3 2 C2.34 1.67 1.68 1.34 1 1 C1 8.26 1 15.52 1 23 C-0.98 23.99 -2.96 24.98 -5 26 C-5 25.34 -5 24.68 -5 24 C-4.01 23.34 -3.02 22.68 -2 22 C-1.50850977 19.79626077 -1.50850977 19.79626077 -1.5234375 17.24609375 C-1.4925 16.30958984 -1.4615625 15.37308594 -1.4296875 14.40820312 C-1.41164062 13.42787109 -1.39359375 12.44753906 -1.375 11.4375 C-1.32421 9.4985919 -1.26972593 7.55977582 -1.2109375 5.62109375 C-1.18459229 4.32836548 -1.18459229 4.32836548 -1.15771484 3.00952148 C-1 1 -1 1 0 0 Z " fill="#FEDFE8" transform="translate(188,233)"/>
<path d="M0 0 C0.99 0.33 1.98 0.66 3 1 C3.6875 3.0625 3.6875 3.0625 4 5 C3.195625 5.12375 2.39125 5.2475 1.5625 5.375 C0.2940625 5.684375 0.2940625 5.684375 -1 6 C-1.33 6.66 -1.66 7.32 -2 8 C-2.66 8 -3.32 8 -4 8 C-3.67 8.99 -3.34 9.98 -3 11 C-6.0247093 15.70510336 -6.0247093 15.70510336 -9.14453125 16.6484375 C-10.06298828 16.82246094 -10.06298828 16.82246094 -11 17 C-3.70159453 5.47835991 -3.70159453 5.47835991 0 0 Z " fill="#C5193A" transform="translate(255,179)"/>
<path d="M0 0 C0.66 0.33 1.32 0.66 2 1 C0.76238177 2.65516419 -0.49057455 4.29886798 -1.75 5.9375 C-2.44609375 6.85402344 -3.1421875 7.77054687 -3.859375 8.71484375 C-6.08177274 11.08729389 -6.92406008 11.46966553 -10 12 C-11.28436734 13.9837767 -11.28436734 13.9837767 -12 16 C-12.66 16 -13.32 16 -14 16 C-14.33 16.66 -14.66 17.32 -15 18 C-15.99 17.67 -16.98 17.34 -18 17 C-16.12818806 15.10092866 -14.25269944 13.20573596 -12.375 11.3125 C-11.59189453 10.51682617 -11.59189453 10.51682617 -10.79296875 9.70507812 C-7.35262538 6.24349806 -3.7940764 3.07058135 0 0 Z " fill="#E02C50" transform="translate(93,57)"/>
<path d="M0 0 C5.09641312 1.69880437 8.51562998 3.30937799 13 6 C12.34 6.66 11.68 7.32 11 8 C11 7.34 11 6.68 11 6 C10.01 6.33 9.02 6.66 8 7 C7.67 6.01 7.34 5.02 7 4 C5.35 4 3.7 4 2 4 C1.67 11.26 1.34 18.52 1 26 C0.67 26 0.34 26 0 26 C0 17.42 0 8.84 0 0 Z " fill="#C8596E" transform="translate(367,25)"/>
<path d="M0 0 C0.55719727 0.16298584 1.11439453 0.32597168 1.68847656 0.49389648 C4.19510339 1.0427175 6.41980924 1.11329385 8.984375 1.09765625 C9.91894531 1.09443359 10.85351562 1.09121094 11.81640625 1.08789062 C12.78449219 1.07951172 13.75257813 1.07113281 14.75 1.0625 C16.22533203 1.05573242 16.22533203 1.05573242 17.73046875 1.04882812 C20.15370791 1.03706483 22.57682273 1.02062684 25 1 C26 4 26 4 25 7 C24.34 7 23.68 7 23 7 C23.33 5.68 23.66 4.36 24 3 C16.41 3 8.82 3 1 3 C0.67 2.01 0.34 1.02 0 0 Z " fill="#FCDDE2" transform="translate(276,208)"/>
<path d="M0 0 C7.59 0 15.18 0 23 0 C22.34 1.32 21.68 2.64 21 4 C21 3.34 21 2.68 21 2 C14.07 2 7.14 2 0 2 C0 1.34 0 0.68 0 0 Z " fill="#C53D58" transform="translate(277,211)"/>
<path d="M0 0 C3.8127519 1.2709173 6.90625009 2.33081901 10.375 4.125 C11.06335938 4.47820312 11.75171875 4.83140625 12.4609375 5.1953125 C12.96882812 5.46085938 13.47671875 5.72640625 14 6 C13.34 6.66 12.68 7.32 12 8 C10.30729167 6.99088542 8.61458333 5.98177083 6.921875 4.97265625 C4.73514562 3.77676439 4.73514562 3.77676439 1 3 C1 9.27 1 15.54 1 22 C0.67 22 0.34 22 0 22 C0 14.74 0 7.48 0 0 Z " fill="#C0314D" transform="translate(189,234)"/>
<path d="M0 0 C0.66 0.99 1.32 1.98 2 3 C-2.52513966 7.77653631 -2.52513966 7.77653631 -5.125 9 C-7.24652922 9.92496937 -7.24652922 9.92496937 -8.5 12.5 C-10.11405223 15.19008704 -11.12403677 15.9091174 -14 17 C-12.34355005 12.90351 -9.42035825 9.97868372 -6.4375 6.8125 C-5.93025391 6.26658203 -5.42300781 5.72066406 -4.90039062 5.15820312 C-1.44294085 1.44294085 -1.44294085 1.44294085 0 0 Z " fill="#D71B40" transform="translate(71,78)"/>
<path d="M0 0 C2.87760072 3.40080085 3.46951823 5.40855469 5 10 C-1.6 10 -8.2 10 -15 10 C-15 9.67 -15 9.34 -15 9 C-10.05 8.67 -5.1 8.34 0 8 C0.33 6.35 0.66 4.7 1 3 C0.34 2.67 -0.32 2.34 -1 2 C-0.67 1.34 -0.34 0.68 0 0 Z " fill="#C80429" transform="translate(306,301)"/>
<path d="M0 0 C2.73795085 2.0237028 3.00561491 3.03493722 3.5625 6.5 C3.706875 7.655 3.85125 8.81 4 10 C4.99 11.485 4.99 11.485 6 13 C5.625 16.1875 5.625 16.1875 5 19 C3.32518285 15.912511 2.29597217 12.88620072 1.375 9.5 C1.11460938 8.5615625 0.85421875 7.623125 0.5859375 6.65625 C0 4 0 4 0 0 Z " fill="#DD3252" transform="translate(6,312)"/>
<path d="M0 0 C0.33 0 0.66 0 1 0 C1.14510162 3.27036728 1.23399373 6.53991007 1.3125 9.8125 C1.3753418 11.2056543 1.3753418 11.2056543 1.43945312 12.62695312 C1.48546071 15.17577311 1.47606062 17.49470579 1 20 C-1.375 22.15625 -1.375 22.15625 -4 23 C-6.3125 22.6875 -6.3125 22.6875 -8 22 C-2.25 19 -2.25 19 0 19 C0 12.73 0 6.46 0 0 Z " fill="#C91435" transform="translate(190,237)"/>
<path d="M0 0 C3.32993034 3.82941989 5.05324525 8.37522222 7 13 C3.54074837 11.7508258 0.85306797 10.32472205 -2 8 C-0.68 8 0.64 8 2 8 C2 7.01 2 6.02 2 5 C1.34 5 0.68 5 0 5 C0 3.35 0 1.7 0 0 Z " fill="#FBC0CC" transform="translate(227,243)"/>
<path d="M0 0 C0 0.66 0 1.32 0 2 C-0.99 2 -1.98 2 -3 2 C-3 2.66 -3 3.32 -3 4 C-4.24176695 4.70226141 -5.49385599 5.38629109 -6.75 6.0625 C-7.79414063 6.63677734 -7.79414063 6.63677734 -8.859375 7.22265625 C-11.36140628 8.1312406 -12.5332355 7.88336837 -15 7 C-12.87767021 5.82823482 -10.75242209 4.66245215 -8.625 3.5 C-7.72007812 2.99919922 -7.72007812 2.99919922 -6.796875 2.48828125 C-2.2265625 0 -2.2265625 0 0 0 Z " fill="#C52041" transform="translate(297,247)"/>
<path d="M0 0 C0 0.66 0 1.32 0 2 C-0.66 2 -1.32 2 -2 2 C-2 2.66 -2 3.32 -2 4 C-3.65 4 -5.3 4 -7 4 C-7 4.66 -7 5.32 -7 6 C-8.32 6 -9.64 6 -11 6 C-11 6.66 -11 7.32 -11 8 C-12.65 8 -14.3 8 -16 8 C-13.10414095 5.70351643 -10.1827969 3.95652443 -6.875 2.3125 C-5.57175781 1.65701172 -5.57175781 1.65701172 -4.2421875 0.98828125 C-2 0 -2 0 0 0 Z " fill="#C52443" transform="translate(321,235)"/>
<path d="M0 0 C0 0.66 0 1.32 0 2 C-0.66 2.66 -1.32 3.32 -2 4 C-1.34 5.32 -0.68 6.64 0 8 C-2.97 7.01 -5.94 6.02 -9 5 C-4 0 -4 0 0 0 Z " fill="#C12042" transform="translate(176,263)"/>
<path d="M0 0 C0.66 0.99 1.32 1.98 2 3 C1.34 3 0.68 3 0 3 C0 3.99 0 4.98 0 6 C1.32 6.33 2.64 6.66 4 7 C-1.2734375 10.22265625 -1.2734375 10.22265625 -3 11 C-3.66 10.67 -4.32 10.34 -5 10 C-3.35 6.7 -1.7 3.4 0 0 Z " fill="#FAB9C5" transform="translate(283,245)"/>
<path d="M0 0 C0.66 0.33 1.32 0.66 2 1 C1.49855469 1.39832031 0.99710937 1.79664063 0.48046875 2.20703125 C-1.22742807 3.90350321 -1.22742807 3.90350321 -1.07421875 6.26171875 C-0.94660156 7.06222656 -0.81898438 7.86273438 -0.6875 8.6875 C-0.56761719 9.49574219 -0.44773437 10.30398438 -0.32421875 11.13671875 C-0.21722656 11.75160156 -0.11023438 12.36648438 0 13 C-2.64465038 9.8745041 -3.84414715 6.91211733 -5 3 C-2.625 1.4375 -2.625 1.4375 0 0 Z " fill="#FBD1D8" transform="translate(306,286)"/>
<path d="M0 0 C0.33 0 0.66 0 1 0 C1.28883414 4.06534057 0.57875609 6.33058355 -1.5 9.8125 C-1.9640625 10.60269531 -2.428125 11.39289063 -2.90625 12.20703125 C-3.44765625 13.09455078 -3.44765625 13.09455078 -4 14 C-4.66 14 -5.32 14 -6 14 C-4.50829734 9.0276578 -2.39542583 4.58154261 0 0 Z " fill="#FAC3D0" transform="translate(298,215)"/>
<path d="M0 0 C0.66 0 1.32 0 2 0 C1.88490339 1.41750563 1.75746342 2.83401169 1.625 4.25 C1.55539062 5.03890625 1.48578125 5.8278125 1.4140625 6.640625 C0.98492887 9.085877 0.21399362 10.84836903 -1 13 C-2.0070238 7.96488101 -1.97387813 4.76052962 0 0 Z " fill="#DC2D4F" transform="translate(505,307)"/>
<path d="M0 0 C2.0625 0.4375 2.0625 0.4375 4 1 C2.37750059 1.83819158 0.75191503 2.6704116 -0.875 3.5 C-2.23238281 4.19609375 -2.23238281 4.19609375 -3.6171875 4.90625 C-6 6 -6 6 -8 6 C-7.67 4.35 -7.34 2.7 -7 1 C-5.5459375 1.0309375 -5.5459375 1.0309375 -4.0625 1.0625 C-1.12534105 1.35618499 -1.12534105 1.35618499 0 0 Z " fill="#FCDFE7" transform="translate(299,243)"/>
<path d="M0 0 C4.75481646 0.57634139 7.97048212 2.55068521 12 5 C11.34 5.66 10.68 6.32 10 7 C10 6.34 10 5.68 10 5 C9.01 5.33 8.02 5.66 7 6 C6.67 5.01 6.34 4.02 6 3 C4.35 3 2.7 3 1 3 C0.67 2.01 0.34 1.02 0 0 Z " fill="#E03255" transform="translate(368,26)"/>
<path d="M0 0 C0.33 0.99 0.66 1.98 1 3 C-1 5 -1 5 -3.625 5.125 C-4.40875 5.08375 -5.1925 5.0425 -6 5 C-6 5.66 -6 6.32 -6 7 C-7.65 7 -9.3 7 -11 7 C-4.63636364 2 -4.63636364 2 0 2 C0 1.34 0 0.68 0 0 Z " fill="#F8D0DB" transform="translate(345,266)"/>
<path d="M0 0 C0.66 0 1.32 0 2 0 C1.39301257 4.12751449 -0.03810791 7.3321148 -2 11 C-2.33 11 -2.66 11 -3 11 C-3 8.69 -3 6.38 -3 4 C-2.01 4 -1.02 4 0 4 C0 2.68 0 1.36 0 0 Z " fill="#E03656" transform="translate(488,360)"/>
<path d="M0 0 C0.33 0 0.66 0 1 0 C1.33 3.3 1.66 6.6 2 10 C1.01 10.33 0.02 10.66 -1 11 C-1.33 11.66 -1.66 12.32 -2 13 C-1.85769192 11.58297487 -1.71099254 10.1663904 -1.5625 8.75 C-1.48128906 7.96109375 -1.40007813 7.1721875 -1.31640625 6.359375 C-1.02365007 4.17635361 -0.57935581 2.1226818 0 0 Z " fill="#DE3455" transform="translate(6,196)"/>
<path d="M0 0 C1.231394 2.46278801 1.07159196 4.2795055 1 7 C-0.98 7.99 -2.96 8.98 -5 10 C-3.66511872 6.40608886 -2.03977277 3.24509304 0 0 Z " fill="#E13352" transform="translate(35,125)"/>
<path d="M0 0 C0 4.07546013 -1.55304448 5.80536362 -4 9 C-6.25 10.375 -6.25 10.375 -8 11 C-6.63629701 8.00779732 -5.05091917 5.70973471 -2.875 3.25 C-2.33617187 2.63640625 -1.79734375 2.0228125 -1.2421875 1.390625 C-0.62730469 0.70226562 -0.62730469 0.70226562 0 0 Z " fill="#E3395C" transform="translate(65,84)"/>
<path d="M0 0 C2.475 0.99 2.475 0.99 5 2 C5 2.66 5 3.32 5 4 C5.66 4.33 6.32 4.66 7 5 C6.67 5.99 6.34 6.98 6 8 C3.33264727 5.51047079 1.44253657 3.36591866 0 0 Z " fill="#DD264C" transform="translate(37,390)"/>
<path d="M0 0 C1.65 0 3.3 0 5 0 C-0.14285714 4.42857143 -0.14285714 4.42857143 -4 5 C-4 4.01 -4 3.02 -4 2 C-2.68 2 -1.36 2 0 2 C0 1.34 0 0.68 0 0 Z " fill="#DE3251" transform="translate(377,479)"/>
<path d="M0 0 C2.64465038 3.1254959 3.84414715 6.08788267 5 10 C4.34 10 3.68 10 3 10 C3 9.34 3 8.68 3 8 C2.34 8 1.68 8 1 8 C1 6.35 1 4.7 1 3 C0.34 2.67 -0.32 2.34 -1 2 C-0.67 1.34 -0.34 0.68 0 0 Z " fill="#C42843" transform="translate(306,301)"/>
<path d="M0 0 C0.33 0 0.66 0 1 0 C1.17942163 3.94727588 1.09350689 6.5980513 -1 10 C-1.66 10 -2.32 10 -3 10 C-2.39009109 6.44219804 -1.4216319 3.3171411 0 0 Z " fill="#DE3154" transform="translate(22,149)"/>
<path d="M0 0 C0.99 0 1.98 0 3 0 C1.70700306 2.88437779 0.34058637 4.87219421 -2 7 C-1.125 1.125 -1.125 1.125 0 0 Z " fill="#D62B49" transform="translate(462,404)"/>
<path d="M0 0 C0.66 0 1.32 0 2 0 C1.50168276 3.68754757 0.89932357 5.60490662 -2 8 C-2.33 6.35 -2.66 4.7 -3 3 C-2.01 3 -1.02 3 0 3 C0 2.01 0 1.02 0 0 Z " fill="#D82244" transform="translate(477,381)"/>
<path d="M0 0 C3 2 3 2 5 5 C4.67 5.66 4.34 6.32 4 7 C4.66 7.33 5.32 7.66 6 8 C5.01 8 4.02 8 3 8 C0 2.25 0 2.25 0 0 Z " fill="#E6395A" transform="translate(27,371)"/>
<path d="M0 0 C0.66 1.32 1.32 2.64 2 4 C0.625 5.5 0.625 5.5 -1 7 C-1.66 7 -2.32 7 -3 7 C-1.125 1.125 -1.125 1.125 0 0 Z " fill="#C91A3F" transform="translate(210,292)"/>
<path d="M0 0 C3.91211733 1.15585285 6.8745041 2.35534962 10 5 C6.44219804 4.39009109 3.3171411 3.4216319 0 2 C0 1.34 0 0.68 0 0 Z " fill="#FBC8D4" transform="translate(180,274)"/>
<path d="M0 0 C4.455 1.98 4.455 1.98 9 4 C8.67 4.66 8.34 5.32 8 6 C4.5625 4.6875 4.5625 4.6875 1 3 C0.67 2.01 0.34 1.02 0 0 Z " fill="#C52343" transform="translate(222,250)"/>
<path d="M0 0 C1.11375 0.598125 2.2275 1.19625 3.375 1.8125 C4.00148438 2.14894531 4.62796875 2.48539063 5.2734375 2.83203125 C7 4 7 4 9 7 C2.29787234 5.06382979 2.29787234 5.06382979 0 2 C0 1.34 0 0.68 0 0 Z " fill="#DD3253" transform="translate(403,46)"/>
<path d="M0 0 C1.1446875 0.3403125 1.1446875 0.3403125 2.3125 0.6875 C-0.30948774 2.84127564 -2.33154172 4.08822174 -5.6875 4.6875 C-5.6875 2.6875 -5.6875 2.6875 -4.5 1 C-2.6875 -0.3125 -2.6875 -0.3125 0 0 Z " fill="#C30F2E" transform="translate(313.6875,280.3125)"/>
<path d="M0 0 C1.32 0.33 2.64 0.66 4 1 C3.01 2.98 2.02 4.96 1 7 C0.67 7 0.34 7 0 7 C0 4.69 0 2.38 0 0 Z " fill="#FBDBE1" transform="translate(247,184)"/>
<path d="M0 0 C1.65 1.65 3.3 3.3 5 5 C4.67 5.99 4.34 6.98 4 8 C1.10067643 5.60490662 0.49831724 3.68754757 0 0 Z " fill="#DA2847" transform="translate(456,96)"/>
<path d="M0 0 C-0.33 0.99 -0.66 1.98 -1 3 C-1.66 3 -2.32 3 -3 3 C-3.33 3.66 -3.66 4.32 -4 5 C-4.99 4.67 -5.98 4.34 -7 4 C-3.375 0 -3.375 0 0 0 Z " fill="#D41E42" transform="translate(82,70)"/>
</svg>
