<?xml version="1.0" encoding="UTF-8"?>
<svg version="1.1" xmlns="http://www.w3.org/2000/svg" width="512" height="512">
<path d="M0 0 C1.01790619 0.00215515 2.03581238 0.0043103 3.08456421 0.00653076 C17.69363523 0.05620146 32.02575853 0.30709809 46.375 3.3125 C47.34985352 3.51117676 48.32470703 3.70985352 49.32910156 3.91455078 C97.7109774 14.03517194 141.69928269 35.9516877 177.375 70.3125 C178.3640332 71.26068604 178.3640332 71.26068604 179.37304688 72.22802734 C188.86130305 81.37247479 197.6012044 90.66984009 205.375 101.3125 C206.23306152 102.46355017 207.09113451 103.61459177 207.94921875 104.765625 C213.98677396 112.95525981 219.36957302 121.45788276 224.375 130.3125 C224.7771875 131.01971191 225.179375 131.72692383 225.59375 132.45556641 C238.6191741 155.59095836 247.36801461 180.76212409 252.6875 206.75 C252.83485596 207.46889404 252.98221191 208.18778809 253.1340332 208.9284668 C256.10789088 224.57475609 256.74800362 240.04818046 256.6875 255.9375 C256.68534485 256.95540619 256.6831897 257.97331238 256.68096924 259.02206421 C256.63129854 273.63113523 256.38040191 287.96325853 253.375 302.3125 C253.07698486 303.77478027 253.07698486 303.77478027 252.77294922 305.26660156 C242.65232806 353.6484774 220.7358123 397.63678269 186.375 433.3125 C185.74287598 433.97185547 185.11075195 434.63121094 184.45947266 435.31054688 C175.31502521 444.79880305 166.01765991 453.5387044 155.375 461.3125 C154.22394983 462.17056152 153.07290823 463.02863451 151.921875 463.88671875 C143.73224019 469.92427396 135.22961724 475.30707302 126.375 480.3125 C125.66778809 480.7146875 124.96057617 481.116875 124.23193359 481.53125 C101.09654164 494.5566741 75.92537591 503.30551461 49.9375 508.625 C49.21860596 508.77235596 48.49971191 508.91971191 47.7590332 509.0715332 C33.08339502 511.86090125 18.55831162 512.66142619 3.64770508 512.62817383 C0.70811513 512.6250221 -2.2304558 512.64854926 -5.16992188 512.67382812 C-18.54306192 512.71848737 -31.43916711 511.51301542 -44.625 509.3125 C-46.33055054 509.03031616 -46.33055054 509.03031616 -48.07055664 508.74243164 C-91.33802759 500.97044532 -132.38793216 480.98345309 -165.625 452.3125 C-166.37007813 451.67828125 -167.11515625 451.0440625 -167.8828125 450.390625 C-181.38779833 438.57948485 -194.05918743 425.82889772 -204.625 411.3125 C-205.48149066 410.16255169 -206.33826433 409.01281411 -207.1953125 407.86328125 C-213.23534209 399.67315742 -218.61867614 391.16870382 -223.625 382.3125 C-224.0271875 381.60528809 -224.429375 380.89807617 -224.84375 380.16943359 C-237.8691741 357.03404164 -246.61801461 331.86287591 -251.9375 305.875 C-252.08485596 305.15610596 -252.23221191 304.43721191 -252.3840332 303.6965332 C-255.35789088 288.05024391 -255.99800362 272.57681954 -255.9375 256.6875 C-255.93534485 255.66959381 -255.9331897 254.65168762 -255.93096924 253.60293579 C-255.88129854 238.99386477 -255.63040191 224.66174147 -252.625 210.3125 C-252.42632324 209.33764648 -252.22764648 208.36279297 -252.02294922 207.35839844 C-241.90232806 158.9765226 -219.9858123 114.98821731 -185.625 79.3125 C-184.99287598 78.65314453 -184.36075195 77.99378906 -183.70947266 77.31445312 C-174.56502521 67.82619695 -165.26765991 59.0862956 -154.625 51.3125 C-153.47394983 50.45443848 -152.32290823 49.59636549 -151.171875 48.73828125 C-142.98224019 42.70072604 -134.47961724 37.31792698 -125.625 32.3125 C-124.91778809 31.9103125 -124.21057617 31.508125 -123.48193359 31.09375 C-100.34654164 18.0683259 -75.17537591 9.31948539 -49.1875 4 C-48.46860596 3.85264404 -47.74971191 3.70528809 -47.0090332 3.5534668 C-31.36274391 0.57960912 -15.88931954 -0.06050362 0 0 Z " fill="#EFEFF0" transform="translate(255.625,-0.3125)"/>
<path d="M0 0 C0 158.4 0 316.8 0 480 C-4.51041644 479.24826393 -7.19776707 478.67725818 -11.16796875 476.8828125 C-12.13404053 476.44654541 -13.1001123 476.01027832 -14.09545898 475.56079102 C-15.11583252 475.08697998 -16.13620605 474.61316895 -17.1875 474.125 C-18.25105713 473.63249756 -19.31461426 473.13999512 -20.41040039 472.63256836 C-40.91608138 462.98220408 -59.82889238 450.81213756 -77 436 C-77.74507813 435.36578125 -78.49015625 434.7315625 -79.2578125 434.078125 C-92.76279833 422.26698485 -105.43418743 409.51639772 -116 395 C-116.85649066 393.85005169 -117.71326433 392.70031411 -118.5703125 391.55078125 C-124.61034209 383.36065742 -129.99367614 374.85620382 -135 366 C-135.4021875 365.29278809 -135.804375 364.58557617 -136.21875 363.85693359 C-149.2441741 340.72154164 -157.99301461 315.55037591 -163.3125 289.5625 C-163.45985596 288.84360596 -163.60721191 288.12471191 -163.7590332 287.3840332 C-166.73289088 271.73774391 -167.37300362 256.26431954 -167.3125 240.375 C-167.31034485 239.35709381 -167.3081897 238.33918762 -167.30596924 237.29043579 C-167.25629854 222.68136477 -167.00540191 208.34924147 -164 194 C-163.80132324 193.02514648 -163.60264648 192.05029297 -163.39794922 191.04589844 C-153.27732806 142.6640226 -131.3608123 98.67571731 -97 63 C-96.36787598 62.34064453 -95.73575195 61.68128906 -95.08447266 61.00195312 C-85.94002521 51.51369695 -76.64265991 42.7737956 -66 35 C-64.84894983 34.14193848 -63.69790823 33.28386549 -62.546875 32.42578125 C-18.5629614 0 -18.5629614 0 0 0 Z " fill="#0152B3" transform="translate(167,16)"/>
<path d="M0 0 C6.7646305 1.12743842 6.7646305 1.12743842 10.2578125 2.6796875 C11.03801758 3.02563965 11.81822266 3.3715918 12.62207031 3.72802734 C13.44803711 4.10652832 14.27400391 4.4850293 15.125 4.875 C16.43355957 5.47175537 16.43355957 5.47175537 17.76855469 6.08056641 C43.84015424 18.17221719 67.29697906 34.06003326 88 54 C88.65935547 54.63212402 89.31871094 55.26424805 89.99804688 55.91552734 C99.48630305 65.05997479 108.2262044 74.35734009 116 85 C116.85806152 86.15105017 117.71613451 87.30209177 118.57421875 88.453125 C124.61177396 96.64275981 129.99457302 105.14538276 135 114 C135.60328125 115.06081787 135.60328125 115.06081787 136.21875 116.14306641 C149.2441741 139.27845836 157.99301461 164.44962409 163.3125 190.4375 C163.45985596 191.15639404 163.60721191 191.87528809 163.7590332 192.6159668 C166.73289088 208.26225609 167.37300362 223.73568046 167.3125 239.625 C167.30926727 241.15185928 167.30926727 241.15185928 167.30596924 242.70956421 C167.25629854 257.31863523 167.00540191 271.65075853 164 286 C163.70198486 287.46228027 163.70198486 287.46228027 163.39794922 288.95410156 C153.27732806 337.3359774 131.3608123 381.32428269 97 417 C96.05181396 417.9890332 96.05181396 417.9890332 95.08447266 418.99804688 C85.94002521 428.48630305 76.64265991 437.2262044 66 445 C64.84894983 445.85806152 63.69790823 446.71613451 62.546875 447.57421875 C18.5629614 480 18.5629614 480 0 480 C0 321.6 0 163.2 0 0 Z " fill="#D70126" transform="translate(345,16)"/>
<path d="M0 0 C0.59329102 0.22163818 1.18658203 0.44327637 1.79785156 0.67163086 C-0.82714844 4.54663086 -0.82714844 4.54663086 -4.20214844 5.67163086 C-4.82089844 6.45538086 -5.43964844 7.23913086 -6.07714844 8.04663086 C-8.27093097 10.75659752 -10.06600269 12.18608814 -13.20214844 13.67163086 C-13.86214844 13.34163086 -14.52214844 13.01163086 -15.20214844 12.67163086 C-13.13347281 10.46843153 -11.0493305 8.28490111 -8.95214844 6.10913086 C-8.07236328 5.16650391 -8.07236328 5.16650391 -7.17480469 4.20483398 C-6.60117188 3.61508789 -6.02753906 3.0253418 -5.43652344 2.41772461 C-4.9128418 1.86785889 -4.38916016 1.31799316 -3.84960938 0.75146484 C-2.20214844 -0.32836914 -2.20214844 -0.32836914 0 0 Z " fill="#2369B8" transform="translate(89.2021484375,62.328369140625)"/>
<path d="M0 0 C0.33 0.66 0.66 1.32 1 2 C-0.21484375 4.3828125 -0.21484375 4.3828125 -1.9375 7.125 C-2.50339844 8.03507812 -3.06929688 8.94515625 -3.65234375 9.8828125 C-4.09707031 10.58148438 -4.54179687 11.28015625 -5 12 C-5.33 10.68 -5.66 9.36 -6 8 C-5.34 8 -4.68 8 -4 8 C-4.33 6.68 -4.66 5.36 -5 4 C-4.01 4 -3.02 4 -2 4 C-2 3.01 -2 2.02 -2 1 C-1.34 0.67 -0.68 0.34 0 0 Z " fill="#E02C4B" transform="translate(479,380)"/>
<path d="M0 0 C0.625 1.8125 0.625 1.8125 1 4 C0.01 5.485 0.01 5.485 -1 7 C-1.66 7 -2.32 7 -3 7 C-3.33 8.65 -3.66 10.3 -4 12 C-4.66 12 -5.32 12 -6 12 C-4.68139111 7.38486888 -2.78644563 3.90102388 0 0 Z " fill="#3376BE" transform="translate(38,120)"/>
<path d="M0 0 C3.28788824 3.11016455 5.83735988 6.01618925 8 10 C7.01 10 6.02 10 5 10 C1.93193534 6.84169815 0.50057152 4.38000076 0 0 Z " fill="#DB2E4C" transform="translate(456,96)"/>
<path d="M0 0 C0.99 0 1.98 0 3 0 C1.68775452 3.93673644 0.08089673 6.22719294 -3 9 C-3.33 8.01 -3.66 7.02 -4 6 C-3.34 6 -2.68 6 -2 6 C-1.34 4.02 -0.68 2.04 0 0 Z " fill="#DA274C" transform="translate(470,392)"/>
<path d="M0 0 C2.31 0 4.62 0 7 0 C1.85714286 4.42857143 1.85714286 4.42857143 -2 5 C-2 4.01 -2 3.02 -2 2 C-1.34 2 -0.68 2 0 2 C0 1.34 0 0.68 0 0 Z " fill="#DE294A" transform="translate(384,474)"/>
<path d="M0 0 C2 3 2 3 1.875 5.0625 C1 7 1 7 -3 9 C-2.01 6.03 -1.02 3.06 0 0 Z " fill="#2D71BD" transform="translate(18,159)"/>
<path d="M0 0 C1.45606519 4.52092968 0.27032841 7.51648796 -1 12 C-1.33 12 -1.66 12 -2 12 C-2.05422947 10.5629191 -2.09289723 9.12524538 -2.125 7.6875 C-2.14820313 6.88699219 -2.17140625 6.08648437 -2.1953125 5.26171875 C-2 3 -2 3 0 0 Z " fill="#E03B5C" transform="translate(505,312)"/>
<path d="M0 0 C0.33 0.99 0.66 1.98 1 3 C1.66 3.33 2.32 3.66 3 4 C2.54625 4.433125 2.0925 4.86625 1.625 5.3125 C-0.20024334 7.10798342 -0.20024334 7.10798342 -2 10 C-1.54177532 6.53058454 -1.10868317 3.32604951 0 0 Z " fill="#3378C4" transform="translate(12,175)"/>
<path d="M0 0 C2.31 0 4.62 0 7 0 C4.82575883 2.50037734 3.26954202 3.43628586 0 4 C0 2.68 0 1.36 0 0 Z " fill="#DF3857" transform="translate(373,480)"/>
<path d="M0 0 C0.33 0.66 0.66 1.32 1 2 C0.06421005 4.35981813 -0.93347808 6.69631264 -2 9 C-2.33 9 -2.66 9 -3 9 C-2.4140625 2.84765625 -2.4140625 2.84765625 -2 1 C-1.34 0.67 -0.68 0.34 0 0 Z " fill="#E13357" transform="translate(493,351)"/>
<path d="M0 0 C0.33 0.66 0.66 1.32 1 2 C-0.25 5.0625 -0.25 5.0625 -2 8 C-2.99 8.33 -3.98 8.66 -5 9 C-3.7508258 5.54074837 -2.32472205 2.85306797 0 0 Z " fill="#3175C1" transform="translate(44,111)"/>
<path d="M0 0 C-0.66 1.32 -1.32 2.64 -2 4 C-4.97 3.505 -4.97 3.505 -8 3 C-5.36657694 0.36657694 -3.69534435 0 0 0 Z " fill="#3373B6" transform="translate(167,16)"/>
</svg>
