<?xml version="1.0" encoding="UTF-8"?>
<svg version="1.1" xmlns="http://www.w3.org/2000/svg" width="512" height="512">
<path d="M0 0 C1.01790619 0.00215515 2.03581238 0.0043103 3.08456421 0.00653076 C17.69363523 0.05620146 32.02575853 0.30709809 46.375 3.3125 C47.34985352 3.51117676 48.32470703 3.70985352 49.32910156 3.91455078 C97.7109774 14.03517194 141.69928269 35.9516877 177.375 70.3125 C178.3640332 71.26068604 178.3640332 71.26068604 179.37304688 72.22802734 C188.86130305 81.37247479 197.6012044 90.66984009 205.375 101.3125 C206.23306152 102.46355017 207.09113451 103.61459177 207.94921875 104.765625 C213.98736829 112.95680614 219.34595521 121.47054105 224.375 130.3125 C224.73948242 130.94430176 225.10396484 131.57610352 225.47949219 132.22705078 C247.08534998 169.97532572 256.85198095 212.74189997 256.6875 255.9375 C256.68534485 256.95540619 256.6831897 257.97331238 256.68096924 259.02206421 C256.63129854 273.63113523 256.38040191 287.96325853 253.375 302.3125 C253.07698486 303.77478027 253.07698486 303.77478027 252.77294922 305.26660156 C242.65232806 353.6484774 220.7358123 397.63678269 186.375 433.3125 C185.74287598 433.97185547 185.11075195 434.63121094 184.45947266 435.31054688 C175.31502521 444.79880305 166.01765991 453.5387044 155.375 461.3125 C154.22394983 462.17056152 153.07290823 463.02863451 151.921875 463.88671875 C143.73224019 469.92427396 135.22961724 475.30707302 126.375 480.3125 C125.66778809 480.7146875 124.96057617 481.116875 124.23193359 481.53125 C101.09654164 494.5566741 75.92537591 503.30551461 49.9375 508.625 C49.21860596 508.77235596 48.49971191 508.91971191 47.7590332 509.0715332 C33.08339502 511.86090125 18.55831162 512.66142619 3.64770508 512.62817383 C0.70811513 512.6250221 -2.2304558 512.64854926 -5.16992188 512.67382812 C-18.54306192 512.71848737 -31.43916711 511.51301542 -44.625 509.3125 C-46.33055054 509.03031616 -46.33055054 509.03031616 -48.07055664 508.74243164 C-50.6662622 508.27617402 -53.23774939 507.7574418 -55.8125 507.1875 C-57.20142456 506.88054199 -57.20142456 506.88054199 -58.6184082 506.56738281 C-103.06909585 496.23155661 -143.80440564 473.92342102 -176.625 442.3125 C-177.28435547 441.68037598 -177.94371094 441.04825195 -178.62304688 440.39697266 C-188.11130305 431.25252521 -196.8512044 421.95515991 -204.625 411.3125 C-205.48306152 410.16144983 -206.34113451 409.01040823 -207.19921875 407.859375 C-213.23677396 399.66974019 -218.61957302 391.16711724 -223.625 382.3125 C-224.0271875 381.60528809 -224.429375 380.89807617 -224.84375 380.16943359 C-237.8691741 357.03404164 -246.61801461 331.86287591 -251.9375 305.875 C-252.08485596 305.15610596 -252.23221191 304.43721191 -252.3840332 303.6965332 C-255.35789088 288.05024391 -255.99800362 272.57681954 -255.9375 256.6875 C-255.93534485 255.66959381 -255.9331897 254.65168762 -255.93096924 253.60293579 C-255.88129854 238.99386477 -255.63040191 224.66174147 -252.625 210.3125 C-252.42632324 209.33764648 -252.22764648 208.36279297 -252.02294922 207.35839844 C-241.90232806 158.9765226 -219.9858123 114.98821731 -185.625 79.3125 C-184.99287598 78.65314453 -184.36075195 77.99378906 -183.70947266 77.31445312 C-174.56502521 67.82619695 -165.26765991 59.0862956 -154.625 51.3125 C-153.47394983 50.45443848 -152.32290823 49.59636549 -151.171875 48.73828125 C-142.98224019 42.70072604 -134.47961724 37.31792698 -125.625 32.3125 C-124.91778809 31.9103125 -124.21057617 31.508125 -123.48193359 31.09375 C-100.34654164 18.0683259 -75.17537591 9.31948539 -49.1875 4 C-48.46860596 3.85264404 -47.74971191 3.70528809 -47.0090332 3.5534668 C-31.36274391 0.57960912 -15.88931954 -0.06050362 0 0 Z " fill="#EFF0F0" transform="translate(255.625,-0.3125)"/>
<path d="M0 0 C152.46 0 304.92 0 462 0 C460.23449015 5.29652956 458.25618063 9.5642994 455.5625 14.375 C455.12220459 15.16229492 454.68190918 15.94958984 454.22827148 16.76074219 C444.02219242 34.70731606 431.30743065 51.14505866 417 66 C416.36787598 66.65935547 415.73575195 67.31871094 415.08447266 67.99804688 C405.94002521 77.48630305 396.64265991 86.2262044 386 94 C384.84894983 94.85806152 383.69790823 95.71613451 382.546875 96.57421875 C374.35724019 102.61177396 365.85461724 107.99457302 357 113 C355.93918213 113.60328125 355.93918213 113.60328125 354.85693359 114.21875 C331.72154164 127.2441741 306.55037591 135.99301461 280.5625 141.3125 C279.84360596 141.45985596 279.12471191 141.60721191 278.3840332 141.7590332 C263.70839502 144.54840125 249.18331162 145.34892619 234.27270508 145.31567383 C231.33311513 145.3125221 228.3945442 145.33604926 225.45507812 145.36132812 C212.08193808 145.40598737 199.18583289 144.20051542 186 142 C184.86296631 141.81187744 183.72593262 141.62375488 182.55444336 141.42993164 C179.9587378 140.96367402 177.38725061 140.4449418 174.8125 139.875 C173.88655029 139.67036133 172.96060059 139.46572266 172.0065918 139.25488281 C127.55590415 128.91905661 86.82059436 106.61092102 54 75 C53.34064453 74.36787598 52.68128906 73.73575195 52.00195312 73.08447266 C42.51369695 63.94002521 33.7737956 54.64265991 26 44 C25.14193848 42.84894983 24.28386549 41.69790823 23.42578125 40.546875 C0 8.76238963 0 8.76238963 0 0 Z " fill="#348BF3" transform="translate(25,367)"/>
<path d="M0 0 C1.01790619 0.00215515 2.03581238 0.0043103 3.08456421 0.00653076 C17.69363523 0.05620146 32.02575853 0.30709809 46.375 3.3125 C47.34985352 3.51117676 48.32470703 3.70985352 49.32910156 3.91455078 C97.7109774 14.03517194 141.69928269 35.9516877 177.375 70.3125 C178.3640332 71.26068604 178.3640332 71.26068604 179.37304688 72.22802734 C188.86130305 81.37247479 197.6012044 90.66984009 205.375 101.3125 C206.23306152 102.46355017 207.09113451 103.61459177 207.94921875 104.765625 C231.375 136.55011037 231.375 136.55011037 231.375 145.3125 C78.915 145.3125 -73.545 145.3125 -230.625 145.3125 C-228.85949015 140.01597044 -226.88118063 135.7482006 -224.1875 130.9375 C-223.74720459 130.15020508 -223.30690918 129.36291016 -222.85327148 128.55175781 C-212.64719242 110.60518394 -199.93243065 94.16744134 -185.625 79.3125 C-184.99287598 78.65314453 -184.36075195 77.99378906 -183.70947266 77.31445312 C-174.56502521 67.82619695 -165.26765991 59.0862956 -154.625 51.3125 C-153.47394983 50.45443848 -152.32290823 49.59636549 -151.171875 48.73828125 C-142.98224019 42.70072604 -134.47961724 37.31792698 -125.625 32.3125 C-124.91778809 31.9103125 -124.21057617 31.508125 -123.48193359 31.09375 C-100.34654164 18.0683259 -75.17537591 9.31948539 -49.1875 4 C-48.46860596 3.85264404 -47.74971191 3.70528809 -47.0090332 3.5534668 C-31.36274391 0.57960912 -15.88931954 -0.06050362 0 0 Z " fill="#348BF3" transform="translate(255.625,-0.3125)"/>
<path d="M0 0 C2.10412898 2.10412898 2.58158372 3.23084857 3.5078125 5.9921875 C3.90419922 7.17361328 3.90419922 7.17361328 4.30859375 8.37890625 C4.57800781 9.20261719 4.84742188 10.02632812 5.125 10.875 C5.40214844 11.69097656 5.67929687 12.50695312 5.96484375 13.34765625 C6.35736328 14.53294922 6.35736328 14.53294922 6.7578125 15.7421875 C6.9964502 16.4626123 7.23508789 17.18303711 7.48095703 17.92529297 C8 20 8 20 8 24 C16.91 24 25.82 24 35 24 C29.375 29.625 29.375 29.625 26.23046875 31.89453125 C25.56982422 32.37470703 24.90917969 32.85488281 24.22851562 33.34960938 C23.55498047 33.83236328 22.88144531 34.31511719 22.1875 34.8125 C21.14819336 35.56563477 21.14819336 35.56563477 20.08789062 36.33398438 C18.39482309 37.5599988 16.69781244 38.7805649 15 40 C16.80576433 46.94945668 18.87653759 53.71800207 21.328125 60.46875 C22 63 22 63 21 66 C20.31035156 65.41992188 19.62070312 64.83984375 18.91015625 64.2421875 C13.14747281 59.45180868 7.34289492 54.99367458 1 51 C-3.98715044 53.71219872 -8.39124106 56.70061126 -12.8125 60.25 C-18.72998596 65 -18.72998596 65 -21 65 C-19.19423567 58.05054332 -17.12346241 51.28199793 -14.671875 44.53125 C-13.72675889 41.90467785 -13.72675889 41.90467785 -15 39 C-17.22013969 37.28549421 -19.42869475 35.68976649 -21.75 34.125 C-22.99808427 33.27827063 -24.24293273 32.42675052 -25.484375 31.5703125 C-26.03834961 31.19664551 -26.59232422 30.82297852 -27.16308594 30.43798828 C-29.62797925 28.50840008 -31.78651749 26.21348251 -34 24 C-25.09 24 -16.18 24 -7 24 C-6.67 21.69 -6.34 19.38 -6 17 C-5.33569336 14.64477539 -5.33569336 14.64477539 -4.58984375 12.59765625 C-4.32236328 11.85322266 -4.05488281 11.10878906 -3.77929688 10.34179688 C-3.50150391 9.58962891 -3.22371094 8.83746094 -2.9375 8.0625 C-2.65583984 7.28326172 -2.37417969 6.50402344 -2.08398438 5.70117188 C-1.39532294 3.79859875 -0.69850097 1.89898275 0 0 Z " fill="#398DF1" transform="translate(354,168)"/>
<path d="M0 0 C2.10412898 2.10412898 2.58158372 3.23084857 3.5078125 5.9921875 C3.90419922 7.17361328 3.90419922 7.17361328 4.30859375 8.37890625 C4.57800781 9.20261719 4.84742188 10.02632812 5.125 10.875 C5.40214844 11.69097656 5.67929688 12.50695312 5.96484375 13.34765625 C6.35736328 14.53294922 6.35736328 14.53294922 6.7578125 15.7421875 C6.9964502 16.4626123 7.23508789 17.18303711 7.48095703 17.92529297 C8 20 8 20 8 24 C16.91 24 25.82 24 35 24 C35 24.66 35 25.32 35 26 C33.41796875 27.2265625 33.41796875 27.2265625 31.1875 28.625 C25.62964465 32.20043561 20.31985933 36.08219705 15 40 C16.36349136 45.90846256 18.16695266 51.55068414 20.1953125 57.265625 C21 60 21 60 21 64 C18.19607216 62.66349743 15.66068855 61.1678969 13.109375 59.3984375 C12.40039062 58.90859375 11.69140625 58.41875 10.9609375 57.9140625 C10.23132813 57.40617187 9.50171875 56.89828125 8.75 56.375 C7.63238281 55.6015625 7.63238281 55.6015625 6.4921875 54.8125 C4.6598507 53.54395914 2.82919561 52.27306421 1 51 C-3.98715044 53.71219872 -8.39124106 56.70061126 -12.8125 60.25 C-18.72998596 65 -18.72998596 65 -21 65 C-19.19423567 58.05054332 -17.12346241 51.28199793 -14.671875 44.53125 C-13.72675889 41.90467785 -13.72675889 41.90467785 -15 39 C-17.22013969 37.28549421 -19.42869475 35.68976649 -21.75 34.125 C-22.99808427 33.27827063 -24.24293273 32.42675052 -25.484375 31.5703125 C-26.03834961 31.19664551 -26.59232422 30.82297852 -27.16308594 30.43798828 C-29.62797925 28.50840008 -31.78651749 26.21348251 -34 24 C-25.09 24 -16.18 24 -7 24 C-6.67 21.69 -6.34 19.38 -6 17 C-5.33569336 14.64477539 -5.33569336 14.64477539 -4.58984375 12.59765625 C-4.32236328 11.85322266 -4.05488281 11.10878906 -3.77929688 10.34179688 C-3.50150391 9.58962891 -3.22371094 8.83746094 -2.9375 8.0625 C-2.65583984 7.28326172 -2.37417969 6.50402344 -2.08398438 5.70117188 C-1.39532294 3.79859875 -0.69850097 1.89898275 0 0 Z " fill="#388CF2" transform="translate(157,168)"/>
<path d="M0 0 C0.66 0 1.32 0 2 0 C3.17134222 3.62350621 4.33627802 7.24903999 5.5 10.875 C5.83386719 11.90753906 6.16773438 12.94007813 6.51171875 14.00390625 C6.82753906 14.99003906 7.14335937 15.97617188 7.46875 16.9921875 C7.76201172 17.90339355 8.05527344 18.81459961 8.35742188 19.75341797 C9 22 9 22 9 24 C17.91 24 26.82 24 36 24 C32.12782176 27.09774259 28.23848168 30.15964776 24.3125 33.1875 C23.73177734 33.63802734 23.15105469 34.08855469 22.55273438 34.55273438 C18.23364206 37.88317897 18.23364206 37.88317897 16 39 C16.61141103 44.36214503 17.86987185 49.19668549 19.5625 54.3125 C22 61.75929752 22 61.75929752 22 64 C17.57971817 62.01141355 13.77854758 59.09637029 9.86523438 56.27734375 C6.67809993 54.02366409 3.7784496 52.03423798 0 51 C-2.27583952 51.90678949 -2.27583952 51.90678949 -4.3203125 53.6484375 C-5.10277344 54.24140625 -5.88523438 54.834375 -6.69140625 55.4453125 C-7.49449219 56.08210938 -8.29757813 56.71890625 -9.125 57.375 C-10.72712811 58.61798652 -12.33371033 59.85525948 -13.9453125 61.0859375 C-14.65187988 61.6432959 -15.35844727 62.2006543 -16.08642578 62.77490234 C-18 64 -18 64 -21 64 C-20.78794922 63.38479492 -20.57589844 62.76958984 -20.35742188 62.13574219 C-19.39863463 59.34261584 -18.44923236 56.54638722 -17.5 53.75 C-17.16613281 52.78191406 -16.83226562 51.81382812 -16.48828125 50.81640625 C-16.17246094 49.88183594 -15.85664063 48.94726562 -15.53125 47.984375 C-15.09135742 46.69611816 -15.09135742 46.69611816 -14.64257812 45.38183594 C-13.82635313 42.76751074 -13.82635313 42.76751074 -14 39 C-16.20125613 37.16810214 -18.30352816 35.61767844 -20.6875 34.0625 C-21.94461828 33.2248527 -23.19858016 32.38244752 -24.44921875 31.53515625 C-25.00955811 31.167854 -25.56989746 30.80055176 -26.1472168 30.42211914 C-28.63058799 28.51598695 -30.78635228 26.21364772 -33 24 C-24.42 24 -15.84 24 -7 24 C-6.01 20.04 -5.02 16.08 -4 12 C-3.30459078 9.73933858 -2.58435426 7.48571578 -1.8125 5.25 C-1.46832031 4.24453125 -1.12414062 3.2390625 -0.76953125 2.203125 C-0.38861328 1.11257812 -0.38861328 1.11257812 0 0 Z " fill="#378BF0" transform="translate(255,224)"/>
<path d="M0 0 C2.32431618 2.32431618 2.75875528 3.88932258 3.7265625 7.0078125 C4.14542725 8.34030029 4.14542725 8.34030029 4.57275391 9.69970703 C4.91999512 10.83005371 5.26723633 11.96040039 5.625 13.125 C6.73875 16.71375 7.8525 20.3025 9 24 C21.87 24.495 21.87 24.495 35 25 C32.26707102 27.73292898 30.19759437 29.70485543 27.109375 31.796875 C26.40039062 32.28027344 25.69140625 32.76367188 24.9609375 33.26171875 C24.23132813 33.75285156 23.50171875 34.24398437 22.75 34.75 C22.00492188 35.25660156 21.25984375 35.76320313 20.4921875 36.28515625 C18.66405689 37.52734756 16.833313 38.76547582 15 40 C16.80576433 46.94945668 18.87653759 53.71800207 21.328125 60.46875 C22 63 22 63 21 66 C19.7315625 65.00419922 19.7315625 65.00419922 18.4375 63.98828125 C17.29182186 63.09615483 16.14597963 62.20423911 15 61.3125 C14.17048828 60.65991211 14.17048828 60.65991211 13.32421875 59.99414062 C9.06007566 56.68575374 4.6203524 53.78646253 0 51 C-0.56509277 51.41886475 -1.13018555 51.83772949 -1.71240234 52.26928711 C-4.26542376 54.16028764 -6.8201871 56.04892064 -9.375 57.9375 C-10.26445312 58.59685547 -11.15390625 59.25621094 -12.0703125 59.93554688 C-13.34648437 60.87817383 -13.34648437 60.87817383 -14.6484375 61.83984375 C-15.43395996 62.42113037 -16.21948242 63.00241699 -17.02880859 63.60131836 C-19 65 -19 65 -21 66 C-19.1015952 58.82345457 -17.01588577 51.72793983 -14.76953125 44.65234375 C-13.90711938 42.14015523 -13.90711938 42.14015523 -14 40 C-15.69410246 38.51805151 -15.69410246 38.51805151 -17.90234375 37.03125 C-18.70994141 36.46019531 -19.51753906 35.88914062 -20.34960938 35.30078125 C-21.20361328 34.70652344 -22.05761719 34.11226563 -22.9375 33.5 C-24.61595657 32.32673468 -26.29187437 31.14982639 -27.96484375 29.96875 C-28.7137085 29.44732422 -29.46257324 28.92589844 -30.23413086 28.38867188 C-32 27 -32 27 -33 25 C-24.42 25 -15.84 25 -7 25 C-6.67 22.36 -6.34 19.72 -6 17 C-5.33569336 14.53125 -5.33569336 14.53125 -4.58984375 12.5 C-4.32236328 11.75878906 -4.05488281 11.01757812 -3.77929688 10.25390625 C-3.36260742 9.13822266 -3.36260742 9.13822266 -2.9375 8 C-2.65583984 7.22527344 -2.37417969 6.45054687 -2.08398438 5.65234375 C-1.39679702 3.76549033 -0.69945987 1.88233849 0 0 Z " fill="#368BF1" transform="translate(157,279)"/>
<path d="M0 0 C2.52469829 3.78704743 3.70459736 7.63891305 5.125 11.9375 C5.40214844 12.74896484 5.67929687 13.56042969 5.96484375 14.39648438 C6.35736328 15.57500977 6.35736328 15.57500977 6.7578125 16.77734375 C6.9964502 17.49140381 7.23508789 18.20546387 7.48095703 18.94116211 C8 21 8 21 8 25 C16.58 25 25.16 25 34 25 C28.375 30.625 28.375 30.625 25.44921875 32.67578125 C24.83369141 33.11083984 24.21816406 33.54589844 23.58398438 33.99414062 C22.64522461 34.64672852 22.64522461 34.64672852 21.6875 35.3125 C21.04232422 35.76689453 20.39714844 36.22128906 19.73242188 36.68945312 C18.15802858 37.79735952 16.57944354 38.89930525 15 40 C16.26285135 46.5438661 18.15621662 52.68680616 20.41088867 58.94555664 C20.99458609 60.61243491 21.50347503 62.30511098 22 64 C21.67 64.66 21.34 65.32 21 66 C20.51120361 65.61142822 20.02240723 65.22285645 19.51879883 64.82250977 C17.29062827 63.05976169 15.05179487 61.31109084 12.8125 59.5625 C12.04357422 58.95083984 11.27464844 58.33917969 10.48242188 57.70898438 C9.73154297 57.12568359 8.98066406 56.54238281 8.20703125 55.94140625 C7.5210083 55.40201416 6.83498535 54.86262207 6.12817383 54.30688477 C3.64084243 52.77944586 1.91859535 52.17066314 -1 52 C-3.27335483 53.0169751 -3.27335483 53.0169751 -5.35546875 54.7109375 C-6.53592773 55.58878906 -6.53592773 55.58878906 -7.74023438 56.484375 C-8.54783203 57.10828125 -9.35542969 57.7321875 -10.1875 58.375 C-11.80540216 59.5919272 -13.42386462 60.80810996 -15.04296875 62.0234375 C-15.75477295 62.56919434 -16.46657715 63.11495117 -17.19995117 63.67724609 C-19 65 -19 65 -21 66 C-19.74045602 59.4732721 -17.85528107 53.32109104 -15.67700195 47.05444336 C-14.42516659 43.60800374 -14.42516659 43.60800374 -14 40 C-16.19885544 38.31887236 -18.39990573 36.73922479 -20.6875 35.1875 C-21.94471417 34.33166213 -23.19867694 33.47102701 -24.44921875 32.60546875 C-25.00955811 32.22543701 -25.56989746 31.84540527 -26.1472168 31.45385742 C-28.61576763 29.51681431 -30.78123016 27.21876984 -33 25 C-24.75 25 -16.5 25 -8 25 C-7.01 21.37 -6.02 17.74 -5 14 C-4.13720214 11.42618892 -3.24626388 8.86142303 -2.3125 6.3125 C-1.87550781 5.11238281 -1.43851562 3.91226562 -0.98828125 2.67578125 C-0.66214844 1.79277344 -0.33601563 0.90976562 0 0 Z " fill="#378BF0" transform="translate(354,279)"/>
<path d="M0 0 C1.65 0 3.3 0 5 0 C5.268125 0.61875 5.53625 1.2375 5.8125 1.875 C6.95556848 4.2995233 6.95556848 4.2995233 10 6 C10.27060777 10.1944205 10.34152439 13.97542684 9 18 C13.64586892 17.51515724 13.64586892 17.51515724 18 16 C20.125 16.9375 20.125 16.9375 22 18 C18.8768363 20.31498832 15.75116342 22.62656454 12.625 24.9375 C11.73554688 25.59685547 10.84609375 26.25621094 9.9296875 26.93554688 C8.65351563 27.87817383 8.65351563 27.87817383 7.3515625 28.83984375 C6.17327881 29.71177368 6.17327881 29.71177368 4.97119141 30.60131836 C3 32 3 32 1 33 C2.8984048 25.82345457 4.98411423 18.72793983 7.23046875 11.65234375 C8.09288062 9.14015523 8.09288062 9.14015523 8 7 C6.20999606 5.45167606 6.20999606 5.45167606 4 3.9375 C2.6511964 2.97975578 1.31348419 2.00563633 0 1 C0 0.67 0 0.34 0 0 Z " fill="#388CED" transform="translate(135,312)"/>
<path d="M0 0 C0.95837449 3.04626176 1.01658162 5.09213636 0.25 8.1875 C0.01023438 9.22970703 0.01023438 9.22970703 -0.234375 10.29296875 C-0.48703125 10.85628906 -0.7396875 11.41960937 -1 12 C-3.82445592 12.94148531 -5.14171618 13.07311695 -8.01171875 12.87890625 C-8.76904297 12.83056641 -9.52636719 12.78222656 -10.30664062 12.73242188 C-11.09232422 12.67634766 -11.87800781 12.62027344 -12.6875 12.5625 C-13.48478516 12.51029297 -14.28207031 12.45808594 -15.10351562 12.40429688 C-17.06936522 12.27480978 -19.03473665 12.13809959 -21 12 C-21 12.99 -21 13.98 -21 15 C-24.66240092 13.43039961 -25.93903646 12.06096354 -29 9 C-20.09 9 -11.18 9 -2 9 C-1.67 6.69 -1.34 4.38 -1 2 C-0.67 1.34 -0.34 0.68 0 0 Z " fill="#599BE9" transform="translate(152,183)"/>
<path d="M0 0 C1.73546076 2.60319113 2.65175233 4.52267237 3.625 7.4375 C4.01558594 8.58025391 4.01558594 8.58025391 4.4140625 9.74609375 C5 12 5 12 5 16 C0.87235084 14.18633597 -2.62059205 11.50853382 -6.25 8.875 C-7.22453125 8.17310547 -7.22453125 8.17310547 -8.21875 7.45703125 C-9.81435483 6.30725718 -11.40743025 5.15397434 -13 4 C-9.11929748 4 -6.52089832 5.42817039 -3 7 C-2.01 7.33 -1.02 7.66 0 8 C0 5.36 0 2.72 0 0 Z " fill="#498FE1" transform="translate(173,216)"/>
<path d="M0 0 C2.73000671 2.73000671 3.51097906 5.91345467 4.6875 9.5 C4.92533203 10.18964844 5.16316406 10.87929687 5.40820312 11.58984375 C7.12393424 16.75213151 7.12393424 16.75213151 6 19 C5.8453125 18.0409375 5.8453125 18.0409375 5.6875 17.0625 C5.460625 16.381875 5.23375 15.70125 5 15 C4.01 14.67 3.02 14.34 2 14 C1.26953125 12.15234375 1.26953125 12.15234375 0.8125 9.9375 C0.65394531 9.20402344 0.49539063 8.47054687 0.33203125 7.71484375 C0.22246094 7.14894531 0.11289062 6.58304688 0 6 C-0.19335938 6.79664063 -0.38671875 7.59328125 -0.5859375 8.4140625 C-3.17223199 18.93848858 -3.17223199 18.93848858 -5 24 C-5.66 24 -6.32 24 -7 24 C-6.40531984 18.33171945 -4.90757199 13.39677846 -2.9375 8.0625 C-2.65583984 7.28326172 -2.37417969 6.50402344 -2.08398438 5.70117188 C-1.39532294 3.79859875 -0.69850097 1.89898275 0 0 Z " fill="#5392DB" transform="translate(354,168)"/>
<path d="M0 0 C8.58 0 17.16 0 26 0 C21.6553181 4.3446819 19.14229959 6.2776061 14 9 C14.875 4.25 14.875 4.25 16 2 C10.72 1.67 5.44 1.34 0 1 C0 0.67 0 0.34 0 0 Z " fill="#3F8AE1" transform="translate(362,304)"/>
<path d="M0 0 C7.59 0 15.18 0 23 0 C23 0.33 23 0.66 23 1 C15.08 1.495 15.08 1.495 7 2 C7.99 3.485 7.99 3.485 9 5 C10.32 5 11.64 5 13 5 C13 5.66 13 6.32 13 7 C13.66 7.33 14.32 7.66 15 8 C16.35308313 9.31328657 17.68870078 10.64499081 19 12 C18.67 12.66 18.34 13.32 18 14 C15.7465581 12.42138562 13.49727057 10.83735779 11.25 9.25 C10.61578125 8.8065625 9.9815625 8.363125 9.328125 7.90625 C8.709375 7.46796875 8.090625 7.0296875 7.453125 6.578125 C6.88754883 6.18012695 6.32197266 5.78212891 5.73925781 5.37207031 C3.68196387 3.74910682 1.85289893 1.85289893 0 0 Z " fill="#468CDF" transform="translate(321,193)"/>
<path d="M0 0 C8.25 0 16.5 0 25 0 C20.5 4.5 20.5 4.5 17 6 C16.67 5.01 16.34 4.02 16 3 C10.72 2.67 5.44 2.34 0 2 C0 1.34 0 0.68 0 0 Z " fill="#3F89E3" transform="translate(363,193)"/>
<path d="M0 0 C0.66 0.33 1.32 0.66 2 1 C0.6071787 3.7856426 -1.30426398 4.52376361 -4 6 C-4.99 6.33 -5.98 6.66 -7 7 C-8.09166275 8.93330603 -8.09166275 8.93330603 -9 11 C-9.66 11.66 -10.32 12.32 -11 13 C-11.02135378 16.13545766 -11.02135378 16.13545766 -10.625 19.625 C-10.51414063 20.81351562 -10.40328125 22.00203125 -10.2890625 23.2265625 C-10.19367188 24.14179688 -10.09828125 25.05703125 -10 26 C-12.59288307 21.26517004 -13.63824909 16.19941257 -15 11 C-10.05 7.37 -5.1 3.74 0 0 Z " fill="#D6EAFB" transform="translate(186,308)"/>
<path d="M0 0 C0.66 0 1.32 0 2 0 C2.67413211 1.91405367 3.3390332 3.83136026 4 5.75 C4.37125 6.81734375 4.7425 7.8846875 5.125 8.984375 C6 12 6 12 6 16 C5.34 16 4.68 16 4 16 C3.67 14.02 3.34 12.04 3 10 C1.68 10 0.36 10 -1 10 C-1.33 11.98 -1.66 13.96 -2 16 C-2.66 16 -3.32 16 -4 16 C-3.39891424 10.34979382 -1.92471317 5.33835539 0 0 Z " fill="#5190DE" transform="translate(255,224)"/>
<path d="M0 0 C0.66 0 1.32 0 2 0 C1.67 3.3 1.34 6.6 1 10 C0.34 10 -0.32 10 -1 10 C-1.33 13.3 -1.66 16.6 -2 20 C-1.01 20.33 -0.02 20.66 1 21 C-4.75 26 -4.75 26 -7 26 C-5.19888551 19.06843818 -3.14365431 12.28905348 -0.76953125 5.53125 C0.14543392 2.96255819 0.14543392 2.96255819 0 0 Z " fill="#5392DC" transform="translate(340,207)"/>
<path d="M0 0 C4.28477792 2.30718811 7.72291137 4.32966073 11 8 C10.236875 7.690625 9.47375 7.38125 8.6875 7.0625 C6.81210323 6.32106407 4.91315348 5.63771783 3 5 C3 4.34 3 3.68 3 3 C-1.59306496 4.4859916 -4.43569245 6.85014682 -8 10 C-8.99 9.34 -9.98 8.68 -11 8 C-7.37 5.36 -3.74 2.72 0 0 Z " fill="#DDEDFB" transform="translate(157,218)"/>
<path d="M0 0 C2.46301423 2.46301423 2.76766521 4.27360036 3.625 7.625 C3.88539063 8.62789063 4.14578125 9.63078125 4.4140625 10.6640625 C4.60742188 11.43492187 4.80078125 12.20578125 5 13 C4.01 12.67 3.02 12.34 2 12 C1.67 11.01 1.34 10.02 1 9 C-0.32 10.98 -1.64 12.96 -3 15 C-4.43410153 11.21180727 -3.51009497 8.93478721 -2.0625 5.25 C-1.49208984 3.77273438 -1.49208984 3.77273438 -0.91015625 2.265625 C-0.60980469 1.51796875 -0.30945313 0.7703125 0 0 Z " fill="#4F94DF" transform="translate(157,279)"/>
<path d="M0 0 C0 0.66 0 1.32 0 2 C-0.99 2 -1.98 2 -3 2 C-3.309375 2.9590625 -3.309375 2.9590625 -3.625 3.9375 C-5 6 -5 6 -8.125 6.75 C-9.07375 6.8325 -10.0225 6.915 -11 7 C-11 7.66 -11 8.32 -11 9 C-13.31 10.32 -15.62 11.64 -18 13 C-18.66 12.34 -19.32 11.68 -20 11 C-17.93771746 9.72881267 -15.87518109 8.45804035 -13.8125 7.1875 C-13.23435547 6.83107422 -12.65621094 6.47464844 -12.06054688 6.10742188 C-10.37503007 5.06944825 -8.68753975 4.03468147 -7 3 C-6.07574219 2.41863281 -5.15148437 1.83726563 -4.19921875 1.23828125 C-2 0 -2 0 0 0 Z " fill="#5EA1F0" transform="translate(137,29)"/>
<path d="M0 0 C5.97916574 5.97916574 6.68918656 15.96547245 7 24 C6.67 23.34 6.34 22.68 6 22 C4.35 22 2.7 22 1 22 C0.34 20.35 -0.32 18.7 -1 17 C2.465 18.98 2.465 18.98 6 21 C5.81824219 20.47043701 5.63648438 19.94087402 5.44921875 19.39526367 C4.62809281 16.99425985 3.81397829 14.5909359 3 12.1875 C2.71382813 11.35412109 2.42765625 10.52074219 2.1328125 9.66210938 C1.72675781 8.45844727 1.72675781 8.45844727 1.3125 7.23046875 C1.06113281 6.49207764 0.80976563 5.75368652 0.55078125 4.99291992 C0 3 0 3 0 0 Z " fill="#D5E9FB" transform="translate(271,267)"/>
<path d="M0 0 C2.00406482 3.00609722 3.03076258 5.59242695 4.1875 9 C4.55230469 10.051875 4.91710937 11.10375 5.29296875 12.1875 C6 15 6 15 5 18 C2.03 15.69 -0.94 13.38 -4 11 C-3.34 10.67 -2.68 10.34 -2 10 C0.125 10.9375 0.125 10.9375 2 12 C2 10.68 2 9.36 2 8 C1.34 8 0.68 8 0 8 C0 5.36 0 2.72 0 0 Z " fill="#5894DE" transform="translate(173,327)"/>
<path d="M0 0 C0.33 0 0.66 0 1 0 C0.9175 1.093125 0.835 2.18625 0.75 3.3125 C0.87375 5.1378125 0.87375 5.1378125 1 7 C2.32 7.99 3.64 8.98 5 10 C2.36 11.98 -0.28 13.96 -3 16 C-3.66 15.67 -4.32 15.34 -5 15 C-3.35 10.05 -1.7 5.1 0 0 Z " fill="#5392DF" transform="translate(239,273)"/>
<path d="M0 0 C8.58 0 17.16 0 26 0 C26 0.33 26 0.66 26 1 C19.07 1 12.14 1 5 1 C5.99 1.99 6.98 2.98 8 4 C9 5 10 6 11 7 C10.67 7.66 10.34 8.32 10 9 C8.33043913 7.69118353 6.66441696 6.37785174 5 5.0625 C4.071875 4.33160156 3.14375 3.60070312 2.1875 2.84765625 C1.465625 2.23792969 0.74375 1.62820312 0 1 C0 0.67 0 0.34 0 0 Z " fill="#5393DE" transform="translate(222,248)"/>
<path d="M0 0 C2.63595772 2.63595772 3.07702112 5.06187181 4.125 8.625 C4.47820312 9.81351563 4.83140625 11.00203125 5.1953125 12.2265625 C5.46085938 13.14179688 5.72640625 14.05703125 6 15 C5.34 15 4.68 15 4 15 C3.01 12.03 2.02 9.06 1 6 C0.54625 7.299375 0.0925 8.59875 -0.375 9.9375 C-1.75 13.875 -1.75 13.875 -4 15 C-3.43179252 9.54520815 -2.05362055 5.08940744 0 0 Z " fill="#5091DB" transform="translate(157,168)"/>
<path d="M0 0 C8.58 0 17.16 0 26 0 C26 0.33 26 0.66 26 1 C15.605 1.495 15.605 1.495 5 2 C6.98 3.32 8.96 4.64 11 6 C11 6.66 11 7.32 11 8 C6.40378078 6.5129879 3.53027653 4.20187872 0 1 C0 0.67 0 0.34 0 0 Z " fill="#4487D6" transform="translate(124,304)"/>
<path d="M0 0 C0 3.15081975 -0.27898465 4.41847698 -2 7 C-3.33333333 7.33333333 -4.66666667 7.66666667 -6 8 C-6.68486725 9.32407669 -7.34870203 10.65909241 -8 12 C-10.625 14.25 -10.625 14.25 -13 16 C-13.66 15.67 -14.32 15.34 -15 15 C-10.05 10.05 -5.1 5.1 0 0 Z " fill="#4E96EC" transform="translate(85,64)"/>
<path d="M0 0 C2.00993705 3.01490557 2.72623341 5.2149927 3.625 8.6875 C3.88539063 9.68136719 4.14578125 10.67523438 4.4140625 11.69921875 C4.60742188 12.45847656 4.80078125 13.21773438 5 14 C2.03 12.02 -0.94 10.04 -4 8 C-2.68 7.34 -1.36 6.68 0 6 C0 4.02 0 2.04 0 0 Z " fill="#5191DE" transform="translate(371,331)"/>
<path d="M0 0 C2.475 0.495 2.475 0.495 5 1 C5 1.66 5 2.32 5 3 C6.32 3 7.64 3 9 3 C9.12375 3.928125 9.12375 3.928125 9.25 4.875 C9.81258459 7.18437567 9.81258459 7.18437567 12.0625 8.25 C12.701875 8.4975 13.34125 8.745 14 9 C13.74438677 11.3431213 13.40729228 13.67843403 13 16 C12.34 16.33 11.68 16.66 11 17 C11.33 14.69 11.66 12.38 12 10 C11.13375 9.36191406 10.2675 8.72382813 9.375 8.06640625 C8.24987539 7.23193883 7.12488212 6.39729428 6 5.5625 C5.42765625 5.14162109 4.8553125 4.72074219 4.265625 4.28710938 C2.82546081 3.21555864 1.41048004 2.11033324 0 1 C0 0.67 0 0.34 0 0 Z " fill="#4D90DF" transform="translate(131,198)"/>
<path d="M0 0 C0.33 0.66 0.66 1.32 1 2 C0.67 2.99 0.34 3.98 0 5 C0.91139919 8.6061612 2.0551108 12.10990253 3.1875 15.65234375 C3.97788551 18.90888405 3.9366765 19.9545558 3 23 C1.96189556 20.08919272 0.94762359 17.17062342 -0.0625 14.25 C-0.35705078 13.425 -0.65160156 12.6 -0.95507812 11.75 C-1.22900391 10.95078125 -1.50292969 10.1515625 -1.78515625 9.328125 C-2.04176025 8.5949707 -2.29836426 7.86181641 -2.56274414 7.10644531 C-3.06495795 4.68707025 -2.89656739 3.29216464 -2 1 C-1.34 0.67 -0.68 0.34 0 0 Z " fill="#C9E6FB" transform="translate(371,317)"/>
<path d="M0 0 C1.65 0 3.3 0 5 0 C5.268125 0.61875 5.53625 1.2375 5.8125 1.875 C6.95556848 4.2995233 6.95556848 4.2995233 10 6 C10.61650485 11.54854369 10.61650485 11.54854369 10 14 C8.68 14.99 7.36 15.98 6 17 C6.66 13.7 7.32 10.4 8 7 C6.68 6.030625 5.36 5.06125 4 4.0625 C2.64651756 3.06853634 1.30756357 2.0536394 0 1 C0 0.67 0 0.34 0 0 Z " fill="#5091E0" transform="translate(135,312)"/>
<path d="M0 0 C0.66 0.33 1.32 0.66 2 1 C0.02 3.97 0.02 3.97 -2 7 C-3.32 6.67 -4.64 6.34 -6 6 C-6 8.97 -6 11.94 -6 15 C-8 12 -8 12 -9 7 C-6.03 4.69 -3.06 2.38 0 0 Z " fill="#D6EDFC" transform="translate(377,201)"/>
<path d="M0 0 C2.11044382 3.16566573 2.75552077 5.51197415 3.625 9.1875 C3.88539063 10.27417969 4.14578125 11.36085938 4.4140625 12.48046875 C4.60742188 13.31191406 4.80078125 14.14335937 5 15 C2.1394109 13.64062915 0.14072301 12.35479531 -2 10 C-1.01 9.67 -0.02 9.34 1 9 C0.67 6.03 0.34 3.06 0 0 Z " fill="#5291DD" transform="translate(272,273)"/>
<path d="M0 0 C8.91 0 17.82 0 27 0 C25.35 1.32 23.7 2.64 22 4 C21.34 3.34 20.68 2.68 20 2 C17.87139338 1.63047951 17.87139338 1.63047951 15.4296875 1.5859375 C14.53378906 1.54726562 13.63789063 1.50859375 12.71484375 1.46875 C11.77769531 1.4378125 10.84054687 1.406875 9.875 1.375 C8.45767578 1.31699219 8.45767578 1.31699219 7.01171875 1.2578125 C4.67467625 1.16338654 2.33764499 1.07781606 0 1 C0 0.67 0 0.34 0 0 Z " fill="#5693DE" transform="translate(264,248)"/>
<path d="M0 0 C1.80125336 2.70188004 3.00243753 4.93057703 4 8 C3.67 8.99 3.34 9.98 3 11 C-0.3 8.36 -3.6 5.72 -7 3 C-6.34 2.67 -5.68 2.34 -5 2 C-4.01 2.66 -3.02 3.32 -2 4 C-1.34 2.68 -0.68 1.36 0 0 Z " fill="#5894DE" transform="translate(372,223)"/>
<path d="M0 0 C1.10844919 3.32534757 0.84454356 5.62182575 0 9 C0.99 9.33 1.98 9.66 3 10 C0.69 11.65 -1.62 13.3 -4 15 C-2.91266548 9.87399439 -1.77362508 4.94081272 0 0 Z " fill="#5D95DE" transform="translate(337,330)"/>
<path d="M0 0 C7.59 0 15.18 0 23 0 C21.35 1.65 19.7 3.3 18 5 C17.67 3.68 17.34 2.36 17 1 C11.39 1 5.78 1 0 1 C0 0.67 0 0.34 0 0 Z " fill="#458ADB" transform="translate(168,193)"/>
<path d="M0 0 C0.99 0 1.98 0 3 0 C1.46356148 3.68069887 -0.78150945 5.98775204 -3.625 8.75 C-4.85089844 9.94882812 -4.85089844 9.94882812 -6.1015625 11.171875 C-6.72804688 11.77515625 -7.35453125 12.3784375 -8 13 C-8.33 12.01 -8.66 11.02 -9 10 C-8.34 10 -7.68 10 -7 10 C-7 9.34 -7 8.68 -7 8 C-6.34 8 -5.68 8 -5 8 C-5 7.34 -5 6.68 -5 6 C-4.34 6 -3.68 6 -3 6 C-2.690625 5.38125 -2.38125 4.7625 -2.0625 4.125 C-1.375 2.75 -0.6875 1.375 0 0 Z " fill="#4F99EE" transform="translate(436,434)"/>
<path d="M0 0 C0 0.66 0 1.32 0 2 C-2.12124966 2.86343824 -4.24713072 3.71550648 -6.375 4.5625 C-8.15003906 5.27599609 -8.15003906 5.27599609 -9.9609375 6.00390625 C-13 7 -13 7 -15 6 C-14.67 5.34 -14.34 4.68 -14 4 C-12.35 4 -10.7 4 -9 4 C-9 3.34 -9 2.68 -9 2 C-5.62902617 0.50178941 -3.79557881 0 0 0 Z " fill="#559DEF" transform="translate(356,491)"/>
<path d="M0 0 C12.64206642 0.64206642 12.64206642 0.64206642 18 6 C11.82777121 4.75971762 5.93317878 3.10396411 0 1 C0 0.67 0 0.34 0 0 Z " fill="#5EA3EF" transform="translate(166,496)"/>
<path d="M0 0 C1.8125 0.0625 1.8125 0.0625 4 1 C7.21472063 6.87517908 7.21472063 6.87517908 6.57421875 10.23046875 C6.38472656 10.81441406 6.19523437 11.39835937 6 12 C4.99466333 10.37829621 3.99588093 8.75252763 3 7.125 C2.443125 6.22007812 1.88625 5.31515625 1.3125 4.3828125 C0 2 0 2 0 0 Z " fill="#539DED" transform="translate(32,380)"/>
<path d="M0 0 C2.12508244 3.18762365 2.5020163 5.26512223 3 9 C1.02 9.33 -0.96 9.66 -3 10 C-2.01 6.7 -1.02 3.4 0 0 Z " fill="#4D91DB" transform="translate(354,279)"/>
<path d="M0 0 C0.99 0 1.98 0 3 0 C1.54955729 4.10958767 -0.51110752 7.43258745 -3 11 C-4.04449911 7.86650268 -3.93423645 7.01031744 -3 4 C-2.34 4 -1.68 4 -1 4 C-0.67 2.68 -0.34 1.36 0 0 Z " fill="#4F9BEF" transform="translate(475,384)"/>
<path d="M0 0 C4.455 2.97 4.455 2.97 9 6 C8.34 8.64 7.68 11.28 7 14 C6.67 14 6.34 14 6 14 C6.185625 12.4221875 6.185625 12.4221875 6.375 10.8125 C6.39054999 7.14375238 6.39054999 7.14375238 4.6640625 5.4921875 C3.13564019 4.293847 1.56930263 3.14428317 0 2 C0 1.34 0 0.68 0 0 Z " fill="#D4ECFE" transform="translate(135,313)"/>
<path d="M0 0 C1.32 0 2.64 0 4 0 C4 0.66 4 1.32 4 2 C5.11375 2.185625 5.11375 2.185625 6.25 2.375 C8.80141485 2.95486701 10.7267573 3.73708739 13 5 C13 5.66 13 6.32 13 7 C8.1725201 5.58707905 4.2837641 3.57025846 0 1 C0 0.67 0 0.34 0 0 Z " fill="#5FA2F2" transform="translate(132,480)"/>
<path d="M0 0 C1.18914114 3.71606605 1.42281576 7.12418883 1 11 C-1.5 12.9375 -1.5 12.9375 -4 14 C-3.52188823 12.22888156 -3.0424722 10.45811517 -2.5625 8.6875 C-2.29566406 7.70136719 -2.02882812 6.71523438 -1.75390625 5.69921875 C-1.21920575 3.78482474 -0.62855462 1.88566385 0 0 Z " fill="#5793D7" transform="translate(140,331)"/>
<path d="M0 0 C0.33 0.66 0.66 1.32 1 2 C2.258125 1.938125 3.51625 1.87625 4.8125 1.8125 C8.72231986 1.79173989 8.72231986 1.79173989 11 3.5 C11.495 4.2425 11.495 4.2425 12 5 C6.76119922 4.44854729 2.02649303 3.57077907 -3 2 C-2.01 1.34 -1.02 0.68 0 0 Z " fill="#60A4F3" transform="translate(188,501)"/>
<path d="M0 0 C1.58357459 0.31127516 3.16684993 0.62407289 4.75 0.9375 C5.63171875 1.11152344 6.5134375 1.28554688 7.421875 1.46484375 C9.63235053 1.92368488 11.81512068 2.43336074 14 3 C14 3.99 14 4.98 14 6 C8.93001981 5.34580901 4.58009223 3.1453591 0 1 C0 0.67 0 0.34 0 0 Z " fill="#5DA2F1" transform="translate(145,487)"/>
<path d="M0 0 C0.33 0.66 0.66 1.32 1 2 C-1.343708 5.515562 -3.13571362 6.42274025 -7 8 C-7.99 7.67 -8.98 7.34 -10 7 C-6.7 4.69 -3.4 2.38 0 0 Z " fill="#D3EAFA" transform="translate(190,194)"/>
<path d="M0 0 C0 0.33 0 0.66 0 1 C-0.62648437 1.04898438 -1.25296875 1.09796875 -1.8984375 1.1484375 C-3.12433594 1.26058594 -3.12433594 1.26058594 -4.375 1.375 C-5.18710938 1.44460937 -5.99921875 1.51421875 -6.8359375 1.5859375 C-9.20334191 1.82892588 -9.20334191 1.82892588 -11 4 C-11.33 3.67 -11.66 3.34 -12 3 C-13.34747084 2.76924918 -14.70377565 2.58846937 -16.0625 2.4375 C-17.361875 2.293125 -18.66125 2.14875 -20 2 C-20 1.67 -20 1.34 -20 1 C-13.28837062 0.11978631 -6.76594019 -0.11381955 0 0 Z " fill="#62ACF9" transform="translate(244,0)"/>
<path d="M0 0 C-2.54631035 2.97069541 -5.42230149 4.4775751 -9 6 C-9.66 5.67 -10.32 5.34 -11 5 C-8.77884349 0.55768697 -4.65018221 -0.39858705 0 0 Z " fill="#5FA0F3" transform="translate(380,480)"/>
<path d="M0 0 C2.64 0 5.28 0 8 0 C7.67 1.65 7.34 3.3 7 5 C4.11562221 3.70700306 2.12780579 2.34058637 0 0 Z " fill="#4A8EDA" transform="translate(124,193)"/>
<path d="M0 0 C4.28477792 2.30718811 7.72291137 4.32966073 11 8 C10.236875 7.690625 9.47375 7.38125 8.6875 7.0625 C6.81210323 6.32106407 4.91315348 5.63771783 3 5 C3 4.34 3 3.68 3 3 C1.35 2.67 -0.3 2.34 -2 2 C-1.34 1.34 -0.68 0.68 0 0 Z " fill="#D1E7FD" transform="translate(157,218)"/>
<path d="M0 0 C0.66 0.33 1.32 0.66 2 1 C1.34 1.66 0.68 2.32 0 3 C-0.144375 3.680625 -0.28875 4.36125 -0.4375 5.0625 C-0.623125 5.701875 -0.80875 6.34125 -1 7 C-1.99 7.33 -2.98 7.66 -4 8 C-4.99 7.34 -5.98 6.68 -7 6 C-4.69 4.02 -2.38 2.04 0 0 Z " fill="#57A1F3" transform="translate(93,57)"/>
<path d="M0 0 C0.66 0.33 1.32 0.66 2 1 C-1.08290155 5.22797927 -1.08290155 5.22797927 -3 7 C-5.8125 7.375 -5.8125 7.375 -8 7 C-5.42215154 4.35247996 -3.08351902 2.05567935 0 0 Z " fill="#D6EBFC" transform="translate(343,337)"/>
<path d="M0 0 C0 0.66 0 1.32 0 2 C-0.7425 2.12375 -1.485 2.2475 -2.25 2.375 C-4.80141485 2.95486701 -6.7267573 3.73708739 -9 5 C-9 3.68 -9 2.36 -9 1 C-5.8035914 -0.06546953 -3.34252724 -0.07427838 0 0 Z " fill="#488DE1" transform="translate(160,217)"/>
<path d="M0 0 C3.3125 0.625 3.3125 0.625 7 2 C8.9375 5.125 8.9375 5.125 10 8 C6.05205855 6.32971708 3.18203882 3.8204435 0 1 C0 0.67 0 0.34 0 0 Z " fill="#5EA5F2" transform="translate(85,447)"/>
<path d="M0 0 C-0.8971875 0.1546875 -0.8971875 0.1546875 -1.8125 0.3125 C-4.06591338 0.8279009 -4.06591338 0.8279009 -5.4375 2.5 C-7.48513623 4.46573078 -9.23747349 4.62668561 -12 5 C-5.79166667 -1.37171053 -5.79166667 -1.37171053 0 0 Z " fill="#D0EAFD" transform="translate(358,331)"/>
<path d="M0 0 C0.66 0.33 1.32 0.66 2 1 C1.34 1.66 0.68 2.32 0 3 C-0.69748583 4.31747324 -1.36959957 5.64914193 -2 7 C-3.65 6.67 -5.3 6.34 -7 6 C-4.74259377 3.66475218 -2.7194239 1.81294927 0 0 Z " fill="#D6EBFA" transform="translate(289,249)"/>
<path d="M0 0 C0.66 0.33 1.32 0.66 2 1 C-0.64 3.64 -3.28 6.28 -6 9 C-6.33 8.01 -6.66 7.02 -7 6 C-4.69 4.02 -2.38 2.04 0 0 Z " fill="#D8EBFC" transform="translate(144,227)"/>
<path d="M0 0 C1.0326802 2.78823655 1.04509293 3.8677274 0.0625 6.75 C-0.288125 7.4925 -0.63875 8.235 -1 9 C-1.99 9 -2.98 9 -4 9 C-2.94124926 5.59687262 -1.99097846 2.98646769 0 0 Z " fill="#599EED" transform="translate(36,123)"/>
<path d="M0 0 C0.99 0 1.98 0 3 0 C1.84414715 3.91211733 0.64465038 6.8745041 -2 10 C-2 8.35 -2 6.7 -2 5 C-1.34 5 -0.68 5 0 5 C0 3.35 0 1.7 0 0 Z " fill="#5EA3F2" transform="translate(483,369)"/>
<path d="M0 0 C0 0.66 0 1.32 0 2 C-1.32 2.33 -2.64 2.66 -4 3 C-4 3.99 -4 4.98 -4 6 C-5.98 6.33 -7.96 6.66 -10 7 C-3.18421053 0 -3.18421053 0 0 0 Z " fill="#D0E9FB" transform="translate(148,337)"/>
<path d="M0 0 C1.65 0.33 3.3 0.66 5 1 C0.375 5.875 0.375 5.875 -3 7 C-3 6.34 -3 5.68 -3 5 C-2.34 5 -1.68 5 -1 5 C-0.67 3.35 -0.34 1.7 0 0 Z " fill="#3F8EDF" transform="translate(152,328)"/>
<path d="M0 0 C2.31 0 4.62 0 7 0 C5.35 1.65 3.7 3.3 2 5 C0 2 0 2 0 0 Z " fill="#448FE1" transform="translate(177,198)"/>
<path d="M0 0 C0.8125 1.6875 0.8125 1.6875 1 4 C-1.4375 6.75 -1.4375 6.75 -4 9 C-4 5.00095031 -2.27413033 3.19799578 0 0 Z " fill="#559BF2" transform="translate(48,105)"/>
<path d="M0 0 C0.625 1.8125 0.625 1.8125 1 4 C0.01 5.485 0.01 5.485 -1 7 C-2.32 6.67 -3.64 6.34 -5 6 C-3.35 4.02 -1.7 2.04 0 0 Z " fill="#509AF3" transform="translate(61,89)"/>
<path d="M0 0 C0 3.16880694 -0.2058242 4.43689172 -2 7 C-4.625 7.75 -4.625 7.75 -7 8 C-6.02133662 6.85373678 -5.04205413 5.70800212 -4.0625 4.5625 C-3.51722656 3.92441406 -2.97195312 3.28632812 -2.41015625 2.62890625 C-1.63204305 1.73008851 -0.84063472 0.84063472 0 0 Z " fill="#549FEF" transform="translate(85,64)"/>
<path d="M0 0 C-4.75 3.875 -4.75 3.875 -7 5 C-7.66 4.34 -8.32 3.68 -9 3 C-5.92807025 0.26939578 -4.09590633 -0.34132553 0 0 Z " fill="#4F9AF2" transform="translate(126,37)"/>
<path d="M0 0 C0 0.66 0 1.32 0 2 C-0.99 2 -1.98 2 -3 2 C-3.33 2.66 -3.66 3.32 -4 4 C-6.0625 5.125 -6.0625 5.125 -8 6 C-8.66 5.34 -9.32 4.68 -10 4 C-8.71086513 3.32845067 -7.41859796 2.66291141 -6.125 2 C-5.40570313 1.62875 -4.68640625 1.2575 -3.9453125 0.875 C-2 0 -2 0 0 0 Z " fill="#5FA5F7" transform="translate(147,24)"/>
<path d="M0 0 C-4.37252936 2.44861644 -8.89355851 4.26890742 -13.9375 3.625 C-14.618125 3.41875 -15.29875 3.2125 -16 3 C-16 2.67 -16 2.34 -16 2 C-14.27192682 1.66104344 -12.54248026 1.32908475 -10.8125 1 C-9.84957031 0.814375 -8.88664063 0.62875 -7.89453125 0.4375 C-5.2065794 0.03122388 -2.71228981 -0.07933572 0 0 Z " fill="#64A7F5" transform="translate(216,3)"/>
<path d="M0 0 C-2.31 1.65 -4.62 3.3 -7 5 C-6.625 2.5625 -6.625 2.5625 -6 0 C-4 -1 -4 -1 0 0 Z " fill="#519BF1" transform="translate(426,449)"/>
<path d="M0 0 C3.5875213 1.33250791 6.8364623 2.830717 10 5 C10 5.66 10 6.32 10 7 C5.56541027 5.6062718 3.12621626 3.39417765 0 0 Z " fill="#4A8FE1" transform="translate(125,305)"/>
<path d="M0 0 C1.98 0.99 1.98 0.99 4 2 C3.34 4.64 2.68 7.28 2 10 C1.16550811 6.66203244 0.53980347 3.39305036 0 0 Z " fill="#D4EDFE" transform="translate(140,206)"/>
<path d="M0 0 C-0.99 1.485 -0.99 1.485 -2 3 C-5.125 3.1875 -5.125 3.1875 -8 3 C-8 2.34 -8 1.68 -8 1 C-5.07175348 0.02391783 -3.04386724 -0.08226668 0 0 Z " fill="#4B97EC" transform="translate(180,12)"/>
<path d="M0 0 C6.875 3.75 6.875 3.75 8 6 C7.01 6 6.02 6 5 6 C5 5.34 5 4.68 5 4 C3.68 4 2.36 4 1 4 C0.67 2.68 0.34 1.36 0 0 Z " fill="#DFEBFD" transform="translate(367,339)"/>
<path d="M0 0 C2.97 0 5.94 0 9 0 C9 1.32 9 2.64 9 4 C6.03 3.01 3.06 2.02 0 1 C0 0.67 0 0.34 0 0 Z " fill="#408EE8" transform="translate(166,335)"/>
<path d="M0 0 C1.65 0 3.3 0 5 0 C3.37660195 1.70884005 1.70680947 3.37446717 0 5 C-0.66 5 -1.32 5 -2 5 C-2 4.34 -2 3.68 -2 3 C-1.34 3 -0.68 3 0 3 C0 2.01 0 1.02 0 0 Z " fill="#498EE5" transform="translate(146,222)"/>
<path d="M0 0 C1.25541557 3.76624671 0.37061958 5.37188934 -1 9 C-1.66 9 -2.32 9 -3 9 C-2.25 2.25 -2.25 2.25 0 0 Z " fill="#4C90E1" transform="translate(350,183)"/>
</svg>
