<?xml version="1.0" encoding="UTF-8"?>
<svg version="1.1" xmlns="http://www.w3.org/2000/svg" width="512" height="512">
<path d="M0 0 C1.39046539 0.00323273 1.39046539 0.00323273 2.809021 0.00653076 C16.5217391 0.05767446 29.92355562 0.40617984 43.375 3.3125 C44.81383545 3.61849121 44.81383545 3.61849121 46.28173828 3.93066406 C83.41773686 12.05693609 117.56990909 28.43233286 146.375 53.3125 C147.28507812 54.09238281 148.19515625 54.87226562 149.1328125 55.67578125 C151.59566132 57.84166276 153.99495399 60.05594694 156.375 62.3125 C156.87064453 62.78091309 157.36628906 63.24932617 157.87695312 63.73193359 C166.22233145 71.67423927 173.50706378 80.07355198 180.375 89.3125 C180.7987793 89.87018066 181.22255859 90.42786133 181.65917969 91.00244141 C188.9171633 100.56166887 194.85249079 110.66592137 200.375 121.3125 C200.76574707 122.06128418 201.15649414 122.81006836 201.55908203 123.58154297 C217.69411338 154.89691015 224.83396006 188.95336116 224.6875 224 C224.68534485 224.92892059 224.6831897 225.85784119 224.68096924 226.81491089 C224.63110813 240.20319476 224.26733116 253.19389636 221.375 266.3125 C221.06900879 267.77647217 221.06900879 267.77647217 220.75683594 269.27001953 C212.80681445 306.85036127 196.53137307 341.18763081 171.375 370.3125 C170.59511719 371.22257812 169.81523437 372.13265625 169.01171875 373.0703125 C166.84583724 375.53316132 164.63155306 377.93245399 162.375 380.3125 C161.90658691 380.80814453 161.43817383 381.30378906 160.95556641 381.81445312 C153.01326073 390.15983145 144.61394802 397.44456378 135.375 404.3125 C134.81731934 404.7362793 134.25963867 405.16005859 133.68505859 405.59667969 C124.12583113 412.8546633 114.02157863 418.78999079 103.375 424.3125 C102.25182373 424.89862061 102.25182373 424.89862061 101.10595703 425.49658203 C69.79058985 441.63161338 35.73413884 448.77146006 0.6875 448.625 C-0.24142059 448.62284485 -1.17034119 448.6206897 -2.12741089 448.61846924 C-15.51569476 448.56860813 -28.50639636 448.20483116 -41.625 445.3125 C-43.08897217 445.00650879 -43.08897217 445.00650879 -44.58251953 444.69433594 C-82.16286127 436.74431445 -116.50013081 420.46887307 -145.625 395.3125 C-146.53507812 394.53261719 -147.44515625 393.75273437 -148.3828125 392.94921875 C-150.84566132 390.78333724 -153.24495399 388.56905306 -155.625 386.3125 C-156.12064453 385.84408691 -156.61628906 385.37567383 -157.12695312 384.89306641 C-165.47233145 376.95076073 -172.75706378 368.55144802 -179.625 359.3125 C-180.0487793 358.75481934 -180.47255859 358.19713867 -180.90917969 357.62255859 C-188.1671633 348.06333113 -194.10249079 337.95907863 -199.625 327.3125 C-200.21112061 326.18932373 -200.21112061 326.18932373 -200.80908203 325.04345703 C-216.94411338 293.72808985 -224.08396006 259.67163884 -223.9375 224.625 C-223.93534485 223.69607941 -223.9331897 222.76715881 -223.93096924 221.81008911 C-223.88110813 208.42180524 -223.51733116 195.43110364 -220.625 182.3125 C-220.42100586 181.33651855 -220.21701172 180.36053711 -220.00683594 179.35498047 C-212.63705782 144.51749221 -198.14568781 112.01562807 -175.625 84.3125 C-175.2120166 83.79655273 -174.7990332 83.28060547 -174.37353516 82.74902344 C-163.21862539 68.85832991 -150.69295238 56.12897367 -136.32519531 45.56396484 C-134.62863496 44.31517559 -132.95104025 43.04362897 -131.2734375 41.76953125 C-122.23933001 35.00928812 -112.63075992 29.50260879 -102.625 24.3125 C-101.87621582 23.92175293 -101.12743164 23.53100586 -100.35595703 23.12841797 C-69.06445769 7.00568436 -35.02198803 -0.14666021 0 0 Z " fill="#FBFAFA" transform="translate(255.625,31.6875)"/>
<path d="M0 0 C1.39046539 0.00323273 1.39046539 0.00323273 2.809021 0.00653076 C16.5217391 0.05767446 29.92355562 0.40617984 43.375 3.3125 C44.81383545 3.61849121 44.81383545 3.61849121 46.28173828 3.93066406 C83.41773686 12.05693609 117.56990909 28.43233286 146.375 53.3125 C147.28507812 54.09238281 148.19515625 54.87226562 149.1328125 55.67578125 C151.59566132 57.84166276 153.99495399 60.05594694 156.375 62.3125 C156.87064453 62.78091309 157.36628906 63.24932617 157.87695312 63.73193359 C166.22233145 71.67423927 173.50706378 80.07355198 180.375 89.3125 C180.7987793 89.87018066 181.22255859 90.42786133 181.65917969 91.00244141 C191.22960361 103.60730027 198.57719939 117.33162848 205.4375 131.5625 C205.8197876 132.34842529 206.2020752 133.13435059 206.59594727 133.9440918 C207.12273071 135.06231323 207.12273071 135.06231323 207.66015625 136.203125 C207.96832275 136.85313477 208.27648926 137.50314453 208.59399414 138.17285156 C209.375 140.3125 209.375 140.3125 210.375 146.3125 C71.775 146.3125 -66.825 146.3125 -209.625 146.3125 C-208.814984 141.45240397 -208.07575611 138.66306142 -206.03515625 134.3828125 C-205.50317627 133.26535645 -204.97119629 132.14790039 -204.4230957 130.99658203 C-203.56397583 129.23483643 -203.56397583 129.23483643 -202.6875 127.4375 C-202.39499359 126.83468201 -202.10248718 126.23186401 -201.80111694 125.61077881 C-194.52602005 110.65733722 -186.10333894 97.2021048 -175.625 84.3125 C-175.2120166 83.79655273 -174.7990332 83.28060547 -174.37353516 82.74902344 C-163.21862539 68.85832991 -150.69295238 56.12897367 -136.32519531 45.56396484 C-134.62863496 44.31517559 -132.95104025 43.04362897 -131.2734375 41.76953125 C-122.23933001 35.00928812 -112.63075992 29.50260879 -102.625 24.3125 C-101.87621582 23.92175293 -101.12743164 23.53100586 -100.35595703 23.12841797 C-69.06445769 7.00568436 -35.02198803 -0.14666021 0 0 Z " fill="#2B30AF" transform="translate(255.625,31.6875)"/>
<path d="M0 0 C138.6 0 277.2 0 420 0 C418.8299062 7.02056279 416.27540592 12.33343818 413.1875 18.6875 C412.89721924 19.28648102 412.60693848 19.88546204 412.30786133 20.50259399 C403.83068227 37.92194382 393.65932574 53.34362624 381 68 C380.22011719 68.91007812 379.44023437 69.82015625 378.63671875 70.7578125 C376.47083724 73.22066132 374.25655306 75.61995399 372 78 C371.53158691 78.49564453 371.06317383 78.99128906 370.58056641 79.50195312 C362.63826073 87.84733145 354.23894802 95.13206378 345 102 C344.163479 102.63566895 344.163479 102.63566895 343.31005859 103.28417969 C333.75083113 110.5421633 323.64657863 116.47749079 313 122 C311.87682373 122.58612061 311.87682373 122.58612061 310.73095703 123.18408203 C279.41558985 139.31911338 245.35913884 146.45896006 210.3125 146.3125 C209.38357941 146.31034485 208.45465881 146.3081897 207.49758911 146.30596924 C194.10930524 146.25610813 181.11860364 145.89233116 168 143 C167.02401855 142.79600586 166.04803711 142.59201172 165.04248047 142.38183594 C127.46213873 134.43181445 93.12486919 118.15637307 64 93 C63.08992188 92.22011719 62.17984375 91.44023437 61.2421875 90.63671875 C58.77933868 88.47083724 56.38004601 86.25655306 54 84 C53.50435547 83.53158691 53.00871094 83.06317383 52.49804688 82.58056641 C44.15266855 74.63826073 36.86793622 66.23894802 30 57 C29.5762207 56.44231934 29.15244141 55.88463867 28.71582031 55.31005859 C19.14539639 42.70519973 11.79780061 28.98087152 4.9375 14.75 C4.5552124 13.96407471 4.1729248 13.17814941 3.77905273 12.3684082 C3.42786377 11.62292725 3.0766748 10.87744629 2.71484375 10.109375 C2.25259399 9.13436035 2.25259399 9.13436035 1.78100586 8.13964844 C1 6 1 6 0 0 Z " fill="#2B30AF" transform="translate(46,334)"/>
<path d="M0 0 C0.86496094 0.25652344 1.72992188 0.51304687 2.62109375 0.77734375 C19.94637463 6.50328764 32.96171766 17.30049055 41.796875 33.2421875 C49.95226657 50.07782258 51.76788938 68.21209311 46 86.1015625 C43.27365358 93.76044356 39.72857752 100.39703139 35 107 C34.55140625 107.63421875 34.1028125 108.2684375 33.640625 108.921875 C26.15084197 118.5264203 15.15323117 124.64479584 4 129 C3.16597656 129.3403125 2.33195312 129.680625 1.47265625 130.03125 C-13.68569297 135.20376727 -32.12815257 132.85240648 -46.45703125 126.45703125 C-64.09431618 117.48439619 -76.07891793 104.06440189 -82.32421875 85.1796875 C-88.01341375 66.12672358 -85.46456487 48.1474727 -76.16796875 30.7734375 C-67.13471337 14.6383132 -51.67635649 4.19227629 -34.125 -1 C-23.29383137 -3.29348516 -10.62408052 -3.18904647 0 0 Z " fill="#F9FAF7" transform="translate(274,191)"/>
<path d="M0 0 C0.86496094 0.25652344 1.72992188 0.51304687 2.62109375 0.77734375 C19.94637463 6.50328764 32.96171766 17.30049055 41.796875 33.2421875 C49.95226657 50.07782258 51.76788938 68.21209311 46 86.1015625 C43.27365358 93.76044356 39.72857752 100.39703139 35 107 C34.55140625 107.63421875 34.1028125 108.2684375 33.640625 108.921875 C26.15084197 118.5264203 15.15323117 124.64479584 4 129 C3.16597656 129.3403125 2.33195312 129.680625 1.47265625 130.03125 C-13.68569297 135.20376727 -32.12815257 132.85240648 -46.45703125 126.45703125 C-64.09431618 117.48439619 -76.07891793 104.06440189 -82.32421875 85.1796875 C-88.01341375 66.12672358 -85.46456487 48.1474727 -76.16796875 30.7734375 C-67.13471337 14.6383132 -51.67635649 4.19227629 -34.125 -1 C-23.29383137 -3.29348516 -10.62408052 -3.18904647 0 0 Z M-60 27 C-70.92739914 40.24065904 -75.21074625 54.78753057 -74.24267578 71.69580078 C-73.19837857 81.61137132 -68.72057835 90.94990779 -63 99 C-62.56171875 99.62132812 -62.1234375 100.24265625 -61.671875 100.8828125 C-53.34523218 111.55431451 -40.1336861 118.47847951 -27 121 C-9.23558752 122.67422538 6.24434481 118.0638745 20.1875 106.75 C30.48373797 97.26334526 37.53550452 83.02833719 38.3359375 68.95703125 C38.69911518 52.24686684 33.82427138 37.40453025 22.1875 25.0625 C9.67045461 13.26071435 -5.78973045 8.28901991 -22.67578125 8.6875 C-36.88594613 9.43853272 -50.35578419 16.7530207 -60 27 Z " fill="#FEE712" transform="translate(274,191)"/>
<path d="M0 0 C3 0 3 0 4.82421875 1.75 C5.74654297 2.86375 5.74654297 2.86375 6.6875 4 C7.31011719 4.7425 7.93273437 5.485 8.57421875 6.25 C9.27998047 7.11625 9.27998047 7.11625 10 8 C9.05939669 10.5097406 8.10893632 12.82141045 6.7109375 15.11328125 C2.09958462 22.70448497 1.99436624 30.35992994 3 39 C3.99 41.97 4.98 44.94 6 48 C23.82 48 41.64 48 60 48 C63.21517511 38.35447466 65.27717551 29.17412764 61.6875 19.44140625 C60.65500762 17.41365079 59.56757787 15.41225948 58.41015625 13.453125 C57 11 57 11 56 7 C59.96 3.535 59.96 3.535 64 0 C68.46373859 2.23186929 69.83369533 4.44239072 72.125 8.625 C72.47755859 9.26308594 72.83011719 9.90117187 73.19335938 10.55859375 C78.45635952 20.32847304 79.60375083 30.17331182 77.34765625 41.18359375 C73.70366381 53.21033275 67.04852715 63.36404836 56.0703125 69.6875 C44.67647711 75.59751935 33.41724083 78.31317873 20.6875 74.8125 C6.78796702 69.90678248 -2.61991069 61.27888506 -9 48 C-13.2968773 38.21351788 -13.61648368 26.62859701 -10.125 16.5234375 C-7.54360192 10.73321819 -4.51258357 4.51258357 0 0 Z " fill="#36AC49" transform="translate(223,225)"/>
<path d="M0 0 C3.57103311 1.46139022 5.2815032 3.29671444 7.57421875 6.3671875 C8.57014038 7.68807373 8.57014038 7.68807373 9.58618164 9.03564453 C10.62633423 10.44112549 10.62633423 10.44112549 11.6875 11.875 C12.75182251 13.2978833 12.75182251 13.2978833 13.83764648 14.74951172 C15.24886496 16.63639828 16.65753276 18.52519556 18.06347656 20.41601562 C19.71265821 22.61658781 21.38543424 24.79218838 23.0859375 26.953125 C23.51430908 27.50242676 23.94268066 28.05172852 24.3840332 28.61767578 C25.48202001 30.02206164 26.58646287 31.42139336 27.69140625 32.8203125 C28.12324219 33.53960937 28.55507813 34.25890625 29 35 C28.67 35.99 28.34 36.98 28 38 C10.18 38 -7.64 38 -26 38 C-26.495 36.515 -26.495 36.515 -27 35 C-26.01879883 33.26098633 -26.01879883 33.26098633 -24.45703125 31.33203125 C-23.88299561 30.61072021 -23.30895996 29.88940918 -22.7175293 29.14624023 C-22.08886963 28.37610596 -21.46020996 27.60597168 -20.8125 26.8125 C-19.52212278 25.19636134 -18.23308737 23.57915054 -16.9453125 21.9609375 C-16.28821289 21.13948242 -15.63111328 20.31802734 -14.95410156 19.47167969 C-11.95792256 15.68191005 -9.06908051 11.81472147 -6.1875 7.9375 C-1.10880055 1.10880055 -1.10880055 1.10880055 0 0 Z " fill="#FCE612" transform="translate(255,235)"/>
<path d="M0 0 C17.16 0 34.32 0 52 0 C48.59343795 5.67760342 48.59343795 5.67760342 45.25 8.125 C44.61578125 8.60195313 43.9815625 9.07890625 43.328125 9.5703125 C35.33128953 14.48112086 27.1485796 15.38066476 18 14 C10.17609035 11.53481283 4.70837358 7.6701959 0 1 C0 0.67 0 0.34 0 0 Z " fill="#37A9F7" transform="translate(230,273)"/>
<path d="M0 0 C0.66 0.33 1.32 0.66 2 1 C-7.57 10.57 -17.14 20.14 -27 30 C-27.66 29.67 -28.32 29.34 -29 29 C-23.35314011 22.73065161 -17.64322676 16.54088647 -11.6875 10.5625 C-11.20893555 10.07942383 -10.73037109 9.59634766 -10.23730469 9.09863281 C-6.97564287 5.85049551 -3.56570673 2.90207446 0 0 Z " fill="#5054BD" transform="translate(113,82)"/>
</svg>
