<?xml version="1.0" encoding="UTF-8"?>
<svg version="1.1" xmlns="http://www.w3.org/2000/svg" width="512" height="512">
<path d="M0 0 C1.01790619 0.00215515 2.03581238 0.0043103 3.08456421 0.00653076 C17.69363523 0.05620146 32.02575853 0.30709809 46.375 3.3125 C47.34985352 3.51117676 48.32470703 3.70985352 49.32910156 3.91455078 C97.7109774 14.03517194 141.69928269 35.9516877 177.375 70.3125 C178.3640332 71.26068604 178.3640332 71.26068604 179.37304688 72.22802734 C188.86130305 81.37247479 197.6012044 90.66984009 205.375 101.3125 C206.23306152 102.46355017 207.09113451 103.61459177 207.94921875 104.765625 C213.98736829 112.95680614 219.34595521 121.47054105 224.375 130.3125 C224.73948242 130.94430176 225.10396484 131.57610352 225.47949219 132.22705078 C247.08534998 169.97532572 256.85198095 212.74189997 256.6875 255.9375 C256.68534485 256.95540619 256.6831897 257.97331238 256.68096924 259.02206421 C256.63129854 273.63113523 256.38040191 287.96325853 253.375 302.3125 C253.07698486 303.77478027 253.07698486 303.77478027 252.77294922 305.26660156 C242.65232806 353.6484774 220.7358123 397.63678269 186.375 433.3125 C185.74287598 433.97185547 185.11075195 434.63121094 184.45947266 435.31054688 C175.31502521 444.79880305 166.01765991 453.5387044 155.375 461.3125 C154.22394983 462.17056152 153.07290823 463.02863451 151.921875 463.88671875 C143.73224019 469.92427396 135.22961724 475.30707302 126.375 480.3125 C125.66778809 480.7146875 124.96057617 481.116875 124.23193359 481.53125 C101.09654164 494.5566741 75.92537591 503.30551461 49.9375 508.625 C49.21860596 508.77235596 48.49971191 508.91971191 47.7590332 509.0715332 C33.08339502 511.86090125 18.55831162 512.66142619 3.64770508 512.62817383 C0.70811513 512.6250221 -2.2304558 512.64854926 -5.16992188 512.67382812 C-18.54306192 512.71848737 -31.43916711 511.51301542 -44.625 509.3125 C-46.33055054 509.03031616 -46.33055054 509.03031616 -48.07055664 508.74243164 C-91.33802759 500.97044532 -132.38793216 480.98345309 -165.625 452.3125 C-166.37007813 451.67828125 -167.11515625 451.0440625 -167.8828125 450.390625 C-181.38779833 438.57948485 -194.05918743 425.82889772 -204.625 411.3125 C-205.48149066 410.16255169 -206.33826433 409.01281411 -207.1953125 407.86328125 C-213.23534209 399.67315742 -218.61867614 391.16870382 -223.625 382.3125 C-224.0271875 381.60528809 -224.429375 380.89807617 -224.84375 380.16943359 C-237.8691741 357.03404164 -246.61801461 331.86287591 -251.9375 305.875 C-252.08485596 305.15610596 -252.23221191 304.43721191 -252.3840332 303.6965332 C-255.35789088 288.05024391 -255.99800362 272.57681954 -255.9375 256.6875 C-255.93534485 255.66959381 -255.9331897 254.65168762 -255.93096924 253.60293579 C-255.88129854 238.99386477 -255.63040191 224.66174147 -252.625 210.3125 C-252.42632324 209.33764648 -252.22764648 208.36279297 -252.02294922 207.35839844 C-242.08694339 159.85908068 -220.72824513 114.97974977 -186.46972656 80.18798828 C-184.52498022 78.21081235 -182.60253414 76.21330796 -180.6796875 74.21484375 C-172.51124101 65.80260723 -164.07869229 58.24179512 -154.625 51.3125 C-154.05571777 50.88775391 -153.48643555 50.46300781 -152.89990234 50.02539062 C-144.15908179 43.50981985 -135.11413672 37.67661453 -125.625 32.3125 C-124.91778809 31.9103125 -124.21057617 31.508125 -123.48193359 31.09375 C-100.34654164 18.0683259 -75.17537591 9.31948539 -49.1875 4 C-48.46860596 3.85264404 -47.74971191 3.70528809 -47.0090332 3.5534668 C-31.36274391 0.57960912 -15.88931954 -0.06050362 0 0 Z " fill="#D70127" transform="translate(255.625,-0.3125)"/>
<path d="M0 0 C45.62297838 -0.480946 91.24568788 -0.85084151 136.87070269 -1.07237192 C142.26032287 -1.09863592 147.64993805 -1.12581677 153.03955078 -1.15356445 C154.11249975 -1.15907297 155.18544872 -1.16458149 156.2909113 -1.17025694 C173.65132084 -1.26157046 191.01026611 -1.42710641 208.36980774 -1.62020872 C226.19007947 -1.81677879 244.00958585 -1.93327235 261.83089721 -1.97585839 C272.82357856 -2.0046381 283.81212147 -2.09542043 294.80352817 -2.2662458 C302.346844 -2.37749059 309.88802954 -2.41075328 317.43210556 -2.38352893 C321.78289663 -2.37010636 326.12647702 -2.39024294 330.47597504 -2.50331497 C355.79198369 -3.12919622 355.79198369 -3.12919622 362.72903967 2.02938867 C367.25846764 6.87774452 370.20160846 12.28108044 372.81655669 18.33919585 C374.32670433 21.73454826 376.17528257 24.85556021 378.09859288 28.02978057 C390.427167 48.67430249 405.33281052 78.68925653 405 103 C366.66323122 103.16022507 328.32651288 103.28356909 289.98947701 103.35745731 C285.46336173 103.36621224 280.93724711 103.3752725 276.41113281 103.38452148 C275.05953205 103.38727574 275.05953205 103.38727574 273.68062621 103.39008565 C259.09097798 103.42054418 244.50152284 103.47573576 229.91198915 103.54006957 C214.94155829 103.60553238 199.97122854 103.6444119 185.00066042 103.65861946 C175.76303855 103.66822398 166.52596246 103.69855703 157.28850859 103.75541527 C150.95385646 103.79241983 144.61948644 103.80360016 138.28473407 103.79450964 C134.62978773 103.79002624 130.97579494 103.79689281 127.32101822 103.83443832 C123.35603496 103.87487256 119.39229088 103.86090602 115.42712402 103.84178162 C114.27536037 103.86217151 113.12359672 103.8825614 111.93693113 103.90356916 C105.06274002 103.81385412 101.4205269 102.70339538 96.56276894 97.73825824 C96.04705519 97.16463302 95.53134144 96.5910078 95 96 C94.15634888 95.20047409 93.31269775 94.40094818 92.44348145 93.57719421 C91.71512085 92.85264542 90.98676025 92.12809662 90.23632812 91.3815918 C89.39606079 90.54770432 88.55579346 89.71381683 87.69006348 88.85466003 C86.37395081 87.5402166 86.37395081 87.5402166 85.03125 86.19921875 C83.64987854 84.82283989 83.64987854 84.82283989 82.24060059 83.4186554 C80.30935378 81.49334407 78.38013102 79.56603095 76.45214844 77.63745117 C73.97787092 75.16307099 71.49672089 72.69570348 69.01386261 70.22993755 C66.64018808 67.8699991 64.27366026 65.50294118 61.90625 63.13671875 C61.01264771 62.25030197 60.11904541 61.36388519 59.19836426 60.4506073 C58.38331421 59.63248062 57.56826416 58.81435394 56.72851562 57.97143555 C56.00651978 57.25086472 55.28452393 56.53029388 54.54064941 55.78788757 C53 54 53 54 53 52 C52.44820068 51.77417236 51.89640137 51.54834473 51.32788086 51.31567383 C48.29629916 49.60228171 46.20225141 47.42571825 43.75390625 44.94921875 C43.26091537 44.45339798 42.7679245 43.95757721 42.25999451 43.44673157 C40.68938604 41.86497269 39.12586714 40.27641315 37.5625 38.6875 C36.51543948 37.63039807 35.46791787 36.57375264 34.41992188 35.51757812 C32.48221204 33.56359322 30.54781937 31.60653087 28.61547852 29.6472168 C25.28404794 26.27536001 21.94300876 22.91602282 18.54296875 19.61328125 C17.76566406 18.85402344 16.98835938 18.09476563 16.1875 17.3125 C15.39730469 16.54550781 14.60710937 15.77851562 13.79296875 14.98828125 C12 13 12 13 12 11 C11.01 10.67 10.02 10.34 9 10 C9 9.34 9 8.68 9 8 C8.443125 7.79375 7.88625 7.5875 7.3125 7.375 C4.09040481 5.45915961 2.35495414 2.91342585 0 0 Z " fill="#EEEEEF" transform="translate(102,102)"/>
<path d="M0 0 C1.85625741 -0.00512655 1.85625741 -0.00512655 3.75001496 -0.01035666 C7.18233421 -0.01580712 10.61374155 -0.00330415 14.04595053 0.01675558 C17.74801016 0.03402685 21.45004155 0.02818412 25.15213013 0.02514648 C31.56530749 0.02304891 37.97832209 0.03560059 44.39145851 0.05809784 C53.66375297 0.09060383 62.93596871 0.10102341 72.20831396 0.10604981 C87.25197296 0.11480466 102.29554521 0.1414254 117.3391571 0.17926025 C131.95275946 0.21597541 146.56633825 0.2442896 161.17997742 0.2612915 C162.08073646 0.2623424 162.98149551 0.26339329 163.90955029 0.26447603 C168.42838649 0.26969617 172.94722285 0.27475101 177.46605933 0.27972364 C214.95531398 0.32119161 252.44447 0.39164523 289.93363953 0.48101807 C289.78117441 1.92228558 289.62653517 3.36332321 289.47097778 4.80426025 C289.3421554 6.008013 289.3421554 6.008013 289.21073055 7.23608398 C285.55334316 36.86747881 266.45818568 84.87987331 242.93363953 104.48101807 C240.14133906 104.97140002 240.14133906 104.97140002 236.85042953 104.95759201 C235.59540972 104.96207281 234.34038991 104.96655361 233.0473392 104.97117019 C231.65207449 104.95582869 230.25681382 104.94011602 228.86155701 104.92407227 C227.38142802 104.92168649 225.90129532 104.92106321 224.42116475 104.92205453 C220.34822989 104.91966423 216.27578663 104.89220268 212.20298672 104.86073756 C207.81314507 104.83118355 203.42326338 104.82475078 199.03334045 104.8155365 C191.42565915 104.79639117 183.81815672 104.76253612 176.21057892 104.71874237 C165.21126703 104.65544497 154.21196017 104.61425066 143.21252838 104.57848313 C125.36753069 104.51985374 107.52265653 104.44330251 89.67778015 104.35552979 C72.34122158 104.27029557 55.00465945 104.19347142 37.66801453 104.12799072 C36.599721 104.12395283 35.53142748 104.11991494 34.43076143 104.11575469 C29.07154697 104.09555016 23.7123319 104.07551132 18.35311651 104.05555487 C-26.12016514 103.88973243 -70.59328547 103.69484528 -115.06636047 103.48101807 C-114.11113605 102.36095391 -113.15510934 101.24157392 -112.19874573 100.1224823 C-111.66644474 99.4990541 -111.13414375 98.8756259 -110.58571243 98.23330593 C-107.49851945 94.67280716 -104.14541812 91.3756243 -100.81636047 88.04351807 C-100.0970636 87.3119751 -99.37776672 86.58043213 -98.63667297 85.82672119 C-97.60413391 84.79128174 -97.60413391 84.79128174 -96.55073547 83.73492432 C-95.61825989 82.7962854 -95.61825989 82.7962854 -94.66694641 81.83868408 C-93.06636047 80.48101807 -93.06636047 80.48101807 -91.06636047 80.48101807 C-90.82917297 79.91930908 -90.59198547 79.3576001 -90.34761047 78.77886963 C-88.7731669 75.95519149 -86.84951502 74.00486964 -84.56636047 71.71539307 C-83.67948547 70.82593994 -82.79261047 69.93648682 -81.87886047 69.02008057 C-80.95073547 68.09968994 -80.02261047 67.17929932 -79.06636047 66.23101807 C-78.13823547 65.29515869 -77.21011047 64.35929932 -76.25386047 63.39508057 C-75.36698547 62.51078369 -74.48011047 61.62648682 -73.56636047 60.71539307 C-72.75167297 59.90296143 -71.93698547 59.09052979 -71.09761047 58.253479 C-69.06636047 56.48101807 -69.06636047 56.48101807 -67.06636047 56.48101807 C-66.66211853 55.5878186 -66.66211853 55.5878186 -66.24971008 54.67657471 C-65.06942502 52.48670396 -63.90052859 51.0839267 -62.13276672 49.35211182 C-61.56622375 48.79201416 -60.99968079 48.2319165 -60.41596985 47.65484619 C-59.82622375 47.08185791 -59.23647766 46.50886963 -58.62886047 45.91851807 C-58.04298157 45.3416626 -57.45710266 44.76480713 -56.85346985 44.17047119 C-55.7607826 43.09514788 -54.66604564 42.02190032 -53.56855774 40.95147705 C-52.51967039 39.92475049 -51.49842208 38.86935807 -50.49971008 37.79376221 C-49.06636047 36.48101807 -49.06636047 36.48101807 -47.06636047 36.48101807 C-46.83948547 35.92414307 -46.61261047 35.36726807 -46.37886047 34.79351807 C-44.69086011 31.81942219 -42.59959531 29.76092942 -40.06636047 27.48101807 C-39.40636047 27.48101807 -38.74636047 27.48101807 -38.06636047 27.48101807 C-37.83948547 26.92414307 -37.61261047 26.36726807 -37.37886047 25.79351807 C-35.00356706 21.60847729 -31.35360899 18.70530391 -27.69136047 15.66851807 C-24.36245605 12.8678963 -21.60126162 9.76487361 -18.83979797 6.41070557 C-18.2545636 5.77390869 -17.66932922 5.13711182 -17.06636047 4.48101807 C-16.45365201 3.79113926 -15.84094355 3.10126045 -15.20966816 2.39047623 C-10.32694601 -0.57562018 -5.60697836 -0.05629369 0 0 Z " fill="#EEEEF0" transform="translate(217.0663604736328,306.51898193359375)"/>
<path d="M0 0 C1.01790619 0.00215515 2.03581238 0.0043103 3.08456421 0.00653076 C17.69363523 0.05620146 32.02575853 0.30709809 46.375 3.3125 C47.34985352 3.51117676 48.32470703 3.70985352 49.32910156 3.91455078 C97.7109774 14.03517194 141.69928269 35.9516877 177.375 70.3125 C178.3640332 71.26068604 178.3640332 71.26068604 179.37304688 72.22802734 C188.8173288 81.33009395 197.79484497 90.57258272 205.375 101.3125 C205.375 101.6425 205.375 101.9725 205.375 102.3125 C159.56420483 102.38111056 113.75341507 102.43400051 67.94257868 102.46569599 C62.5387861 102.46944828 57.13499361 102.47333123 51.73120117 102.47729492 C50.65536679 102.47808185 49.5795324 102.47886878 48.47109697 102.47967956 C31.03288611 102.49274681 13.59470481 102.51640789 -3.84348849 102.54395839 C-21.72594737 102.57197594 -39.60839073 102.58866851 -57.49087065 102.59476548 C-68.53248662 102.59888952 -79.57401905 102.61193232 -90.61560931 102.6362494 C-98.1789558 102.65206157 -105.74225887 102.65691065 -113.30562071 102.65300413 C-117.6745496 102.65107551 -122.04333214 102.65410919 -126.41223526 102.67011642 C-130.40753348 102.68464855 -134.40258609 102.68549629 -138.3978953 102.67519668 C-139.84747294 102.67392257 -141.29706553 102.67778474 -142.74661348 102.68714955 C-144.70890785 102.69909542 -146.67129442 102.69094602 -148.6336031 102.68164349 C-149.72605849 102.68278265 -150.81851388 102.68392181 -151.94407398 102.68509549 C-155.01712878 102.25800189 -155.66924675 101.60545958 -157.625 99.3125 C-159.11 98.8175 -159.11 98.8175 -160.625 98.3125 C-160.625 97.6525 -160.625 96.9925 -160.625 96.3125 C-161.285 96.3125 -161.945 96.3125 -162.625 96.3125 C-162.955 94.9925 -163.285 93.6725 -163.625 92.3125 C-164.285 92.3125 -164.945 92.3125 -165.625 92.3125 C-165.625 91.6525 -165.625 90.9925 -165.625 90.3125 C-166.285 90.3125 -166.945 90.3125 -167.625 90.3125 C-169.75 88.4375 -169.75 88.4375 -171.625 86.3125 C-171.625 85.6525 -171.625 84.9925 -171.625 84.3125 C-172.285 84.3125 -172.945 84.3125 -173.625 84.3125 C-175.64282732 81.40682866 -176.97994404 78.79580216 -177.625 75.3125 C-178.285 75.3125 -178.945 75.3125 -179.625 75.3125 C-175.12477271 65.04922655 -163.37500305 57.87032314 -154.625 51.3125 C-153.75584961 50.66015381 -153.75584961 50.66015381 -152.86914062 49.99462891 C-144.13890694 43.49134466 -135.10015107 37.66870858 -125.625 32.3125 C-124.91778809 31.9103125 -124.21057617 31.508125 -123.48193359 31.09375 C-100.34654164 18.0683259 -75.17537591 9.31948539 -49.1875 4 C-48.46860596 3.85264404 -47.74971191 3.70528809 -47.0090332 3.5534668 C-31.36274391 0.57960912 -15.88931954 -0.06050362 0 0 Z " fill="#0152B4" transform="translate(255.625,-0.3125)"/>
<path d="M0 0 C1.8929799 -0.01194629 1.8929799 -0.01194629 3.82420182 -0.02413392 C5.227326 -0.01272168 6.63044721 -0.00093929 8.03356552 0.01117325 C9.52194886 0.00942946 11.010331 0.00592808 12.49870658 0.00081658 C16.59439241 -0.00814511 20.68966136 0.00789636 24.78529406 0.02792883 C29.19971628 0.04517239 33.61411422 0.03935933 38.02856064 0.03631973 C45.67876651 0.03422041 53.32883612 0.04679045 60.97900772 0.06927109 C72.03990391 0.10175329 83.10073408 0.11219423 94.1616728 0.11722305 C112.10645485 0.12598164 130.05116424 0.15261252 147.99590683 0.1904335 C165.42949688 0.22713899 182.8630672 0.25545791 200.29668808 0.27246475 C201.90808935 0.27404109 201.90808935 0.27404109 203.55204418 0.27564928 C208.94122717 0.28086936 214.3304103 0.28592421 219.71959352 0.29089689 C264.4416311 0.33237649 309.16358944 0.40284027 353.88555527 0.49219131 C352.25815683 4.84044648 350.10510352 8.01382967 347.07305527 11.49219131 C346.30711044 12.37548111 346.30711044 12.37548111 345.52569199 13.27661514 C333.19364566 27.23391104 320.0246168 40.59514553 304.88555527 51.49219131 C303.73890655 52.34395933 302.59308802 53.19684594 301.44805527 54.05078506 C293.25645325 60.09822265 284.74652128 65.48317543 275.88555527 70.49219131 C274.8247374 71.09547256 274.8247374 71.09547256 273.74248886 71.71094131 C250.60709691 84.73636542 225.43593117 93.48520592 199.44805527 98.80469131 C198.72916122 98.95204727 198.01026718 99.09940323 197.26958847 99.25122452 C182.59395028 102.04059256 168.06886689 102.84111751 153.15826035 102.80786514 C150.2186704 102.80471342 147.28009946 102.82824057 144.34063339 102.85351944 C130.96749334 102.89817868 118.07138815 101.69270674 104.88555527 99.49219131 C103.74852158 99.30406876 102.61148788 99.1159462 101.43999863 98.92212296 C52.01950494 90.04489042 5.13644751 65.22487252 -30.11444473 29.49219131 C-28.30135471 25.71492043 -26.20711883 22.11949309 -24.11444473 18.49219131 C-23.45444473 18.49219131 -22.79444473 18.49219131 -22.11444473 18.49219131 C-22.11444473 17.83219131 -22.11444473 17.17219131 -22.11444473 16.49219131 C-20.90788223 15.78062881 -20.90788223 15.78062881 -19.67694473 15.05469131 C-16.82263713 13.69235459 -16.82263713 13.69235459 -16.11444473 10.49219131 C-15.45444473 10.49219131 -14.79444473 10.49219131 -14.11444473 10.49219131 C-14.11444473 9.83219131 -14.11444473 9.17219131 -14.11444473 8.49219131 C-13.45444473 8.49219131 -12.79444473 8.49219131 -12.11444473 8.49219131 C-11.86694473 7.91469131 -11.61944473 7.33719131 -11.36444473 6.74219131 C-8.46090861 1.51582629 -5.96393052 -0.00829476 0 0 Z " fill="#0152B4" transform="translate(106.11444473266602,409.50780868530273)"/>
<path d="M0 0 C100.32 0.33 200.64 0.66 304 1 C308.09604719 26.94163222 308.09604719 26.94163222 308.16113281 33.87939453 C308.17061447 34.7261525 308.18009613 35.57291046 308.18986511 36.44532776 C308.19642876 37.77563271 308.19642876 37.77563271 308.203125 39.1328125 C308.20995804 40.08006699 308.21679108 41.02732147 308.22383118 42.00328064 C308.24080948 45.04389037 308.24715213 48.08434569 308.25 51.125 C308.25300613 52.67185989 308.25300613 52.67185989 308.256073 54.24996948 C308.2640201 70.8878032 307.2692543 86.6537285 304 103 C203.68 103.33 103.36 103.66 0 104 C0.66 102.68 1.32 101.36 2 100 C2.66 100 3.32 100 4 100 C4 99.34 4 98.68 4 98 C4.66 98 5.32 98 6 98 C6 97.34 6 96.68 6 96 C6.66 96 7.32 96 8 96 C8 95.34 8 94.68 8 94 C8.804375 93.525625 9.60875 93.05125 10.4375 92.5625 C13.2918076 91.20016328 13.2918076 91.20016328 14 88 C14.66 88 15.32 88 16 88 C16 87.34 16 86.68 16 86 C16.804375 85.525625 17.60875 85.05125 18.4375 84.5625 C21.2918076 83.20016328 21.2918076 83.20016328 22 80 C22.66 80 23.32 80 24 80 C24 79.34 24 78.68 24 78 C24.804375 77.525625 25.60875 77.05125 26.4375 76.5625 C29.2918076 75.20016328 29.2918076 75.20016328 30 72 C30.66 72 31.32 72 32 72 C32 71.34 32 70.68 32 70 C32.804375 69.525625 33.60875 69.05125 34.4375 68.5625 C37.2918076 67.20016328 37.2918076 67.20016328 38 64 C38.66 64 39.32 64 40 64 C40 63.34 40 62.68 40 62 C40.66 62 41.32 62 42 62 C42.66 60.68 43.32 59.36 44 58 C44.66 58 45.32 58 46 58 C46 57.34 46 56.68 46 56 C46.66 56 47.32 56 48 56 C48 53.36 48 50.72 48 48 C47.34 48 46.68 48 46 48 C46 47.34 46 46.68 46 46 C45.01 46 44.02 46 43 46 C43 45.34 43 44.68 43 44 C42.34 44 41.68 44 41 44 C40.505 42.02 40.505 42.02 40 40 C39.34 40 38.68 40 38 40 C38 39.34 38 38.68 38 38 C37.01 38 36.02 38 35 38 C35 37.34 35 36.68 35 36 C34.34 36 33.68 36 33 36 C32.505 34.02 32.505 34.02 32 32 C31.34 32 30.68 32 30 32 C30 31.34 30 30.68 30 30 C29.01 30 28.02 30 27 30 C27 29.34 27 28.68 27 28 C26.34 28 25.68 28 25 28 C24.67 26.68 24.34 25.36 24 24 C23.34 24 22.68 24 22 24 C22 23.34 22 22.68 22 22 C21.34 22 20.68 22 20 22 C17.875 20.125 17.875 20.125 16 18 C16 17.34 16 16.68 16 16 C15.34 16 14.68 16 14 16 C14 15.34 14 14.68 14 14 C13.01 14 12.02 14 11 14 C11 13.34 11 12.68 11 12 C10.34 12 9.68 12 9 12 C8.67 10.68 8.34 9.36 8 8 C7.34 8 6.68 8 6 8 C1.23255814 3.69767442 1.23255814 3.69767442 0 0 Z " fill="#0052B3" transform="translate(204,204)"/>
<path d="M0 0 C2.76184899 2.76184899 3.52261383 6.01657412 4.71484375 9.6484375 C4.97125137 10.41620514 5.227659 11.18397278 5.49183655 11.9750061 C6.03513438 13.60656156 6.57545305 15.23911159 7.11303711 16.87255859 C7.92368614 19.33307163 8.74520158 21.78974138 9.56835938 24.24609375 C10.09701855 25.83832123 10.6250323 27.43076318 11.15234375 29.0234375 C11.39307114 29.74268402 11.63379852 30.46193054 11.88182068 31.20297241 C13.92228265 37.43516836 15.39583605 43.58334422 17 50 C34.49 50 51.98 50 70 50 C64.37188209 55.62811791 64.37188209 55.62811791 60.953125 58.12890625 C60.19813721 58.68368652 59.44314941 59.2384668 58.6652832 59.81005859 C57.86823975 60.38836426 57.07119629 60.96666992 56.25 61.5625 C55.42395264 62.16658691 54.59790527 62.77067383 53.74682617 63.39306641 C45.56544792 69.3574696 37.29775918 75.19900574 29 81 C29.54446668 86.48073673 30.57589906 91.40432915 32.3984375 96.61328125 C32.63406403 97.30834274 32.86969055 98.00340424 33.11245728 98.7195282 C33.85945019 100.91971674 34.61651937 103.11624813 35.375 105.3125 C36.36640809 108.20292975 37.35313744 111.09491358 38.3359375 113.98828125 C38.57125183 114.67995392 38.80656616 115.37162659 39.04901123 116.08425903 C40.92861374 121.66381333 42.56115288 127.28981491 44 133 C36.71878164 128.33529537 29.85033667 123.18231126 22.953125 117.9765625 C18.01582471 114.25105878 13.0249474 110.60654573 8 107 C7.38511719 106.53464844 6.77023438 106.06929688 6.13671875 105.58984375 C3.38121575 103.46818606 3.38121575 103.46818606 0.05493164 103.27075195 C-2.07720304 104.02739759 -3.60533459 104.91572836 -5.44140625 106.23046875 C-6.09858643 106.69727051 -6.7557666 107.16407227 -7.43286133 107.64501953 C-8.13564209 108.15403809 -8.83842285 108.66305664 -9.5625 109.1875 C-10.29686279 109.7119873 -11.03122559 110.23647461 -11.7878418 110.77685547 C-18.5007344 115.59003264 -25.14304203 120.50197134 -31.75415039 125.45385742 C-32.51203857 126.0182251 -33.26992676 126.58259277 -34.05078125 127.1640625 C-35.05105347 127.91357178 -35.05105347 127.91357178 -36.0715332 128.67822266 C-37.98268094 129.98812946 -39.90488332 131.01677437 -42 132 C-41.38438103 126.27177559 -39.88880511 121.1805974 -38.0234375 115.7421875 C-37.42935912 113.96495348 -36.83561914 112.18760632 -36.2421875 110.41015625 C-35.30733281 107.63268228 -34.36873 104.85659233 -33.42382812 102.08251953 C-32.50907377 99.38912898 -31.60913983 96.69113501 -30.7109375 93.9921875 C-30.42455414 93.16500214 -30.13817078 92.33781677 -29.84310913 91.48556519 C-27.88800149 85.78718111 -27.88800149 85.78718111 -29 80 C-30.33945365 78.47886996 -30.33945365 78.47886996 -32.1484375 77.37890625 C-32.81528564 76.92515625 -33.48213379 76.47140625 -34.16918945 76.00390625 C-34.89710693 75.52824219 -35.62502441 75.05257812 -36.375 74.5625 C-37.91934826 73.51374729 -39.46226102 72.46287834 -41.00390625 71.41015625 C-41.81617676 70.8598877 -42.62844727 70.30961914 -43.46533203 69.74267578 C-47.81420263 66.75267017 -52.06337204 63.6293975 -56.3125 60.5 C-57.11800293 59.9129126 -57.92350586 59.3258252 -58.75341797 58.72094727 C-59.51154785 58.16334717 -60.26967773 57.60574707 -61.05078125 57.03125 C-61.71762939 56.54205078 -62.38447754 56.05285156 -63.0715332 55.54882812 C-65.18187791 53.85392664 -67.08607135 51.91392865 -69 50 C-51.51 50 -34.02 50 -16 50 C-14.515 44.555 -14.515 44.555 -13 39 C-12.29575356 36.7628355 -11.56890794 34.53257096 -10.8125 32.3125 C-10.39226562 31.06984375 -9.97203125 29.8271875 -9.5390625 28.546875 C-9.30219727 27.84884766 -9.06533203 27.15082031 -8.82128906 26.43164062 C-7.09291368 21.31433421 -5.39350649 16.18729681 -3.6875 11.0625 C-2.98316702 8.94918739 -2.27874733 6.83590367 -1.57421875 4.72265625 C-1.11921997 3.35765991 -1.11921997 3.35765991 -0.6550293 1.96508789 C-0.33078979 0.99236938 -0.33078979 0.99236938 0 0 Z " fill="#F1EDEE" transform="translate(103,190)"/>
<path d="M0 0 C1.8929799 -0.01194629 1.8929799 -0.01194629 3.82420182 -0.02413392 C5.227326 -0.01272168 6.63044721 -0.00093929 8.03356552 0.01117325 C9.52194886 0.00942946 11.010331 0.00592808 12.49870658 0.00081658 C16.59439241 -0.00814511 20.68966136 0.00789636 24.78529406 0.02792883 C29.19971628 0.04517239 33.61411422 0.03935933 38.02856064 0.03631973 C45.67876651 0.03422041 53.32883612 0.04679045 60.97900772 0.06927109 C72.03990391 0.10175329 83.10073408 0.11219423 94.1616728 0.11722305 C112.10645485 0.12598164 130.05116424 0.15261252 147.99590683 0.1904335 C165.42949688 0.22713899 182.8630672 0.25545791 200.29668808 0.27246475 C201.90808935 0.27404109 201.90808935 0.27404109 203.55204418 0.27564928 C208.94122717 0.28086936 214.3304103 0.28592421 219.71959352 0.29089689 C264.4416311 0.33237649 309.16358944 0.40284027 353.88555527 0.49219131 C353.88555527 0.82219131 353.88555527 1.15219131 353.88555527 1.49219131 C353.12706132 1.49316812 352.36856737 1.49414493 351.58708876 1.49515134 C306.66979503 1.55337614 261.75254998 1.62713699 216.83531622 1.7211776 C211.44654523 1.73244626 206.05777397 1.74358464 200.66900253 1.75464249 C199.05973688 1.75794801 199.05973688 1.75794801 197.4179608 1.76132032 C180.02827215 1.79672875 162.63858355 1.82157284 145.24887218 1.84253833 C127.41610306 1.86427218 109.58338088 1.8972995 91.75065166 1.94089288 C80.73977222 1.96745132 69.7289513 1.98511577 58.7180414 1.99153735 C51.17569131 1.99677845 43.63341497 2.01295214 36.09110435 2.03785697 C31.73434842 2.05191601 27.37772464 2.06102646 23.0209446 2.05719948 C19.03671347 2.05380571 15.05276528 2.06405812 11.06859217 2.08542683 C9.6230668 2.09072391 8.17751227 2.09089932 6.73198696 2.08558694 C4.77510003 2.07912482 2.81817698 2.09270322 0.8613348 2.10743046 C-0.77279164 2.11027836 -0.77279164 2.11027836 -2.43993074 2.1131838 C-5.11597368 2.2743468 -5.11597368 2.2743468 -6.8746497 3.80530137 C-8.32748331 5.6992763 -8.32748331 5.6992763 -9.92694473 8.86719131 C-12.05462673 12.73645085 -14.53460249 14.92404362 -18.11444473 17.49219131 C-18.77444473 17.49219131 -19.43444473 17.49219131 -20.11444473 17.49219131 C-20.44444473 18.48219131 -20.77444473 19.47219131 -21.11444473 20.49219131 C-22.10444473 20.49219131 -23.09444473 20.49219131 -24.11444473 20.49219131 C-24.11444473 19.83219131 -24.11444473 19.17219131 -24.11444473 18.49219131 C-23.45444473 18.49219131 -22.79444473 18.49219131 -22.11444473 18.49219131 C-22.11444473 17.83219131 -22.11444473 17.17219131 -22.11444473 16.49219131 C-21.31006973 16.01781631 -20.50569473 15.54344131 -19.67694473 15.05469131 C-16.82263713 13.69235459 -16.82263713 13.69235459 -16.11444473 10.49219131 C-15.45444473 10.49219131 -14.79444473 10.49219131 -14.11444473 10.49219131 C-14.11444473 9.83219131 -14.11444473 9.17219131 -14.11444473 8.49219131 C-13.45444473 8.49219131 -12.79444473 8.49219131 -12.11444473 8.49219131 C-11.86694473 7.91469131 -11.61944473 7.33719131 -11.36444473 6.74219131 C-8.46090861 1.51582629 -5.96393052 -0.00829476 0 0 Z " fill="#0E509E" transform="translate(106.11444473266602,409.50780868530273)"/>
<path d="M0 0 C99.99 0.33 199.98 0.66 303 1 C303 1.33 303 1.66 303 2 C204.66 2 106.32 2 5 2 C5.99 2.99 6.98 3.98 8 5 C8 5.66 8 6.32 8 7 C8.66 7 9.32 7 10 7 C10 7.99 10 8.98 10 10 C10.66 10 11.32 10 12 10 C12 10.66 12 11.32 12 12 C13.32 12.33 14.64 12.66 16 13 C16 13.66 16 14.32 16 15 C16.66 15 17.32 15 18 15 C18 15.99 18 16.98 18 18 C17.34 18 16.68 18 16 18 C16 17.34 16 16.68 16 16 C15.34 16 14.68 16 14 16 C14 15.34 14 14.68 14 14 C13.01 14 12.02 14 11 14 C11 13.34 11 12.68 11 12 C10.34 12 9.68 12 9 12 C8.67 10.68 8.34 9.36 8 8 C7.34 8 6.68 8 6 8 C1.23255814 3.69767442 1.23255814 3.69767442 0 0 Z " fill="#14509B" transform="translate(204,204)"/>
<path d="M0 0 C0.66 0 1.32 0 2 0 C2 0.99 2 1.98 2 3 C149.015 3.495 149.015 3.495 299 4 C299 4.33 299 4.66 299 5 C149.015 5.495 149.015 5.495 -4 6 C-3.34 4.68 -2.68 3.36 -2 2 C-1.34 2 -0.68 2 0 2 C0 1.34 0 0.68 0 0 Z " fill="#174C93" transform="translate(208,302)"/>
<path d="M0 0 C0.66 0 1.32 0 2 0 C1.38722388 2.96175123 0.74627478 4.38058783 -1 7 C95.69 7 192.38 7 292 7 C292 7.33 292 7.66 292 8 C194.65 8 97.3 8 -3 8 C-2.67 6.02 -2.34 4.04 -2 2 C-1.34 2 -0.68 2 0 2 C0 1.34 0 0.68 0 0 Z " fill="#0A4EAA" transform="translate(212,298)"/>
<path d="M0 0 C17.49 0 34.98 0 53 0 C48.96080655 4.03919345 45.60212178 6.84168113 41 10 C40.505 8.515 40.505 8.515 40 7 C40.66 7 41.32 7 42 7 C41.34 5.68 40.68 4.36 40 3 C20.2 2.505 20.2 2.505 0 2 C0 1.34 0 0.68 0 0 Z " fill="#F9C8D4" transform="translate(120,240)"/>
<path d="M0 0 C1.32 0.33 2.64 0.66 4 1 C4 1.99 4 2.98 4 4 C4.66 4 5.32 4 6 4 C6 4.66 6 5.32 6 6 C7.32 6.33 8.64 6.66 10 7 C10 7.66 10 8.32 10 9 C10.66 9 11.32 9 12 9 C12 9.99 12 10.98 12 12 C12.66 12 13.32 12 14 12 C14 12.66 14 13.32 14 14 C15.32 14.33 16.64 14.66 18 15 C18 15.66 18 16.32 18 17 C18.66 17 19.32 17 20 17 C20 17.99 20 18.98 20 20 C20.66 20 21.32 20 22 20 C22 20.66 22 21.32 22 22 C23.32 22.33 24.64 22.66 26 23 C26 23.66 26 24.32 26 25 C26.66 25 27.32 25 28 25 C28 25.99 28 26.98 28 28 C28.99 28 29.98 28 31 28 C30.6999825 31.50020422 30.04266259 32.94904191 27.75 35.6875 C25.16437673 37.86177411 23.19363318 38.99628672 20 40 C20.66 38.68 21.32 37.36 22 36 C22.66 36 23.32 36 24 36 C24 35.34 24 34.68 24 34 C24.66 34 25.32 34 26 34 C26 31.36 26 28.72 26 26 C25.34 26 24.68 26 24 26 C24 25.34 24 24.68 24 24 C23.01 24 22.02 24 21 24 C21 23.34 21 22.68 21 22 C20.34 22 19.68 22 19 22 C18.67 20.68 18.34 19.36 18 18 C17.34 18 16.68 18 16 18 C16 17.34 16 16.68 16 16 C15.01 16 14.02 16 13 16 C13 15.34 13 14.68 13 14 C12.34 14 11.68 14 11 14 C10.67 12.68 10.34 11.36 10 10 C9.34 10 8.68 10 8 10 C8 9.34 8 8.68 8 8 C7.01 8 6.02 8 5 8 C5 7.34 5 6.68 5 6 C4.34 6 3.68 6 3 6 C2.67 4.68 2.34 3.36 2 2 C1.34 2 0.68 2 0 2 C0 1.34 0 0.68 0 0 Z " fill="#6D286B" transform="translate(226,226)"/>
<path d="M0 0 C0.33 0 0.66 0 1 0 C1.042721 1.66611905 1.04063832 3.33382885 1 5 C0 6 0 6 -1.94252014 6.12025452 C-2.79301437 6.11803391 -3.64350861 6.11581329 -4.51977539 6.11352539 C-5.96115623 6.11341209 -5.96115623 6.11341209 -7.43165588 6.11329651 C-8.476436 6.10813522 -9.52121613 6.10297394 -10.59765625 6.09765625 C-11.66165146 6.0962413 -12.72564667 6.09482635 -13.82188416 6.09336853 C-17.23545083 6.08775064 -20.648953 6.07519511 -24.0625 6.0625 C-26.37044176 6.05748731 -28.67838455 6.052924 -30.98632812 6.04882812 C-36.65757426 6.0377754 -42.32878253 6.02101987 -48 6 C-48.33 6.99 -48.66 7.98 -49 9 C-50.65 7.35 -52.3 5.7 -54 4 C-36.51 4 -19.02 4 -1 4 C-0.67 2.68 -0.34 1.36 0 0 Z " fill="#FAC7D1" transform="translate(88,236)"/>
<path d="M0 0 C0.66 0 1.32 0 2 0 C3.31626692 3.61973402 4 6.09567131 4 10 C20.83 10 37.66 10 55 10 C55 10.33 55 10.66 55 11 C37.84 11 20.68 11 3 11 C0 2 0 2 0 0 Z " fill="#BA1331" transform="translate(117,229)"/>
<path d="M0 0 C0.625 1.75 0.625 1.75 1 4 C0.34 5.32 -0.32 6.64 -1 8 C-18.49 8 -35.98 8 -54 8 C-54 7.67 -54 7.34 -54 7 C-53.38025803 6.98969254 -52.76051605 6.97938507 -52.12199402 6.96876526 C-45.68205136 6.86073394 -39.24224957 6.74613309 -32.80249023 6.62768555 C-30.39789777 6.58432591 -27.99327431 6.5426516 -25.58862305 6.50268555 C-22.13580984 6.44500811 -18.68315281 6.38130615 -15.23046875 6.31640625 C-14.15226364 6.29969376 -13.07405853 6.28298126 -11.96318054 6.26576233 C-10.96236954 6.24581711 -9.96155853 6.22587189 -8.93041992 6.20532227 C-8.04883713 6.18977798 -7.16725433 6.1742337 -6.25895691 6.15821838 C-3.8322892 6.0825248 -3.8322892 6.0825248 -1 5 C-0.67 3.35 -0.34 1.7 0 0 Z " fill="#B90F2F" transform="translate(88,232)"/>
<path d="M0 0 C0 3.56209836 -0.82989243 4.60568237 -2.8125 7.5 C-3.59560547 8.66015625 -3.59560547 8.66015625 -4.39453125 9.84375 C-5.82756284 11.76840556 -7.17728976 13.44195728 -9 15 C-9.66 15 -10.32 15 -11 15 C-11 15.66 -11 16.32 -11 17 C-11.99 17.33 -12.98 17.66 -14 18 C-14.33 18.66 -14.66 19.32 -15 20 C-15.66 19.67 -16.32 19.34 -17 19 C-11.66661098 12.2838805 -6.21830287 5.91331799 0 0 Z " fill="#C21943" transform="translate(72,77)"/>
<path d="M0 0 C0.33 0.66 0.66 1.32 1 2 C1.99 1.67 2.98 1.34 4 1 C3.96003906 1.85851562 3.92007812 2.71703125 3.87890625 3.6015625 C4.00813037 7.22817483 4.77184766 9.94856287 5.9375 13.375 C7.54043471 18.31974204 8.59428279 22.82710559 9 28 C6.70892218 25.70892218 6.25136022 24.19585591 5.2734375 21.1328125 C4.9640625 20.16472656 4.6546875 19.19664062 4.3359375 18.19921875 C4.01882812 17.18472656 3.70171875 16.17023438 3.375 15.125 C2.88773438 13.61486328 2.88773438 13.61486328 2.390625 12.07421875 C1.0461209 7.82038856 0 4.50049442 0 0 Z " fill="#DC2E50" transform="translate(8,320)"/>
<path d="M0 0 C0.66 0.33 1.32 0.66 2 1 C1.13375 1.7734375 1.13375 1.7734375 0.25 2.5625 C-1.96958643 4.96705197 -3.30720989 7.39204519 -4.859375 10.25 C-6.77981326 13.19642582 -9.15158696 14.95657326 -12 17 C-12.66 17 -13.32 17 -14 17 C-14.33 17.99 -14.66 18.98 -15 20 C-15.99 20 -16.98 20 -18 20 C-18 19.34 -18 18.68 -18 18 C-17.34 18 -16.68 18 -16 18 C-16 17.34 -16 16.68 -16 16 C-15.195625 15.525625 -14.39125 15.05125 -13.5625 14.5625 C-10.7081924 13.20016328 -10.7081924 13.20016328 -10 10 C-9.34 10 -8.68 10 -8 10 C-8 9.34 -8 8.68 -8 8 C-7.34 8 -6.68 8 -6 8 C-5.7525 7.4225 -5.505 6.845 -5.25 6.25 C-3.83316683 3.6997003 -2.12372463 1.98214299 0 0 Z " fill="#4F347D" transform="translate(100,410)"/>
<path d="M0 0 C3.3 0.33 6.6 0.66 10 1 C10 1.33 10 1.66 10 2 C8.35 2 6.7 2 5 2 C5.495 2.45375 5.99 2.9075 6.5 3.375 C8 5 8 5 8 7 C8.66 7 9.32 7 10 7 C10 7.99 10 8.98 10 10 C10.66 10 11.32 10 12 10 C12 10.66 12 11.32 12 12 C13.32 12.33 14.64 12.66 16 13 C16 13.66 16 14.32 16 15 C16.66 15 17.32 15 18 15 C18 15.99 18 16.98 18 18 C17.34 18 16.68 18 16 18 C16 17.34 16 16.68 16 16 C15.34 16 14.68 16 14 16 C14 15.34 14 14.68 14 14 C13.01 14 12.02 14 11 14 C11 13.34 11 12.68 11 12 C10.34 12 9.68 12 9 12 C8.67 10.68 8.34 9.36 8 8 C7.34 8 6.68 8 6 8 C1.23255814 3.69767442 1.23255814 3.69767442 0 0 Z " fill="#622C72" transform="translate(204,204)"/>
<path d="M0 0 C2.18610692 3.27916038 3.34102042 6.545691 4.5625 10.25 C4.78357422 10.89324219 5.00464844 11.53648437 5.23242188 12.19921875 C6.65274059 16.46446589 7.48507061 20.53342151 8 25 C7.34 24.67 6.68 24.34 6 24 C6 22.35 6 20.7 6 19 C5.34 19 4.68 19 4 19 C4 17.35 4 15.7 4 14 C3.01 14 2.02 14 1 14 C1.020625 13.030625 1.04125 12.06125 1.0625 11.0625 C1.35618499 8.12534105 1.35618499 8.12534105 0 7 C-0.04092937 4.66702567 -0.04241723 2.33294775 0 0 Z " fill="#FAD5D9" transform="translate(111,213)"/>
<path d="M0 0 C3.16890573 3.16890573 3.87570994 7.28375243 5.1875 11.5 C5.47302734 12.38042969 5.75855469 13.26085937 6.05273438 14.16796875 C6.31763672 15.00972656 6.58253906 15.85148437 6.85546875 16.71875 C7.09934326 17.49154297 7.34321777 18.26433594 7.59448242 19.06054688 C8 21 8 21 7 23 C5.02 21.35 3.04 19.7 1 18 C1.99 17.67 2.98 17.34 4 17 C3.71125 16.27554687 3.4225 15.55109375 3.125 14.8046875 C-0.56239016 5.20210896 -0.56239016 5.20210896 0 0 Z " fill="#FCC7D2" transform="translate(139,300)"/>
<path d="M0 0 C-0.66 1.65 -1.32 3.3 -2 5 C-3.32 5 -4.64 5 -6 5 C-8.0059556 6.73908955 -8.0059556 6.73908955 -9.75 9 C-10.36359375 9.7425 -10.9771875 10.485 -11.609375 11.25 C-12.06828125 11.8275 -12.5271875 12.405 -13 13 C-13.99 12.34 -14.98 11.68 -16 11 C-14.58510266 9.72719706 -13.16800334 8.4568417 -11.75 7.1875 C-10.96109375 6.47980469 -10.1721875 5.77210937 -9.359375 5.04296875 C-3.53537285 0 -3.53537285 0 0 0 Z " fill="#236ABC" transform="translate(105,50)"/>
<path d="M0 0 C0.66 0.99 1.32 1.98 2 3 C1.67 3.33 1.34 3.66 1 4 C0.7834375 5.60875 0.7834375 5.60875 0.5625 7.25 C0.07165009 10.52233274 -0.64209722 13.01261388 -2 16 C-2.66 16 -3.32 16 -4 16 C-3.16666667 18.16666667 -3.16666667 18.16666667 -1 19 C-2.65 19.99 -4.3 20.98 -6 22 C-5.40421223 16.73378394 -4.18691204 12.05591981 -2.4375 7.0625 C-2.20353516 6.37865234 -1.96957031 5.69480469 -1.72851562 4.99023438 C-1.15788171 3.32491499 -0.57972902 1.66217507 0 0 Z " fill="#FBCDD3" transform="translate(67,300)"/>
<path d="M0 0 C0.33 0.66 0.66 1.32 1 2 C0.0625 4.625 0.0625 4.625 -1 7 C-1.66 7 -2.32 7 -3 7 C-3.33 8.65 -3.66 10.3 -4 12 C-4.99 12.33 -5.98 12.66 -7 13 C-7 13.99 -7 14.98 -7 16 C-7.66 16 -8.32 16 -9 16 C-9 16.99 -9 17.98 -9 19 C-9.66 19 -10.32 19 -11 19 C-9.47730437 14.75877447 -7.32369719 11.04913327 -4.9375 7.25 C-4.57333984 6.66089844 -4.20917969 6.07179688 -3.83398438 5.46484375 C-1.15223689 1.15223689 -1.15223689 1.15223689 0 0 Z " fill="#DB254D" transform="translate(44,111)"/>
<path d="M0 0 C2.64 0 5.28 0 8 0 C7.9375 1.75 7.9375 1.75 7 4 C4.75835678 5.59501537 2.46433357 6.74543018 0 8 C0 7.01 0 6.02 0 5 C0.66 5 1.32 5 2 5 C1.34 3.35 0.68 1.7 0 0 Z " fill="#F4EBEF" transform="translate(160,242)"/>
<path d="M0 0 C0.33 0.99 0.66 1.98 1 3 C-0.2578125 5.0078125 -0.2578125 5.0078125 -2.125 7.125 C-2.72570312 7.82882812 -3.32640625 8.53265625 -3.9453125 9.2578125 C-6.31139318 11.264033 -7.95461799 11.65225742 -11 12 C-10.67 11.34 -10.34 10.68 -10 10 C-9.34 10 -8.68 10 -8 10 C-7.6596875 9.1646875 -7.6596875 9.1646875 -7.3125 8.3125 C-5.63848923 5.36305245 -3.45043651 3.3247731 -1 1 C-0.67 0.67 -0.34 0.34 0 0 Z " fill="#F5C6D0" transform="translate(187,324)"/>
<path d="M0 0 C0.66 0 1.32 0 2 0 C0.90301833 5.69139902 -0.54053077 10.74567937 -3 16 C-4.1875 14.4375 -4.1875 14.4375 -5 12 C-3.625 8.25 -3.625 8.25 -2 5 C-1.34 5 -0.68 5 0 5 C0 3.35 0 1.7 0 0 Z " fill="#C51335" transform="translate(69,288)"/>
<path d="M0 0 C1.32 0.33 2.64 0.66 4 1 C3.74213573 7.52396607 3.17832479 11.87818251 -1 17 C-2 15 -2 15 -1.40625 13.046875 C-1.1071875 12.28890625 -0.808125 11.5309375 -0.5 10.75 C0.91618856 6.78339041 1.16854709 4.1430306 0 0 Z " fill="#F6BFCA" transform="translate(74,269)"/>
<path d="M0 0 C0.66 0 1.32 0 2 0 C1.6999825 3.50020422 1.04266259 4.94904191 -1.25 7.6875 C-3.83562327 9.86177411 -5.80636682 10.99628672 -9 12 C-8.34 10.68 -7.68 9.36 -7 8 C-6.34 8 -5.68 8 -5 8 C-5 7.34 -5 6.68 -5 6 C-4.360625 5.7525 -3.72125 5.505 -3.0625 5.25 C-0.81258459 4.18437567 -0.81258459 4.18437567 -0.25 1.875 C-0.1675 1.25625 -0.085 0.6375 0 0 Z " fill="#3F3A88" transform="translate(255,254)"/>
<path d="M0 0 C0 0.66 0 1.32 0 2 C-0.99 2.33 -1.98 2.66 -3 3 C-3.391875 3.825 -3.78375 4.65 -4.1875 5.5 C-6 8 -6 8 -7.96875 8.55078125 C-9.97085484 8.78694503 -11.98644823 8.90097286 -14 9 C-10.73787201 5.33010602 -5.2007339 0 0 0 Z " fill="#276EB9" transform="translate(125,36)"/>
<path d="M0 0 C0.66 0.33 1.32 0.66 2 1 C0.02 3.31 -1.96 5.62 -4 8 C-5.98 6.35 -7.96 4.7 -10 3 C-8 2 -8 2 -5 2.0625 C-1.88232786 2.34381131 -1.88232786 2.34381131 0 0 Z " fill="#952158" transform="translate(80,430)"/>
<path d="M0 0 C0.66 1.32 1.32 2.64 2 4 C1.34 4.66 0.68 5.32 0 6 C-0.57646135 8.28876507 -0.95069253 10.57889902 -1.33984375 12.90625 C-2 15 -2 15 -5 17 C-4.54619105 15.10307857 -4.08675008 13.20750405 -3.625 11.3125 C-3.36976562 10.25675781 -3.11453125 9.20101562 -2.8515625 8.11328125 C-2.08094511 5.29593234 -1.14501457 2.68331675 0 0 Z " fill="#F9BECD" transform="translate(103,190)"/>
<path d="M0 0 C3.3 0.33 6.6 0.66 10 1 C10 2.32 10 3.64 10 5 C7.8125 5.3125 7.8125 5.3125 5 5 C2.1875 2.5 2.1875 2.5 0 0 Z " fill="#F8DFE1" transform="translate(133,312)"/>
<path d="M0 0 C0.66 0.33 1.32 0.66 2 1 C1.0409375 2.11375 1.0409375 2.11375 0.0625 3.25 C-1.78333407 5.7111121 -2.56069174 7.03466926 -3 10 C-2.34 10.33 -1.68 10.66 -1 11 C-1.99 12.485 -1.99 12.485 -3 14 C-4.59931373 9.95467703 -5.57618232 7.1656247 -4 3 C-1.9375 1.1875 -1.9375 1.1875 0 0 Z " fill="#C32141" transform="translate(136,267)"/>
<path d="M0 0 C0.33 0.99 0.66 1.98 1 3 C-0.65 4.65 -2.3 6.3 -4 8 C-4.99 7.67 -5.98 7.34 -7 7 C-4.69 4.69 -2.38 2.38 0 0 Z " fill="#F4BFCB" transform="translate(135,376)"/>
<path d="M0 0 C0.66 0 1.32 0 2 0 C0.61811547 3.21043882 -0.92421903 5.04936365 -3.625 7.25 C-4.57246094 8.03117187 -4.57246094 8.03117187 -5.5390625 8.828125 C-6.02117187 9.21484375 -6.50328125 9.6015625 -7 10 C-6.67 8.68 -6.34 7.36 -6 6 C-5.34 6 -4.68 6 -4 6 C-4 5.34 -4 4.68 -4 4 C-3.34 4 -2.68 4 -2 4 C-2 3.34 -2 2.68 -2 2 C-1.34 2 -0.68 2 0 2 C0 1.34 0 0.68 0 0 Z " fill="#2268B2" transform="translate(439,432)"/>
<path d="M0 0 C0.33 0.99 0.66 1.98 1 3 C-0.65 4.65 -2.3 6.3 -4 8 C-4.99 7.67 -5.98 7.34 -7 7 C-5.71034824 5.62437146 -4.37310707 4.29233607 -3 3 C-2.34 3 -1.68 3 -1 3 C-0.67 2.01 -0.34 1.02 0 0 Z " fill="#F5C2CE" transform="translate(127,384)"/>
<path d="M0 0 C2.125 0.375 2.125 0.375 4 1 C3.01 1.66 2.02 2.32 1 3 C0.7497843 6.08365871 0.7497843 6.08365871 1 9 C0.01 8.67 -0.98 8.34 -2 8 C-2.125 5.125 -2.125 5.125 -2 2 C-1.34 1.34 -0.68 0.68 0 0 Z " fill="#FBD3DE" transform="translate(131,268)"/>
<path d="M0 0 C0.66 0.33 1.32 0.66 2 1 C2.625 4.0625 2.625 4.0625 3 7 C2.34 7 1.68 7 1 7 C1 6.34 1 5.68 1 5 C0.01 5.33 -0.98 5.66 -2 6 C-1.125 1.125 -1.125 1.125 0 0 Z " fill="#FBDEE0" transform="translate(104,194)"/>
<path d="M0 0 C2.475 0.495 2.475 0.495 5 1 C5.103125 1.639375 5.20625 2.27875 5.3125 2.9375 C5.539375 3.618125 5.76625 4.29875 6 5 C6.99 5.33 7.98 5.66 9 6 C8.67 6.99 8.34 7.98 8 9 C7.67 8.01 7.34 7.02 7 6 C6.38125 5.690625 5.7625 5.38125 5.125 5.0625 C2.59402625 3.79701313 1.55151442 2.32727163 0 0 Z " fill="#F4BCC9" transform="translate(104,104)"/>
<path d="M0 0 C1.07310858 3.27185553 0.89263102 5.42947592 0.0625 8.75 C-0.22947266 9.94882813 -0.22947266 9.94882813 -0.52734375 11.171875 C-0.68332031 11.77515625 -0.83929688 12.3784375 -1 13 C-1.66 13 -2.32 13 -3 13 C-2.45144652 8.428721 -1.58255197 4.32564205 0 0 Z " fill="#DC3755" transform="translate(13,172)"/>
<path d="M0 0 C0.99 0.33 1.98 0.66 3 1 C0.45368965 3.97069541 -2.42230149 5.4775751 -6 7 C-6.66 6.67 -7.32 6.34 -8 6 C-6.7391988 4.96680187 -5.46596742 3.94875621 -4.1875 2.9375 C-3.47980469 2.36902344 -2.77210938 1.80054688 -2.04296875 1.21484375 C-1.36878906 0.81394531 -0.69460937 0.41304687 0 0 Z " fill="#C61938" transform="translate(172,241)"/>
<path d="M0 0 C0.33 2.97 0.66 5.94 1 9 C0.34 9 -0.32 9 -1 9 C-1.99 6.36 -2.98 3.72 -4 1 C-1 0 -1 0 0 0 Z " fill="#2B6CBC" transform="translate(508,205)"/>
<path d="M0 0 C1.67542976 0.28604898 3.34385343 0.61781233 5 1 C2.78414118 3.21585882 1.97806378 3.40438724 -1 4 C-1.9075 4.185625 -2.815 4.37125 -3.75 4.5625 C-4.4925 4.706875 -5.235 4.85125 -6 5 C-5.195625 4.360625 -4.39125 3.72125 -3.5625 3.0625 C-1.7249496 1.59396498 -1.7249496 1.59396498 0 0 Z " fill="#C6193E" transform="translate(102,292)"/>
<path d="M0 0 C4.2295083 1.4098361 5.08210924 4.16421847 7 8 C3.56404834 6.47291037 0.88087546 4.40072955 -2 2 C-1.34 1.34 -0.68 0.68 0 0 Z " fill="#7B2B69" transform="translate(75,74)"/>
<path d="M0 0 C-2.26185454 2.26185454 -3.96983561 3.03921617 -7 4 C-7.99 3.67 -8.98 3.34 -10 3 C-9 1 -9 1 -7.25 0.375 C-4.79549443 -0.03408426 -2.4840589 -0.06900164 0 0 Z " fill="#2B72BD" transform="translate(353,493)"/>
<path d="M0 0 C0.33 0.99 0.66 1.98 1 3 C-0.65 4.65 -2.3 6.3 -4 8 C-4.99 7.67 -5.98 7.34 -7 7 C-4.69 4.69 -2.38 2.38 0 0 Z " fill="#F2B4C2" transform="translate(111,400)"/>
<path d="M0 0 C0.66 0.33 1.32 0.66 2 1 C0.68 2.65 -0.64 4.3 -2 6 C-3.32 5.67 -4.64 5.34 -6 5 C-4.60210322 2.20420645 -2.7371003 1.40192942 0 0 Z " fill="#CF1A39" transform="translate(66,318)"/>
<path d="M0 0 C0.5534764 2.07553648 1 3.84365964 1 6 C1.66 6.33 2.32 6.66 3 7 C0.525 8.485 0.525 8.485 -2 10 C-1.54177532 6.53058454 -1.10868317 3.32604951 0 0 Z " fill="#F9B4BF" transform="translate(63,312)"/>
<path d="M0 0 C1.65 0 3.3 0 5 0 C1.87567603 2.52349243 -1.38060496 4.27256146 -5 6 C-4.34 4.68 -3.68 3.36 -3 2 C-2.01 2 -1.02 2 0 2 C0 1.34 0 0.68 0 0 Z " fill="#FACBD8" transform="translate(100,291)"/>
<path d="M0 0 C0.99 0.33 1.98 0.66 3 1 C0.69 2.65 -1.62 4.3 -4 6 C-4.33 5.01 -4.66 4.02 -5 3 C-2.6875 1.4375 -2.6875 1.4375 0 0 Z " fill="#FCCFD3" transform="translate(165,244)"/>
<path d="M0 0 C2.45823172 3.68734758 3.01242616 6.69699971 4 11 C2 9.4375 2 9.4375 0 7 C-0.25 3.25 -0.25 3.25 0 0 Z " fill="#F8C0CA" transform="translate(111,213)"/>
<path d="M0 0 C2.45823172 3.68734758 3.01242616 6.69699971 4 11 C2 9.4375 2 9.4375 0 7 C-0.25 3.25 -0.25 3.25 0 0 Z " fill="#FBC7CF" transform="translate(107,201)"/>
<path d="M0 0 C1.32 0.33 2.64 0.66 4 1 C4 1.66 4 2.32 4 3 C5.32 3.66 6.64 4.32 8 5 C7.67 5.99 7.34 6.98 7 8 C4.35247996 5.42215154 2.05567935 3.08351902 0 0 Z " fill="#F7BECB" transform="translate(122,122)"/>
<path d="M0 0 C2.62187494 1.04874998 3.79371361 1.64931313 5.25 4.125 C5.4975 4.74375 5.745 5.3625 6 6 C4.35 5.67 2.7 5.34 1 5 C0.67 3.35 0.34 1.7 0 0 Z " fill="#2168B2" transform="translate(455,96)"/>
<path d="M0 0 C2.64 0.33 5.28 0.66 8 1 C8 1.66 8 2.32 8 3 C5.36 2.67 2.72 2.34 0 2 C0 1.34 0 0.68 0 0 Z " fill="#276FBC" transform="translate(192,503)"/>
<path d="M0 0 C2 0 2 0 3.625 1.375 C5 3 5 3 5 5 C5.99 5.33 6.98 5.66 8 6 C7.34 6.66 6.68 7.32 6 8 C4.9970458 6.85675161 3.99770973 5.71032809 3 4.5625 C2.443125 3.92441406 1.88625 3.28632813 1.3125 2.62890625 C0 1 0 1 0 0 Z " fill="#BD254C" transform="translate(61,422)"/>
<path d="M0 0 C1.32 0.33 2.64 0.66 4 1 C4 1.66 4 2.32 4 3 C4.66 3.33 5.32 3.66 6 4 C5.01 5.485 5.01 5.485 4 7 C2.02 3.535 2.02 3.535 0 0 Z " fill="#DE1D46" transform="translate(38,391)"/>
<path d="M0 0 C3.3 0.33 6.6 0.66 10 1 C10 1.33 10 1.66 10 2 C8.35 2 6.7 2 5 2 C5 2.66 5 3.32 5 4 C2.525 3.01 2.525 3.01 0 2 C0 1.34 0 0.68 0 0 Z " fill="#4B3E7E" transform="translate(204,204)"/>
<path d="M0 0 C1.33332095 2.6666419 0.67102033 4.16680303 0 7 C-0.66 7 -1.32 7 -2 7 C-2 7.66 -2 8.32 -2 9 C-2.66 9 -3.32 9 -4 9 C-2.94124926 5.59687262 -1.99097846 2.98646769 0 0 Z " fill="#E53151" transform="translate(32,130)"/>
</svg>
