<?xml version="1.0" encoding="UTF-8"?>
<svg version="1.1" xmlns="http://www.w3.org/2000/svg" width="512" height="512">
<path d="M0 0 C1.01790619 0.00215515 2.03581238 0.0043103 3.08456421 0.00653076 C17.69363523 0.05620146 32.02575853 0.30709809 46.375 3.3125 C47.34985352 3.51117676 48.32470703 3.70985352 49.32910156 3.91455078 C96.7390174 13.83185533 141.61271733 35.15303148 176.375 69.3125 C177.42518311 70.32618652 177.42518311 70.32618652 178.49658203 71.36035156 C188.27046226 80.79849578 197.37637692 90.32317068 205.375 101.3125 C206.23149066 102.46244831 207.08826433 103.61218589 207.9453125 104.76171875 C213.9859414 112.95339526 219.34505071 121.46895078 224.375 130.3125 C224.73948242 130.94430176 225.10396484 131.57610352 225.47949219 132.22705078 C240.37859858 158.25774903 250.01845522 187.67301596 254.375 217.3125 C254.55232666 218.51132813 254.72965332 219.71015625 254.91235352 220.9453125 C256.54088616 232.77133441 256.73402724 244.51408524 256.6875 256.4375 C256.68534485 257.43172974 256.6831897 258.42595947 256.68096924 259.45031738 C256.63063314 273.91859955 256.33351704 288.09939071 253.375 302.3125 C253.07698486 303.77695557 253.07698486 303.77695557 252.77294922 305.27099609 C243.72069013 348.53876033 225.33612518 388.73904748 196.375 422.3125 C195.74078125 423.05757813 195.1065625 423.80265625 194.453125 424.5703125 C182.64198485 438.07529833 169.89139772 450.74668743 155.375 461.3125 C154.22505169 462.16899066 153.07531411 463.02576433 151.92578125 463.8828125 C143.73565742 469.92284209 135.23120382 475.30617614 126.375 480.3125 C125.66778809 480.7146875 124.96057617 481.116875 124.23193359 481.53125 C101.09654164 494.5566741 75.92537591 503.30551461 49.9375 508.625 C49.21860596 508.77235596 48.49971191 508.91971191 47.7590332 509.0715332 C32.23237908 512.02265207 16.83186592 512.71957988 1.0625 512.6875 C-0.45177582 512.68668427 -0.45177582 512.68668427 -1.99664307 512.68585205 C-18.50623539 512.64508601 -34.42282001 511.73779309 -50.625 508.3125 C-51.66688477 508.09287598 -52.70876953 507.87325195 -53.78222656 507.64697266 C-88.74910553 500.0198964 -121.73342515 485.47362644 -150.625 464.3125 C-151.19798828 463.89645508 -151.77097656 463.48041016 -152.36132812 463.05175781 C-161.01533696 456.72921718 -168.91953388 449.75176229 -176.625 442.3125 C-177.30143555 441.6632959 -177.97787109 441.0140918 -178.67480469 440.34521484 C-188.1444147 431.21579191 -196.86512211 421.93610596 -204.625 411.3125 C-205.48306152 410.16144983 -206.34113451 409.01040823 -207.19921875 407.859375 C-213.23736829 399.66819386 -218.59595521 391.15445895 -223.625 382.3125 C-223.98948242 381.68069824 -224.35396484 381.04889648 -224.72949219 380.39794922 C-239.66085402 354.31089649 -249.13420268 324.97749753 -253.625 295.3125 C-253.80232666 294.19367432 -253.97965332 293.07484863 -254.16235352 291.92211914 C-255.84376341 280.20014053 -255.98234341 268.57751024 -255.9375 256.75 C-255.93426727 255.21939438 -255.93426727 255.21939438 -255.93096924 253.65786743 C-255.88133352 239.03039476 -255.63419712 224.67986162 -252.625 210.3125 C-252.42632324 209.33764648 -252.22764648 208.36279297 -252.02294922 207.35839844 C-242.18301021 160.31833048 -221.09767534 116.15032713 -187.625 81.3125 C-186.95936035 80.61962891 -186.2937207 79.92675781 -185.60791016 79.21289062 C-175.83306923 69.104602 -166.01431394 59.57225759 -154.625 51.3125 C-153.47615255 50.45758186 -152.32772016 49.60210571 -151.1796875 48.74609375 C-142.98907279 42.70359232 -134.48279081 37.31972097 -125.625 32.3125 C-124.91778809 31.9103125 -124.21057617 31.508125 -123.48193359 31.09375 C-100.34654164 18.0683259 -75.17537591 9.31948539 -49.1875 4 C-48.46860596 3.85264404 -47.74971191 3.70528809 -47.0090332 3.5534668 C-31.36274391 0.57960912 -15.88931954 -0.06050362 0 0 Z " fill="#FBDC08" transform="translate(255.625,-0.3125)"/>
<path d="M0 0 C1.01790619 0.00215515 2.03581238 0.0043103 3.08456421 0.00653076 C17.69363523 0.05620146 32.02575853 0.30709809 46.375 3.3125 C47.34985352 3.51117676 48.32470703 3.70985352 49.32910156 3.91455078 C96.7390174 13.83185533 141.61271733 35.15303148 176.375 69.3125 C177.42518311 70.32618652 177.42518311 70.32618652 178.49658203 71.36035156 C188.27046226 80.79849578 197.37637692 90.32317068 205.375 101.3125 C206.23149066 102.46244831 207.08826433 103.61218589 207.9453125 104.76171875 C213.9859414 112.95339526 219.34505071 121.46895078 224.375 130.3125 C224.73948242 130.94430176 225.10396484 131.57610352 225.47949219 132.22705078 C240.37859858 158.25774903 250.01845522 187.67301596 254.375 217.3125 C254.55232666 218.51132813 254.72965332 219.71015625 254.91235352 220.9453125 C256.54088616 232.77133441 256.73402724 244.51408524 256.6875 256.4375 C256.68534485 257.43172974 256.6831897 258.42595947 256.68096924 259.45031738 C256.63063314 273.91859955 256.33351704 288.09939071 253.375 302.3125 C253.07698486 303.77695557 253.07698486 303.77695557 252.77294922 305.27099609 C243.72479433 348.51914315 225.35178566 388.76872094 196.375 422.3125 C195.6015625 423.20839844 194.828125 424.10429687 194.03125 425.02734375 C190.0668319 429.5269583 186.13117846 433.65390118 181.375 437.3125 C175.71065349 432.48377384 170.35610693 427.4294504 165.11328125 422.1484375 C163.98275581 421.01578964 163.98275581 421.01578964 162.82939148 419.86026001 C160.44637744 417.47170239 158.06687785 415.07967929 155.6875 412.6875 C154.08031182 411.07528784 152.47289193 409.46330662 150.86523438 407.8515625 C147.91824276 404.89644455 144.97256989 401.94002644 142.02856445 398.98193359 C137.6676488 394.60088594 133.29613785 390.23093371 128.90625 385.87890625 C127.22910207 384.21100245 125.55202052 382.5430319 123.875 380.875 C123.03324219 380.04162109 122.19148438 379.20824219 121.32421875 378.34960938 C117.10895396 374.15094012 113.13143059 369.92266482 109.375 365.3125 C107.72860035 363.95422029 106.06204193 362.61995749 104.375 361.3125 C101.52965979 358.61307467 98.90908686 355.8002597 96.375 352.8125 C92.980431 348.81175796 89.45510884 345.19008843 85.375 341.875 C82.29596119 339.24498768 79.92421599 336.4499966 77.375 333.3125 C75.71959421 331.63464803 74.05135634 329.96942033 72.375 328.3125 C71.46621094 327.39210938 70.55742187 326.47171875 69.62109375 325.5234375 C68.69425781 324.58757812 67.76742187 323.65171875 66.8125 322.6875 C66.34392578 322.21054687 65.87535156 321.73359375 65.39257812 321.2421875 C63.35963381 319.19502679 61.36694177 317.30660767 59.03515625 315.6015625 C58.48730469 315.17617188 57.93945312 314.75078125 57.375 314.3125 C57.375 313.6525 57.375 312.9925 57.375 312.3125 C56.385 311.9825 55.395 311.6525 54.375 311.3125 C52.7265625 309.60546875 52.7265625 309.60546875 51 307.5 C48.34772286 304.35218063 45.6125973 301.86333424 42.375 299.3125 C42.375 298.6525 42.375 297.9925 42.375 297.3125 C41.77945313 297.07015625 41.18390625 296.8278125 40.5703125 296.578125 C35.82616005 293.84306202 33.22291316 288.16249235 31 283.3125 C30.15885614 279.27500947 29.70040868 275.40823299 30.375 271.3125 C32.25 269.25 32.25 269.25 34.375 268.3125 C35.035 268.3125 35.695 268.3125 36.375 268.3125 C36.375 267.6525 36.375 266.9925 36.375 266.3125 C37.3340625 265.9103125 37.3340625 265.9103125 38.3125 265.5 C40.70631686 264.42582248 40.70631686 264.42582248 41.375 261.3125 C44.75367647 258.84697933 46.08058202 258.3125 50.375 258.3125 C50.375 257.6525 50.375 256.9925 50.375 256.3125 C51.84414375 255.20772722 53.35099072 254.15276552 54.875 253.125 C58.86182006 250.23558901 58.86182006 250.23558901 60 245.4375 C59.70435324 242.45695318 59.70435324 242.45695318 58.375 241.3125 C55.70797083 241.21410956 53.06212135 241.17536417 50.39453125 241.171875 C48.73891864 241.15353783 47.08331931 241.13396668 45.42773438 241.11328125 C42.81186707 241.08437122 40.19684768 241.06250175 37.58081055 241.06201172 C35.059615 241.0586651 32.54038422 241.02403475 30.01953125 240.984375 C29.24430618 240.9914447 28.46908112 240.9985144 27.67036438 241.00579834 C23.67360942 240.91678801 21.10661365 240.50441922 17.91943359 237.98852539 C14.82189513 234.73078992 14.13756851 232.36674679 13.1875 228 C12.87387636 226.65559783 12.55749512 225.31183581 12.23828125 223.96875 C11.95339844 222.7621875 11.66851562 221.555625 11.375 220.3125 C10.49773172 217.5693667 9.46295566 214.98705766 8.375 212.3125 C7.86066406 210.99378906 7.86066406 210.99378906 7.3359375 209.6484375 C5.87968857 205.16468502 5.87968857 205.16468502 3.375 201.3125 C1.04682036 200.94489269 -1.2868385 200.61008419 -3.625 200.3125 C-3.893125 201.1375 -4.16125 201.9625 -4.4375 202.8125 C-5.49878841 205.94050796 -6.64223048 209.01421497 -7.84375 212.08984375 C-8.91106463 215.12635388 -9.75109317 218.2149858 -10.625 221.3125 C-11.38575918 223.94779881 -12.18246155 226.56930723 -13 229.1875 C-13.1959375 229.86296875 -13.391875 230.5384375 -13.59375 231.234375 C-15.11976368 236.0442156 -15.11976368 236.0442156 -17.640625 237.3828125 C-19.625 237.3125 -19.625 237.3125 -22 235.3125 C-23.34554149 233.7747383 -24.68945168 232.23501108 -25.99609375 230.6640625 C-28.52811947 227.63112113 -31.03966854 224.86424085 -34.0625 222.3125 C-40.34125551 216.98285869 -46.02192145 210.99823867 -51.80737305 205.14599609 C-54.07269236 202.86089897 -56.34883387 200.58679342 -58.625 198.3125 C-59.61397922 197.32361464 -60.60290926 196.3346801 -61.59179688 195.34570312 C-62.11584106 194.82165894 -62.63988525 194.29761475 -63.17980957 193.75769043 C-114.65820313 142.27929687 -114.65820313 142.27929687 -116.17138672 140.76391602 C-117.57590403 139.36152175 -118.98801758 137.96674795 -120.40039062 136.57226562 C-122.625 134.3125 -122.625 134.3125 -124.4375 131.9375 C-126.90092703 128.98138757 -129.62361925 126.63489596 -132.5390625 124.13671875 C-136.77138156 120.435421 -140.71916602 116.50279416 -144.25 112.125 C-146.53511048 109.41894811 -148.83641737 107.47365154 -151.625 105.3125 C-154.89010067 102.22879381 -157.84701901 98.9292851 -160.8125 95.5625 C-163.98859016 91.9940381 -167.27475012 88.76381696 -170.875 85.625 C-174.84415462 82.15044409 -177.79143273 78.75175539 -180.625 74.3125 C-172.52072156 65.80746054 -164.0542661 58.31517386 -154.625 51.3125 C-154.04991699 50.88195313 -153.47483398 50.45140625 -152.88232422 50.0078125 C-144.14755391 43.49926223 -135.10614384 37.67209623 -125.625 32.3125 C-124.91778809 31.9103125 -124.21057617 31.508125 -123.48193359 31.09375 C-100.34654164 18.0683259 -75.17537591 9.31948539 -49.1875 4 C-48.46860596 3.85264404 -47.74971191 3.70528809 -47.0090332 3.5534668 C-31.36274391 0.57960912 -15.88931954 -0.06050362 0 0 Z " fill="#07892F" transform="translate(255.625,-0.3125)"/>
<path d="M0 0 C6.51815108 -0.36895195 6.51815108 -0.36895195 8.6171875 1.23828125 C12.53706568 6.23225034 13.81312897 13.21986561 15.4140625 19.25390625 C15.66567139 20.18734863 15.91728027 21.12079102 16.17651367 22.08251953 C16.6778096 23.96322362 17.1627937 25.84836313 17.63012695 27.73779297 C17.98143677 29.05674561 17.98143677 29.05674561 18.33984375 30.40234375 C18.53956787 31.19116943 18.73929199 31.97999512 18.94506836 32.79272461 C20.45653602 35.95522846 21.98520874 37.20203419 25 39 C27.95947165 39.38695271 30.55690842 39.55824349 33.51171875 39.5390625 C34.32115433 39.55085541 35.1305899 39.56264832 35.96455383 39.57479858 C38.53906684 39.60998909 41.11276629 39.61922436 43.6875 39.625 C46.27270194 39.64133012 48.85754097 39.66330888 51.44258118 39.69662476 C53.04843264 39.7162945 54.65445113 39.72558533 56.26042175 39.72354126 C61.77652579 39.77652579 61.77652579 39.77652579 64 42 C64.625 45.1875 64.625 45.1875 64 49 C61.64540527 51.76129746 59.02676063 54.00039308 56 56 C55.34 56 54.68 56 54 56 C54 56.66 54 57.32 54 58 C51.02588876 59.23921302 48.14737182 60.30058404 45 61 C44.67 62.32 44.34 63.64 44 65 C42.68 65.33 41.36 65.66 40 66 C40 66.66 40 67.32 40 68 C39.175 68.350625 38.35 68.70125 37.5 69.0625 C36.2625 70.0215625 36.2625 70.0215625 35 71 C33.89527867 80.43412465 37.67772325 88.50640159 40.88867188 97.2265625 C44.8931683 108.52744061 44.8931683 108.52744061 43 114 C40 116 40 116 36.80078125 115.9765625 C31.95856151 114.7324156 29.03083656 112.47239215 25.1875 109.375 C23.77792289 108.28310612 22.36776752 107.19195833 20.95703125 106.1015625 C19.63796668 105.06777742 18.31895208 104.03392859 17 103 C15.13874033 101.56532865 13.26631586 100.14480957 11.375 98.75 C10.66085937 98.20859375 9.94671875 97.6671875 9.2109375 97.109375 C6.0750632 95.53589744 4.49452907 95.41201838 1 96 C-2.1305878 97.74413016 -4.91436471 99.87923023 -7.75 102.0625 C-8.54768799 102.65434082 -9.34537598 103.24618164 -10.16723633 103.85595703 C-13.5275765 106.35013849 -16.85165615 108.88437636 -20.15234375 111.45703125 C-26.81780853 116.49977887 -26.81780853 116.49977887 -31 116.125 C-34 115 -34 115 -36 112 C-35.77259401 103.17251279 -32.02307409 94.94644359 -29.0625 86.734375 C-28.65773437 85.57164062 -28.25296875 84.40890625 -27.8359375 83.2109375 C-27.46001465 82.16212402 -27.0840918 81.11331055 -26.69677734 80.03271484 C-25.90698085 76.59513527 -26.04495429 74.38365035 -27 71 C-29.04235259 69.1485498 -30.83411696 67.77723853 -33.125 66.3125 C-34.3924268 65.44995257 -35.65933514 64.58664293 -36.92578125 63.72265625 C-37.92085693 63.0577417 -37.92085693 63.0577417 -38.93603516 62.37939453 C-42.42655581 60.04660038 -45.88024721 57.66755405 -49.3125 55.25 C-49.96428223 54.81469971 -50.61606445 54.37939941 -51.28759766 53.9309082 C-54.22435981 51.85538159 -55.86053578 50.34179803 -57.23046875 46.984375 C-57 44 -57 44 -55.02197266 41.35766602 C-51.0325138 38.24519194 -48.33840256 38.26827219 -43.41796875 38.29296875 C-42.60378983 38.27784744 -41.7896109 38.26272614 -40.95075989 38.24714661 C-38.36272364 38.20432563 -35.77585495 38.19543753 -33.1875 38.1875 C-31.42770346 38.16435117 -29.66793459 38.13898502 -27.90820312 38.11132812 C-23.60536581 38.04853168 -19.303255 38.01615265 -15 38 C-14.505 37.01 -14.505 37.01 -14 36 C-13.34 36 -12.68 36 -12 36 C-11.9175 35.21625 -11.835 34.4325 -11.75 33.625 C-11.11799844 30.5703258 -10.3362274 28.27140227 -9.125 25.4375 C-7.44424168 21.43511868 -6.38869744 17.56066907 -5.5 13.3125 C-4.39466664 8.14613524 -2.94586159 4.36800167 0 0 Z " fill="#D8141A" transform="translate(252,200)"/>
<path d="M0 0 C2.63068839 3.09363077 3.67039736 5.75894298 4.625 9.6875 C5.24876921 13.13884668 5.24876921 13.13884668 7 16 C15.99567755 17.30288834 25.0615456 17.35510908 34.13476562 17.60546875 C35.34455078 17.64285156 36.55433594 17.68023437 37.80078125 17.71875 C39.44300659 17.76418945 39.44300659 17.76418945 41.1184082 17.81054688 C43.58631423 17.97280182 45.67916252 18.1583962 48 19 C49.76197683 22.52395365 49.66341624 26.16345139 49 30 C46.82489779 33.94875937 44.4361993 36.53167414 40.125 37.9375 C39.42375 37.958125 38.7225 37.97875 38 38 C38 37.34 38 36.68 38 36 C39.46914375 34.89522722 40.97599072 33.84026552 42.5 32.8125 C46.48682006 29.92308901 46.48682006 29.92308901 47.625 25.125 C47.32935324 22.14445318 47.32935324 22.14445318 46 21 C43.33297083 20.90160956 40.68712135 20.86286417 38.01953125 20.859375 C36.36391864 20.84103783 34.70831931 20.82146668 33.05273438 20.80078125 C30.43686707 20.77187122 27.82184768 20.75000175 25.20581055 20.74951172 C22.684615 20.7461651 20.16538422 20.71153475 17.64453125 20.671875 C16.86930618 20.6789447 16.09408112 20.6860144 15.29536438 20.69329834 C9.54990849 20.5653433 7.01052057 19.13207488 3 15 C1.7578125 12.5 1.7578125 12.5 1.125 10 C0.90070313 9.175 0.67640625 8.35 0.4453125 7.5 C-0.00967201 4.945701 -0.08321108 2.58878917 0 0 Z " fill="#36702D" transform="translate(268,220)"/>
<path d="M0 0 C1.41873369 2.83746738 0.60615688 4.40387752 -0.1875 7.4375 C-0.42855469 8.40558594 -0.66960937 9.37367188 -0.91796875 10.37109375 C-2.23589402 13.5731288 -2.96048029 14.34717361 -6 16 C-8.97739091 16.41121576 -11.92128543 16.34878194 -14.921875 16.29296875 C-15.78186096 16.28872391 -16.64184692 16.28447906 -17.52789307 16.28010559 C-20.2689167 16.26334116 -23.00919939 16.22569345 -25.75 16.1875 C-27.61066645 16.17245025 -29.47134445 16.15876235 -31.33203125 16.14648438 C-35.8883054 16.11344499 -40.44402716 16.06167833 -45 16 C-42.02144644 13.02144644 -38.70975177 13.64374816 -34.7109375 13.5859375 C-33.89251373 13.56657135 -33.07408997 13.5472052 -32.23086548 13.5272522 C-29.61235024 13.46738918 -26.99379119 13.42104468 -24.375 13.375 C-22.60154314 13.33682636 -20.82810495 13.29777499 -19.0546875 13.2578125 C-14.70327625 13.16168229 -10.35177821 13.07767649 -6 13 C-5.67 12.34 -5.34 11.68 -5 11 C-4.34 11 -3.68 11 -3 11 C-2.814375 9.6696875 -2.814375 9.6696875 -2.625 8.3125 C-2.05587264 5.29612498 -1.23385564 2.79673946 0 0 Z " fill="#D03E02" transform="translate(243,225)"/>
<path d="M0 0 C12.87 0 25.74 0 39 0 C40.76197683 3.52395365 40.66341624 7.16345139 40 11 C37.82489779 14.94875937 35.4361993 17.53167414 31.125 18.9375 C30.42375 18.958125 29.7225 18.97875 29 19 C29 18.34 29 17.68 29 17 C30.46914375 15.89522722 31.97599072 14.84026552 33.5 13.8125 C37.48682006 10.92308901 37.48682006 10.92308901 38.625 6.125 C38.32935324 3.14445318 38.32935324 3.14445318 37 2 C34.26298822 1.83989519 31.5483241 1.74053172 28.80859375 1.68359375 C27.57883568 1.6524221 27.57883568 1.6524221 26.32423401 1.62062073 C23.69541099 1.55503506 21.06648496 1.49619874 18.4375 1.4375 C16.65949439 1.39432333 14.88149935 1.35070933 13.10351562 1.30664062 C8.73578366 1.19934457 4.36794773 1.09810296 0 1 C0 0.67 0 0.34 0 0 Z " fill="#5E5728" transform="translate(277,239)"/>
<path d="M0 0 C0.99 0.33 1.98 0.66 3 1 C0.50019601 3.49980399 -1.60915929 4.04220059 -4.9609375 5.1640625 C-6.15460938 5.56367188 -7.34828125 5.96328125 -8.578125 6.375 C-9.83109375 6.7875 -11.0840625 7.2 -12.375 7.625 C-13.62023437 8.04523438 -14.86546875 8.46546875 -16.1484375 8.8984375 C-17.3446875 9.29546875 -18.5409375 9.6925 -19.7734375 10.1015625 C-20.87091309 10.46588379 -21.96838867 10.83020508 -23.09912109 11.20556641 C-26 12 -26 12 -30 12 C-30 11.34 -30 10.68 -30 10 C-29.05898438 9.73445313 -28.11796875 9.46890625 -27.1484375 9.1953125 C-25.90320313 8.84210938 -24.65796875 8.48890625 -23.375 8.125 C-22.14523437 7.77695312 -20.91546875 7.42890625 -19.6484375 7.0703125 C-17.34405114 6.39429338 -15.05375473 5.66616651 -12.7890625 4.8671875 C-10 4 -10 4 -6 4 C-6 3.01 -6 2.02 -6 1 C-3.03 1.495 -3.03 1.495 0 2 C0 1.34 0 0.68 0 0 Z " fill="#D5CC14" transform="translate(350,492)"/>
<path d="M0 0 C0.66 0 1.32 0 2 0 C1.938125 1.258125 1.87625 2.51625 1.8125 3.8125 C1.83081347 6.39469981 1.86838891 7.74451965 3.0625 10.0625 C6.25553582 11.60751733 8.60120163 10.78005208 12 10 C14.52448636 8.55531987 16.70822942 6.7982115 18.9375 4.9375 C19.52595703 4.46505859 20.11441406 3.99261719 20.72070312 3.50585938 C22.15721024 2.34964633 23.58007078 1.17651278 25 0 C25 0.99 25 1.98 25 3 C20.65714286 7 20.65714286 7 18 7 C17.34 8.65 16.68 10.3 16 12 C11.05 12.66 6.1 13.32 1 14 C0.14778004 10.59112017 -0.10783755 8.19565369 -0.0625 4.75 C-0.05347656 3.85796875 -0.04445312 2.9659375 -0.03515625 2.046875 C-0.02355469 1.37140625 -0.01195312 0.6959375 0 0 Z " fill="#FEC423" transform="translate(215,304)"/>
<path d="M0 0 C5.51788338 0.09339475 11.03532065 0.19945631 16.55273438 0.31738281 C18.43059576 0.35571977 20.30853176 0.39056427 22.18652344 0.421875 C24.88243321 0.46742363 27.57782712 0.52543375 30.2734375 0.5859375 C31.11619232 0.59748871 31.95894714 0.60903992 32.82723999 0.62094116 C38.77225659 0.77225659 38.77225659 0.77225659 41 3 C41.4375 6.375 41.4375 6.375 41 10 C38.5 12.4375 38.5 12.4375 36 14 C36.33 12.35 36.66 10.7 37 9 C37.99 9 38.98 9 40 9 C39.34 7.02 38.68 5.04 38 3 C19.685 2.505 19.685 2.505 1 2 C0.67 1.34 0.34 0.68 0 0 Z " fill="#B22820" transform="translate(275,239)"/>
<path d="M0 0 C4.10958767 1.45044271 7.43258745 3.51110752 11 6 C11.33 5.34 11.66 4.68 12 4 C12.66 4 13.32 4 14 4 C14 5.32 14 6.64 14 8 C14.5775 8.2475 15.155 8.495 15.75 8.75 C18.3046733 10.16926295 19.94069854 11.94069854 22 14 C24.13309192 15.23512079 24.13309192 15.23512079 26 16 C19.40324031 15.70642692 15.83026636 13.17215249 10.75 9.125 C10.04359375 8.58230469 9.3371875 8.03960937 8.609375 7.48046875 C5.56527604 5.12244512 2.68203322 2.76911222 0 0 Z " fill="#CF2906" transform="translate(266,300)"/>
<path d="M0 0 C0.66 0 1.32 0 2 0 C4.04061541 7.17859349 5.37369729 13.52605426 5 21 C5.66 21 6.32 21 7 21 C6.67 22.32 6.34 23.64 6 25 C3.5871957 21.38079355 2.82678754 17.79876463 1.875 13.625 C1.69324219 12.86960937 1.51148438 12.11421875 1.32421875 11.3359375 C0.42936046 7.48737403 -0.2378791 3.98051023 0 0 Z " fill="#D8CE16" transform="translate(4,302)"/>
<path d="M0 0 C2.31 0 4.62 0 7 0 C7 0.33 7 0.66 7 1 C5.02 1 3.04 1 1 1 C1 1.99 1 2.98 1 4 C0.34 4 -0.32 4 -1 4 C-1 5.98 -1 7.96 -1 10 C-1.66 10 -2.32 10 -3 10 C-3 11.98 -3 13.96 -3 16 C-3.66 16 -4.32 16 -5 16 C-5 17.98 -5 19.96 -5 22 C-5.66 22 -6.32 22 -7 22 C-7.33 22.99 -7.66 23.98 -8 25 C-7.66845449 23.33297677 -7.3346289 21.66640703 -7 20 C-6.79761719 18.98164063 -6.59523437 17.96328125 -6.38671875 16.9140625 C-5.03716991 10.56590537 -3.64010418 5.39739585 0 0 Z " fill="#A42E20" transform="translate(252,200)"/>
<path d="M0 0 C3.11609147 3.11609147 3.86591782 7.04861558 5.1875 11.1875 C5.47302734 12.02603516 5.75855469 12.86457031 6.05273438 13.72851562 C7.73400643 18.96868475 8.25917505 22.62121179 7 28 C6.01 28.33 5.02 28.66 4 29 C4.33 27.68 4.66 26.36 5 25 C5.66 25 6.32 25 7 25 C6.67 24.0925 6.34 23.185 6 22.25 C5 19 5 19 5 15 C4.34 15 3.68 15 3 15 C3 13.35 3 11.7 3 10 C2.34 10 1.68 10 1 10 C0.67 6.7 0.34 3.4 0 0 Z " fill="#C2320F" transform="translate(288,286)"/>
<path d="M0 0 C0.99 1.32 1.98 2.64 3 4 C2.360625 4.7425 1.72125 5.485 1.0625 6.25 C-0.78333407 8.7111121 -1.56069174 10.03466926 -2 13 C-2.66 13 -3.32 13 -4 13 C-4.33 14.98 -4.66 16.96 -5 19 C-5.66 18.67 -6.32 18.34 -7 18 C-5.06375702 11.79522136 -2.74390859 5.89174281 0 0 Z " fill="#D0CA14" transform="translate(25,143)"/>
<path d="M0 0 C4.28028199 3.45715084 7.9633152 7.01984351 11.453125 11.26953125 C13.57744394 13.64597895 15.97729679 15.58360807 18.484375 17.54296875 C20.21162868 19.20344716 21.04659388 20.81744776 22 23 C18.56512188 21.85504063 17.51961418 20.31246394 15.3203125 17.546875 C13.46212914 15.36983178 11.25743014 13.74950836 9 12 C5.70831755 8.86888742 2.68096433 5.67391408 0 2 C0 1.34 0 0.68 0 0 Z " fill="#C8D827" transform="translate(94,94)"/>
<path d="M0 0 C1.5 1.375 1.5 1.375 3 3 C3 3.66 3 4.32 3 5 C-8.55 5 -20.1 5 -32 5 C-32 4.67 -32 4.34 -32 4 C-21.44 4 -10.88 4 0 4 C0 2.68 0 1.36 0 0 Z " fill="#FBD817" transform="translate(232,233)"/>
<path d="M0 0 C3.85913184 1.51608751 5.45507368 3.80066405 8 7 C9.1291791 7.97790151 10.27647805 8.93512509 11.4375 9.875 C15.04035763 12.85667528 17.42953305 16.10535311 20 20 C16.66353464 18.5836449 14.84455707 16.91828002 12.5625 14.125 C9.93315004 10.99698022 7.2144065 8.5325627 4 6 C4 5.34 4 4.68 4 4 C2.68 3.34 1.36 2.68 0 2 C0 1.34 0 0.68 0 0 Z " fill="#C9D826" transform="translate(355,356)"/>
<path d="M0 0 C0.66 0 1.32 0 2 0 C1.37240135 2.92879371 0.41377341 5.36095629 -1 8 C-1.66 8 -2.32 8 -3 8 C-3.4021875 9.2065625 -3.4021875 9.2065625 -3.8125 10.4375 C-4.4003125 11.7059375 -4.4003125 11.7059375 -5 13 C-5.99 13.33 -6.98 13.66 -8 14 C-6.67997942 10.42705968 -5.10478612 7.36046508 -3 4.1875 C-2.484375 3.39730469 -1.96875 2.60710937 -1.4375 1.79296875 C-0.7259375 0.90544922 -0.7259375 0.90544922 0 0 Z " fill="#E3D517" transform="translate(44,111)"/>
<path d="M0 0 C0.33 0 0.66 0 1 0 C0.88529624 3.02153855 0.7585615 6.04178401 0.625 9.0625 C0.5940625 9.91005859 0.563125 10.75761719 0.53125 11.63085938 C0.29468217 16.73678171 -0.38044506 21.14791873 -2 26 C-2.33 26 -2.66 26 -3 26 C-3.16589226 19.97258105 -2.57114133 14.42505207 -1.5 8.5 C-1.35691406 7.67757812 -1.21382813 6.85515625 -1.06640625 6.0078125 C-0.71693088 4.00415373 -0.35931844 2.00191702 0 0 Z " fill="#C8C813" transform="translate(4,205)"/>
<path d="M0 0 C0.99 0.33 1.98 0.66 3 1 C1.52278578 4.45201639 -0.43794001 6.64961936 -3.125 9.25 C-3.84945313 9.95640625 -4.57390625 10.6628125 -5.3203125 11.390625 C-5.87460937 11.92171875 -6.42890625 12.4528125 -7 13 C-7.33 11.68 -7.66 10.36 -8 9 C-6.68 8.67 -5.36 8.34 -4 8 C-4 7.01 -4 6.02 -4 5 C-3.01 5 -2.02 5 -1 5 C-1.33 4.01 -1.66 3.02 -2 2 C-1.34 2 -0.68 2 0 2 C0 1.34 0 0.68 0 0 Z " fill="#DBD019" transform="translate(434,435)"/>
<path d="M0 0 C0.639375 0.66 1.27875 1.32 1.9375 2 C5.7829235 5.85653744 9.90924419 9.40833422 14 13 C10.47967572 13 9.5614657 12.29648649 7 10 C7 9.34 7 8.68 7 8 C6.01 8.33 5.02 8.66 4 9 C1.49701566 6.06171403 0.53069061 3.82097239 0 0 Z " fill="#D3CB2C" transform="translate(290,290)"/>
<path d="M0 0 C1.83163866 3.38148676 3.0244087 6.83857179 4.1875 10.5 C4.55230469 11.6240625 4.91710937 12.748125 5.29296875 13.90625 C5.96644123 16.85315722 6.06533987 18.23147346 5 21 C3.06729553 19.06729553 3.34625749 15.59693119 3 13 C2.68033861 11.33065717 2.35268934 9.6626783 2 8 C1.34 8 0.68 8 0 8 C0 5.36 0 2.72 0 0 Z " fill="#A82D20" transform="translate(263,208)"/>
<path d="M0 0 C0.66 0.33 1.32 0.66 2 1 C1.67 1.33 1.34 1.66 1 2 C0.83333333 5 0.83333333 5 1 8 C1.33 8.33 1.66 8.66 2 9 C2.04080783 10.99958364 2.04254356 13.00045254 2 15 C2.66 15 3.32 15 4 15 C4 16.65 4 18.3 4 20 C-0.4771056 14.70887521 -1.22422834 9.57286397 -1.16796875 2.85546875 C-1 1 -1 1 0 0 Z " fill="#3F6929" transform="translate(287,270)"/>
<path d="M0 0 C4.20626034 1.50223584 5.73900021 4.28550034 8 8 C7.01 7.67 6.02 7.34 5 7 C5 6.34 5 5.68 5 5 C2.03 5 -0.94 5 -4 5 C-2.68 3.35 -1.36 1.7 0 0 Z " fill="#CED320" transform="translate(74,75)"/>
<path d="M0 0 C1.98 0 3.96 0 6 0 C2.2440786 3.42931954 -2.23466745 4.56429083 -7 6 C-6.67 5.01 -6.34 4.02 -6 3 C-4.35 3 -2.7 3 -1 3 C-0.67 2.01 -0.34 1.02 0 0 Z " fill="#D0C911" transform="translate(365,485)"/>
<path d="M0 0 C0.33 1.32 0.66 2.64 1 4 C-0.6875 6.3125 -0.6875 6.3125 -3 8 C-4.32 7.67 -5.64 7.34 -7 7 C-4.69 4.69 -2.38 2.38 0 0 Z " fill="#D8CF16" transform="translate(69,80)"/>
<path d="M0 0 C2.475 0.99 2.475 0.99 5 2 C5 2.66 5 3.32 5 4 C6.32 4.33 7.64 4.66 9 5 C9.33 6.32 9.66 7.64 10 9 C6.78956118 7.61811547 4.95063635 6.07578097 2.75 3.375 C2.22921875 2.74335938 1.7084375 2.11171875 1.171875 1.4609375 C0.78515625 0.97882813 0.3984375 0.49671875 0 0 Z " fill="#D1C716" transform="translate(79,441)"/>
<path d="M0 0 C1.45047396 2.90094791 0.45356803 4.55972596 -0.4375 7.625 C-0.72496094 8.62789062 -1.01242188 9.63078125 -1.30859375 10.6640625 C-1.65083984 11.82035156 -1.65083984 11.82035156 -2 13 C-3.32 13.33 -4.64 13.66 -6 14 C-5.67 13.01 -5.34 12.02 -5 11 C-4.34 11 -3.68 11 -3 11 C-2.87625 10.113125 -2.7525 9.22625 -2.625 8.3125 C-2.05587264 5.29612498 -1.23385564 2.79673946 0 0 Z " fill="#9D3420" transform="translate(243,225)"/>
<path d="M0 0 C2.8503026 3.20945602 3.43451699 5.49988548 3.6875 9.75 C3.75324219 10.73484375 3.81898438 11.7196875 3.88671875 12.734375 C3.92410156 13.48203125 3.96148437 14.2296875 4 15 C0.89809455 10.34714182 -0.33846504 5.58467324 0 0 Z " fill="#555E28" transform="translate(268,220)"/>
<path d="M0 0 C0.66 0.66 1.32 1.32 2 2 C1.7578125 4.6015625 1.7578125 4.6015625 1.125 7.625 C0.81949219 9.12933594 0.81949219 9.12933594 0.5078125 10.6640625 C0.34023437 11.43492187 0.17265625 12.20578125 0 13 C-0.66 13 -1.32 13 -2 13 C-1.85769192 11.58297487 -1.71099254 10.1663904 -1.5625 8.75 C-1.48128906 7.96109375 -1.40007813 7.1721875 -1.31640625 6.359375 C-1.02365007 4.17635361 -0.57935581 2.1226818 0 0 Z " fill="#D2CB15" transform="translate(7,192)"/>
<path d="M0 0 C4.13621084 3.3810038 7.81316569 6.66590534 11 11 C10.01 11 9.02 11 8 11 C6.6072711 9.38263741 5.28062485 7.7074998 4 6 C3.2575 5.278125 2.515 4.55625 1.75 3.8125 C0 2 0 2 0 0 Z " fill="#C0D427" transform="translate(344,344)"/>
<path d="M0 0 C0.99 0.33 1.98 0.66 3 1 C1.54634731 2.17249353 0.08692581 3.33783816 -1.375 4.5 C-2.18710938 5.1496875 -2.99921875 5.799375 -3.8359375 6.46875 C-6 8 -6 8 -8 8 C-8 7.34 -8 6.68 -8 6 C-7.01 5.34 -6.02 4.68 -5 4 C-4.34 3.01 -3.68 2.02 -3 1 C-2.01 1.33 -1.02 1.66 0 2 C0 1.34 0 0.68 0 0 Z " fill="#CF2905" transform="translate(233,307)"/>
<path d="M0 0 C4.455 2.97 4.455 2.97 9 6 C5.79937313 7.60031344 3.27728194 6.03173691 0 5 C0 3.35 0 1.7 0 0 Z " fill="#FEC720" transform="translate(268,302)"/>
<path d="M0 0 C0.66 0.33 1.32 0.66 2 1 C0.75965588 2.32162881 -0.49268626 3.63200453 -1.75 4.9375 C-2.44609375 5.66839844 -3.1421875 6.39929688 -3.859375 7.15234375 C-6.00599725 9.00517646 -7.23532932 9.60771565 -10 10 C-10 9.34 -10 8.68 -10 8 C-9.360625 7.731875 -8.72125 7.46375 -8.0625 7.1875 C-5.66868314 6.11332248 -5.66868314 6.11332248 -5 3 C-2.5625 1.25 -2.5625 1.25 0 0 Z " fill="#5F5627" transform="translate(302,258)"/>
<path d="M0 0 C0.66 0.33 1.32 0.66 2 1 C-0.23407889 4.35111834 -1.26215824 5.81553956 -5.25 6.8125 C-6.61125 6.9053125 -6.61125 6.9053125 -8 7 C-5.42215154 4.35247996 -3.08351902 2.05567935 0 0 Z " fill="#FDC41E" transform="translate(250,297)"/>
<path d="M0 0 C3.63 0 7.26 0 11 0 C11 0.99 11 1.98 11 3 C6.72213252 2.50639991 3.90432869 1.95216435 0 0 Z " fill="#D6CA18" transform="translate(181,501)"/>
<path d="M0 0 C2.2328877 2.2328877 2.36778152 2.91909815 2.75 5.9375 C2.84796875 6.62714844 2.9459375 7.31679688 3.046875 8.02734375 C3 10 3 10 1 13 C0.34 13 -0.32 13 -1 13 C-0.67 11.68 -0.34 10.36 0 9 C0.66 9 1.32 9 2 9 C1.34 6.03 0.68 3.06 0 0 Z " fill="#CB2E04" transform="translate(293,302)"/>
<path d="M0 0 C7.48291572 6.15034169 7.48291572 6.15034169 10 10 C6.55204777 8.46757679 3.7800962 6.55468299 1 4 C0.35546875 1.8671875 0.35546875 1.8671875 0 0 Z " fill="#BCD225" transform="translate(94,94)"/>
<path d="M0 0 C2.64 0 5.28 0 8 0 C8 1.32 8 2.64 8 4 C2.25 2.25 2.25 2.25 0 0 Z " fill="#D0CB0E" transform="translate(141,485)"/>
<path d="M0 0 C-1.04874998 2.62187494 -1.64931313 3.79371361 -4.125 5.25 C-4.74375 5.4975 -5.3625 5.745 -6 6 C-6 4.68 -6 3.36 -6 2 C-2.25 0 -2.25 0 0 0 Z " fill="#DCD10B" transform="translate(422,450)"/>
<path d="M0 0 C3.37503669 1.1858237 5.64722731 2.27573689 8 5 C7.67 5.99 7.34 6.98 7 8 C6.401875 7.236875 5.80375 6.47375 5.1875 5.6875 C3.53040668 3.6516425 1.89702326 1.8021721 0 0 Z " fill="#3F9216" transform="translate(390,390)"/>
<path d="M0 0 C3.37503669 1.1858237 5.64722731 2.27573689 8 5 C7.67 5.99 7.34 6.98 7 8 C6.401875 7.236875 5.80375 6.47375 5.1875 5.6875 C3.53040668 3.6516425 1.89702326 1.8021721 0 0 Z " fill="#3F9216" transform="translate(166,166)"/>
<path d="M0 0 C3.37503669 1.1858237 5.64722731 2.27573689 8 5 C7.67 5.99 7.34 6.98 7 8 C6.401875 7.236875 5.80375 6.47375 5.1875 5.6875 C3.53040668 3.6516425 1.89702326 1.8021721 0 0 Z " fill="#3F9215" transform="translate(126,126)"/>
<path d="M0 0 C-0.6875 1.9375 -0.6875 1.9375 -2 4 C-4.625 4.75 -4.625 4.75 -7 5 C-7 4.34 -7 3.68 -7 3 C-4.4385343 0.70351351 -3.52032428 0 0 0 Z " fill="#367029" transform="translate(313,253)"/>
<path d="M0 0 C0.99 1.32 1.98 2.64 3 4 C2.01 4.99 1.02 5.98 0 7 C-1.125 2.25 -1.125 2.25 0 0 Z M-2 7 C-1.01 7.495 -1.01 7.495 0 8 C-0.99 8.495 -0.99 8.495 -2 9 C-2 8.34 -2 7.68 -2 7 Z " fill="#E0D411" transform="translate(25,143)"/>
<path d="M0 0 C0.33 0.66 0.66 1.32 1 2 C1.99 2.33 2.98 2.66 4 3 C4 4.98 4 6.96 4 9 C1.49701566 6.06171403 0.53069061 3.82097239 0 0 Z " fill="#C8CC0D" transform="translate(23,362)"/>
<path d="M0 0 C1.14926266 0.95421808 2.29430541 1.91352045 3.4375 2.875 C4.07558594 3.40867187 4.71367187 3.94234375 5.37109375 4.4921875 C7 6 7 6 8 8 C4.11137013 6.73882275 2.10624401 5.54735833 0 2 C0 1.34 0 0.68 0 0 Z " fill="#BCD424" transform="translate(326,326)"/>
<path d="M0 0 C0.6875 1.75 0.6875 1.75 1 4 C-0.3125 6.25 -0.3125 6.25 -2 8 C-2.66 8 -3.32 8 -4 8 C-2.87548273 5.0280615 -1.77706209 2.66559313 0 0 Z " fill="#D4CB11" transform="translate(40,117)"/>
</svg>
