<?xml version="1.0" encoding="UTF-8"?>
<svg version="1.1" xmlns="http://www.w3.org/2000/svg" width="512" height="512">
<path d="M0 0 C1.01790619 0.00215515 2.03581238 0.0043103 3.08456421 0.00653076 C17.69363523 0.05620146 32.02575853 0.30709809 46.375 3.3125 C47.34985352 3.51117676 48.32470703 3.70985352 49.32910156 3.91455078 C97.7109774 14.03517194 141.69928269 35.9516877 177.375 70.3125 C178.3640332 71.26068604 178.3640332 71.26068604 179.37304688 72.22802734 C188.86130305 81.37247479 197.6012044 90.66984009 205.375 101.3125 C206.23306152 102.46355017 207.09113451 103.61459177 207.94921875 104.765625 C213.98736829 112.95680614 219.34595521 121.47054105 224.375 130.3125 C224.73948242 130.94430176 225.10396484 131.57610352 225.47949219 132.22705078 C247.08534998 169.97532572 256.85198095 212.74189997 256.6875 255.9375 C256.68534485 256.95540619 256.6831897 257.97331238 256.68096924 259.02206421 C256.63129854 273.63113523 256.38040191 287.96325853 253.375 302.3125 C253.07698486 303.77478027 253.07698486 303.77478027 252.77294922 305.26660156 C242.65232806 353.6484774 220.7358123 397.63678269 186.375 433.3125 C185.74287598 433.97185547 185.11075195 434.63121094 184.45947266 435.31054688 C175.31502521 444.79880305 166.01765991 453.5387044 155.375 461.3125 C154.22394983 462.17056152 153.07290823 463.02863451 151.921875 463.88671875 C143.73224019 469.92427396 135.22961724 475.30707302 126.375 480.3125 C125.66778809 480.7146875 124.96057617 481.116875 124.23193359 481.53125 C101.09654164 494.5566741 75.92537591 503.30551461 49.9375 508.625 C49.21860596 508.77235596 48.49971191 508.91971191 47.7590332 509.0715332 C33.08339502 511.86090125 18.55831162 512.66142619 3.64770508 512.62817383 C0.70811513 512.6250221 -2.2304558 512.64854926 -5.16992188 512.67382812 C-18.54306192 512.71848737 -31.43916711 511.51301542 -44.625 509.3125 C-46.33055054 509.03031616 -46.33055054 509.03031616 -48.07055664 508.74243164 C-91.33802759 500.97044532 -132.38793216 480.98345309 -165.625 452.3125 C-166.37007813 451.67828125 -167.11515625 451.0440625 -167.8828125 450.390625 C-181.38779833 438.57948485 -194.05918743 425.82889772 -204.625 411.3125 C-205.48149066 410.16255169 -206.33826433 409.01281411 -207.1953125 407.86328125 C-213.23534209 399.67315742 -218.61867614 391.16870382 -223.625 382.3125 C-224.0271875 381.60528809 -224.429375 380.89807617 -224.84375 380.16943359 C-237.8691741 357.03404164 -246.61801461 331.86287591 -251.9375 305.875 C-252.08485596 305.15610596 -252.23221191 304.43721191 -252.3840332 303.6965332 C-255.35789088 288.05024391 -255.99800362 272.57681954 -255.9375 256.6875 C-255.93534485 255.66959381 -255.9331897 254.65168762 -255.93096924 253.60293579 C-255.88129854 238.99386477 -255.63040191 224.66174147 -252.625 210.3125 C-252.42632324 209.33764648 -252.22764648 208.36279297 -252.02294922 207.35839844 C-241.90232806 158.9765226 -219.9858123 114.98821731 -185.625 79.3125 C-184.99287598 78.65314453 -184.36075195 77.99378906 -183.70947266 77.31445312 C-174.56502521 67.82619695 -165.26765991 59.0862956 -154.625 51.3125 C-153.47394983 50.45443848 -152.32290823 49.59636549 -151.171875 48.73828125 C-142.98224019 42.70072604 -134.47961724 37.31792698 -125.625 32.3125 C-124.91778809 31.9103125 -124.21057617 31.508125 -123.48193359 31.09375 C-100.34654164 18.0683259 -75.17537591 9.31948539 -49.1875 4 C-48.46860596 3.85264404 -47.74971191 3.70528809 -47.0090332 3.5534668 C-31.36274391 0.57960912 -15.88931954 -0.06050362 0 0 Z " fill="#0152B3" transform="translate(255.625,-0.3125)"/>
<path d="M0 0 C168.96 0 337.92 0 512 0 C512 66.42804872 488.28170215 128.94720928 442 177 C441.36787598 177.65935547 440.73575195 178.31871094 440.08447266 178.99804688 C430.94002521 188.48630305 421.64265991 197.2262044 411 205 C409.84894983 205.85806152 408.69790823 206.71613451 407.546875 207.57421875 C399.35724019 213.61177396 390.85461724 218.99457302 382 224 C380.93918213 224.60328125 380.93918213 224.60328125 379.85693359 225.21875 C356.72154164 238.2441741 331.55037591 246.99301461 305.5625 252.3125 C304.84360596 252.45985596 304.12471191 252.60721191 303.3840332 252.7590332 C288.70839502 255.54840125 274.18331162 256.34892619 259.27270508 256.31567383 C256.33311513 256.3125221 253.3945442 256.33604926 250.45507812 256.36132812 C237.08193808 256.40598737 224.18583289 255.20051542 211 253 C209.86296631 252.81187744 208.72593262 252.62375488 207.55444336 252.42993164 C164.28697241 244.65794532 123.23706784 224.67095309 90 196 C89.25492187 195.36578125 88.50984375 194.7315625 87.7421875 194.078125 C74.23720167 182.26698485 61.56581257 169.51639772 51 155 C50.14350934 153.85005169 49.28673567 152.70031411 48.4296875 151.55078125 C42.38965791 143.36065742 37.00632386 134.85620382 32 126 C31.5978125 125.29278809 31.195625 124.58557617 30.78125 123.85693359 C16.18018945 97.9229405 6.81800319 69.33516936 2 40 C1.88285645 39.29391602 1.76571289 38.58783203 1.64501953 37.86035156 C-0.37561519 25.12404774 0 13.0611289 0 0 Z " fill="#D70026" transform="translate(0,256)"/>
<path d="M0 0 C66.42804872 0 128.94720928 23.71829785 177 70 C177.9890332 70.94818604 177.9890332 70.94818604 178.99804688 71.91552734 C188.48630305 81.05997479 197.2262044 90.35734009 205 101 C205.85806152 102.15105017 206.71613451 103.30209177 207.57421875 104.453125 C213.61236829 112.64430614 218.97095521 121.15804105 224 130 C224.36448242 130.63180176 224.72896484 131.26360352 225.10449219 131.91455078 C239.88228768 157.73330292 249.18959364 186.71108516 254 216 C254.11714355 216.70608398 254.23428711 217.41216797 254.35498047 218.13964844 C256.37561519 230.87595226 256 242.9388711 256 256 C171.52 256 87.04 256 0 256 C0 171.52 0 87.04 0 0 Z " fill="#EFEFEF" transform="translate(256,0)"/>
<path d="M0 0 C2.89922521 2.89922521 3.648814 6.49073779 4.875 10.3125 C5.27416626 11.5332019 5.27416626 11.5332019 5.68139648 12.77856445 C7.51606303 18.41579252 9.27286232 24.07536523 10.98828125 29.75 C12.38747523 34.24470807 13.89503906 38.70166014 15.42602539 43.15307617 C17 47.78587206 17 47.78587206 17 50 C34.49 50 51.98 50 70 50 C64.38095238 55.61904762 64.38095238 55.61904762 61.4609375 57.62109375 C60.47975952 58.30220215 60.47975952 58.30220215 59.47875977 58.99707031 C58.78451904 59.47241211 58.09027832 59.94775391 57.375 60.4375 C49.81809767 65.67659565 42.41041429 71.09245996 35.06982422 76.63061523 C34.30557129 77.20110596 33.54131836 77.77159668 32.75390625 78.359375 C32.07658447 78.86952148 31.3992627 79.37966797 30.70141602 79.90527344 C29 81 29 81 27 81 C27.28770264 81.70858154 27.57540527 82.41716309 27.87182617 83.1472168 C31.86007313 93.21609994 35.0948661 103.47739384 38.3125 113.8125 C38.86745464 115.58410468 39.42279064 117.35558994 39.97851562 119.12695312 C41.323402 123.41660756 42.66314852 127.70783508 44 132 C41.33851091 130.72757348 38.92766173 129.34399338 36.5234375 127.63671875 C35.86118164 127.16806396 35.19892578 126.69940918 34.51660156 126.21655273 C33.80987305 125.71196533 33.10314453 125.20737793 32.375 124.6875 C31.63733398 124.16422119 30.89966797 123.64094238 30.13964844 123.10180664 C26.09702995 120.2281432 22.07100959 117.33216134 18.0546875 114.421875 C17.25111816 113.83962158 16.44754883 113.25736816 15.61962891 112.6574707 C14.07078889 111.53326115 12.52351811 110.40688562 10.97802734 109.27807617 C7.4030311 106.6786325 3.848072 104.18915907 0 102 C-0.45101074 102.32572998 -0.90202148 102.65145996 -1.36669922 102.98706055 C-2.74030073 103.97910609 -4.11391896 104.97112849 -5.48754883 105.96313477 C-7.0942768 107.12361331 -8.70088266 108.28426094 -10.30737305 109.44506836 C-14.5445476 112.50637234 -18.78365025 115.56492531 -23.02734375 118.6171875 C-23.82994629 119.19509033 -24.63254883 119.77299316 -25.45947266 120.3684082 C-26.99615411 121.47476145 -28.53355771 122.58011253 -30.07177734 123.68432617 C-33.79433045 126.36621585 -37.44913285 129.09093988 -41 132 C-41.66 131.67 -42.32 131.34 -43 131 C-42.61666504 129.84064941 -42.23333008 128.68129883 -41.83837891 127.48681641 C-40.40492246 123.14629233 -38.9791894 118.80326284 -37.55566406 114.45947266 C-36.94087582 112.58704571 -36.32405156 110.71528589 -35.70507812 108.84423828 C-34.81091541 106.14011717 -33.92433182 103.4336063 -33.0390625 100.7265625 C-32.76502594 99.90322418 -32.49098938 99.07988586 -32.20864868 98.2315979 C-30.36225073 92.55243553 -29.05294812 86.87697626 -28 81 C-44.49439722 68.80870077 -44.49439722 68.80870077 -61.10546875 56.77734375 C-62.12253906 56.04644531 -63.13960938 55.31554687 -64.1875 54.5625 C-65.10917969 53.90378906 -66.03085938 53.24507812 -66.98046875 52.56640625 C-67.64691406 52.04949219 -68.31335938 51.53257812 -69 51 C-69 50.67 -69 50.34 -69 50 C-51.51 50 -34.02 50 -16 50 C-14.515 44.06 -14.515 44.06 -13 38 C-12.24263035 35.50495562 -11.45561159 33.01850192 -10.625 30.546875 C-10.41439941 29.91694641 -10.20379883 29.28701782 -9.98681641 28.63800049 C-9.54868245 27.33021609 -9.10842403 26.02314146 -8.66601562 24.71679688 C-7.99656041 22.73984261 -7.33367056 20.76078008 -6.671875 18.78125 C-4.55755873 12.47736751 -2.39339225 6.20392464 0 0 Z " fill="#ECEEF1" transform="translate(152,90)"/>
<path d="M0 0 C17.49 0 34.98 0 53 0 C53 0.33 53 0.66 53 1 C37.49 1 21.98 1 6 1 C6.33 2.32 6.66 3.64 7 5 C3.90837736 3.61410019 2.50816459 2.50816459 0 0 Z " fill="#D1E8FD" transform="translate(83,140)"/>
<path d="M0 0 C2.1491917 3.22378756 3.024994 5.98414648 4.125 9.6875 C4.47820312 10.86699219 4.83140625 12.04648438 5.1953125 13.26171875 C5.46085938 14.16535156 5.72640625 15.06898438 6 16 C2.44774296 14.28564986 -0.74021634 12.22257977 -4 10 C-3.525625 9.278125 -3.05125 8.55625 -2.5625 7.8125 C-1.05847097 5.10524774 -0.43400818 3.03805725 0 0 Z " fill="#CBE3F7" transform="translate(190,206)"/>
<path d="M0 0 C0.66 0 1.32 0 2 0 C2.97159933 7.68604474 3.10920422 15.25863399 3 23 C2.67 23 2.34 23 2 23 C0.76892281 15.27279225 -0.2700558 7.8316181 0 0 Z " fill="#DD2C51" transform="translate(1,279)"/>
<path d="M0 0 C1.81618856 1.11903546 3.62785526 2.24541284 5.4375 3.375 C6.95150391 4.31472656 6.95150391 4.31472656 8.49609375 5.2734375 C11 7 11 7 12 9 C10.35 9 8.7 9 7 9 C7 8.01 7 7.02 7 6 C6.01 6 5.02 6 4 6 C4 5.34 4 4.68 4 4 C0.28400809 3.79913557 -0.77208445 3.8480563 -4 6 C-4.66 5.34 -5.32 4.68 -6 4 C-4.02 2.68 -2.04 1.36 0 0 Z " fill="#1959A5" transform="translate(152,191)"/>
<path d="M0 0 C2.9719385 1.12451727 5.33440687 2.22293791 8 4 C8 4.66 8 5.32 8 6 C8.99 6.33 9.98 6.66 11 7 C11.33 8.65 11.66 10.3 12 12 C7.47384007 8.32167983 3.60575001 4.58913637 0 0 Z " fill="#D72448" transform="translate(70,432)"/>
<path d="M0 0 C0.66 0 1.32 0 2 0 C2 1.65 2 3.3 2 5 C2.66 5 3.32 5 4 5 C6.28571429 13.42857143 6.28571429 13.42857143 6 18 C3.98996365 14.98494548 3.00828459 12.42503788 1.875 9 C1.52179687 7.948125 1.16859375 6.89625 0.8046875 5.8125 C0 3 0 3 0 0 Z " fill="#DD3254" transform="translate(10,328)"/>
<path d="M0 0 C-0.17402344 0.54140625 -0.34804687 1.0828125 -0.52734375 1.640625 C-1.09766505 4.48751809 -0.87137301 6.86718522 -0.5625 9.75 C-0.46066406 10.73484375 -0.35882813 11.7196875 -0.25390625 12.734375 C-0.17011719 13.48203125 -0.08632812 14.2296875 0 15 C-2.46301423 12.53698577 -2.76766521 10.72639964 -3.625 7.375 C-3.88539063 6.37210938 -4.14578125 5.36921875 -4.4140625 4.3359375 C-4.60742188 3.56507813 -4.80078125 2.79421875 -5 2 C-2 0 -2 0 0 0 Z " fill="#1A5CA4" transform="translate(184,169)"/>
<path d="M0 0 C0.95904856 3.83619425 0.91892116 5.32431536 0 9 C0.99 9.33 1.98 9.66 3 10 C1.35 11.32 -0.3 12.64 -2 14 C-2.66 13.67 -3.32 13.34 -4 13 C-2.68 8.71 -1.36 4.42 0 0 Z " fill="#BEDDF8" transform="translate(113,208)"/>
<path d="M0 0 C1.15526826 4.62107304 0.33513113 6.52338384 -1 11 C-1.16928543 13.79244045 -1.16928543 13.79244045 -1 16 C-2.32 16.33 -3.64 16.66 -5 17 C-3.35 11.39 -1.7 5.78 0 0 Z " fill="#C3E1F6" transform="translate(143,116)"/>
<path d="M0 0 C0.66 0.33 1.32 0.66 2 1 C-0.25 3.5 -0.25 3.5 -3 6 C-4.32 6 -5.64 6 -7 6 C-7 6.66 -7 7.32 -7 8 C-8.32 7.67 -9.64 7.34 -11 7 C-9.21475351 5.80286983 -7.4215972 4.61752721 -5.625 3.4375 C-4.62726563 2.77621094 -3.62953125 2.11492188 -2.6015625 1.43359375 C-1.74304688 0.96050781 -0.88453125 0.48742188 0 0 Z " fill="#3175C3" transform="translate(123,36)"/>
<path d="M0 0 C-3.5087188 3.09592835 -6.49197399 4.74194623 -11 6 C-11 5.01 -11 4.02 -11 3 C-6.98213116 0.99106558 -4.56087444 -0.12002301 0 0 Z " fill="#DE2D4E" transform="translate(382,479)"/>
<path d="M0 0 C0.66 0.33 1.32 0.66 2 1 C-2.30769231 6.78461538 -2.30769231 6.78461538 -5.8125 7.875 C-6.8953125 7.936875 -6.8953125 7.936875 -8 8 C-5.33333333 5.33333333 -2.66666667 2.66666667 0 0 Z " fill="#3173C2" transform="translate(98,53)"/>
<path d="M0 0 C-2.35277269 2.72426311 -4.62496331 3.8141763 -8 5 C-8 3.68 -8 2.36 -8 1 C-5.29120665 -0.35439668 -2.99066732 -0.06501451 0 0 Z " fill="#DE2648" transform="translate(392,473)"/>
<path d="M0 0 C1.17219543 0.78345715 2.33763668 1.57702836 3.5 2.375 C4.47453125 3.03628906 4.47453125 3.03628906 5.46875 3.7109375 C5.9740625 4.13632812 6.479375 4.56171875 7 5 C7 5.66 7 6.32 7 7 C4.0280615 5.87548273 1.66559313 4.77706209 -1 3 C-0.67 2.01 -0.34 1.02 0 0 Z " fill="#DB2547" transform="translate(118,469)"/>
<path d="M0 0 C0.66 0 1.32 0 2 0 C1.40312566 3.34249629 0.26396123 5.46436342 -2 8 C-2.66 8 -3.32 8 -4 8 C-2.87548273 5.0280615 -1.77706209 2.66559313 0 0 Z " fill="#266DBC" transform="translate(40,117)"/>
<path d="M0 0 C1.98 0.99 1.98 0.99 4 2 C3.34 5.3 2.68 8.6 2 12 C1.16171265 8.6468506 1 6.365594 1 3 C0.67 2.01 0.34 1.02 0 0 Z " fill="#1E5EA5" transform="translate(121,169)"/>
<path d="M0 0 C0.33 0.66 0.66 1.32 1 2 C0.22265625 3.9453125 0.22265625 3.9453125 -0.9375 6.125 C-1.31777344 6.84945313 -1.69804687 7.57390625 -2.08984375 8.3203125 C-2.39019531 8.87460937 -2.69054687 9.42890625 -3 10 C-3.33 10 -3.66 10 -4 10 C-4 8.02 -4 6.04 -4 4 C-3.34 4 -2.68 4 -2 4 C-2 3.01 -2 2.02 -2 1 C-1.34 0.67 -0.68 0.34 0 0 Z " fill="#E23457" transform="translate(485,369)"/>
<path d="M0 0 C1 3 1 3 -0.4375 6.1875 C-1.2109375 7.5796875 -1.2109375 7.5796875 -2 9 C-4 6 -4 6 -4 4 C-3.34 4 -2.68 4 -2 4 C-2 3.01 -2 2.02 -2 1 C-1.34 0.67 -0.68 0.34 0 0 Z " fill="#DE2E51" transform="translate(489,360)"/>
<path d="M0 0 C1.9375 0.3125 1.9375 0.3125 4 1 C5 4 5 4 4.0625 6.1875 C3.5365625 7.0846875 3.5365625 7.0846875 3 8 C0 2.25 0 2.25 0 0 Z " fill="#E02E51" transform="translate(27,371)"/>
<path d="M0 0 C0.66 0.33 1.32 0.66 2 1 C-0.31 2.65 -2.62 4.3 -5 6 C-5.33 5.34 -5.66 4.68 -6 4 C-3.94766315 1.7522025 -2.99332739 0.9977758 0 0 Z " fill="#D6E9F8" transform="translate(122,211)"/>
<path d="M0 0 C4.43090471 1.20842856 6.98112756 2.51668565 10 6 C6.62972148 6 5.93297304 5.50175992 3.3125 3.5625 C2.68988281 3.11003906 2.06726563 2.65757812 1.42578125 2.19140625 C0.95527344 1.79824219 0.48476562 1.40507812 0 1 C0 0.67 0 0.34 0 0 Z " fill="#CBE1F8" transform="translate(113,162)"/>
<path d="M0 0 C1.32 0.33 2.64 0.66 4 1 C-0.455 3.97 -0.455 3.97 -5 7 C-3.86873442 3.60620325 -2.77333918 2.21867135 0 0 Z " fill="#D7EBFA" transform="translate(208,147)"/>
<path d="M0 0 C0.33 1.32 0.66 2.64 1 4 C-1.375 5.5625 -1.375 5.5625 -4 7 C-4.66 6.67 -5.32 6.34 -6 6 C-4.02 4.02 -2.04 2.04 0 0 Z " fill="#276AB9" transform="translate(81,68)"/>
<path d="M0 0 C1.32 0 2.64 0 4 0 C2.92598892 2.91517292 2.22189824 4.77810176 0 7 C0 4.69 0 2.38 0 0 Z " fill="#DF2C4D" transform="translate(474,384)"/>
<path d="M0 0 C3.65316671 1.24976756 4.78065836 1.67098753 7 5 C4.03 4.505 4.03 4.505 1 4 C0.67 2.68 0.34 1.36 0 0 Z " fill="#1956A9" transform="translate(114,164)"/>
<path d="M0 0 C0.66 0.33 1.32 0.66 2 1 C-0.25 3.5625 -0.25 3.5625 -3 6 C-4.32 5.67 -5.64 5.34 -7 5 C-4.69 3.35 -2.38 1.7 0 0 Z " fill="#165AA4" transform="translate(221,141)"/>
<path d="M0 0 C0.66 0.99 1.32 1.98 2 3 C0.35 4.32 -1.3 5.64 -3 7 C-3 3.48283697 -2.17554415 2.62878252 0 0 Z " fill="#2D72C4" transform="translate(49,104)"/>
</svg>
