<?xml version="1.0" encoding="UTF-8"?>
<svg version="1.1" xmlns="http://www.w3.org/2000/svg" width="512" height="512">
<path d="M0 0 C1.51427582 0.00081573 1.51427582 0.00081573 3.05914307 0.00164795 C19.57458953 0.04242844 35.47683935 0.97005679 51.6875 4.375 C52.70279785 4.58398926 53.7180957 4.79297852 54.76416016 5.00830078 C75.55031553 9.4249039 96.05220768 16.2037821 114.76757812 26.34375 C116.83663889 27.45510715 118.92354454 28.52639983 121.015625 29.59375 C151.00523765 44.99033579 178.83367731 67.82399894 199.6875 94.375 C200.47898437 95.36113281 201.27046875 96.34726563 202.0859375 97.36328125 C236.27078056 140.66048784 254.59160521 193.40228247 256.6875 248.375 C256.73003906 249.45394531 256.77257812 250.53289062 256.81640625 251.64453125 C257.30703025 278.17093566 253.38533293 305.01033902 245.6875 330.375 C245.42517578 331.23996094 245.16285156 332.10492188 244.89257812 332.99609375 C235.47742926 363.30721965 220.3169112 390.55931309 200.6875 415.375 C200.26742676 415.9122168 199.84735352 416.44943359 199.41455078 417.00292969 C187.72944537 431.82738678 173.87447252 446.13995085 158.6875 457.375 C158.06262695 457.84921387 157.43775391 458.32342773 156.79394531 458.81201172 C145.60559466 467.29048032 134.03342547 474.6984782 121.6875 481.375 C121.00478027 481.74463867 120.32206055 482.11427734 119.61865234 482.49511719 C60.58944634 514.05298292 -10.55454098 520.02843181 -74.4375 500.6875 C-110.69162352 489.28750134 -143.84557308 470.97181567 -171.61328125 444.88671875 C-173.80054586 442.85139148 -176.02067803 440.91378948 -178.3125 439 C-224.91582121 398.25812744 -250.60935586 333.41035393 -255.10522461 272.86108398 C-258.42325558 217.05641462 -244.80745657 156.96535755 -211.3125 111.375 C-210.88001953 110.77703613 -210.44753906 110.17907227 -210.00195312 109.56298828 C-194.92206258 88.74798162 -177.87043203 68.90768787 -157.04101562 53.64599609 C-155.22538567 52.3109439 -153.43260669 50.94862927 -151.640625 49.58203125 C-143.21289042 43.20719231 -134.52273939 37.5496653 -125.3125 32.375 C-124.60673828 31.9742627 -123.90097656 31.57352539 -123.17382812 31.16064453 C-100.03723749 18.13232249 -74.86540273 9.38250261 -48.875 4.0625 C-48.15610596 3.91514404 -47.43721191 3.76778809 -46.6965332 3.6159668 C-31.16987908 0.66484793 -15.76936592 -0.03207988 0 0 Z " fill="#0A9B47" transform="translate(255.3125,-0.375)"/>
<path d="M0 0 C2.40576172 1.25244141 2.40576172 1.25244141 4.9296875 2.8515625 C5.8781958 3.44799561 6.8267041 4.04442871 7.80395508 4.65893555 C8.8173999 5.30773682 9.83084473 5.95653809 10.875 6.625 C11.93420654 7.2950708 12.99341309 7.9651416 14.0847168 8.65551758 C22.32829293 13.88710006 30.51111943 19.21199987 38.67626953 24.56494141 C46.96435344 29.99634849 55.33067141 35.29631073 63.72265625 40.56518555 C68.15895312 43.36022378 72.57838398 46.18181866 77 49 C87.65586708 55.78802078 98.31280143 62.57387582 109 69.3125 C115.3390339 73.31081811 121.65818132 77.3370454 127.95703125 81.3984375 C133.39950371 84.90520724 138.85771277 88.38743345 144.3125 91.875 C151.51336119 96.47963232 158.70654762 101.0950713 165.875 105.75 C172.59062912 110.10952583 179.35170388 114.39418626 186.12646484 118.66113281 C191.89235099 122.29417223 197.62822973 125.97036003 203.35546875 129.6640625 C207.65668748 132.42921734 211.98583803 135.1499057 216.3125 137.875 C228.30421615 145.43284484 240.25170962 153.06739368 252 161 C247.98479084 164.34859142 243.7702648 167.18931167 239.375 170 C238.63572266 170.47566406 237.89644531 170.95132813 237.13476562 171.44140625 C230.80693554 175.50437175 224.44630975 179.51527169 218.08276367 183.52197266 C212.92772349 186.77112771 207.79776186 190.0559138 202.6875 193.375 C193.43676101 199.3820441 184.12795827 205.29671664 174.81738281 211.21044922 C161.30745712 219.79171051 147.8116777 228.3946407 134.3347168 237.02758789 C127.39835924 241.46941798 120.45217655 245.895479 113.5 250.3125 C107.14907019 254.34826817 100.81172304 258.40318096 94.5 262.5 C82.78669769 270.10169415 71.00537801 277.59943373 59.18359375 285.03125 C51.64933874 289.76860811 44.14405151 294.54142539 36.70043945 299.42041016 C32.82849259 301.95719164 28.94769121 304.48024058 25.06591797 307.00195312 C22.94668364 308.38304994 20.83136247 309.77016327 18.71923828 311.16210938 C15.44897767 313.31328212 12.16385249 315.43989306 8.875 317.5625 C7.86155518 318.23643799 6.84811035 318.91037598 5.80395508 319.60473633 C4.85544678 320.2108374 3.90693848 320.81693848 2.9296875 321.44140625 C2.09679199 321.98482666 1.26389648 322.52824707 0.40576172 323.08813477 C-2 324 -2 324 -4.56884766 323.29833984 C-6.68857263 322.1663156 -8.78029873 321.04201894 -10.828125 319.78515625 C-11.53614258 319.35227295 -12.24416016 318.91938965 -12.97363281 318.47338867 C-13.72483398 318.00779541 -14.47603516 317.54220215 -15.25 317.0625 C-16.0450293 316.57305908 -16.84005859 316.08361816 -17.65917969 315.5793457 C-24.31408083 311.46450831 -30.88592228 307.22776613 -37.44140625 302.95703125 C-42.66573268 299.55802997 -47.92635555 296.21662224 -53.1875 292.875 C-59.13393884 289.0970184 -65.07773611 285.315782 -71 281.5 C-76.98558939 277.64389915 -82.99133178 273.82002698 -89 270 C-96.09630373 265.48850583 -103.18096304 260.96034112 -110.25 256.40625 C-115.15521873 253.2528951 -120.07895337 250.12856863 -125 247 C-132.10819068 242.48094867 -139.20504917 237.94573526 -146.28515625 233.3828125 C-149.16130108 231.53369072 -152.04625091 229.69877215 -154.93359375 227.8671875 C-164.51858345 221.78622004 -174.07046248 215.66276084 -183.5625 209.4375 C-191.65581756 204.1327967 -199.82678607 198.9798724 -208.07519531 193.92041016 C-215.71462761 189.21733969 -223.22416348 184.32672443 -230.72167969 179.40136719 C-237.15668881 175.17984215 -243.63807865 171.04827655 -250.21801758 167.0559082 C-253.12272005 165.27395234 -255.7465533 163.58003318 -258 161 C-246.74743727 153.39312737 -235.32366504 146.07308388 -223.84960938 138.80566406 C-219.29200197 135.9177216 -214.7395703 133.02165973 -210.1875 130.125 C-209.28829834 129.55297852 -208.38909668 128.98095703 -207.46264648 128.39160156 C-199.41045622 123.2667691 -191.3718731 118.12077949 -183.3347168 112.97241211 C-176.3983594 108.53058212 -169.45220241 104.10448015 -162.5 99.6875 C-155.39220109 95.17130323 -148.30852483 90.62046779 -141.24658203 86.03295898 C-136.14983174 82.72821403 -131.01808631 79.48204957 -125.875 76.25 C-118.80344436 71.80487702 -111.79706759 67.26794203 -104.8125 62.6875 C-95.98890799 56.90578742 -87.0851119 51.26833947 -78.12670898 45.69824219 C-68.7373819 39.85450856 -59.42460922 33.89490304 -50.1171875 27.921875 C-43.35384534 23.58151034 -36.57611627 19.26377836 -29.78295898 14.97021484 C-25.49120814 12.25169802 -21.23228629 9.49972842 -17.02734375 6.6484375 C-16.25003906 6.12677002 -15.47273437 5.60510254 -14.671875 5.06762695 C-13.22710348 4.09439527 -11.79023666 3.10927853 -10.36328125 2.11010742 C-6.39147518 -0.55267096 -4.56342044 -1.39312553 0 0 Z " fill="#F9DE02" transform="translate(259,95)"/>
<path d="M0 0 C2.85625626 0.01068758 5.71187834 0.00006122 8.56811523 -0.01269531 C57.71335725 -0.05167443 107.19504146 15.1739303 147.05834961 44.26074219 C147.7428418 44.75493652 148.42733398 45.24913086 149.13256836 45.75830078 C151.30360097 47.33151988 153.464669 48.91723662 155.62084961 50.51074219 C156.27641846 50.99422119 156.9319873 51.4777002 157.60742188 51.97583008 C161.77989751 55.11904841 165.6077166 58.32478058 169.05834961 62.26074219 C168.63329113 75.43755515 158.1270536 89.58639308 150.05834961 99.26074219 C149.28749023 100.1953125 148.51663086 101.12988281 147.72241211 102.09277344 C133.3313807 118.74259133 114.57679372 129.25502643 93.49584961 134.94824219 C92.70412354 135.16311279 91.91239746 135.3779834 91.09667969 135.59936523 C63.65263607 142.71575228 35.6861431 136.96367392 11.39428711 123.26074219 C6.94155343 120.59118757 2.96664896 117.66872121 -0.94165039 114.26074219 C-1.74989258 113.57238281 -2.55813477 112.88402344 -3.39086914 112.17480469 C-24.33001641 93.89714168 -39.1026106 67.60960963 -41.14599609 39.4440918 C-41.24452606 36.46299912 -41.27040981 33.49338957 -41.25415039 30.51074219 C-41.24996094 29.46321777 -41.24577148 28.41569336 -41.24145508 27.33642578 C-41.00914617 11.33429588 -41.00914617 11.33429588 -37.94165039 4.26074219 C-28.17148499 -2.08091828 -11.13759821 -0.04941175 0 0 Z " fill="#26356F" transform="translate(188.941650390625,225.7392578125)"/>
<path d="M0 0 C2.68126481 2.26107242 5.28089484 4.60383151 7.86376953 6.97607422 C8.68748047 7.71728516 9.51119141 8.45849609 10.35986328 9.22216797 C16.55517785 15.0738949 21.38052038 21.76956227 25.86376953 28.97607422 C26.21858398 29.54567871 26.57339844 30.1152832 26.93896484 30.70214844 C35.049199 44.03573285 41.02829488 60.31261648 40.96142578 76.02685547 C40.95930336 77.01506538 40.95930336 77.01506538 40.95713806 78.02323914 C40.95157453 80.11173184 40.939029 82.20011433 40.92626953 84.28857422 C40.92124981 85.7110987 40.91668773 87.13362488 40.91259766 88.55615234 C40.9016171 92.02949499 40.88437789 95.50277383 40.86376953 98.97607422 C36.72944846 98.11698023 34.46898536 96.27403432 31.17626953 93.60107422 C6.09677244 73.81371241 -23.22150471 59.2594536 -53.94238281 50.60327148 C-55.69256333 50.10291384 -57.43635743 49.58023367 -59.17773438 49.05004883 C-67.7611398 46.48635445 -76.29608496 44.70573157 -85.13623047 43.28857422 C-86.38662109 43.07652344 -87.63701172 42.86447266 -88.92529297 42.64599609 C-101.41858976 40.59611251 -113.79786257 39.79343698 -126.44873047 39.85107422 C-128.05832642 39.85506226 -128.05832642 39.85506226 -129.70043945 39.85913086 C-141.24897391 39.92737338 -152.67988995 40.46966038 -164.13623047 41.97607422 C-162.27769599 27.30197361 -147.29365165 12.04637193 -136.44873047 2.97607422 C-134.69350669 1.62225815 -132.92385133 0.28681452 -131.13623047 -1.02392578 C-130.43498047 -1.55115234 -129.73373047 -2.07837891 -129.01123047 -2.62158203 C-118.99791042 -9.73331502 -106.91520461 -15.59942066 -95.13623047 -19.02392578 C-93.60482422 -19.47058594 -93.60482422 -19.47058594 -92.04248047 -19.92626953 C-60.97730027 -27.51764802 -24.89237873 -20.28082821 0 0 Z " fill="#25346E" transform="translate(322.13623046875,171.02392578125)"/>
<path d="M0 0 C0.92603027 0.12358887 1.85206055 0.24717773 2.80615234 0.37451172 C46.45552524 6.38732398 101.79924581 24.72756595 133 58 C134.51553688 62.09330272 133.69748741 65.18114584 132.5625 69.3125 C132.27503906 70.38113281 131.98757813 71.44976562 131.69140625 72.55078125 C131.46324219 73.35902344 131.23507812 74.16726563 131 75 C127.54199494 74.40972547 125.80411705 73.20333471 123.26171875 70.82421875 C81.26777991 32.78447493 22.88344508 14.81003047 -32.88012695 14.81469727 C-35.79588467 14.81251245 -38.71126205 14.79430295 -41.62695312 14.77539062 C-51.29539404 14.74733935 -60.64897757 15.05003243 -70.20581055 16.5690918 C-73 17 -73 17 -76 17 C-75.54548816 15.26982492 -75.08621143 13.54090123 -74.625 11.8125 C-74.36976563 10.84957031 -74.11453125 9.88664063 -73.8515625 8.89453125 C-72.26322408 3.49563782 -72.26322408 3.49563782 -71 1 C-50.13978899 -6.31937229 -21.47854604 -2.94232202 0 0 Z " fill="#E6F7F2" transform="translate(228,212)"/>
<path d="M0 0 C1.67545898 -0.00700928 1.67545898 -0.00700928 3.38476562 -0.01416016 C4.42310547 -0.01206543 5.46144531 -0.0099707 6.53125 -0.0078125 C7.46517578 -0.00668457 8.39910156 -0.00555664 9.36132812 -0.00439453 C11.5 0.125 11.5 0.125 12.5 1.125 C12.79386153 4.84724599 12.64809171 5.90286243 10.5 9.125 C7.375 9.3125 7.375 9.3125 4.5 9.125 C4.5 9.785 4.5 10.445 4.5 11.125 C6.81 11.125 9.12 11.125 11.5 11.125 C11.5 12.775 11.5 14.425 11.5 16.125 C10.42741943 16.14481934 9.35483887 16.16463867 8.24975586 16.18505859 C4.19584184 16.26225526 0.14223486 16.35077577 -3.91137695 16.44238281 C-5.65187432 16.48020926 -7.39243766 16.5151342 -9.13305664 16.546875 C-19.07906413 16.73037009 -28.78621539 17.20528773 -38.62670898 18.70947266 C-41.5 19.125 -41.5 19.125 -44.5 19.125 C-44.04548816 17.39482492 -43.58621143 15.66590123 -43.125 13.9375 C-42.86976563 12.97457031 -42.61453125 12.01164063 -42.3515625 11.01953125 C-40.76322408 5.62063782 -40.76322408 5.62063782 -39.5 3.125 C-27.39607652 -1.12199069 -12.65596945 0.03781664 0 0 Z " fill="#D1E3E4" transform="translate(196.5,209.875)"/>
<path d="M0 0 C9.740362 -0.35344337 18.8561181 0.67715433 28.4375 2.375 C29.77264084 2.59982479 31.1079273 2.82378658 32.44335938 3.046875 C38.14299502 4.02609487 43.5404627 5.05573357 49 7 C47.68 7.33 46.36 7.66 45 8 C44.67 11.63 44.34 15.26 44 19 C44.66 19.33 45.32 19.66 46 20 C46 19.34 46 18.68 46 18 C47.093125 17.87625 48.18625 17.7525 49.3125 17.625 C53.07381802 17.24535199 53.07381802 17.24535199 56 15 C56.125 17.875 56.125 17.875 56 21 C54 23 54 23 50.91796875 23.2421875 C46.54220611 22.97170167 42.55979254 22.15594034 38.3125 21.125 C36.70492606 20.75304514 35.09685054 20.38325146 33.48828125 20.015625 C32.71436035 19.83837891 31.94043945 19.66113281 31.14306641 19.47851562 C20.56299989 17.11614033 9.76518369 16.12436363 -1 15 C-1 13.35 -1 11.7 -1 10 C-3.31 10 -5.62 10 -8 10 C-8 9.34 -8 8.68 -8 8 C-6.02 8 -4.04 8 -2 8 C-1.34 5.36 -0.68 2.72 0 0 Z " fill="#F4FCFA" transform="translate(209,211)"/>
<path d="M0 0 C1.24716797 0.00902344 2.49433594 0.01804688 3.77929688 0.02734375 C6.83223504 0.05073791 9.88476306 0.08351826 12.9375 0.125 C12.9375 0.455 12.9375 0.785 12.9375 1.125 C5.55590342 2.82304788 -0.55636121 3.2128462 -8.0625 2.125 C-8.0625 5.755 -8.0625 9.385 -8.0625 13.125 C-7.155 12.939375 -6.2475 12.75375 -5.3125 12.5625 C-2.37935676 12.16765379 -0.7980343 12.17808428 1.9375 13.125 C2.2675 12.135 2.5975 11.145 2.9375 10.125 C3.5975 10.125 4.2575 10.125 4.9375 10.125 C4.9375 10.785 4.9375 11.445 4.9375 12.125 C10.3825 11.135 10.3825 11.135 15.9375 10.125 C16.2675 8.475 16.5975 6.825 16.9375 5.125 C17.2675 5.125 17.5975 5.125 17.9375 5.125 C18.4325 9.58 18.4325 9.58 18.9375 14.125 C18.13755615 14.1751123 17.3376123 14.22522461 16.51342773 14.27685547 C-3.05380112 15.44252183 -3.05380112 15.44252183 -22.5078125 17.7578125 C-25.0625 18.125 -25.0625 18.125 -28.0625 18.125 C-27.60798816 16.39482492 -27.14871143 14.66590123 -26.6875 12.9375 C-26.43226563 11.97457031 -26.17703125 11.01164063 -25.9140625 10.01953125 C-25.63304687 9.06433594 -25.35203125 8.10914063 -25.0625 7.125 C-24.88460937 6.22136719 -24.70671875 5.31773437 -24.5234375 4.38671875 C-23.0625 2.125 -23.0625 2.125 -19.31640625 0.8203125 C-12.92121939 -0.2739551 -6.46612458 -0.08937759 0 0 Z " fill="#E8F3F3" transform="translate(180.0625,210.875)"/>
<path d="M0 0 C2.87608249 0.45221423 5.75072487 0.91155099 8.625 1.375 C9.83736328 1.56449219 9.83736328 1.56449219 11.07421875 1.7578125 C15.55587884 2.48653772 19.72476004 3.40889128 24 5 C22.68 5.33 21.36 5.66 20 6 C19.67 9.63 19.34 13.26 19 17 C19.66 17.33 20.32 17.66 21 18 C21 17.34 21 16.68 21 16 C22.6396875 15.814375 22.6396875 15.814375 24.3125 15.625 C28.07381802 15.24535199 28.07381802 15.24535199 31 13 C31.125 15.875 31.125 15.875 31 19 C29 21 29 21 25.94140625 21.24609375 C21.44054579 20.96506877 17.30999676 20.11642124 12.9375 19.0625 C11.38445639 18.6977603 9.83107666 18.33444842 8.27734375 17.97265625 C7.18462158 17.71766357 7.18462158 17.71766357 6.06982422 17.45751953 C3.395387 16.86635471 0.70738745 16.41152289 -2 16 C-1.34 15.01 -0.68 14.02 0 13 C2.97 13.495 2.97 13.495 6 14 C6 13.34 6 12.68 6 12 C4.35 12 2.7 12 1 12 C1 11.01 1 10.02 1 9 C2.65 9.33 4.3 9.66 6 10 C6 9.34 6 8.68 6 8 C4.68 8 3.36 8 2 8 C2 7.34 2 6.68 2 6 C2.66 5.67 3.32 5.34 4 5 C2.68 4.67 1.36 4.34 0 4 C0 2.68 0 1.36 0 0 Z " fill="#F3F9F8" transform="translate(234,213)"/>
<path d="M0 0 C1.19882812 0.34321289 1.19882812 0.34321289 2.421875 0.69335938 C3.246875 0.94021484 4.071875 1.18707031 4.921875 1.44140625 C6.18257813 1.80588867 6.18257813 1.80588867 7.46875 2.17773438 C9.53903234 2.77764574 11.60581397 3.38961444 13.671875 4.00390625 C13.76387544 8.83967918 13.43909661 12.47540087 11.671875 17.00390625 C11.011875 17.00390625 10.351875 17.00390625 9.671875 17.00390625 C9.671875 15.35390625 9.671875 13.70390625 9.671875 12.00390625 C8.021875 12.00390625 6.371875 12.00390625 4.671875 12.00390625 C4.671875 12.66390625 4.671875 13.32390625 4.671875 14.00390625 C4.011875 14.00390625 3.351875 14.00390625 2.671875 14.00390625 C2.341875 12.02390625 2.011875 10.04390625 1.671875 8.00390625 C1.011875 8.66390625 0.351875 9.32390625 -0.328125 10.00390625 C-3.953125 10.12890625 -3.953125 10.12890625 -7.328125 10.00390625 C-7.328125 10.66390625 -7.328125 11.32390625 -7.328125 12.00390625 C-8.318125 11.67390625 -9.308125 11.34390625 -10.328125 11.00390625 C-9.668125 7.37390625 -9.008125 3.74390625 -8.328125 0.00390625 C-4.45422141 -0.96456965 -3.5706942 -1.0457033 0 0 Z " fill="#E0F8F0" transform="translate(262.328125,218.99609375)"/>
<path d="M0 0 C3.29172069 -0.02688338 6.58322354 -0.0467821 9.875 -0.0625 C10.81214844 -0.07087891 11.74929687 -0.07925781 12.71484375 -0.08789062 C14.05869141 -0.09272461 14.05869141 -0.09272461 15.4296875 -0.09765625 C16.67081299 -0.10551147 16.67081299 -0.10551147 17.93701172 -0.11352539 C20 0 20 0 22 1 C22 3.64 22 6.28 22 9 C19.04335481 10.4783226 16.25770263 10.06032783 13 10 C13 9.34 13 8.68 13 8 C12.62875 8.495 12.2575 8.99 11.875 9.5 C9.25191986 11.59846411 7.2759923 11.13940393 4 11 C3.01 11.495 3.01 11.495 2 12 C1.34 11.67 0.68 11.34 0 11 C0 7.37 0 3.74 0 0 Z " fill="#79BA98" transform="translate(172,213)"/>
<path d="M0 0 C6.9064141 3.34961084 13.57269512 6.79753142 20 11 C19.67 11.66 19.34 12.32 19 13 C18.34 13 17.68 13 17 13 C17 13.99 17 14.98 17 16 C14.00667261 15.0022242 13.05233685 14.2477975 11 12 C13.0625 14.25 13.0625 14.25 15 17 C14.75 19.3125 14.75 19.3125 14 21 C11.125 20.6875 11.125 20.6875 8 20 C6 17 6 17 6 14 C6.66 14 7.32 14 8 14 C7.67 12.68 7.34 11.36 7 10 C5.906875 10.04125 4.81375 10.0825 3.6875 10.125 C0 10 0 10 -3 8 C-3 8.99 -3 9.98 -3 11 C-0.525 11.99 -0.525 11.99 2 13 C2 13.66 2 14.32 2 15 C-3.75 13.375 -3.75 13.375 -6 10 C-4.68 7.36 -3.36 4.72 -2 2 C-1.34 2 -0.68 2 0 2 C0 1.34 0 0.68 0 0 Z " fill="#DFF7F0" transform="translate(319,242)"/>
<path d="M0 0 C7.42857143 1 7.42857143 1 11 2 C11 3.32 11 4.64 11 6 C10.34 6 9.68 6 9 6 C9.54708727 8.53744315 9.54708727 8.53744315 11 11 C14.05272465 11.89830839 14.05272465 11.89830839 17 12 C16.37240135 9.07120629 15.41377341 6.63904371 14 4 C16.99332739 4.9977758 17.94766315 5.7522025 20 8 C20 7.01 20 6.02 20 5 C21.6875 4.1875 21.6875 4.1875 24 4 C26.75 6.4375 26.75 6.4375 29 9 C28 10 28 10 25.4375 10.0625 C24.633125 10.041875 23.82875 10.02125 23 10 C23.4640625 11.1446875 23.4640625 11.1446875 23.9375 12.3125 C24.67893593 14.18789677 25.36228217 16.08684652 26 18 C25.01 18 24.02 18 23 18 C22.67 17.01 22.34 16.02 22 15 C21.34 14.67 20.68 14.34 20 14 C20.33 15.98 20.66 17.96 21 20 C17.11747569 18.57593543 13.74960259 16.7615746 10.25 14.5625 C9.28578125 13.96566406 8.3215625 13.36882812 7.328125 12.75390625 C5 11 5 11 4 8 C4.66 8 5.32 8 6 8 C6 7.01 6 6.02 6 5 C5.071875 4.7834375 5.071875 4.7834375 4.125 4.5625 C2 4 2 4 0 3 C0 2.01 0 1.02 0 0 Z " fill="#EBFBF3" transform="translate(316,250)"/>
<path d="M0 0 C1.20849609 0.00322266 2.41699219 0.00644531 3.66210938 0.00976562 C5.55606445 0.02233398 5.55606445 0.02233398 7.48828125 0.03515625 C9.39963867 0.04192383 9.39963867 0.04192383 11.34960938 0.04882812 C14.50004689 0.06062752 17.65039074 0.07709028 20.80078125 0.09765625 C20.80078125 0.42765625 20.80078125 0.75765625 20.80078125 1.09765625 C13.41918467 2.79570413 7.30692004 3.18550245 -0.19921875 2.09765625 C-0.19921875 5.72765625 -0.19921875 9.35765625 -0.19921875 13.09765625 C0.70828125 12.91203125 1.61578125 12.72640625 2.55078125 12.53515625 C5.48392449 12.14031004 7.06524695 12.15074053 9.80078125 13.09765625 C10.13078125 12.10765625 10.46078125 11.11765625 10.80078125 10.09765625 C11.46078125 10.09765625 12.12078125 10.09765625 12.80078125 10.09765625 C12.80078125 10.75765625 12.80078125 11.41765625 12.80078125 12.09765625 C18.24578125 11.10765625 18.24578125 11.10765625 23.80078125 10.09765625 C24.13078125 8.44765625 24.46078125 6.79765625 24.80078125 5.09765625 C25.13078125 5.09765625 25.46078125 5.09765625 25.80078125 5.09765625 C26.29578125 9.55265625 26.29578125 9.55265625 26.80078125 14.09765625 C10.96078125 15.08765625 10.96078125 15.08765625 -5.19921875 16.09765625 C-5.19921875 11.80765625 -5.19921875 7.51765625 -5.19921875 3.09765625 C-6.51921875 3.09765625 -7.83921875 3.09765625 -9.19921875 3.09765625 C-9.19921875 2.43765625 -9.19921875 1.77765625 -9.19921875 1.09765625 C-5.90187229 -0.00145924 -3.4696313 -0.01628935 0 0 Z " fill="#F3FCFB" transform="translate(172.19921875,210.90234375)"/>
<path d="M0 0 C2.9375 1.1875 2.9375 1.1875 6 3 C6.875 5.6875 6.875 5.6875 7 8 C8.32 7.67 9.64 7.34 11 7 C10.01 9.64 9.02 12.28 8 15 C10.31 16.32 12.62 17.64 15 19 C15.33 18.34 15.66 17.68 16 17 C16 17.99 16 18.98 16 20 C15.34 20 14.68 20 14 20 C13.67 20.66 13.34 21.32 13 22 C6.73 18.7 0.46 15.4 -6 12 C-2.625 3 -2.625 3 0 0 Z " fill="#E4F5F0" transform="translate(306,238)"/>
<path d="M0 0 C6.34282659 1.84436801 12.62396275 4.06397273 18 8 C18.33 8.99 18.66 9.98 19 11 C18.360625 11.12375 17.72125 11.2475 17.0625 11.375 C16.381875 11.58125 15.70125 11.7875 15 12 C14.67 12.66 14.34 13.32 14 14 C13.34 14 12.68 14 12 14 C12 12.35 12 10.7 12 9 C10.02 8.01 8.04 7.02 6 6 C4.35 9.3 2.7 12.6 1 16 C-0.32 15.67 -1.64 15.34 -3 15 C-2.01 12.36 -1.02 9.72 0 7 C-0.99 7.33 -1.98 7.66 -3 8 C-3.99 8.33 -4.98 8.66 -6 9 C-6.33 7.35 -6.66 5.7 -7 4 C-5.125 3.375 -5.125 3.375 -3 3 C-2.34 3.66 -1.68 4.32 -1 5 C-0.67 3.35 -0.34 1.7 0 0 Z " fill="#EFFAF6" transform="translate(300,233)"/>
<path d="M0 0 C1.98 0.66 3.96 1.32 6 2 C6 4.31 6 6.62 6 9 C5.01 8.34 4.02 7.68 3 7 C2.01 7 1.02 7 0 7 C0 8.32 0 9.64 0 11 C0.66 11 1.32 11 2 11 C2.33 10.34 2.66 9.68 3 9 C3.99 9.33 4.98 9.66 6 10 C5.40138258 12.35171131 4.73075648 14.6859378 4 17 C3.34 17.33 2.68 17.66 2 18 C-0.07196631 17.26821134 -2.1108552 16.44100997 -4.125 15.5625 C-5.22070312 15.08941406 -6.31640625 14.61632812 -7.4453125 14.12890625 C-8.28835938 13.75636719 -9.13140625 13.38382813 -10 13 C-10 12.67 -10 12.34 -10 12 C-8.02 12 -6.04 12 -4 12 C-4.0825 11.0925 -4.165 10.185 -4.25 9.25 C-3.94651946 5.30475293 -2.89074879 4.52940519 0 2 C0 1.34 0 0.68 0 0 Z " fill="#E5F6F4" transform="translate(294,230)"/>
<path d="M0 0 C2.01152297 4.02304595 2.25631191 5.63358596 2.265625 9.98046875 C2.26820313 11.14513672 2.27078125 12.30980469 2.2734375 13.50976562 C2.26570313 14.72341797 2.25796875 15.93707031 2.25 17.1875 C2.25773437 18.38181641 2.26546875 19.57613281 2.2734375 20.80664062 C2.25864796 27.52478947 1.75641305 33.51102956 0 40 C-0.66 40 -1.32 40 -2 40 C-1.95359375 40.58007812 -1.9071875 41.16015625 -1.859375 41.7578125 C-1.58987432 47.59057731 -2.28782564 50.4757875 -6 55 C-7.53445094 51.93109813 -6.54984289 49.29905734 -6 46 C-5.34 46 -4.68 46 -4 46 C-3.87882812 44.85660156 -3.75765625 43.71320313 -3.6328125 42.53515625 C-3.46402679 41.04421583 -3.29472953 39.55333327 -3.125 38.0625 C-3.04636719 37.30775391 -2.96773438 36.55300781 -2.88671875 35.77539062 C-2.66116192 33.84080701 -2.33741026 31.91823981 -2 30 C-1.34 29.67 -0.68 29.34 0 29 C0 19.43 0 9.86 0 0 Z " fill="#DAC839" transform="translate(363,241)"/>
<path d="M0 0 C0 0.33 0 0.66 0 1 C-14.90729118 3.64598512 -29.0938768 3.90345356 -44 1 C-44 0.67 -44 0.34 -44 0 C-29.2927589 -1.34833663 -14.7326312 -0.7181486 0 0 Z " fill="#2E3852" transform="translate(278,361)"/>
<path d="M0 0 C6.24938503 1.12282095 12.56143093 2.58875467 18 6 C18.33 6.99 18.66 7.98 19 9 C18.01 9.33 17.02 9.66 16 10 C15.19787372 11.87387216 15.19787372 11.87387216 14.8125 14.0625 C14.65394531 14.79597656 14.49539063 15.52945313 14.33203125 16.28515625 C14.22246094 16.85105469 14.11289062 17.41695312 14 18 C12.02 18 10.04 18 8 18 C8.495 17.484375 8.99 16.96875 9.5 16.4375 C11.51033543 13.17070493 11.28421077 10.76579264 11 7 C9.99163938 5.76732652 9.99163938 5.76732652 7.93359375 5.90234375 C6.69802734 5.91974609 6.69802734 5.91974609 5.4375 5.9375 C4.19806641 5.95103516 4.19806641 5.95103516 2.93359375 5.96484375 C1.97646484 5.98224609 1.97646484 5.98224609 1 6 C0.67 4.02 0.34 2.04 0 0 Z " fill="#F8FCFC" transform="translate(276,224)"/>
<path d="M0 0 C0.99 0.33 1.98 0.66 3 1 C2.52013969 6.56890517 1.70084819 11.67067568 0 17 C-3.33135891 16.40300869 -5.21275667 15.27987719 -7.75 13.0625 C-8.36359375 12.53785156 -8.9771875 12.01320313 -9.609375 11.47265625 C-11 10 -11 10 -11 8 C-9.906875 7.690625 -8.81375 7.38125 -7.6875 7.0625 C-5.44592006 6.41662103 -3.2130649 5.7376883 -1 5 C-0.67 3.35 -0.34 1.7 0 0 Z " fill="#F5FAF2" transform="translate(359,270)"/>
<path d="M0 0 C1.23685547 -0.00773438 2.47371094 -0.01546875 3.74804688 -0.0234375 C10.23885494 -0.00956084 15.85758042 0.35137716 22.0625 2.25 C23.17496094 2.5078125 24.28742188 2.765625 25.43359375 3.03125 C26.44550781 3.2684375 27.45742188 3.505625 28.5 3.75 C30.04494141 4.10578125 30.04494141 4.10578125 31.62109375 4.46875 C32.82958984 4.85546875 32.82958984 4.85546875 34.0625 5.25 C34.5575 6.24 34.5575 6.24 35.0625 7.25 C33.84820312 6.96125 32.63390625 6.6725 31.3828125 6.375 C13.69685602 2.44653732 -3.96078341 2.12140868 -21.9375 4.25 C-20.9375 2.25 -20.9375 2.25 -18.24609375 1.140625 C-12.29951857 -0.40630351 -6.09672142 -0.03800554 0 0 Z " fill="#DBCB37" transform="translate(253.9375,146.75)"/>
<path d="M0 0 C6.75 -0.125 6.75 -0.125 9 1 C9 3.64 9 6.28 9 9 C6.04335481 10.4783226 3.25770263 10.06032783 0 10 C0 6.7 0 3.4 0 0 Z " fill="#43966C" transform="translate(185,213)"/>
<path d="M0 0 C1.20849609 0.00322266 2.41699219 0.00644531 3.66210938 0.00976562 C5.55606445 0.02233398 5.55606445 0.02233398 7.48828125 0.03515625 C9.39963867 0.04192383 9.39963867 0.04192383 11.34960938 0.04882812 C14.50004689 0.06062752 17.65039074 0.07709028 20.80078125 0.09765625 C20.80078125 0.42765625 20.80078125 0.75765625 20.80078125 1.09765625 C13.41918467 2.79570413 7.30692004 3.18550245 -0.19921875 2.09765625 C-0.19921875 5.72765625 -0.19921875 9.35765625 -0.19921875 13.09765625 C-0.52921875 13.09765625 -0.85921875 13.09765625 -1.19921875 13.09765625 C-1.19921875 10.45765625 -1.19921875 7.81765625 -1.19921875 5.09765625 C-1.85921875 5.09765625 -2.51921875 5.09765625 -3.19921875 5.09765625 C-3.19921875 7.07765625 -3.19921875 9.05765625 -3.19921875 11.09765625 C-3.52921875 11.09765625 -3.85921875 11.09765625 -4.19921875 11.09765625 C-4.52921875 8.45765625 -4.85921875 5.81765625 -5.19921875 3.09765625 C-6.51921875 3.09765625 -7.83921875 3.09765625 -9.19921875 3.09765625 C-9.19921875 2.43765625 -9.19921875 1.77765625 -9.19921875 1.09765625 C-5.90187229 -0.00145924 -3.4696313 -0.01628935 0 0 Z " fill="#E8F5F5" transform="translate(172.19921875,210.90234375)"/>
<path d="M0 0 C2.31 0 4.62 0 7 0 C6.67 0.66 6.34 1.32 6 2 C5.01 2 4.02 2 3 2 C3.020625 3.0725 3.04125 4.145 3.0625 5.25 C3.0142016 8.14790424 2.86844115 10.28612141 2 13 C3.32 13.33 4.64 13.66 6 14 C6 14.33 6 14.66 6 15 C3.69 15 1.38 15 -1 15 C-1 13.35 -1 11.7 -1 10 C-3.31 10 -5.62 10 -8 10 C-8 9.34 -8 8.68 -8 8 C-6.02 8 -4.04 8 -2 8 C-1.34 5.36 -0.68 2.72 0 0 Z " fill="#F3FEFA" transform="translate(209,211)"/>
<path d="M0 0 C2.5 0.25 2.5 0.25 4.5 2.25 C4.86796448 5.12012296 4.87509409 6.65774618 3.3125 9.125 C1.5 10.25 1.5 10.25 -1.125 10 C-3.5 9.25 -3.5 9.25 -4.5 8.25 C-4.6875 5.3125 -4.6875 5.3125 -4.5 2.25 C-2.5 0.25 -2.5 0.25 0 0 Z " fill="#4AA171" transform="translate(283.5,228.75)"/>
<path d="M0 0 C2.375 0.6875 2.375 0.6875 3.375 1.6875 C3.6732732 4.52109542 3.73102594 6.12535378 2.1875 8.5625 C0.375 9.6875 0.375 9.6875 -2.25 9.4375 C-4.625 8.6875 -4.625 8.6875 -5.625 7.6875 C-5.875 4.75 -5.875 4.75 -5.625 1.6875 C-2.625 -0.3125 -2.625 -0.3125 0 0 Z " fill="#409A6A" transform="translate(353.625,268.3125)"/>
<path d="M0 0 C2.5 0.25 2.5 0.25 4.5 2.25 C4.125 5.875 4.125 5.875 3.5 9.25 C1.1875 9.9375 1.1875 9.9375 -1.5 10.25 C-3.3125 9.125 -3.3125 9.125 -4.5 7.25 C-4.8125 4.6875 -4.8125 4.6875 -4.5 2.25 C-2.5 0.25 -2.5 0.25 0 0 Z " fill="#409767" transform="translate(163.5,214.75)"/>
<path d="M0 0 C5.75 0.75 5.75 0.75 8 3 C7.7578125 5.1640625 7.7578125 5.1640625 7.125 7.625 C6.92132813 8.44226563 6.71765625 9.25953125 6.5078125 10.1015625 C6.25644531 11.04128906 6.25644531 11.04128906 6 12 C5.34 12 4.68 12 4 12 C4 10.35 4 8.7 4 7 C2.35 7 0.7 7 -1 7 C-1 7.66 -1 8.32 -1 9 C-1.66 9 -2.32 9 -3 9 C-2.5020163 5.26512223 -2.12508244 3.18762365 0 0 Z " fill="#79C69E" transform="translate(268,224)"/>
<path d="M0 0 C2.9375 1.25 2.9375 1.25 6 3 C6.875 5.1875 6.875 5.1875 7 7 C6.01 7.33 5.02 7.66 4 8 C3.67 9.65 3.34 11.3 3 13 C2.67 13 2.34 13 2 13 C1.67 11.35 1.34 9.7 1 8 C0.01 7.67 -0.98 7.34 -2 7 C-2.33 7.99 -2.66 8.98 -3 10 C-3.75 8.375 -3.75 8.375 -4 6 C-2.0625 2.75 -2.0625 2.75 0 0 Z " fill="#409C69" transform="translate(306,238)"/>
<path d="M0 0 C2.31 0.66 4.62 1.32 7 2 C7.625 3.875 7.625 3.875 8 6 C6 8 6 8 2.875 8.125 C1.92625 8.08375 0.9775 8.0425 0 8 C-0.33 8.66 -0.66 9.32 -1 10 C-1.66 10 -2.32 10 -3 10 C-2.69201674 8.51988629 -2.378482 7.04092675 -2.0625 5.5625 C-1.88847656 4.73878906 -1.71445313 3.91507813 -1.53515625 3.06640625 C-1 1 -1 1 0 0 Z " fill="#429C70" transform="translate(255,220)"/>
<path d="M0 0 C0.99 0 1.98 0 3 0 C3.66 1.32 4.32 2.64 5 4 C5.66 2.68 6.32 1.36 7 0 C7.66 0 8.32 0 9 0 C9 3.3 9 6.6 9 10 C8.34 10 7.68 10 7 10 C6.67 9.34 6.34 8.68 6 8 C5.67 8.66 5.34 9.32 5 10 C4.34 10 3.68 10 3 10 C3 8.68 3 7.36 3 6 C2.34 6 1.68 6 1 6 C0.67 6.99 0.34 7.98 0 9 C0 6.03 0 3.06 0 0 Z " fill="#379962" transform="translate(212,214)"/>
<path d="M0 0 C4.75 0.75 4.75 0.75 7 3 C7 3.99 7 4.98 7 6 C4.00667261 5.0022242 3.05233685 4.2477975 1 2 C3.0625 4.25 3.0625 4.25 5 7 C4.75 9.3125 4.75 9.3125 4 11 C1.125 10.8125 1.125 10.8125 -2 10 C-3.375 7.4375 -3.375 7.4375 -4 5 C-1.00667261 5.9977758 -0.05233685 6.7522025 2 9 C0.4375 7.3125 0.4375 7.3125 -1 5 C-0.6875 2.25 -0.6875 2.25 0 0 Z " fill="#49A172" transform="translate(329,252)"/>
<path d="M0 0 C2.97 0 5.94 0 9 0 C9 0.66 9 1.32 9 2 C6.36 2 3.72 2 1 2 C1 2.66 1 3.32 1 4 C2.98 4 4.96 4 7 4 C7 4.66 7 5.32 7 6 C5.35 6 3.7 6 2 6 C2 6.66 2 7.32 2 8 C4.31 8 6.62 8 9 8 C9 8.66 9 9.32 9 10 C6.03 10 3.06 10 0 10 C0 6.7 0 3.4 0 0 Z " fill="#4C9971" transform="translate(199,213)"/>
<path d="M0 0 C0.33 0 0.66 0 1 0 C1 3.3 1 6.6 1 10 C3.97 10 6.94 10 10 10 C10 10.99 10 11.98 10 13 C1.42 13 -7.16 13 -16 13 C-16 12.67 -16 12.34 -16 12 C-8.08 11.505 -8.08 11.505 0 11 C0 7.37 0 3.74 0 0 Z " fill="#BCD9D9" transform="translate(198,213)"/>
<path d="M0 0 C3.37462715 0.54723683 5.08235 1.0549 8 3 C8 3.66 8 4.32 8 5 C3.25 3.125 3.25 3.125 1 2 C2.32 3.65 3.64 5.3 5 7 C2.83125748 6.49396008 1.00032373 6.00016187 -1 5 C-1 5.99 -1 6.98 -1 8 C1.475 8.99 1.475 8.99 4 10 C4 10.66 4 11.32 4 12 C-1.75 10.375 -1.75 10.375 -4 7 C-2.68 4.69 -1.36 2.38 0 0 Z " fill="#43986A" transform="translate(317,245)"/>
<path d="M0 0 C1.65 0 3.3 0 5 0 C5 1.65 5 3.3 5 5 C5.66 5 6.32 5 7 5 C6.67 5.99 6.34 6.98 6 8 C1.38 6.68 -3.24 5.36 -8 4 C-6 3 -4 2 -2 1 C-1.34 1.33 -0.68 1.66 0 2 C0 1.34 0 0.68 0 0 Z " fill="#E9F3F6" transform="translate(267,231)"/>
<path d="M0 0 C4.51720311 -0.36625971 4.51720311 -0.36625971 6.8125 1.375 C8 3 8 3 8 5 C7.34 5 6.68 5 6 5 C5.67 4.34 5.34 3.68 5 3 C4.67 3.33 4.34 3.66 4 4 C4.33 4.33 4.66 4.66 5 5 C5.04063832 6.66617115 5.042721 8.33388095 5 10 C0.50347222 10.36458333 0.50347222 10.36458333 -1.8125 8.6875 C-3 7 -3 7 -3 4 C-2.01 4.33 -1.02 4.66 0 5 C0 5.99 0 6.98 0 8 C0.99 8 1.98 8 3 8 C2.505 7.4225 2.01 6.845 1.5 6.25 C0 4 0 4 0 0 Z " fill="#469D6D" transform="translate(339,260)"/>
<path d="M0 0 C3.44004627 1.14668209 4.26635169 1.87943304 6 5 C6 7.5625 6 7.5625 5 10 C2.4375 11.8125 2.4375 11.8125 0 13 C-2.97 11.02 -5.94 9.04 -9 7 C-7.68 6.01 -6.36 5.02 -5 4 C-4.4225 4.66 -3.845 5.32 -3.25 6 C-1.00346023 8.44290923 -1.00346023 8.44290923 3 8 C2.37240135 5.07120629 1.41377341 2.63904371 0 0 Z " fill="#DEF7F2" transform="translate(330,254)"/>
<path d="M0 0 C2.5625 0.1875 2.5625 0.1875 4.5625 2.1875 C4.2325 3.1775 3.9025 4.1675 3.5625 5.1875 C2.9025 4.5275 2.2425 3.8675 1.5625 3.1875 C0.5725 3.1875 -0.4175 3.1875 -1.4375 3.1875 C-1.4375 4.5075 -1.4375 5.8275 -1.4375 7.1875 C-0.7775 7.1875 -0.1175 7.1875 0.5625 7.1875 C0.8925 6.5275 1.2225 5.8675 1.5625 5.1875 C2.5525 5.5175 3.5425 5.8475 4.5625 6.1875 C3.9025 7.8375 3.2425 9.4875 2.5625 11.1875 C-3.3125 9.3125 -3.3125 9.3125 -4.4375 8.1875 C-3.58985457 0.27614266 -3.58985457 0.27614266 0 0 Z " fill="#429B6B" transform="translate(295.4375,233.8125)"/>
<path d="M0 0 C0 0.66 0 1.32 0 2 C-0.639375 2.268125 -1.27875 2.53625 -1.9375 2.8125 C-4.33131686 3.88667752 -4.33131686 3.88667752 -5 7 C-8.23306391 8.61653196 -11.45028204 9.39147692 -15 10 C-15 10.66 -15 11.32 -15 12 C-18 14 -18 14 -20.1875 13.625 C-20.785625 13.41875 -21.38375 13.2125 -22 13 C-18.71314634 10.82596202 -15.41975432 8.66204206 -12.125 6.5 C-11.18785156 5.87996094 -10.25070313 5.25992188 -9.28515625 4.62109375 C-8.38925781 4.03457031 -7.49335937 3.44804687 -6.5703125 2.84375 C-5.74289551 2.29912109 -4.91547852 1.75449219 -4.06298828 1.19335938 C-2 0 -2 0 0 0 Z " fill="#D7E11D" transform="translate(76,209)"/>
<path d="M0 0 C1.02567775 3.17753711 0.90925096 5.12839382 0.0703125 8.3359375 C-1.40425677 15.08426038 -1.21707111 21.74799628 -1.125 28.625 C-1.11597656 29.91535156 -1.10695312 31.20570313 -1.09765625 32.53515625 C-1.0742848 35.69030249 -1.04152091 38.84504926 -1 42 C-4.18030133 37.229548 -3.33362325 32.06286865 -3.31567383 26.45068359 C-3.31254245 24.40276421 -3.3358735 22.35633151 -3.36132812 20.30859375 C-3.36498583 12.86881969 -2.87962674 6.88375152 0 0 Z " fill="#EFDA36" transform="translate(150,230)"/>
<path d="M0 0 C3.96 0 7.92 0 12 0 C12 5 12 5 10.5 6.8125 C10.005 7.204375 9.51 7.59625 9 8 C9 7.34 9 6.68 9 6 C7.02 6 5.04 6 3 6 C3 5.34 3 4.68 3 4 C5.64 4 8.28 4 11 4 C11 3.34 11 2.68 11 2 C7.7 2 4.4 2 1 2 C0.67 2.66 0.34 3.32 0 4 C0 2.68 0 1.36 0 0 Z " fill="#D6FBED" transform="translate(197,211)"/>
<path d="M0 0 C1.05960937 0.00676758 1.05960937 0.00676758 2.140625 0.01367188 C3.88545275 0.02546125 5.630237 0.04339676 7.375 0.0625 C7.375 0.3925 7.375 0.7225 7.375 1.0625 C-3.07407631 2.91716965 -13.04800905 3.29299133 -23.625 3.0625 C-23.625 2.7325 -23.625 2.4025 -23.625 2.0625 C-22.63757813 2.00191406 -21.65015625 1.94132812 -20.6328125 1.87890625 C-19.35148438 1.79511719 -18.07015625 1.71132813 -16.75 1.625 C-15.47382813 1.54378906 -14.19765625 1.46257812 -12.8828125 1.37890625 C-8.4305377 0.94649107 -4.61918021 -0.05539607 0 0 Z " fill="#42463C" transform="translate(270.625,360.9375)"/>
<path d="M0 0 C2.19963566 2.19963566 2.57049648 2.99347539 3 6 C2.814375 6.86625 2.62875 7.7325 2.4375 8.625 C2.293125 9.40875 2.14875 10.1925 2 11 C2.66 11.66 3.32 12.32 4 13 C3.01 14.485 3.01 14.485 2 16 C1.01 16 0.02 16 -1 16 C-1.33 14.68 -1.66 13.36 -2 12 C-1.34 12 -0.68 12 0 12 C0.20395079 8.32888586 -0.23316528 6.20238793 -2 3 C-2 2.34 -2 1.68 -2 1 C-1.34 0.67 -0.68 0.34 0 0 Z " fill="#808CB3" transform="translate(309,313)"/>
<path d="M0 0 C2.31 0.33 4.62 0.66 7 1 C7 1.33 7 1.66 7 2 C5.35 2 3.7 2 2 2 C2 2.66 2 3.32 2 4 C3.32 4 4.64 4 6 4 C6 4.66 6 5.32 6 6 C4.35 5.67 2.7 5.34 1 5 C1 5.99 1 6.98 1 8 C2.65 8 4.3 8 6 8 C6 8.66 6 9.32 6 10 C3.69 9.67 1.38 9.34 -1 9 C-0.67 6.03 -0.34 3.06 0 0 Z " fill="#429568" transform="translate(234,217)"/>
<path d="M0 0 C0.66 0.33 1.32 0.66 2 1 C-0.25 3.5 -0.25 3.5 -3 6 C-4.32 6 -5.64 6 -7 6 C-7.20625 6.639375 -7.4125 7.27875 -7.625 7.9375 C-9 10 -9 10 -12.125 10.75 C-13.548125 10.87375 -13.548125 10.87375 -15 11 C-12.05740921 7.85519325 -8.99939466 5.50769874 -5.375 3.1875 C-4.41335937 2.56230469 -3.45171875 1.93710938 -2.4609375 1.29296875 C-1.64882812 0.86628906 -0.83671875 0.43960938 0 0 Z " fill="#D4DF1D" transform="translate(149,161)"/>
<path d="M0 0 C0.33 0 0.66 0 1 0 C0.93950287 2.37753738 0.85232887 4.74919061 0.75 7.125 C0.73582031 7.79015625 0.72164063 8.4553125 0.70703125 9.140625 C0.45113231 14.36096332 -0.88797148 17.00415538 -4 21 C-5.53445094 17.93109813 -4.54984289 15.29905734 -4 12 C-3.34 12 -2.68 12 -2 12 C-1.34 8.04 -0.68 4.08 0 0 Z " fill="#DDCE44" transform="translate(361,275)"/>
<path d="M0 0 C0.33 0 0.66 0 1 0 C1.125 2.875 1.125 2.875 1 6 C-1 8 -1 8 -3.625 8.125 C-4.40875 8.08375 -5.1925 8.0425 -6 8 C-6 6.35 -6 4.7 -6 3 C-5.195625 2.690625 -4.39125 2.38125 -3.5625 2.0625 C-1.10919595 1.23664655 -1.10919595 1.23664655 0 0 Z " fill="#FAFEFD" transform="translate(264,226)"/>
<path d="M0 0 C0.66 0 1.32 0 2 0 C-0.15928935 7.39393019 -2.5304518 14.70417741 -5 22 C-5.33 22 -5.66 22 -6 22 C-6.67450318 15.92947142 -4.88215173 11.97060192 -2.19140625 6.55078125 C-1.15888865 4.340178 -0.48481917 2.37951479 0 0 Z " fill="#E6D43E" transform="translate(157,208)"/>
<path d="M0 0 C0.33 0.66 0.66 1.32 1 2 C0.54625 2.53625 0.0925 3.0725 -0.375 3.625 C-2.21688312 6.31698302 -3.07971933 8.88520388 -4 12 C-4.66 12 -5.32 12 -6 12 C-6.33 13.32 -6.66 14.64 -7 16 C-7.66 16 -8.32 16 -9 16 C-9 16.99 -9 17.98 -9 19 C-9.66 19 -10.32 19 -11 19 C-9.60318936 13.9499923 -7.40056078 10.30405582 -4.375 6.125 C-3.95476562 5.53203125 -3.53453125 4.9390625 -3.1015625 4.328125 C-2.07434578 2.88068326 -1.0380937 1.43966081 0 0 Z " fill="#40443C" transform="translate(172,188)"/>
<path d="M0 0 C1.48199902 0.44909061 2.96055236 0.90956564 4.4375 1.375 C5.26121094 1.63023437 6.08492188 1.88546875 6.93359375 2.1484375 C9 3 9 3 10 5 C10.763125 5.28875 11.52625 5.5775 12.3125 5.875 C15.28908843 7.12101376 16.86007284 8.62230316 19 11 C15.723477 11 14.89555297 10.54216945 12.20703125 8.84765625 C11.49482422 8.40099609 10.78261719 7.95433594 10.04882812 7.49414062 C9.31083984 7.02169922 8.57285156 6.54925781 7.8125 6.0625 C7.06291016 5.59392578 6.31332031 5.12535156 5.54101562 4.64257812 C1.48220358 2.07581346 1.48220358 2.07581346 0 1 C0 0.67 0 0.34 0 0 Z " fill="#319C25" transform="translate(355,156)"/>
<path d="M0 0 C1.32 0 2.64 0 4 0 C4 1.32 4 2.64 4 4 C4.66 4 5.32 4 6 4 C6.66 2.68 7.32 1.36 8 0 C8 1.32 8 2.64 8 4 C8.66 4.33 9.32 4.66 10 5 C10.33 5.66 10.66 6.32 11 7 C8.36 7 5.72 7 3 7 C3 6.34 3 5.68 3 5 C2.01 4.67 1.02 4.34 0 4 C0 2.68 0 1.36 0 0 Z " fill="#BEE7D7" transform="translate(211,220)"/>
<path d="M0 0 C2.31 0 4.62 0 7 0 C7 1.65 7 3.3 7 5 C5.02 5 3.04 5 1 5 C1 6.98 1 8.96 1 11 C0.67 11 0.34 11 0 11 C0 7.37 0 3.74 0 0 Z " fill="#83CDA6" transform="translate(172,213)"/>
<path d="M0 0 C0.66 0.33 1.32 0.66 2 1 C1.01 2.485 1.01 2.485 0 4 C-0.66 4 -1.32 4 -2 4 C-2 4.66 -2 5.32 -2 6 C-1.34 6 -0.68 6 0 6 C0.33 7.32 0.66 8.64 1 10 C-2.64553172 8.7191375 -4.16671013 7.83328987 -7 5 C-4.69 3.35 -2.38 1.7 0 0 Z " fill="#D5E21E" transform="translate(8,251)"/>
<path d="M0 0 C0.99 0 1.98 0 3 0 C3 2 3 2 1.5 3.625 C1.005 4.07875 0.51 4.5325 0 5 C1.65 5.33 3.3 5.66 5 6 C5 7.65 5 9.3 5 11 C4.67 9.68 4.34 8.36 4 7 C2.35 7 0.7 7 -1 7 C-1 7.66 -1 8.32 -1 9 C-1.66 9 -2.32 9 -3 9 C-2.5020163 5.26512223 -2.12508244 3.18762365 0 0 Z " fill="#3E9868" transform="translate(268,224)"/>
<path d="M0 0 C1.65 0 3.3 0 5 0 C5.38218767 1.65614657 5.71395102 3.32457024 6 5 C5 6 5 6 2.4375 6.0625 C1.2309375 6.0315625 1.2309375 6.0315625 0 6 C0 4.02 0 2.04 0 0 Z " fill="#CDFAE6" transform="translate(187,215)"/>
<path d="M0 0 C-1 3 -1 3 -3 4 C-3.72159424 5.64363134 -4.39351421 7.31050386 -5 9 C-7 6 -7 6 -7 3 C-7.99 2.67 -8.98 2.34 -10 2 C-6.5980513 -0.09350689 -3.94727588 -0.17942163 0 0 Z " fill="#CBE8E1" transform="translate(222,211)"/>
<path d="M0 0 C3.69230769 0.69230769 3.69230769 0.69230769 5 2 C5.66 1.34 6.32 0.68 7 0 C7 1.98 7 3.96 7 6 C6.67 5.34 6.34 4.68 6 4 C5.01 4.33 4.02 4.66 3 5 C2.01 5.33 1.02 5.66 0 6 C-0.38218767 4.34385343 -0.71395102 2.67542976 -1 1 C-0.67 0.67 -0.34 0.34 0 0 Z " fill="#DBFCEB" transform="translate(294,236)"/>
<path d="M0 0 C0.66 0.33 1.32 0.66 2 1 C0.875 2.9375 0.875 2.9375 -1 5 C-4.1875 5.75 -4.1875 5.75 -7 6 C-7.33 6.99 -7.66 7.98 -8 9 C-9.32 8.67 -10.64 8.34 -12 8 C-8.04 5.36 -4.08 2.72 0 0 Z " fill="#299929" transform="translate(351,358)"/>
<path d="M0 0 C1.15941038 3.47823115 0.70820884 5.45895578 0 9 C-0.33 8.34 -0.66 7.68 -1 7 C-2.65 7 -4.3 7 -6 7 C-6 6.01 -6 5.02 -6 4 C-3.525 4.495 -3.525 4.495 -1 5 C-1 4.34 -1 3.68 -1 3 C-2.32 3 -3.64 3 -5 3 C-5 2.34 -5 1.68 -5 1 C-3.35 0.67 -1.7 0.34 0 0 Z " fill="#BEF2DA" transform="translate(241,218)"/>
<path d="M0 0 C0.66 0.33 1.32 0.66 2 1 C1.01 1.33 0.02 1.66 -1 2 C-1.33 2.99 -1.66 3.98 -2 5 C-5.07322948 7.95940617 -7.82152545 8.52517335 -12 9 C-8.63378119 5.21300384 -4.58358196 2.1727369 0 0 Z " fill="#D6E01F" transform="translate(27,239)"/>
<path d="M0 0 C1.9375 0.3125 1.9375 0.3125 4 1 C4.33 1.99 4.66 2.98 5 4 C4.360625 4.12375 3.72125 4.2475 3.0625 4.375 C2.0415625 4.684375 2.0415625 4.684375 1 5 C0.67 5.66 0.34 6.32 0 7 C-0.66 7 -1.32 7 -2 7 C-1.34 4.69 -0.68 2.38 0 0 Z " fill="#F0F9FA" transform="translate(314,240)"/>
<path d="M0 0 C1.65 0 3.3 0 5 0 C0.39486061 3.99112081 -4.75483244 6.94456259 -10 10 C-9.67 8.68 -9.34 7.36 -9 6 C-7.68 6 -6.36 6 -5 6 C-5 5.34 -5 4.68 -5 4 C-4.360625 3.71125 -3.72125 3.4225 -3.0625 3.125 C-0.84793921 2.17176549 -0.84793921 2.17176549 0 0 Z " fill="#329D23" transform="translate(138,165)"/>
<path d="M0 0 C0.33 0.66 0.66 1.32 1 2 C1.99 2 2.98 2 4 2 C4 2.66 4 3.32 4 4 C3.34 4 2.68 4 2 4 C2.33 4.99 2.66 5.98 3 7 C1.35 7 -0.3 7 -2 7 C-2.66 5.35 -3.32 3.7 -4 2 C-2.68 1.34 -1.36 0.68 0 0 Z " fill="#CFD6EC" transform="translate(289,219)"/>
<path d="M0 0 C0.33 0 0.66 0 1 0 C1.33 2.97 1.66 5.94 2 9 C-0.31 9 -2.62 9 -5 9 C-4.34 7.68 -3.68 6.36 -3 5 C-2.34 5 -1.68 5 -1 5 C-0.67 3.35 -0.34 1.7 0 0 Z " fill="#F7FEFD" transform="translate(197,216)"/>
<path d="M0 0 C4.97093824 0.41153737 9.44508386 0.79600832 14 3 C14 3.66 14 4.32 14 5 C14.99 5 15.98 5 17 5 C17 5.66 17 6.32 17 7 C11.27789404 5.13236819 5.62338249 3.14710968 0 1 C0 0.67 0 0.34 0 0 Z " fill="#DAC934" transform="translate(290,154)"/>
<path d="M0 0 C2.475 0.99 2.475 0.99 5 2 C4.34 3.65 3.68 5.3 3 7 C1.35 7 -0.3 7 -2 7 C-2.33 5.35 -2.66 3.7 -3 2 C-2.01 2 -1.02 2 0 2 C0 1.34 0 0.68 0 0 Z " fill="#D6E0F2" transform="translate(255,301)"/>
<path d="M0 0 C0.66 0 1.32 0 2 0 C2 0.66 2 1.32 2 2 C2.99 1.67 3.98 1.34 5 1 C5.48108275 2.41601714 5.95978141 3.83284437 6.4375 5.25 C6.83775391 6.43335938 6.83775391 6.43335938 7.24609375 7.640625 C7.91954708 9.74821988 8.49150595 11.84753973 9 14 C5.25876024 9.7045025 2.65848126 5.00099548 0 0 Z " fill="#E5D22F" transform="translate(342,191)"/>
<path d="M0 0 C1.65 1.32 3.3 2.64 5 4 C4.34 4 3.68 4 3 4 C2.67 5.32 2.34 6.64 2 8 C1.01 8 0.02 8 -1 8 C-1.66 6.68 -2.32 5.36 -3 4 C-2.01 3.67 -1.02 3.34 0 3 C0 2.01 0 1.02 0 0 Z " fill="#D8DFF1" transform="translate(212,309)"/>
<path d="M0 0 C0.33 0.66 0.66 1.32 1 2 C1.99 2 2.98 2 4 2 C4 2.66 4 3.32 4 4 C3.34 4 2.68 4 2 4 C2.33 5.32 2.66 6.64 3 8 C1.35 7.67 -0.3 7.34 -2 7 C-2.6875 5.1875 -2.6875 5.1875 -3 3 C-1.5625 1.25 -1.5625 1.25 0 0 Z " fill="#D1D7EB" transform="translate(331,290)"/>
<path d="M0 0 C2.0625 0.4375 2.0625 0.4375 4 1 C3.67 2.65 3.34 4.3 3 6 C1.68 6 0.36 6 -1 6 C-1.042721 4.33388095 -1.04063832 2.66617115 -1 1 C-0.67 0.67 -0.34 0.34 0 0 Z " fill="#DAF7E9" transform="translate(351,270)"/>
<path d="M0 0 C0 0.66 0 1.32 0 2 C-2.31 2.33 -4.62 2.66 -7 3 C-7.33 3.99 -7.66 4.98 -8 6 C-9.125 2.25 -9.125 2.25 -8 0 C-4.71023192 -1.09658936 -3.28696233 -0.79953138 0 0 Z " fill="#7EC7A2" transform="translate(311,242)"/>
<path d="M0 0 C2.475 0.99 2.475 0.99 5 2 C2.94766315 4.2477975 1.99332739 5.0022242 -1 6 C-1.33 6.66 -1.66 7.32 -2 8 C-2.66 8 -3.32 8 -4 8 C-3.67 6.02 -3.34 4.04 -3 2 C-2.67 2.66 -2.34 3.32 -2 4 C-1.34 3.67 -0.68 3.34 0 3 C0 2.01 0 1.02 0 0 Z " fill="#86CAAA" transform="translate(256,222)"/>
<path d="M0 0 C2.475 0.495 2.475 0.495 5 1 C4.67 2.65 4.34 4.3 4 6 C2.68 5.67 1.36 5.34 0 5 C0 3.35 0 1.7 0 0 Z " fill="#D7FAE9" transform="translate(161,217)"/>
<path d="M0 0 C0.66 0.33 1.32 0.66 2 1 C1 3.4375 1 3.4375 -1 6 C-3.72714162 6.76381481 -6.14167178 6.85942648 -9 7 C-6.25604436 4.05278838 -3.61662784 1.80831392 0 0 Z " fill="#DDE01A" transform="translate(193,133)"/>
<path d="M0 0 C1.2684375 0.804375 1.2684375 0.804375 2.5625 1.625 C6.84517642 3.33807057 8.77749945 2.60455021 13 1 C13 1.99 13 2.98 13 4 C4.42857143 5.28571429 4.42857143 5.28571429 1 4 C0.67 2.68 0.34 1.36 0 0 Z " fill="#2F9C29" transform="translate(249,415)"/>
<path d="M0 0 C0.33 0.99 0.66 1.98 1 3 C1.99 3.33 2.98 3.66 4 4 C3.34 5.32 2.68 6.64 2 8 C1.01 8 0.02 8 -1 8 C-1.66 6.68 -2.32 5.36 -3 4 C-2.01 3.67 -1.02 3.34 0 3 C0 2.01 0 1.02 0 0 Z " fill="#D3DCEE" transform="translate(177,278)"/>
<path d="M0 0 C0.33 0 0.66 0 1 0 C1 2.64 1 5.28 1 8 C0.34 8 -0.32 8 -1 8 C-1.33 9.65 -1.66 11.3 -2 13 C-2.66 13 -3.32 13 -4 13 C-3.52343588 11.20763933 -3.04366502 9.41613103 -2.5625 7.625 C-2.29566406 6.62726563 -2.02882812 5.62953125 -1.75390625 4.6015625 C-1 2 -1 2 0 0 Z " fill="#FBFCE0" transform="translate(156,216)"/>
<path d="M0 0 C1.32 0 2.64 0 4 0 C4 0.66 4 1.32 4 2 C5.36125 2.061875 5.36125 2.061875 6.75 2.125 C10 3 10 3 12.375 6.0625 C12.91125 7.031875 13.4475 8.00125 14 9 C10.82010194 7.46205865 7.78518026 5.743521 4.75 3.9375 C3.85796875 3.41027344 2.9659375 2.88304687 2.046875 2.33984375 C1.37140625 1.89769531 0.6959375 1.45554688 0 1 C0 0.67 0 0.34 0 0 Z " fill="#E0CF35" transform="translate(307,161)"/>
<path d="M0 0 C0.66 0.33 1.32 0.66 2 1 C-0.25740623 3.33524782 -2.2805761 5.18705073 -5 7 C-6.32 6.67 -7.64 6.34 -9 6 C-6.03 4.02 -3.06 2.04 0 0 Z " fill="#29992A" transform="translate(337,367)"/>
<path d="M0 0 C0 0.66 0 1.32 0 2 C-0.99 2 -1.98 2 -3 2 C-3 2.99 -3 3.98 -3 5 C-7.455 5.495 -7.455 5.495 -12 6 C-8.59780735 3.25207517 -4.51535412 0 0 0 Z " fill="#E7D52D" transform="translate(308,351)"/>
<path d="M0 0 C1.32 0.33 2.64 0.66 4 1 C0.37 3.31 -3.26 5.62 -7 8 C-7.33 7.34 -7.66 6.68 -8 6 C-7.34 6 -6.68 6 -6 6 C-6.33 5.01 -6.66 4.02 -7 3 C-3.535 2.505 -3.535 2.505 0 2 C0 1.34 0 0.68 0 0 Z " fill="#D5E020" transform="translate(380,337)"/>
<path d="M0 0 C0.33 0.66 0.66 1.32 1 2 C1.99 2.33 2.98 2.66 4 3 C2 6 2 6 -0.125 6.6875 C-0.74375 6.790625 -1.3625 6.89375 -2 7 C-2.33 5.35 -2.66 3.7 -3 2 C-2.01 1.34 -1.02 0.68 0 0 Z " fill="#B1C1DC" transform="translate(288,325)"/>
<path d="M0 0 C4.10958767 1.45044271 7.43258745 3.51110752 11 6 C10.01 6.495 10.01 6.495 9 7 C7.65753688 6.35191436 6.32567199 5.68177416 5 5 C3.34259285 4.62331656 1.67654729 4.27942455 0 4 C0 2.68 0 1.36 0 0 Z " fill="#2C9D2B" transform="translate(104,323)"/>
<path d="M0 0 C0.66 0 1.32 0 2 0 C2 0.66 2 1.32 2 2 C2.99 2.33 3.98 2.66 5 3 C3.6875 5 3.6875 5 2 7 C1.01 7 0.02 7 -1 7 C-1.33 5.68 -1.66 4.36 -2 3 C-1.34 3 -0.68 3 0 3 C0 2.01 0 1.02 0 0 Z " fill="#D9E1F2" transform="translate(167,233)"/>
<path d="M0 0 C2.0625 0.4375 2.0625 0.4375 4 1 C3.67 2.32 3.34 3.64 3 5 C1.68 5.33 0.36 5.66 -1 6 C-1.042721 4.33388095 -1.04063832 2.66617115 -1 1 C-0.67 0.67 -0.34 0.34 0 0 Z " fill="#DAFCEC" transform="translate(282,231)"/>
<path d="M0 0 C5.61 0 11.22 0 17 0 C17 0.33 17 0.66 17 1 C5.47835991 3.66514806 5.47835991 3.66514806 0 1 C0 0.67 0 0.34 0 0 Z " fill="#F4FEFE" transform="translate(176,211)"/>
<path d="M0 0 C9.59453303 5.0022779 9.59453303 5.0022779 13 9 C11.32986582 8.34206835 9.6642135 7.67276716 8 7 C6.14375 6.319375 6.14375 6.319375 4.25 5.625 C1 4 1 4 0.296875 1.8984375 C0.19890625 1.27195312 0.1009375 0.64546875 0 0 Z " fill="#359C21" transform="translate(8,261)"/>
<path d="M0 0 C1.32 0.66 2.64 1.32 4 2 C3.67 3.65 3.34 5.3 3 7 C1.68 6.67 0.36 6.34 -1 6 C-1.33 4.68 -1.66 3.36 -2 2 C-1.34 2 -0.68 2 0 2 C0 1.34 0 0.68 0 0 Z " fill="#BBC5E0" transform="translate(214,257)"/>
<path d="M0 0 C2.31 0.33 4.62 0.66 7 1 C7.33 2.98 7.66 4.96 8 7 C6.68 7.33 5.36 7.66 4 8 C4.66 7.01 5.32 6.02 6 5 C5.01 4.360625 4.02 3.72125 3 3.0625 C2.01 2.381875 1.02 1.70125 0 1 C0 0.67 0 0.34 0 0 Z " fill="#2A9B2A" transform="translate(504,251)"/>
<path d="M0 0 C3.465 1.485 3.465 1.485 7 3 C6.67 4.32 6.34 5.64 6 7 C3.36 5.68 0.72 4.36 -2 3 C-1.34 2.67 -0.68 2.34 0 2 C0 1.34 0 0.68 0 0 Z " fill="#D3ECE7" transform="translate(319,242)"/>
<path d="M0 0 C1.10176129 3.35216734 0.89303058 5.75121078 0.1875 9.1875 C0.01605469 10.06792969 -0.15539062 10.94835937 -0.33203125 11.85546875 C-0.55246094 12.56316406 -0.77289063 13.27085937 -1 14 C-1.99 14.495 -1.99 14.495 -3 15 C-3.42589023 9.46342706 -1.905247 5.10334017 0 0 Z " fill="#E5D530" transform="translate(150,230)"/>
<path d="M0 0 C4.455 1.98 4.455 1.98 9 4 C8.01 4.99 7.02 5.98 6 7 C3.5625 5.75 3.5625 5.75 1 4 C0.67 2.68 0.34 1.36 0 0 Z " fill="#D5ECEB" transform="translate(306,235)"/>
<path d="M0 0 C1.65 0 3.3 0 5 0 C4.67 1.32 4.34 2.64 4 4 C4 3.01 4 2.02 4 1 C3.01 1 2.02 1 1 1 C1 1.99 1 2.98 1 4 C-2.32534757 5.10844919 -4.62182575 4.84454356 -8 4 C-6 3 -4 2 -2 1 C-1.34 1.33 -0.68 1.66 0 2 C0 1.34 0 0.68 0 0 Z " fill="#CCEBE3" transform="translate(267,231)"/>
<path d="M0 0 C0.66 0.33 1.32 0.66 2 1 C-0.25740623 3.33524782 -2.2805761 5.18705073 -5 7 C-6.32 6.67 -7.64 6.34 -9 6 C-6.03 4.02 -3.06 2.04 0 0 Z " fill="#D6E01F" transform="translate(163,152)"/>
<path d="M0 0 C0.66 0.33 1.32 0.66 2 1 C0 4 0 4 -2.625 4.6875 C-3.40875 4.790625 -4.1925 4.89375 -5 5 C-5.33 5.99 -5.66 6.98 -6 8 C-7.32 7.67 -8.64 7.34 -10 7 C-6.7 4.69 -3.4 2.38 0 0 Z " fill="#2F9C26" transform="translate(302,389)"/>
<path d="M0 0 C-3.63 2.31 -7.26 4.62 -11 7 C-11.33 6.34 -11.66 5.68 -12 5 C-11.67 4.34 -11.34 3.68 -11 3 C-9.68 3 -8.36 3 -7 3 C-7 2.34 -7 1.68 -7 1 C-3.375 -1.125 -3.375 -1.125 0 0 Z " fill="#CADF22" transform="translate(428,310)"/>
<path d="M0 0 C2 1 2 1 3.125 3.625 C4.05654649 7.21810788 4.14783375 10.30415624 4 14 C1.01520806 9.52281208 0 5.36175907 0 0 Z " fill="#3B3E3A" transform="translate(151,278)"/>
<path d="M0 0 C2.40034102 3.60051153 4.32187705 6.96144535 3.625 11.375 C3.41875 11.91125 3.2125 12.4475 3 13 C2.67 12.01 2.34 11.02 2 10 C1.34 9.67 0.68 9.34 0 9 C0 6.03 0 3.06 0 0 Z " fill="#3D443A" transform="translate(355,215)"/>
<path d="M0 0 C4.10958767 1.45044271 7.43258745 3.51110752 11 6 C8 7 8 7 5.8125 6.0625 C5.214375 5.711875 4.61625 5.36125 4 5 C4 4.34 4 3.68 4 3 C2.68 2.67 1.36 2.34 0 2 C0 1.34 0 0.68 0 0 Z " fill="#D5E220" transform="translate(447,216)"/>
<path d="M0 0 C-3.63 2.31 -7.26 4.62 -11 7 C-11.33 6.34 -11.66 5.68 -12 5 C-8.44416617 1.04907352 -5.38741645 -1.79580548 0 0 Z " fill="#C8DE25" transform="translate(356,356)"/>
<path d="M0 0 C1.32 0.99 2.64 1.98 4 3 C3.67 3.99 3.34 4.98 3 6 C1.68 6 0.36 6 -1 6 C-1.33 4.68 -1.66 3.36 -2 2 C-1.34 2 -0.68 2 0 2 C0 1.34 0 0.68 0 0 Z " fill="#C8CDE5" transform="translate(255,270)"/>
<path d="M0 0 C0.33 2.31 0.66 4.62 1 7 C-1.475 6.01 -1.475 6.01 -4 5 C-4 4.01 -4 3.02 -4 2 C-1 0 -1 0 0 0 Z " fill="#F6FBFB" transform="translate(336,263)"/>
<path d="M0 0 C3.53372712 1.96318174 6.24479785 4.04070881 9 7 C7.02 7 5.04 7 3 7 C2.87625 6.360625 2.7525 5.72125 2.625 5.0625 C2.315625 4.0415625 2.315625 4.0415625 2 3 C1.34 2.67 0.68 2.34 0 2 C0 1.34 0 0.68 0 0 Z " fill="#373B45" transform="translate(318,169)"/>
<path d="M0 0 C0.66 0.33 1.32 0.66 2 1 C0.3125 3.5 0.3125 3.5 -2 6 C-4.75 6.3125 -4.75 6.3125 -7 6 C-4.74259377 3.66475218 -2.7194239 1.81294927 0 0 Z " fill="#289A2B" transform="translate(321,377)"/>
<path d="M0 0 C3.465 1.485 3.465 1.485 7 3 C6.34 4.32 5.68 5.64 5 7 C2.5 5.75 2.5 5.75 0 4 C0 2.68 0 1.36 0 0 Z " fill="#D9EEEB" transform="translate(336,267)"/>
<path d="M0 0 C2.31 0.66 4.62 1.32 7 2 C6.67 3.32 6.34 4.64 6 6 C4.02 5.34 2.04 4.68 0 4 C0 2.68 0 1.36 0 0 Z " fill="#E3F7F6" transform="translate(281,225)"/>
<path d="M0 0 C1.65 0 3.3 0 5 0 C5 0.99 5 1.98 5 3 C5.66 3.33 6.32 3.66 7 4 C5.824375 3.9690625 5.824375 3.9690625 4.625 3.9375 C2.01885039 3.81315937 2.01885039 3.81315937 0 5 C0 3.35 0 1.7 0 0 Z " fill="#DEF7EA" transform="translate(174,220)"/>
<path d="M0 0 C2.64 0.33 5.28 0.66 8 1 C7.01 1.33 6.02 1.66 5 2 C5.33 2.99 5.66 3.98 6 5 C3.03 4.505 3.03 4.505 0 4 C0 2.68 0 1.36 0 0 Z " fill="#D9EBEC" transform="translate(234,213)"/>
<path d="M0 0 C-1.875 3.875 -1.875 3.875 -3 5 C-4.66617115 5.04063832 -6.33388095 5.042721 -8 5 C-3.16129032 0 -3.16129032 0 0 0 Z " fill="#289B2A" transform="translate(292,397)"/>
<path d="M0 0 C3.93673644 1.31224548 6.22719294 2.91910327 9 6 C6.03 5.505 6.03 5.505 3 5 C3 4.01 3 3.02 3 2 C2.01 2 1.02 2 0 2 C0 1.34 0 0.68 0 0 Z " fill="#329E26" transform="translate(148,351)"/>
<path d="M0 0 C0.66 0 1.32 0 2 0 C2 0.66 2 1.32 2 2 C2.66 2.33 3.32 2.66 4 3 C3.01 4.485 3.01 4.485 2 6 C1.01 6 0.02 6 -1 6 C-1.33 4.68 -1.66 3.36 -2 2 C-1.34 2 -0.68 2 0 2 C0 1.34 0 0.68 0 0 Z " fill="#CDDBF3" transform="translate(328,309)"/>
<path d="M0 0 C0.33 0.66 0.66 1.32 1 2 C1.99 2.33 2.98 2.66 4 3 C3.67 3.99 3.34 4.98 3 6 C1.68 6 0.36 6 -1 6 C-1.66 4.68 -2.32 3.36 -3 2 C-2.01 2 -1.02 2 0 2 C0 1.34 0 0.68 0 0 Z " fill="#CCD9EC" transform="translate(335,300)"/>
<path d="M0 0 C0.66 0 1.32 0 2 0 C2 0.66 2 1.32 2 2 C2.66 2.33 3.32 2.66 4 3 C3.01 4.485 3.01 4.485 2 6 C1.01 6 0.02 6 -1 6 C-1.33 4.68 -1.66 3.36 -2 2 C-1.34 2 -0.68 2 0 2 C0 1.34 0 0.68 0 0 Z " fill="#CDD6EA" transform="translate(199,290)"/>
<path d="M0 0 C0.33 0.66 0.66 1.32 1 2 C1.99 2.33 2.98 2.66 4 3 C3.34 3 2.68 3 2 3 C1.67 3.99 1.34 4.98 1 6 C0.01 6 -0.98 6 -2 6 C-2.33 4.68 -2.66 3.36 -3 2 C-2.01 2 -1.02 2 0 2 C0 1.34 0 0.68 0 0 Z " fill="#CED7E8" transform="translate(268,280)"/>
<path d="M0 0 C1.98 0.66 3.96 1.32 6 2 C6.33 1.34 6.66 0.68 7 0 C7 0.99 7 1.98 7 3 C6.34 3 5.68 3 5 3 C4.67 3.66 4.34 4.32 4 5 C2.35 4.01 0.7 3.02 -1 2 C-0.67 1.34 -0.34 0.68 0 0 Z " fill="#D7EDEB" transform="translate(315,255)"/>
<path d="M0 0 C0.66 0 1.32 0 2 0 C1.67 1.32 1.34 2.64 1 4 C0.34 4 -0.32 4 -1 4 C-1 4.66 -1 5.32 -1 6 C-2.32 6.33 -3.64 6.66 -5 7 C-3.47793991 4.37098712 -2.15634036 2.15634036 0 0 Z " fill="#494E3B" transform="translate(180,179)"/>
<path d="M0 0 C-2.88087546 2.40072955 -5.56404834 4.47291037 -9 6 C-9 4.68 -9 3.36 -9 2 C-5.86501708 0.14223235 -3.62528568 -0.20140476 0 0 Z " fill="#2E9C23" transform="translate(209,123)"/>
<path d="M0 0 C2.64 0 5.28 0 8 0 C8 0.66 8 1.32 8 2 C8.99 2.33 9.98 2.66 11 3 C9 4 9 4 6.8359375 3.44140625 C6.02382812 3.15136719 5.21171875 2.86132812 4.375 2.5625 C3.55773437 2.27503906 2.74046875 1.98757813 1.8984375 1.69140625 C1.27195313 1.46324219 0.64546875 1.23507812 0 1 C0 0.67 0 0.34 0 0 Z " fill="#494F3C" transform="translate(219,357)"/>
<path d="M0 0 C1.32 0.99 2.64 1.98 4 3 C3.01 4.485 3.01 4.485 2 6 C1.01 6 0.02 6 -1 6 C-1.33 4.68 -1.66 3.36 -2 2 C-1.34 2 -0.68 2 0 2 C0 1.34 0 0.68 0 0 Z " fill="#D6DCEF" transform="translate(309,323)"/>
<path d="M0 0 C0.66 1.32 1.32 2.64 2 4 C3.65 3.67 5.3 3.34 7 3 C6.67 4.32 6.34 5.64 6 7 C1.125 6.125 1.125 6.125 0 5 C-0.04063832 3.33382885 -0.042721 1.66611905 0 0 Z " fill="#3F9463" transform="translate(279,232)"/>
<path d="M0 0 C1.32 0 2.64 0 4 0 C4 0.66 4 1.32 4 2 C5.32 2 6.64 2 8 2 C7.67 2.66 7.34 3.32 7 4 C4.69 4 2.38 4 0 4 C0 2.68 0 1.36 0 0 Z " fill="#D3EEE9" transform="translate(159,212)"/>
<path d="M0 0 C1.32 0 2.64 0 4 0 C4 0.66 4 1.32 4 2 C5.32 1.67 6.64 1.34 8 1 C8 2.32 8 3.64 8 5 C4.62496331 3.8141763 2.35277269 2.72426311 0 0 Z " fill="#2E9C29" transform="translate(344,149)"/>
<path d="M0 0 C-1.28813342 0.83878455 -2.58063256 1.67086783 -3.875 2.5 C-4.59429687 2.9640625 -5.31359375 3.428125 -6.0546875 3.90625 C-8 5 -8 5 -10 5 C-10 4.01 -10 3.02 -10 2 C-3.375 -1.125 -3.375 -1.125 0 0 Z " fill="#319A27" transform="translate(190,136)"/>
<path d="M0 0 C0.66 0.33 1.32 0.66 2 1 C-0.25 3.5625 -0.25 3.5625 -3 6 C-4.32 5.67 -5.64 5.34 -7 5 C-4.69 3.35 -2.38 1.7 0 0 Z " fill="#D5DF1E" transform="translate(202,127)"/>
<path d="M0 0 C0.66 0.33 1.32 0.66 2 1 C0.25 3.0625 0.25 3.0625 -2 5 C-4.25 4.75 -4.25 4.75 -6 4 C-4.02 2.68 -2.04 1.36 0 0 Z " fill="#2C9C2C" transform="translate(276,406)"/>
<path d="M0 0 C0.66 0.33 1.32 0.66 2 1 C1.67 1.66 1.34 2.32 1 3 C0.34 3 -0.32 3 -1 3 C-1.33 3.99 -1.66 4.98 -2 6 C-3.32 5.34 -4.64 4.68 -6 4 C-4.02 2.68 -2.04 1.36 0 0 Z " fill="#289A2B" transform="translate(420,314)"/>
<path d="M0 0 C1 2 2 4 3 6 C2.01 6.33 1.02 6.66 0 7 C-1.32 5.68 -2.64 4.36 -4 3 C-3.01 3 -2.02 3 -1 3 C-0.67 2.01 -0.34 1.02 0 0 Z " fill="#CDE9E4" transform="translate(347,272)"/>
<path d="M0 0 C0.66 0 1.32 0 2 0 C3.10844919 3.32534757 2.84454356 5.62182575 2 9 C1.34 8.67 0.68 8.34 0 8 C0 5.36 0 2.72 0 0 Z " fill="#ECFCEC" transform="translate(157,213)"/>
<path d="M0 0 C2.31 0.66 4.62 1.32 7 2 C7.33 3.32 7.66 4.64 8 6 C4.08597051 4.73058503 2.20927127 3.48832306 0 0 Z " fill="#3D443A" transform="translate(188,339)"/>
<path d="M0 0 C0.33 0.66 0.66 1.32 1 2 C-0.39789678 4.79579355 -2.2628997 5.59807058 -5 7 C-5.66 6.67 -6.32 6.34 -7 6 C-4.69 4.02 -2.38 2.04 0 0 Z " fill="#D8C734" transform="translate(329,335)"/>
<path d="M0 0 C1.65 0 3.3 0 5 0 C4.43628586 3.26954202 3.50037734 4.82575883 1 7 C1.020625 6.21625 1.04125 5.4325 1.0625 4.625 C1.18684063 2.01885039 1.18684063 2.01885039 0 0 Z " fill="#DEF8EB" transform="translate(179,213)"/>
<path d="M0 0 C2.97 0.495 2.97 0.495 6 1 C4.35 2.32 2.7 3.64 1 5 C0.34 4.01 -0.32 3.02 -1 2 C-0.67 1.34 -0.34 0.68 0 0 Z " fill="#219A33" transform="translate(115,178)"/>
<path d="M0 0 C3.37503669 1.1858237 5.64722731 2.27573689 8 5 C5.03 4.505 5.03 4.505 2 4 C2 3.34 2 2.68 2 2 C1.34 2 0.68 2 0 2 C0 1.34 0 0.68 0 0 Z " fill="#CCE120" transform="translate(367,165)"/>
<path d="M0 0 C2.31 0 4.62 0 7 0 C7.33 1.65 7.66 3.3 8 5 C4.62496331 3.8141763 2.35277269 2.72426311 0 0 Z " fill="#359D25" transform="translate(336,144)"/>
</svg>
