<?xml version="1.0" encoding="UTF-8"?>
<svg version="1.1" xmlns="http://www.w3.org/2000/svg" width="512" height="512">
<path d="M0 0 C1.01790619 0.00215515 2.03581238 0.0043103 3.08456421 0.00653076 C17.69363523 0.05620146 32.02575853 0.30709809 46.375 3.3125 C47.34985352 3.51117676 48.32470703 3.70985352 49.32910156 3.91455078 C97.7109774 14.03517194 141.69928269 35.9516877 177.375 70.3125 C178.3640332 71.26068604 178.3640332 71.26068604 179.37304688 72.22802734 C188.86130305 81.37247479 197.6012044 90.66984009 205.375 101.3125 C206.23306152 102.46355017 207.09113451 103.61459177 207.94921875 104.765625 C213.98736829 112.95680614 219.34595521 121.47054105 224.375 130.3125 C224.73948242 130.94430176 225.10396484 131.57610352 225.47949219 132.22705078 C247.00981855 169.84336237 256.83759735 212.56515288 256.75 255.625 C256.74918427 257.13927582 256.74918427 257.13927582 256.74835205 258.68414307 C256.70758601 275.19373539 255.80029309 291.11032001 252.375 307.3125 C252.15537598 308.35438477 251.93575195 309.39626953 251.70947266 310.46972656 C241.61185215 356.76299311 219.25271242 399.17663721 186.375 433.3125 C185.74287598 433.97185547 185.11075195 434.63121094 184.45947266 435.31054688 C175.31502521 444.79880305 166.01765991 453.5387044 155.375 461.3125 C154.22394983 462.17056152 153.07290823 463.02863451 151.921875 463.88671875 C143.73224019 469.92427396 135.22961724 475.30707302 126.375 480.3125 C125.66778809 480.7146875 124.96057617 481.116875 124.23193359 481.53125 C98.08439144 496.25254051 69.06333558 505.95171333 39.375 510.3125 C38.17037109 510.48982666 36.96574219 510.66715332 35.72460938 510.84985352 C24.06732646 512.448825 12.50313902 512.6709053 0.75 512.625 C-0.70483292 512.62226578 -0.70483292 512.62226578 -2.1890564 512.61947632 C-16.54056055 512.57408309 -30.50442918 512.0687347 -44.625 509.3125 C-45.52202637 509.15152832 -46.41905273 508.99055664 -47.34326172 508.82470703 C-90.94811969 500.93444853 -132.08490471 481.24485057 -165.625 452.3125 C-166.37007813 451.67828125 -167.11515625 451.0440625 -167.8828125 450.390625 C-181.38779833 438.57948485 -194.05918743 425.82889772 -204.625 411.3125 C-205.48149066 410.16255169 -206.33826433 409.01281411 -207.1953125 407.86328125 C-213.23534209 399.67315742 -218.61867614 391.16870382 -223.625 382.3125 C-224.0271875 381.60528809 -224.429375 380.89807617 -224.84375 380.16943359 C-239.59720851 353.96475553 -249.12670334 325.02703614 -253.625 295.3125 C-253.80232666 294.19367432 -253.97965332 293.07484863 -254.16235352 291.92211914 C-255.84376341 280.20014053 -255.98234341 268.57751024 -255.9375 256.75 C-255.93426727 255.21939438 -255.93426727 255.21939438 -255.93096924 253.65786743 C-255.88133352 239.03039476 -255.63419712 224.67986162 -252.625 210.3125 C-252.42632324 209.33764648 -252.22764648 208.36279297 -252.02294922 207.35839844 C-241.90232806 158.9765226 -219.9858123 114.98821731 -185.625 79.3125 C-184.99287598 78.65314453 -184.36075195 77.99378906 -183.70947266 77.31445312 C-174.56502521 67.82619695 -165.26765991 59.0862956 -154.625 51.3125 C-153.47394983 50.45443848 -152.32290823 49.59636549 -151.171875 48.73828125 C-142.98224019 42.70072604 -134.47961724 37.31792698 -125.625 32.3125 C-124.91778809 31.9103125 -124.21057617 31.508125 -123.48193359 31.09375 C-100.34654164 18.0683259 -75.17537591 9.31948539 -49.1875 4 C-48.46860596 3.85264404 -47.74971191 3.70528809 -47.0090332 3.5534668 C-31.36274391 0.57960912 -15.88931954 -0.06050362 0 0 Z " fill="#FFDA44" transform="translate(255.625,-0.3125)"/>
<path d="M0 0 C168.96 0 337.92 0 512 0 C512 26.77715434 512 26.77715434 510.375 36.9375 C510.19751221 38.10152344 510.02002441 39.26554687 509.8371582 40.46484375 C501.60319976 91.88778317 478.13254513 139.48474993 442 177 C441.36787598 177.65935547 440.73575195 178.31871094 440.08447266 178.99804688 C430.94002521 188.48630305 421.64265991 197.2262044 411 205 C409.84894983 205.85806152 408.69790823 206.71613451 407.546875 207.57421875 C399.35724019 213.61177396 390.85461724 218.99457302 382 224 C380.93918213 224.60328125 380.93918213 224.60328125 379.85693359 225.21875 C353.70939144 239.94004051 324.68833558 249.63921333 295 254 C293.79537109 254.17732666 292.59074219 254.35465332 291.34960938 254.53735352 C279.69232646 256.136325 268.12813902 256.3584053 256.375 256.3125 C254.92016708 256.30976578 254.92016708 256.30976578 253.4359436 256.30697632 C239.08443945 256.26158309 225.12057082 255.7562347 211 253 C210.10297363 252.83902832 209.20594727 252.67805664 208.28173828 252.51220703 C164.67688031 244.62194853 123.54009529 224.93235057 90 196 C89.25492187 195.36578125 88.50984375 194.7315625 87.7421875 194.078125 C74.23720167 182.26698485 61.56581257 169.51639772 51 155 C50.14350934 153.85005169 49.28673567 152.70031411 48.4296875 151.55078125 C42.38965791 143.36065742 37.00632386 134.85620382 32 126 C31.5978125 125.29278809 31.195625 124.58557617 30.78125 123.85693359 C15.96245385 97.53620465 6.78183353 68.76332889 2 39 C1.88285645 38.31067383 1.76571289 37.62134766 1.64501953 36.91113281 C-0.43463894 24.47026355 0 12.83180775 0 0 Z " fill="#0051B3" transform="translate(0,256)"/>
<path d="M0 0 C146.52 0 293.04 0 444 0 C442.60800903 3.47997743 441.55461058 5.92568074 439.56640625 8.93359375 C439.0880835 9.65788574 438.60976074 10.38217773 438.11694336 11.12841797 C437.60397705 11.89041504 437.09101074 12.65241211 436.5625 13.4375 C436.02826416 14.2330127 435.49402832 15.02852539 434.94360352 15.84814453 C426.88414878 27.71910176 417.95532564 38.66370817 408 49 C407.36787598 49.65935547 406.73575195 50.31871094 406.08447266 50.99804688 C396.94002521 60.48630305 387.64265991 69.2262044 377 77 C375.84894983 77.85806152 374.69790823 78.71613451 373.546875 79.57421875 C365.35724019 85.61177396 356.85461724 90.99457302 348 96 C346.93918213 96.60328125 346.93918213 96.60328125 345.85693359 97.21875 C319.70939144 111.94004051 290.68833558 121.63921333 261 126 C259.79537109 126.17732666 258.59074219 126.35465332 257.34960938 126.53735352 C245.69232646 128.136325 234.12813902 128.3584053 222.375 128.3125 C221.40511139 128.31067719 220.43522278 128.30885437 219.4359436 128.30697632 C205.08443945 128.26158309 191.12057082 127.7562347 177 125 C176.10297363 124.83902832 175.20594727 124.67805664 174.28173828 124.51220703 C130.67688031 116.62194853 89.54009529 96.93235057 56 68 C54.88238281 67.04867187 54.88238281 67.04867187 53.7421875 66.078125 C40.24359278 54.27257436 27.54018096 41.52824468 17 27 C16.3512793 26.11852295 16.3512793 26.11852295 15.68945312 25.21923828 C0 3.87950854 0 3.87950854 0 0 Z " fill="#D80026" transform="translate(34,384)"/>
</svg>
