<svg width="26" height="25" viewBox="0 0 26 25" fill="none" xmlns="http://www.w3.org/2000/svg">
<g clip-path="url(#clip0_2481_14249)">
<path d="M2.15699 0.45476C1.65145 0.615395 1.27821 0.936668 1.06088 1.40441L0.928589 1.68788V12.4836V23.2793L1.06088 23.5628C1.23096 23.9313 1.55224 24.2526 1.91603 24.4227L2.20423 24.555L10.3022 24.5692L18.4002 24.5786L18.6081 24.4794C18.7356 24.418 18.8679 24.3046 18.9435 24.1865L19.0711 23.9928L19.0853 21.6068L19.0947 19.2162L20.3326 16.7594C21.4948 14.4491 21.5657 14.2931 21.5043 14.1845C21.3814 13.9577 21.1452 13.8774 20.9704 14.0049C20.9279 14.038 20.3845 15.068 19.7703 16.2916L18.6459 18.5169L18.3955 18.2949C18.0978 18.0256 17.7151 17.8319 17.3561 17.7657C17.2096 17.7374 17.0584 17.709 17.0253 17.6996C16.9875 17.6901 17.6443 16.3342 18.8868 13.8679C19.9451 11.7655 20.8145 10.0457 20.8192 10.0363C20.8286 10.0268 20.9137 10.0693 21.0129 10.1213C21.1074 10.178 21.4854 10.3717 21.8397 10.5512L22.4964 10.8772L22.1704 11.534C21.9578 11.9639 21.8539 12.2285 21.8681 12.2946C21.9011 12.4269 22.1043 12.5781 22.2413 12.5781C22.4161 12.5781 22.5153 12.4411 22.8697 11.7418L23.1957 11.0899L23.4225 11.0284C23.876 10.9056 24.2256 10.4095 24.1926 9.9276C24.1784 9.76224 24.1973 9.72917 24.3154 9.65357C24.7926 9.36065 24.9579 8.72755 24.6886 8.23147L24.5658 8.00941L24.8115 7.52277C25.0997 6.9511 25.1469 6.66762 25.0288 6.31327C24.9107 5.94475 24.7217 5.76522 24.2115 5.50064C23.6587 5.21716 23.4083 5.16992 23.0539 5.27386C22.6571 5.38725 22.4208 5.62821 22.1468 6.19043L21.9153 6.6629L21.6791 6.68652C21.0932 6.75739 20.6255 7.33851 20.7294 7.87712C20.7483 7.98579 20.7389 8.04248 20.7058 8.04248C20.6066 8.04248 20.2617 8.39683 20.1766 8.58581C20.068 8.82204 20.0633 9.13387 20.1625 9.41734L20.2428 9.63467L19.6806 10.7402L19.1183 11.8458L19.0947 6.43611C19.0711 0.520903 19.09 0.903597 18.8018 0.639019C18.5183 0.374441 19.038 0.388615 10.3447 0.393339C4.02321 0.393339 2.30817 0.407513 2.15699 0.45476ZM3.40901 3.96514V6.83298L3.51295 6.94165C3.64996 7.08811 3.85312 7.08339 3.99958 6.9322L4.1177 6.81881V3.95569V1.09731H11.1952C16.6379 1.09731 18.2868 1.11148 18.3293 1.154C18.3718 1.19652 18.386 2.61863 18.386 7.25347V13.2962L17.186 15.6869L15.9812 18.0823L15.967 19.6508L15.9528 21.2147L16.0662 21.3375C16.1324 21.4084 16.2316 21.4604 16.3025 21.4604C16.3875 21.4604 16.7277 21.2241 17.3939 20.7092L18.3624 19.9627L18.3766 21.8525C18.3813 23.2085 18.3718 23.7613 18.334 23.8038C18.2868 23.8605 17.1293 23.8699 11.1999 23.8699H4.1177V16.1688V8.46297L3.99958 8.34958C3.93816 8.28344 3.8295 8.23147 3.76335 8.23147C3.69721 8.23147 3.58854 8.28344 3.52712 8.34958L3.40901 8.46297V16.1688V23.8699H2.95072C2.69559 23.8699 2.40267 23.8463 2.29873 23.818C2.05305 23.7471 1.7365 23.4305 1.66563 23.1849C1.62783 23.0478 1.61366 20.0288 1.61366 12.4458C1.61366 0.870523 1.59476 1.72568 1.88768 1.40913C2.11447 1.16817 2.33652 1.09731 2.90348 1.09731H3.40901V3.96514ZM23.8004 6.07704C24.1689 6.25185 24.3863 6.47391 24.3863 6.66762C24.3863 6.73849 24.2918 6.99362 24.1737 7.22985L23.9611 7.66451L23.2524 7.31017L22.5437 6.95582L22.7516 6.54006C23.0917 5.86444 23.2287 5.80302 23.8004 6.07704ZM22.9075 7.91964C23.5028 8.21257 24.0178 8.49132 24.0508 8.53384C24.2162 8.73227 24.0603 9.08189 23.8051 9.08189C23.6587 9.08189 21.6365 8.05193 21.5137 7.91492C21.4334 7.82515 21.4098 7.759 21.4334 7.66924C21.4665 7.52277 21.6224 7.38103 21.7405 7.38103C21.7877 7.38103 22.3122 7.62199 22.9075 7.91964ZM22.2271 9.18111C22.8035 9.46931 23.3232 9.74806 23.3847 9.80476C23.5878 9.99374 23.4555 10.3575 23.1815 10.3575C23.0587 10.3575 21.0271 9.36537 20.8806 9.23308C20.7578 9.12914 20.7767 8.91181 20.9137 8.7748C20.9751 8.70865 21.0601 8.65668 21.1027 8.65668C21.1405 8.65668 21.646 8.89291 22.2271 9.18111ZM17.408 18.5122C17.6395 18.5925 17.9655 18.8288 18.1025 19.0177L18.2112 19.1642L18.0317 19.3201C17.9325 19.4052 17.8285 19.476 17.7954 19.476C17.7671 19.476 17.6821 19.4146 17.6112 19.339C17.4647 19.1878 17.1387 19.0319 16.8647 18.98L16.6852 18.9469V18.7012C16.6852 18.5642 16.6993 18.4366 16.7182 18.4177C16.7655 18.3752 17.1718 18.4319 17.408 18.5122ZM17.0348 19.802C17.1104 19.8446 17.1812 19.9013 17.186 19.9249C17.2001 19.9627 16.8411 20.2698 16.723 20.317C16.6993 20.3265 16.6852 20.18 16.6852 19.9957C16.6852 19.6697 16.6899 19.6603 16.7938 19.6886C16.8505 19.7075 16.9592 19.7595 17.0348 19.802Z" fill="#00967F"/>
<path d="M7.00921 4.70223L6.90527 4.8109V7.86772C6.90527 10.8631 6.90527 10.9245 6.99977 11.019C7.09426 11.1135 7.15568 11.1135 11.1952 11.1135C15.1119 11.1135 15.3056 11.1088 15.3765 11.0285C15.4474 10.9482 15.4568 10.66 15.4568 7.86299C15.4568 4.84397 15.4568 4.78255 15.3623 4.68806C15.2678 4.59356 15.2064 4.59356 11.1905 4.59356H7.10843L7.00921 4.70223ZM14.7481 7.85354V10.4048H11.181H7.61396V7.85354V5.30226H11.181H14.7481V7.85354Z" fill="#00967F"/>
<path d="M8.96984 6.7574C8.85645 6.88496 8.8659 7.15899 8.98874 7.26765C9.08323 7.3527 9.19189 7.35742 11.1904 7.35742H13.2929L13.4062 7.22513C13.5433 7.0645 13.548 6.96055 13.4204 6.79519L13.3259 6.67235H11.1857C9.17299 6.67235 9.04071 6.67708 8.96984 6.7574Z" fill="#00967F"/>
<path d="M8.96984 8.45832C8.85645 8.58589 8.8659 8.85992 8.98874 8.96858C9.08323 9.05362 9.19189 9.05835 11.1904 9.05835H13.2929L13.4062 8.92606C13.5433 8.76542 13.548 8.66148 13.4204 8.49612L13.3259 8.37328H11.1857C9.17299 8.37328 9.04071 8.37801 8.96984 8.45832Z" fill="#00967F"/>
</g>
<defs>
<clipPath id="clip0_2481_14249">
<rect width="24.19" height="24.19" fill="white" transform="translate(0.905029 0.388916)"/>
</clipPath>
</defs>
</svg>
