<svg width="30" height="32" viewBox="0 0 30 32" fill="none" xmlns="http://www.w3.org/2000/svg">
<g clip-path="url(#clip0_2481_14175)">
<g clip-path="url(#clip1_2481_14175)">
<path d="M22.8622 16.7773C22.9043 21.4597 26.8374 23.0178 26.881 23.0377C26.8477 23.1476 26.2525 25.2583 24.8088 27.4384C23.5608 29.3233 22.2655 31.2012 20.2251 31.2401C18.2202 31.2783 17.5755 30.0116 15.2833 30.0116C12.9918 30.0116 12.2755 31.2012 10.3776 31.2783C8.4081 31.3553 6.90832 29.2401 5.64994 27.3621C3.0786 23.5207 1.11356 16.5072 3.75211 11.773C5.06289 9.42195 7.40534 7.93318 9.94787 7.895C11.8819 7.85688 13.7074 9.23952 14.8897 9.23952C16.0712 9.23952 18.2896 7.57677 20.6217 7.82097C21.598 7.86296 24.3384 8.22848 26.0982 10.8901C25.9564 10.9809 22.8282 12.8627 22.8622 16.7773V16.7773ZM19.0942 5.27954C20.1398 3.97165 20.8436 2.15095 20.6516 0.339355C19.1444 0.401951 17.3219 1.3772 16.2408 2.68437C15.2719 3.84193 14.4234 5.69468 14.6523 7.47042C16.3323 7.60473 18.0485 6.58827 19.0942 5.27955" fill="white"/>
</g>
</g>
<defs>
<clipPath id="clip0_2481_14175">
<rect width="30" height="31" fill="white" transform="translate(0 0.339355)"/>
</clipPath>
<clipPath id="clip1_2481_14175">
<rect width="24.381" height="31" fill="white" transform="translate(2.5 0.339355)"/>
</clipPath>
</defs>
</svg>
