<svg width="25" height="31" viewBox="0 0 25 31" fill="none" xmlns="http://www.w3.org/2000/svg">
<g clip-path="url(#clip0_2481_15814)">
<path d="M20.8622 16.438C20.9043 21.1203 24.8374 22.6785 24.881 22.6984C24.8477 22.8083 24.2525 24.9189 22.8088 27.0991C21.5608 28.9839 20.2655 30.8619 18.2251 30.9008C16.2202 30.9389 15.5755 29.6722 13.2833 29.6722C10.9918 29.6722 10.2755 30.8619 8.37763 30.9389C6.4081 31.0159 4.90832 28.9007 3.64994 27.0228C1.0786 23.1814 -0.88644 16.1679 1.75211 11.4336C3.06289 9.0826 5.40534 7.59382 7.94787 7.55564C9.8819 7.51752 11.7074 8.90017 12.8897 8.90017C14.0712 8.90017 16.2896 7.23742 18.6217 7.48161C19.598 7.5236 22.3384 7.88912 24.0982 10.5508C23.9564 10.6416 20.8282 12.5234 20.8622 16.438V16.438ZM17.0942 4.94019C18.1398 3.6323 18.8436 1.81159 18.6516 0C17.1444 0.0625954 15.3219 1.03784 14.2408 2.34501C13.2719 3.50257 12.4234 5.35533 12.6523 7.13106C14.3323 7.26537 16.0485 6.24891 17.0942 4.94019" fill="black"/>
</g>
<defs>
<clipPath id="clip0_2481_15814">
<rect width="24.381" height="31" fill="white" transform="translate(0.5)"/>
</clipPath>
</defs>
</svg>
