<svg width="18" height="18" viewBox="0 0 18 18" fill="none" xmlns="http://www.w3.org/2000/svg">
<path d="M2.06261 13.9871C1.75511 13.9871 1.50011 13.7321 1.50011 13.4246V9.14961C1.46261 7.11711 2.22011 5.19711 3.63011 3.75711C5.04011 2.32461 6.93011 1.53711 8.96261 1.53711C13.1176 1.53711 16.5001 4.91961 16.5001 9.07461V13.3496C16.5001 13.6571 16.2451 13.9121 15.9376 13.9121C15.6301 13.9121 15.3751 13.6571 15.3751 13.3496V9.07461C15.3751 5.54211 12.5026 2.66211 8.96261 2.66211C7.23011 2.66211 5.62511 3.32961 4.43261 4.54461C3.23261 5.76711 2.59511 7.39461 2.62511 9.13461V13.4171C2.62511 13.7321 2.37761 13.9871 2.06261 13.9871Z" fill="#00967F"/>
<path d="M4.455 9.33789H4.3575C2.7825 9.33789 1.5 10.6204 1.5 12.1954V13.6054C1.5 15.1804 2.7825 16.4629 4.3575 16.4629H4.455C6.03 16.4629 7.3125 15.1804 7.3125 13.6054V12.1954C7.3125 10.6204 6.03 9.33789 4.455 9.33789Z" fill="#00967F"/>
<path d="M13.6425 9.33789H13.545C11.97 9.33789 10.6875 10.6204 10.6875 12.1954V13.6054C10.6875 15.1804 11.97 16.4629 13.545 16.4629H13.6425C15.2175 16.4629 16.5 15.1804 16.5 13.6054V12.1954C16.5 10.6204 15.2175 9.33789 13.6425 9.33789Z" fill="#00967F"/>
</svg>
