<svg width="16" height="16" viewBox="0 0 16 16" fill="none" xmlns="http://www.w3.org/2000/svg">
<path d="M5.33325 1.33325V3.33325" stroke="black" stroke-miterlimit="10" stroke-linecap="round" stroke-linejoin="round"/>
<path d="M10.6667 1.33325V3.33325" stroke="black" stroke-miterlimit="10" stroke-linecap="round" stroke-linejoin="round"/>
<path d="M2.33337 6.06006H13.6667" stroke="black" stroke-miterlimit="10" stroke-linecap="round" stroke-linejoin="round"/>
<path d="M12.8068 10.5134L10.4468 12.8734C10.3534 12.9667 10.2668 13.14 10.2468 13.2667L10.1201 14.1667C10.0734 14.4934 10.3001 14.72 10.6268 14.6734L11.5268 14.5467C11.6534 14.5267 11.8334 14.44 11.9201 14.3467L14.2801 11.9867C14.6868 11.58 14.8801 11.1067 14.2801 10.5067C13.6868 9.91337 13.2134 10.1067 12.8068 10.5134Z" stroke="black" stroke-miterlimit="10" stroke-linecap="round" stroke-linejoin="round"/>
<path d="M12.4668 10.8533C12.6668 11.5733 13.2268 12.1333 13.9468 12.3333" stroke="black" stroke-miterlimit="10" stroke-linecap="round" stroke-linejoin="round"/>
<path d="M8 14.6666H5.33333C3 14.6666 2 13.3333 2 11.3333V5.66659C2 3.66659 3 2.33325 5.33333 2.33325H10.6667C13 2.33325 14 3.66659 14 5.66659V7.99992" stroke="black" stroke-miterlimit="10" stroke-linecap="round" stroke-linejoin="round"/>
<path d="M7.99691 9.13338H8.0029" stroke="black" stroke-width="1.5" stroke-linecap="round" stroke-linejoin="round"/>
<path d="M5.52962 9.13338H5.53561" stroke="black" stroke-width="1.5" stroke-linecap="round" stroke-linejoin="round"/>
<path d="M5.52962 11.1334H5.53561" stroke="black" stroke-width="1.5" stroke-linecap="round" stroke-linejoin="round"/>
</svg>
