<svg width="18" height="18" viewBox="0 0 18 18" fill="none" xmlns="http://www.w3.org/2000/svg">
<path d="M12.5624 2.67V1.5C12.5624 1.1925 12.3074 0.9375 11.9999 0.9375C11.6924 0.9375 11.4374 1.1925 11.4374 1.5V2.625H6.56243V1.5C6.56243 1.1925 6.30743 0.9375 5.99993 0.9375C5.69243 0.9375 5.43743 1.1925 5.43743 1.5V2.67C3.41243 2.8575 2.42993 4.065 2.27993 5.8575C2.26493 6.075 2.44493 6.255 2.65493 6.255H15.3449C15.5624 6.255 15.7424 6.0675 15.7199 5.8575C15.5699 4.065 14.5874 2.8575 12.5624 2.67Z" fill="#00967F"/>
<path d="M15 7.37988H3C2.5875 7.37988 2.25 7.71738 2.25 8.12988V12.7499C2.25 14.9999 3.375 16.4999 6 16.4999H9.6975C10.215 16.4999 10.575 15.9974 10.41 15.5099C10.26 15.0749 10.1325 14.5949 10.1325 14.2499C10.1325 11.9774 11.985 10.1249 14.2575 10.1249C14.475 10.1249 14.6925 10.1399 14.9025 10.1774C15.3525 10.2449 15.7575 9.89238 15.7575 9.44238V8.13738C15.75 7.71738 15.4125 7.37988 15 7.37988ZM6.9075 13.2824C6.8325 13.3499 6.75 13.4024 6.66 13.4399C6.57 13.4774 6.4725 13.4999 6.375 13.4999C6.2775 13.4999 6.18 13.4774 6.09 13.4399C6 13.4024 5.9175 13.3499 5.8425 13.2824C5.7075 13.1399 5.625 12.9449 5.625 12.7499C5.625 12.7049 5.6325 12.6524 5.64 12.6074C5.6475 12.5549 5.6625 12.5099 5.685 12.4649C5.7 12.4199 5.7225 12.3749 5.7525 12.3299C5.775 12.2924 5.8125 12.2549 5.8425 12.2174C5.9175 12.1499 6 12.0974 6.09 12.0599C6.27 11.9849 6.48 11.9849 6.66 12.0599C6.75 12.0974 6.8325 12.1499 6.9075 12.2174C6.9375 12.2549 6.975 12.2924 6.9975 12.3299C7.0275 12.3749 7.05 12.4199 7.065 12.4649C7.0875 12.5099 7.1025 12.5549 7.11 12.6074C7.1175 12.6524 7.125 12.7049 7.125 12.7499C7.125 12.9449 7.0425 13.1399 6.9075 13.2824ZM6.9075 10.6574C6.8325 10.7249 6.75 10.7774 6.66 10.8149C6.57 10.8524 6.4725 10.8749 6.375 10.8749C6.2775 10.8749 6.18 10.8524 6.09 10.8149C5.9925 10.7774 5.9175 10.7249 5.8425 10.6574C5.7075 10.5149 5.625 10.3199 5.625 10.1249C5.625 9.92988 5.7075 9.73488 5.8425 9.59238C5.9175 9.52488 6 9.47238 6.09 9.43488C6.27 9.35988 6.48 9.35988 6.66 9.43488C6.75 9.47238 6.8325 9.52488 6.9075 9.59238C6.9375 9.62988 6.975 9.66738 6.9975 9.70488C7.0275 9.74988 7.05 9.79488 7.065 9.83988C7.0875 9.88488 7.1025 9.92988 7.11 9.97488C7.1175 10.0274 7.125 10.0799 7.125 10.1249C7.125 10.3199 7.0425 10.5149 6.9075 10.6574ZM9.5325 10.6574C9.39 10.7924 9.2025 10.8749 9 10.8749C8.9025 10.8749 8.805 10.8524 8.715 10.8149C8.6175 10.7774 8.5425 10.7249 8.4675 10.6574C8.3325 10.5149 8.25 10.3199 8.25 10.1249C8.25 10.0799 8.2575 10.0274 8.265 9.97488C8.2725 9.92988 8.2875 9.88488 8.31 9.83988C8.325 9.79488 8.3475 9.74988 8.3775 9.70488C8.4075 9.66738 8.4375 9.62988 8.4675 9.59238C8.745 9.31488 9.2475 9.31488 9.5325 9.59238C9.5625 9.62988 9.5925 9.66738 9.6225 9.70488C9.6525 9.74988 9.675 9.79488 9.69 9.83988C9.7125 9.88488 9.7275 9.92988 9.735 9.97488C9.7425 10.0274 9.75 10.0799 9.75 10.1249C9.75 10.3199 9.6675 10.5149 9.5325 10.6574Z" fill="#00967F"/>
<path d="M16.3725 12.1275C15.2025 10.9575 13.2975 10.9575 12.1275 12.1275C10.9575 13.2975 10.9575 15.2025 12.1275 16.3725C13.2975 17.5425 15.2025 17.5425 16.3725 16.3725C17.5425 15.2025 17.5425 13.2975 16.3725 12.1275ZM15.8025 14.67C15.705 14.775 15.5625 14.835 15.405 14.835H14.85V15.42C14.85 15.5775 14.79 15.7125 14.685 15.8175C14.58 15.9225 14.445 15.9825 14.2875 15.9825C13.98 15.9825 13.725 15.7275 13.725 15.42V14.835H13.1625C12.855 14.835 12.6 14.5875 12.6 14.2725C12.6 13.965 12.855 13.71 13.1625 13.71H13.725V13.1775C13.725 12.87 13.9725 12.615 14.2875 12.615C14.595 12.615 14.85 12.87 14.85 13.1775V13.71H15.405C15.72 13.71 15.9675 13.965 15.9675 14.2725C15.9675 14.43 15.9075 14.5725 15.8025 14.67Z" fill="#00967F"/>
</svg>
