<svg width="17" height="17" viewBox="0 0 17 17" fill="none" xmlns="http://www.w3.org/2000/svg">
<path d="M5.8335 1.83301V3.83301" stroke="white" stroke-width="1.5" stroke-miterlimit="10" stroke-linecap="round" stroke-linejoin="round"/>
<path d="M11.1665 1.83301V3.83301" stroke="white" stroke-width="1.5" stroke-miterlimit="10" stroke-linecap="round" stroke-linejoin="round"/>
<path d="M11.1667 2.83301C13.3867 2.95301 14.5 3.79967 14.5 6.93301V11.053C14.5 13.7997 13.8333 15.173 10.5 15.173H6.5C3.16667 15.173 2.5 13.7997 2.5 11.053V6.93301C2.5 3.79967 3.61333 2.95967 5.83333 2.83301H11.1667Z" stroke="white" stroke-width="1.5" stroke-miterlimit="10" stroke-linecap="round" stroke-linejoin="round"/>
<path d="M14.3332 12.2334H2.6665" stroke="white" stroke-width="1.5" stroke-miterlimit="10" stroke-linecap="round" stroke-linejoin="round"/>
<path d="M8.50016 6C7.68016 6 6.98683 6.44667 6.98683 7.31333C6.98683 7.72667 7.18016 8.04 7.4735 8.24C7.06683 8.48 6.8335 8.86667 6.8335 9.32C6.8335 10.1467 7.46683 10.66 8.50016 10.66C9.52683 10.66 10.1668 10.1467 10.1668 9.32C10.1668 8.86667 9.9335 8.47333 9.52016 8.24C9.82016 8.03333 10.0068 7.72667 10.0068 7.31333C10.0068 6.44667 9.32016 6 8.50016 6ZM8.50016 7.89333C8.1535 7.89333 7.90016 7.68667 7.90016 7.36C7.90016 7.02667 8.1535 6.83333 8.50016 6.83333C8.84683 6.83333 9.10016 7.02667 9.10016 7.36C9.10016 7.68667 8.84683 7.89333 8.50016 7.89333ZM8.50016 9.83333C8.06016 9.83333 7.74016 9.61333 7.74016 9.21333C7.74016 8.81333 8.06016 8.6 8.50016 8.6C8.94016 8.6 9.26016 8.82 9.26016 9.21333C9.26016 9.61333 8.94016 9.83333 8.50016 9.83333Z" fill="white"/>
</svg>
