<svg width="19" height="18" viewBox="0 0 19 18" fill="none" xmlns="http://www.w3.org/2000/svg">
<path d="M6.6875 4.3125C6.38 4.3125 6.125 4.0575 6.125 3.75V1.5C6.125 1.1925 6.38 0.9375 6.6875 0.9375C6.995 0.9375 7.25 1.1925 7.25 1.5V3.75C7.25 4.0575 6.995 4.3125 6.6875 4.3125Z" fill="#00967F"/>
<path d="M12.3125 4.3125C12.005 4.3125 11.75 4.0575 11.75 3.75V1.5C11.75 1.1925 12.005 0.9375 12.3125 0.9375C12.62 0.9375 12.875 1.1925 12.875 1.5V3.75C12.875 4.0575 12.62 4.3125 12.3125 4.3125Z" fill="#00967F"/>
<path d="M9.5002 10.5675C9.8902 10.5675 10.1752 10.335 10.1752 9.9675C10.1752 9.5925 9.8902 9.375 9.5002 9.375C9.1102 9.375 8.8252 9.5925 8.8252 9.9675C8.8252 10.335 9.1102 10.5675 9.5002 10.5675Z" fill="#00967F"/>
<path d="M9.50002 12.7495C9.97222 12.7495 10.355 12.4372 10.355 12.052C10.355 11.6668 9.97222 11.3545 9.50002 11.3545C9.02782 11.3545 8.64502 11.6668 8.64502 12.052C8.64502 12.4372 9.02782 12.7495 9.50002 12.7495Z" fill="#00967F"/>
<path d="M15.1775 3.375C14.6825 3.0075 13.97 3.36 13.97 3.9825V4.0575C13.97 4.935 13.34 5.745 12.4625 5.835C11.45 5.94 10.595 5.145 10.595 4.155V3.375C10.595 2.9625 10.2575 2.625 9.845 2.625H9.155C8.7425 2.625 8.405 2.9625 8.405 3.375V4.155C8.405 4.7475 8.0975 5.2725 7.6325 5.565C7.565 5.61 7.49 5.6475 7.415 5.685C7.3475 5.7225 7.2725 5.7525 7.19 5.775C7.1 5.805 7.0025 5.8275 6.8975 5.835C6.7775 5.85 6.6575 5.85 6.5375 5.835C6.4325 5.8275 6.335 5.805 6.245 5.775C6.17 5.7525 6.095 5.7225 6.02 5.685C5.945 5.6475 5.87 5.61 5.8025 5.565C5.33 5.235 5.03 4.665 5.03 4.0575V3.9825C5.03 3.405 4.415 3.06 3.9275 3.3075C3.92 3.315 3.9125 3.315 3.905 3.3225C3.875 3.3375 3.8525 3.3525 3.8225 3.375C3.8 3.3975 3.77 3.4125 3.7475 3.435C3.5375 3.6 3.35 3.7875 3.1925 3.99C3.11 4.08 3.0425 4.1775 2.9825 4.275C2.975 4.2825 2.9675 4.29 2.96 4.305C2.8925 4.4025 2.8325 4.515 2.78 4.62C2.765 4.635 2.7575 4.6425 2.7575 4.6575C2.7125 4.7475 2.6675 4.8375 2.6375 4.935C2.615 4.9725 2.6075 5.0025 2.5925 5.04C2.5475 5.1525 2.5175 5.265 2.4875 5.3775C2.4575 5.4825 2.435 5.595 2.42 5.7075C2.405 5.79 2.3975 5.8725 2.39 5.9625C2.3825 6.0675 2.375 6.1725 2.375 6.2775V12.8475C2.375 14.865 4.01 16.5 6.0275 16.5H12.9725C14.99 16.5 16.625 14.865 16.625 12.8475V6.2775C16.625 5.085 16.055 4.0425 15.1775 3.375ZM9.5 13.6875C8.3375 13.6875 7.625 13.11 7.625 12.18C7.625 11.67 7.8875 11.2275 8.345 10.965C8.015 10.7325 7.7975 10.3875 7.7975 9.915C7.7975 8.94 8.5775 8.4375 9.5 8.4375C10.4225 8.4375 11.195 8.94 11.195 9.915C11.195 10.3875 10.985 10.7325 10.6475 10.965C11.1125 11.2275 11.375 11.67 11.375 12.18C11.375 13.11 10.655 13.6875 9.5 13.6875Z" fill="#00967F"/>
</svg>
