<svg width="18" height="18" viewBox="0 0 18 18" fill="none" xmlns="http://www.w3.org/2000/svg">
<path d="M1.5 9.45752H14.25" stroke="black" stroke-width="1.125" stroke-miterlimit="10" stroke-linecap="round" stroke-linejoin="round"/>
<path d="M14.25 7.70961V13.0721C14.2275 15.2096 13.6425 15.7496 11.415 15.7496H4.33502C2.07002 15.7496 1.5 15.1871 1.5 12.9521V7.70961C1.5 5.68461 1.9725 5.03211 3.75 4.92711C3.93 4.91961 4.12502 4.91211 4.33502 4.91211H11.415C13.68 4.91211 14.25 5.47461 14.25 7.70961Z" stroke="black" stroke-width="1.125" stroke-linecap="round" stroke-linejoin="round"/>
<path d="M16.5 5.0475V10.29C16.5 12.315 16.0275 12.9675 14.25 13.0725V7.71C14.25 5.475 13.68 4.9125 11.415 4.9125H4.33502C4.12502 4.9125 3.93 4.92 3.75 4.9275C3.7725 2.79 4.35752 2.25 6.58502 2.25H13.665C15.93 2.25 16.5 2.8125 16.5 5.0475Z" stroke="black" stroke-width="1.125" stroke-linecap="round" stroke-linejoin="round"/>
<path d="M3.9375 13.3574H5.22748" stroke="black" stroke-width="1.125" stroke-miterlimit="10" stroke-linecap="round" stroke-linejoin="round"/>
<path d="M6.83252 13.3574H9.41252" stroke="black" stroke-width="1.125" stroke-miterlimit="10" stroke-linecap="round" stroke-linejoin="round"/>
</svg>
