<svg width="16" height="17" viewBox="0 0 16 17" fill="none" xmlns="http://www.w3.org/2000/svg">
<path d="M12.3333 13.3394H9.66663" stroke="white" stroke-linecap="round" stroke-linejoin="round"/>
<path d="M11 14.6726V12.006" stroke="white" stroke-linecap="round" stroke-linejoin="round"/>
<path d="M8.10661 7.58606C8.03994 7.5794 7.95994 7.5794 7.88661 7.58606C6.29994 7.53273 5.03994 6.23273 5.03994 4.63273C5.03328 2.9994 6.35994 1.67273 7.99327 1.67273C9.62661 1.67273 10.9533 2.9994 10.9533 4.63273C10.9533 6.23273 9.68661 7.53273 8.10661 7.58606Z" stroke="white" stroke-linecap="round" stroke-linejoin="round"/>
<path d="M7.99336 14.8793C6.78003 14.8793 5.57336 14.5726 4.65336 13.9593C3.04003 12.8793 3.04003 11.1193 4.65336 10.046C6.48669 8.81931 9.49336 8.81931 11.3267 10.046" stroke="white" stroke-linecap="round" stroke-linejoin="round"/>
</svg>
