<svg width="26" height="25" viewBox="0 0 26 25" fill="none" xmlns="http://www.w3.org/2000/svg">
<g clip-path="url(#clip0_2481_14236)">
<path d="M14.0631 0.455053C13.4064 0.582617 12.7591 0.866093 12.2677 1.23934C12.0929 1.37163 11.9323 1.47557 11.8992 1.47557C11.8047 1.47557 11.3559 1.69762 11.1858 1.82991C10.6897 2.20788 10.7889 2.85988 11.4409 3.50715C12.2819 4.35285 12.9953 4.25364 13.3969 3.2473C13.5245 2.93075 13.6615 2.81263 14.0773 2.65672C14.4883 2.50081 14.871 2.48191 15.145 2.60003C15.6128 2.80791 16.4112 3.73393 17.0538 4.80642C17.4365 5.44896 18.1026 6.7813 18.4334 7.57031C18.5704 7.89631 18.7216 8.19868 18.7735 8.24121C18.9861 8.43019 19.331 8.279 19.331 8.00025C19.331 7.74512 18.4428 5.79858 17.8664 4.80642C17.0396 3.36541 16.1372 2.29292 15.4946 1.97638C14.9655 1.71652 14.2096 1.77322 13.515 2.12284L13.1796 2.29292L12.9339 2.04725C12.6977 1.80629 12.6977 1.80157 12.7874 1.72597C12.9575 1.59368 13.6332 1.29131 13.945 1.20626C14.4127 1.0787 15.2064 1.0976 15.575 1.23934C17.0727 1.81574 18.6129 4.10717 20.1673 8.06639L20.5216 8.96407L20.4933 9.41291C20.4649 9.85702 20.3846 10.3862 20.3326 10.4712C20.3185 10.4948 20.2051 10.2208 20.0775 9.85702C19.95 9.49795 19.8129 9.16723 19.7704 9.11998C19.657 8.99242 19.3547 9.00659 19.2649 9.13888C19.2224 9.19558 19.1893 9.29479 19.1893 9.35149C19.1893 9.41291 19.3594 9.95624 19.5625 10.5657L19.9358 11.6665L19.7468 12.0162C19.1704 13.0839 18.2538 14.0147 17.1672 14.6336L16.775 14.8604L16.4112 14.7517C15.8348 14.5816 14.1765 13.9863 13.378 13.6651C11.4031 12.8619 9.89126 12.0681 8.81878 11.265C8.5353 11.0523 8.38411 10.972 8.28017 10.972C8.02977 10.972 7.87858 11.213 7.97307 11.4634C8.00142 11.5437 8.66759 12.054 9.12587 12.3516C10.4866 13.2351 13.0945 14.4115 15.282 15.1297C15.4616 15.1864 15.5939 15.2431 15.5844 15.2525C15.5466 15.295 14.8568 15.4037 14.4647 15.4321L14.0631 15.4651L13.2599 15.1533C9.49912 13.6981 7.05177 12.0965 6.37615 10.6649C6.13047 10.131 6.12102 9.31369 6.36198 8.61445C6.48009 8.2601 6.78719 7.6648 6.84861 7.6648C6.86751 7.6648 6.99035 7.76874 7.11319 7.89631L7.3447 8.13254L7.19823 8.43019C6.9809 8.87903 6.89114 9.24282 6.89586 9.67276C6.90058 10.4712 7.27855 10.9342 7.63762 10.5704C7.77464 10.4381 7.78409 10.3673 7.68014 10.131C7.57148 9.88064 7.58093 9.43653 7.70377 9.06801C7.85968 8.60972 7.97307 8.46799 8.28017 8.34515C8.63924 8.20813 8.96524 7.97663 9.06446 7.79237C9.27234 7.40022 9.09753 6.89469 8.58255 6.37498C8.05811 5.84583 7.53368 5.67102 7.15099 5.89308C6.96673 6.00647 6.7116 6.37026 6.59348 6.69626C6.54624 6.82382 6.4234 7.03643 6.32418 7.16399C6.05488 7.50889 5.69581 8.28845 5.57769 8.77509C5.45485 9.29479 5.4454 10.0507 5.5588 10.4759C5.72888 11.1185 6.10213 11.6807 6.80137 12.3469C8.66759 14.1233 12.3433 15.8242 17.564 17.3219C19.0192 17.7424 19.4728 17.818 20.0539 17.7329C20.2712 17.7046 20.5831 17.6337 20.7484 17.5818L21.0413 17.4778L21.3721 17.8038C22.0902 18.5172 22.2839 19.4527 21.8776 20.2748C21.4996 21.0402 20.7484 21.4607 19.8744 21.3992C18.7877 21.3189 17.8995 20.8559 15.3813 19.0606C13.3261 17.6007 12.3622 17.0857 11.1338 16.8022C10.5811 16.6746 9.52747 16.6841 9.00776 16.8258C8.55892 16.9439 7.75101 17.3219 7.60928 17.4778C7.40139 17.6951 7.53368 18.0589 7.82661 18.0589C7.8833 18.0589 8.13371 17.955 8.37939 17.8274C9.01721 17.5062 9.38573 17.4211 10.1417 17.4211C10.6283 17.4258 10.8409 17.4447 11.1575 17.5345C12.2394 17.8227 13.1701 18.3424 15.1734 19.7834C17.3231 21.3284 18.4192 21.9048 19.52 22.0796C20.9327 22.2969 22.1894 21.5646 22.6477 20.2559C22.7564 19.9393 22.78 19.8023 22.78 19.396C22.78 18.5834 22.5532 18.0211 21.9626 17.4117L21.6792 17.114L21.9107 16.8589C22.0382 16.7172 22.1563 16.6038 22.1752 16.599C22.1894 16.5943 22.3642 16.7738 22.5579 16.9959C22.969 17.4684 23.2619 17.9975 23.3942 18.5125C23.5076 18.9613 23.517 19.7409 23.4178 20.185C23.3044 20.6575 22.9595 21.3095 22.6288 21.6685C21.3957 23.0151 19.6192 23.1899 17.5735 22.1646C16.8175 21.7867 16.2317 21.4087 14.7482 20.3504C14.2662 20.0055 13.6284 19.5661 13.3308 19.3677C11.3795 18.092 10.0661 17.8133 8.80933 18.4086C8.29434 18.6542 8.07701 18.8196 7.38722 19.4952L6.76357 20.1094L6.50372 19.8543L6.24386 19.5992L6.66908 19.1692C7.02815 18.8102 7.09429 18.7204 7.09429 18.5881C7.09429 18.3944 6.95256 18.2479 6.75885 18.2479C6.63128 18.2479 6.52734 18.3235 6.10685 18.7393L5.60604 19.2354L5.27532 19.1409C4.869 19.0275 4.26425 19.0228 3.86266 19.1267C2.92246 19.3677 2.11928 20.1661 1.8736 21.111C1.78383 21.4559 1.78383 22.1599 1.8736 22.5001C2.26574 23.9694 3.76344 24.8577 5.22335 24.4844C5.74778 24.3521 6.12102 24.1348 6.50372 23.7474C7.23131 23.0198 7.48644 22.0276 7.20768 21.0354L7.12264 20.7378L7.83133 20.048C8.85185 19.0558 9.24871 18.8432 10.118 18.8432C10.5102 18.8385 10.6897 18.8621 10.9685 18.9519C11.7244 19.1834 12.6126 19.7031 14.1481 20.7945C15.5277 21.7772 16.2648 22.2686 16.9026 22.6135C19.383 23.9694 21.5563 23.823 23.0918 22.2024C23.4887 21.7914 23.7674 21.3425 23.9564 20.8181C24.1596 20.2606 24.2163 19.8637 24.1879 19.1645C24.1407 18.0448 23.7911 17.2605 22.9265 16.3486L22.5532 15.9518L22.6761 15.6021C22.7894 15.2809 22.7989 15.1817 22.7989 14.5627V13.8777L22.5343 12.9564C21.1311 8.07584 19.7421 4.78752 18.1688 2.62837C17.3372 1.48502 16.4726 0.762152 15.6458 0.511747C15.2915 0.403082 14.4789 0.374735 14.0631 0.455053ZM12.4237 2.52916C12.8063 2.91185 12.8205 2.97327 12.6032 3.2473C12.4992 3.37486 12.4851 3.37959 12.3481 3.32289C12.0457 3.19533 11.5402 2.60003 11.6016 2.44411C11.6252 2.37797 11.9417 2.18898 12.0315 2.18426C12.0599 2.18426 12.2347 2.34017 12.4237 2.52916ZM8.01559 6.8191C8.35104 7.13565 8.48805 7.36715 8.40773 7.46637C8.37466 7.49944 8.27072 7.57504 8.16678 7.62701L7.9778 7.7215L7.60928 7.35298L7.24076 6.98918L7.31163 6.8191C7.41084 6.58287 7.50533 6.48838 7.62345 6.52145C7.67542 6.53562 7.85496 6.66791 8.01559 6.8191ZM21.3532 11.4917C21.7028 12.6162 22.0099 13.717 22.076 14.043C22.1563 14.4493 22.1091 15.1344 21.9768 15.4746C21.561 16.566 20.4602 17.2038 19.2932 17.0337C18.92 16.977 17.4554 16.5707 16.2884 16.2022L15.6269 15.9896L15.9104 15.914C16.0616 15.8714 16.3215 15.7817 16.4821 15.725L16.7703 15.6116L17.3089 15.7722C18.9767 16.2683 19.246 16.3345 19.6854 16.3297C20.2334 16.3297 20.5878 16.1833 20.9374 15.81C21.2587 15.4699 21.3721 15.2006 21.4004 14.6997C21.4193 14.3265 21.4004 14.2226 21.2209 13.5658C21.1122 13.1642 20.9516 12.5878 20.8571 12.2855L20.6917 11.728L20.876 11.1657C20.9752 10.8539 21.0697 10.6271 21.0839 10.6555C21.1028 10.6886 21.2209 11.0618 21.3532 11.4917ZM20.4649 13.4524C20.7059 14.2982 20.7484 14.7092 20.635 15.0116C20.4744 15.4273 19.9736 15.6966 19.4869 15.6305C19.2932 15.6069 17.7719 15.1911 17.7341 15.1533C17.7247 15.1439 17.8522 15.0494 18.0176 14.936C18.7688 14.4304 19.4728 13.7312 19.9736 13.0036C20.0964 12.8194 20.2145 12.6871 20.2287 12.706C20.2476 12.7296 20.3515 13.0603 20.4649 13.4524ZM5.40761 19.9393C6.22969 20.322 6.72577 21.2386 6.58404 22.1032C6.47537 22.7599 6.05015 23.3505 5.48793 23.634C4.10834 24.3285 2.51142 23.3505 2.51142 21.8103C2.51142 20.9079 3.03585 20.1614 3.87683 19.8685C4.13669 19.774 4.26425 19.7598 4.6375 19.774C5.02491 19.7834 5.12886 19.807 5.40761 19.9393Z" fill="#00967F"/>
</g>
<defs>
<clipPath id="clip0_2481_14236">
<rect width="24.19" height="24.19" fill="white" transform="translate(0.905029 0.388916)"/>
</clipPath>
</defs>
</svg>
