<svg width="19" height="22" viewBox="0 0 19 22" fill="none" xmlns="http://www.w3.org/2000/svg">
<path d="M18.9748 16.503V16.4889L18.97 16.4749C18.7206 15.3107 18.0441 14.461 16.9455 13.9587L16.9263 13.9541C15.3384 13.4518 13.7313 12.9307 12.1482 12.4143C12.1242 12.02 12.1242 11.6257 12.1482 11.2314C13.0453 10.5977 13.6737 9.75739 14.0191 8.72935C14.2926 8.63546 14.5372 8.48994 14.7483 8.29748L14.7627 8.2834L14.7723 8.26931C15.3768 7.32577 15.2185 6.49488 14.3214 5.86586C14.4125 5.61237 14.4893 5.34949 14.5516 5.08192C14.9018 3.60323 14.5085 2.33578 13.3811 1.30774L13.3667 1.29835C12.009 0.312554 10.4595 -0.114623 8.7612 0.0262049H8.75641C7.97443 0.106007 7.21645 0.326637 6.49684 0.674012C5.6669 1.11058 5.10081 1.78186 4.82256 2.65499L4.81776 2.66437C4.68823 3.22299 4.58269 3.79569 4.50593 4.36839V4.38247V4.39655C4.53952 4.88945 4.62587 5.37765 4.76019 5.84708C4.49634 5.95505 4.28046 6.12873 4.12214 6.37753L4.11255 6.39631C3.86309 6.95023 3.82471 7.43843 3.98782 7.84213C4.14613 8.22706 4.50114 8.54158 5.03844 8.7669C5.37426 9.78556 5.99792 10.6117 6.88543 11.2267C6.90942 11.6163 6.90942 12.0153 6.88543 12.4049L2.05927 13.9494L2.04008 13.9587C0.9127 14.508 0.231473 15.4046 0.0251862 16.6251V16.6439C-0.00839541 18.1883 -0.00839541 19.7515 0.0251862 21.2959V21.3146L0.0299835 21.3334C0.130728 21.6526 0.351408 21.8639 0.677629 21.9671L0.696819 21.9765H0.720805C3.63281 21.9906 6.5688 22 9.5 22C12.4312 22 15.3672 21.9906 18.2792 21.9765H18.3032C18.6198 21.9249 18.8501 21.7371 18.9652 21.4414L18.9748 21.4179V21.3944C19.0084 19.7702 19.0084 18.1272 18.9748 16.503ZM14.1295 6.58877C14.5804 7.03003 14.5708 7.46659 14.1055 7.90316C14.1199 7.46659 14.1295 7.03003 14.1295 6.58877ZM4.95209 7.90316C4.50114 7.4619 4.51073 7.02534 4.97608 6.58877C4.96168 7.02534 4.95209 7.4619 4.95209 7.90316ZM5.49419 3.90366V3.88957C5.59014 2.4813 6.30495 1.59409 7.6674 1.1763C8.25748 1.012 8.85715 0.908724 9.45203 0.875865C10.6274 0.894642 11.7116 1.24202 12.6711 1.90391C13.6497 2.73479 13.9712 3.73936 13.6497 4.97395C13.5874 5.22274 13.5058 5.46684 13.3955 5.69686C11.4429 5.38704 9.64392 4.65004 8.0464 3.50934L8.02721 3.49526L8.00322 3.49056C7.94085 3.47179 7.87849 3.4624 7.81612 3.4624C7.69139 3.4624 7.57146 3.50465 7.46591 3.58445L7.43713 3.60792L7.42274 3.64078C7.04854 4.46227 6.42968 5.03497 5.58055 5.34949C5.44142 4.87067 5.41264 4.38717 5.49419 3.90366ZM5.83001 8.17543C5.75805 7.53231 5.74366 6.87981 5.77724 6.23201C6.41049 5.96443 6.99097 5.60767 7.50909 5.16172L7.52348 5.14763C7.68659 4.95986 7.83531 4.75801 7.96484 4.55146C9.18337 5.32132 10.5074 5.92219 11.9035 6.33997H11.9083C12.364 6.45264 12.8294 6.52305 13.2947 6.55122C13.3475 7.33516 13.242 8.10971 12.9829 8.8514C12.1625 10.5179 10.8385 11.2502 8.93871 11.0906C7.27882 10.7432 6.25698 9.79025 5.83001 8.17543ZM11.2079 12.6021C10.637 13.2264 10.0709 13.8461 9.5 14.4657C8.9435 13.8555 8.38701 13.2264 7.84011 12.6021C7.82092 12.3017 7.81612 11.9919 7.81612 11.6914C8.9435 12.1045 10.0853 12.1045 11.2127 11.6867C11.2319 11.9919 11.2319 12.297 11.2079 12.6021ZM18.0441 21.0846C12.3736 21.1128 6.62637 21.1128 0.955877 21.0846C0.903106 19.6341 0.898308 18.1648 0.936687 16.7096C1.12378 15.7707 1.6515 15.1229 2.5486 14.738C3.12429 14.5596 3.70477 14.3812 4.27566 14.2075C4.28525 14.846 4.27086 15.4891 4.23248 16.1275C3.39774 16.4702 3.06672 17.0945 3.24422 17.9911L3.24902 18.0052L3.25382 18.0193C3.6568 18.9347 4.3908 19.2586 5.36946 18.9675L5.38865 18.9628L5.40304 18.9534C6.30975 18.3948 6.52083 17.6109 6.00271 16.6767L5.99312 16.6626L5.98352 16.6486C5.77244 16.4185 5.51338 16.2402 5.22554 16.1275C5.18236 15.3858 5.16797 14.6347 5.18236 13.893C5.8396 13.7006 6.49684 13.4893 7.13489 13.2687C7.16368 13.2687 7.18767 13.2687 7.21165 13.2734L9.27452 15.5736L9.3177 15.583C9.58155 15.6534 9.80703 15.583 9.97014 15.3717C10.5602 14.6488 11.1887 13.9494 11.8459 13.2828C12.412 13.4471 12.9781 13.6255 13.5346 13.8132C13.573 14.508 13.5922 15.2168 13.5778 15.9209C12.863 16.0946 12.4024 16.5453 12.2153 17.2682L12.2105 17.2917C12.1625 17.8503 12.1817 18.4136 12.2585 18.9675L12.2681 19.0192L12.3113 19.052C12.3592 19.0896 12.412 19.1224 12.4696 19.1459L12.484 19.1506L12.5032 19.1553C12.815 19.2022 13.1268 19.1834 13.4243 19.1036L13.4914 19.0849L13.5202 19.0238C13.6305 18.7704 13.6353 18.5779 13.5346 18.4418C13.4482 18.3291 13.3091 18.2775 13.1028 18.2775H13.098C13.0932 17.9958 13.1028 17.7095 13.122 17.4278C13.2611 17.1086 13.4482 16.902 13.6737 16.8175C13.8992 16.7284 14.1822 16.7518 14.5133 16.8833C14.7099 17.0382 14.8347 17.2306 14.9018 17.4654C14.921 17.7329 14.9306 18.0052 14.9258 18.2775H14.921C14.7147 18.2775 14.5756 18.3338 14.4893 18.4418C14.3885 18.5779 14.3885 18.7657 14.5037 19.0238L14.5324 19.0849L14.5996 19.1036C14.8827 19.1834 15.1801 19.1975 15.4775 19.1553H15.4919L15.5063 19.1506C15.5975 19.1177 15.6742 19.0661 15.7462 19.0051L15.7846 18.9675L15.7894 18.9159C15.8469 18.4089 15.8517 17.8972 15.8133 17.3902V17.3762C15.679 16.6392 15.2473 16.1557 14.5372 15.9303C14.4893 15.3248 14.4845 14.7145 14.5324 14.109C15.3576 14.3578 16.1779 14.6441 16.9695 14.9633C17.6939 15.4844 18.0777 16.165 18.1449 17.0476L18.0441 21.0846ZM4.59229 16.9302C4.87533 16.9302 5.07682 16.9959 5.20155 17.1274C5.32628 17.2588 5.37426 17.4607 5.35507 17.7376C5.14398 18.1648 4.85134 18.2775 4.40039 18.0991C4.09336 17.8315 4.04059 17.5452 4.22289 17.2025C4.33323 17.0898 4.45796 17.0006 4.59229 16.9302Z" fill="#00957F"/>
</svg>
