<svg width="14" height="14" viewBox="0 0 14 14" fill="none" xmlns="http://www.w3.org/2000/svg">
<path d="M5.05859 8.35899C5.05859 9.11149 5.63609 9.71816 6.35359 9.71816H7.81776C8.44193 9.71816 8.94943 9.18733 8.94943 8.53399C8.94943 7.82233 8.64026 7.57149 8.17943 7.40816L5.82859 6.59149C5.36776 6.42816 5.05859 6.17733 5.05859 5.46566C5.05859 4.81233 5.56609 4.28149 6.19026 4.28149H7.65443C8.37193 4.28149 8.94943 4.88816 8.94943 5.64066" stroke="#404040" stroke-width="0.875" stroke-linecap="round" stroke-linejoin="round"/>
<path d="M7 3.5V10.5" stroke="#404040" stroke-width="0.875" stroke-linecap="round" stroke-linejoin="round"/>
<path d="M6.99984 12.8334C10.2215 12.8334 12.8332 10.2217 12.8332 7.00008C12.8332 3.77842 10.2215 1.16675 6.99984 1.16675C3.77818 1.16675 1.1665 3.77842 1.1665 7.00008C1.1665 10.2217 3.77818 12.8334 6.99984 12.8334Z" stroke="#404040" stroke-width="0.875" stroke-linecap="round" stroke-linejoin="round"/>
</svg>
