<svg width="31" height="32" viewBox="0 0 31 32" fill="none" xmlns="http://www.w3.org/2000/svg">
<path d="M31 15.9361C31.0008 12.9545 30.1517 10.0351 28.5535 7.52406C26.9552 5.01302 24.6748 3.01561 21.9826 1.76859C19.2903 0.521561 16.2991 0.0772112 13.3635 0.488208C10.4278 0.899205 7.67087 2.14831 5.4194 4.08748C3.16792 6.02664 1.51633 8.57454 0.660394 11.4292C-0.195545 14.2838 -0.219941 17.3255 0.590098 20.1936C1.40014 23.0618 3.01064 25.6361 5.23072 27.6116C7.4508 29.5871 10.1874 30.8808 13.116 31.3394V20.4442H9.18367V15.9361H13.116V12.5077C13.116 8.59304 15.3935 6.44203 18.9326 6.44203C20.0963 6.45845 21.2573 6.56037 22.4062 6.74696V10.5792H20.4892C20.1528 10.5335 19.8105 10.5653 19.4882 10.6724C19.1659 10.7794 18.872 10.9589 18.6289 11.1971C18.3857 11.4354 18.1996 11.7262 18.0848 12.0475C17.9699 12.3688 17.9293 12.7122 17.9659 13.0516V15.9691H22.2587L21.5788 20.4772H17.9249V31.3394C21.5705 30.7585 24.8903 28.8879 27.2872 26.0643C29.684 23.2406 31.0006 19.6492 31 15.9361Z" fill="white"/>
</svg>
