<svg width="31" height="31" viewBox="0 0 31 31" fill="none" xmlns="http://www.w3.org/2000/svg">
<g clip-path="url(#clip0_2481_15805)">
<path d="M31 15.5968C31.0008 12.6151 30.1517 9.69575 28.5535 7.18471C26.9552 4.67367 24.6748 2.67626 21.9826 1.42923C19.2903 0.182205 16.2991 -0.262144 13.3635 0.148853C10.4278 0.55985 7.67087 1.80896 5.4194 3.74812C3.16792 5.68728 1.51633 8.23518 0.660394 11.0898C-0.195545 13.9444 -0.219941 16.9861 0.590098 19.8543C1.40014 22.7224 3.01064 25.2968 5.23072 27.2722C7.4508 29.2477 10.1874 30.5414 13.116 31V20.1048H9.18367V15.5968H13.116V12.1684C13.116 8.25369 15.3935 6.10268 18.9326 6.10268C20.0963 6.1191 21.2573 6.22101 22.4062 6.40761V10.2399H20.4892C20.1528 10.1941 19.8105 10.2259 19.4882 10.333C19.1659 10.4401 18.872 10.6195 18.6289 10.8578C18.3857 11.096 18.1996 11.3868 18.0848 11.7081C17.9699 12.0294 17.9293 12.3728 17.9659 12.7123V15.6298H22.2587L21.5788 20.1378H17.9249V31C21.5705 30.4191 24.8903 28.5486 27.2872 25.7249C29.684 22.9013 31.0006 19.3099 31 15.5968Z" fill="#1977F3"/>
</g>
<defs>
<clipPath id="clip0_2481_15805">
<rect width="31" height="31" fill="white"/>
</clipPath>
</defs>
</svg>
