<svg width="20" height="20" viewBox="0 0 20 20" fill="none" xmlns="http://www.w3.org/2000/svg">
<path d="M4.49967 1.75012H15.4997C16.4163 1.75012 17.1663 2.50012 17.1663 3.41679V5.25012C17.1663 5.91679 16.7497 6.75012 16.333 7.16679L12.7497 10.3335C12.2497 10.7501 11.9163 11.5835 11.9163 12.2501V15.8335C11.9163 16.3335 11.583 17.0001 11.1663 17.2501L9.99967 18.0001C8.91634 18.6668 7.41634 17.9168 7.41634 16.5835V12.1668C7.41634 11.5835 7.08301 10.8335 6.74967 10.4168L3.58301 7.08346C3.16634 6.66679 2.83301 5.91679 2.83301 5.41679V3.50012C2.83301 2.50012 3.58301 1.75012 4.49967 1.75012Z" stroke="black" stroke-width="1.25" stroke-miterlimit="10" stroke-linecap="round" stroke-linejoin="round"/>
<path d="M9.10833 1.75012L5 8.33345" stroke="black" stroke-width="1.25" stroke-miterlimit="10" stroke-linecap="round" stroke-linejoin="round"/>
</svg>
