<svg width="190" height="18" viewBox="0 0 190 18" fill="none" xmlns="http://www.w3.org/2000/svg">
<path d="M1.00562 9.65503L76.9943 8.34488" stroke="#C0C0C0" stroke-linecap="round"/>
<path d="M94.716 13.084C93.94 13.084 93.232 12.904 92.592 12.544C91.952 12.176 91.444 11.668 91.068 11.02C90.7 10.364 90.516 9.628 90.516 8.812C90.516 7.996 90.7 7.264 91.068 6.616C91.444 5.96 91.952 5.452 92.592 5.092C93.232 4.724 93.94 4.54 94.716 4.54C95.5 4.54 96.212 4.724 96.852 5.092C97.492 5.452 97.996 5.956 98.364 6.604C98.732 7.252 98.916 7.988 98.916 8.812C98.916 9.636 98.732 10.372 98.364 11.02C97.996 11.668 97.492 12.176 96.852 12.544C96.212 12.904 95.5 13.084 94.716 13.084ZM94.716 12.136C95.3 12.136 95.824 12 96.288 11.728C96.76 11.456 97.128 11.068 97.392 10.564C97.664 10.06 97.8 9.476 97.8 8.812C97.8 8.14 97.664 7.556 97.392 7.06C97.128 6.556 96.764 6.168 96.3 5.896C95.836 5.624 95.308 5.488 94.716 5.488C94.124 5.488 93.596 5.624 93.132 5.896C92.668 6.168 92.3 6.556 92.028 7.06C91.764 7.556 91.632 8.14 91.632 8.812C91.632 9.476 91.764 10.06 92.028 10.564C92.3 11.068 92.668 11.456 93.132 11.728C93.604 12 94.132 12.136 94.716 12.136ZM95.916 2.824L93.36 4.192V3.376L95.916 1.876V2.824Z" fill="black"/>
<path d="M113 9H189" stroke="#C0C0C0" stroke-linecap="round"/>
</svg>
