<svg width="31" height="31" viewBox="0 0 31 31" fill="none" xmlns="http://www.w3.org/2000/svg">
<path d="M30.2757 15.7899C30.2757 14.5199 30.1726 13.5931 29.9496 12.632H15.4468V18.3644H23.9596C23.788 19.7889 22.8612 21.9343 20.8016 23.3759L20.7727 23.5679L25.3583 27.1202L25.676 27.1519C28.5936 24.4573 30.2757 20.4926 30.2757 15.7899Z" fill="#4285F4"/>
<path d="M15.4468 30.8933C19.6174 30.8933 23.1186 29.5202 25.676 27.1518L20.8017 23.3758C19.4973 24.2855 17.7466 24.9205 15.4468 24.9205C11.3621 24.9205 7.89515 22.226 6.65929 18.5016L6.47814 18.517L1.71006 22.207L1.64771 22.3804C4.18781 27.4263 9.4054 30.8933 15.4468 30.8933Z" fill="#34A853"/>
<path d="M6.6592 18.5017C6.33311 17.5406 6.14439 16.5108 6.14439 15.4467C6.14439 14.3825 6.33311 13.3528 6.64205 12.3917L6.63341 12.187L1.80557 8.43762L1.64761 8.51276C0.600714 10.6067 0 12.9581 0 15.4467C0 17.9353 0.600714 20.2866 1.64761 22.3805L6.6592 18.5017Z" fill="#FBBC05"/>
<path d="M15.4468 5.97271C18.3474 5.97271 20.3039 7.2256 21.4196 8.27262L25.779 4.01616C23.1016 1.52752 19.6174 0 15.4468 0C9.4054 0 4.18781 3.46691 1.64771 8.51281L6.64214 12.3917C7.89515 8.66734 11.3621 5.97271 15.4468 5.97271Z" fill="#EB4335"/>
</svg>
