<svg width="31" height="32" viewBox="0 0 31 32" fill="none" xmlns="http://www.w3.org/2000/svg">
<g clip-path="url(#clip0_2481_14169)">
<path d="M30.2757 16.1293C30.2757 14.8592 30.1726 13.9324 29.9496 12.9713H15.4468V18.7037H23.9596C23.788 20.1283 22.8612 22.2737 20.8016 23.7153L20.7727 23.9072L25.3583 27.4596L25.676 27.4913C28.5936 24.7966 30.2757 20.8319 30.2757 16.1293Z" fill="white"/>
<path d="M15.4467 31.2327C19.6173 31.2327 23.1185 29.8596 25.6759 27.4911L20.8016 23.7152C19.4972 24.6248 17.7465 25.2598 15.4467 25.2598C11.3619 25.2598 7.89503 22.5653 6.65917 18.8409L6.47802 18.8563L1.70994 22.5464L1.64758 22.7197C4.18769 27.7656 9.40527 31.2327 15.4467 31.2327Z" fill="white"/>
<path d="M6.6592 18.8411C6.33311 17.88 6.14439 16.8501 6.14439 15.7861C6.14439 14.7219 6.33311 13.6921 6.64205 12.731L6.63341 12.5263L1.80557 8.77698L1.64761 8.85211C0.600714 10.946 0 13.2974 0 15.7861C0 18.2747 0.600714 20.626 1.64761 22.7199L6.6592 18.8411Z" fill="white"/>
<path d="M15.4467 6.31206C18.3472 6.31206 20.3038 7.56496 21.4194 8.61198L25.7788 4.35551C23.1015 1.86687 19.6173 0.339355 15.4467 0.339355C9.40527 0.339355 4.18769 3.80627 1.64758 8.85217L6.64201 12.7311C7.89503 9.00669 11.3619 6.31206 15.4467 6.31206Z" fill="white"/>
</g>
<defs>
<clipPath id="clip0_2481_14169">
<rect width="31" height="31" fill="white" transform="translate(0 0.339355)"/>
</clipPath>
</defs>
</svg>
