<svg width="20" height="20" viewBox="0 0 20 20" fill="none" xmlns="http://www.w3.org/2000/svg">
<path d="M4.55005 15.4085V12.9752C4.55005 12.1669 5.18338 11.4419 6.08338 11.4419C6.89172 11.4419 7.61672 12.0752 7.61672 12.9752V15.3169C7.61672 16.9419 6.26672 18.2919 4.64171 18.2919C3.01671 18.2919 1.66671 16.9335 1.66671 15.3169V10.1835C1.57504 5.50017 5.27505 1.7085 9.95839 1.7085C14.6417 1.7085 18.3334 5.50017 18.3334 10.0918V15.2252C18.3334 16.8502 16.9834 18.2002 15.3584 18.2002C13.7334 18.2002 12.3834 16.8502 12.3834 15.2252V12.8835C12.3834 12.0752 13.0167 11.3502 13.9167 11.3502C14.7251 11.3502 15.4501 11.9835 15.4501 12.8835V15.4085" stroke="#404040" stroke-width="1.25" stroke-linecap="round" stroke-linejoin="round"/>
</svg>
