<svg width="20" height="20" viewBox="0 0 20 20" fill="none" xmlns="http://www.w3.org/2000/svg">
<path d="M11.6609 2.66615L11.6611 2.66631L16.4611 6.02459C16.8521 6.2983 17.2223 6.74714 17.4952 7.26982C17.7681 7.7925 17.925 8.35347 17.925 8.83324V14.4832C17.925 16.3781 16.3865 17.9166 14.4917 17.9166H5.50833C3.61462 17.9166 2.07499 16.371 2.07499 14.4749V8.72491C2.07499 8.27954 2.21698 7.74698 2.46547 7.2423C2.71385 6.73784 3.05088 6.29731 3.40626 6.02012L3.40635 6.02005L7.5802 2.76261C7.58038 2.76247 7.58056 2.76233 7.58074 2.76219C8.69477 1.89944 10.5023 1.85441 11.6609 2.66615ZM10 16.0416C10.5718 16.0416 11.0417 15.5717 11.0417 14.9999V12.4999C11.0417 11.9281 10.5718 11.4582 10 11.4582C9.42821 11.4582 8.95833 11.9281 8.95833 12.4999V14.9999C8.95833 15.5717 9.42821 16.0416 10 16.0416Z" fill="black" stroke="black" stroke-width="0.833334"/>
</svg>
