<svg width="190" height="19" viewBox="0 0 190 19" fill="none" xmlns="http://www.w3.org/2000/svg">
<path d="M1.00562 9.99438L76.9943 8.68423" stroke="#F9F9F9" stroke-linecap="round"/>
<path d="M94.716 13.4234C93.94 13.4234 93.232 13.2434 92.592 12.8834C91.952 12.5154 91.444 12.0074 91.068 11.3594C90.7 10.7034 90.516 9.96736 90.516 9.15136C90.516 8.33536 90.7 7.60336 91.068 6.95536C91.444 6.29936 91.952 5.79136 92.592 5.43135C93.232 5.06335 93.94 4.87935 94.716 4.87935C95.5 4.87935 96.212 5.06335 96.852 5.43135C97.492 5.79136 97.996 6.29536 98.364 6.94335C98.732 7.59136 98.916 8.32736 98.916 9.15136C98.916 9.97536 98.732 10.7114 98.364 11.3594C97.996 12.0074 97.492 12.5154 96.852 12.8834C96.212 13.2434 95.5 13.4234 94.716 13.4234ZM94.716 12.4754C95.3 12.4754 95.824 12.3394 96.288 12.0674C96.76 11.7954 97.128 11.4074 97.392 10.9034C97.664 10.3994 97.8 9.81536 97.8 9.15136C97.8 8.47936 97.664 7.89536 97.392 7.39936C97.128 6.89536 96.764 6.50736 96.3 6.23536C95.836 5.96336 95.308 5.82735 94.716 5.82735C94.124 5.82735 93.596 5.96336 93.132 6.23536C92.668 6.50736 92.3 6.89536 92.028 7.39936C91.764 7.89536 91.632 8.47936 91.632 9.15136C91.632 9.81536 91.764 10.3994 92.028 10.9034C92.3 11.4074 92.668 11.7954 93.132 12.0674C93.604 12.3394 94.132 12.4754 94.716 12.4754ZM95.916 3.16335L93.36 4.53136V3.71535L95.916 2.21535V3.16335Z" fill="white"/>
<path d="M113 9.33936H189" stroke="#F9F9F9" stroke-linecap="round"/>
</svg>
