<svg width="114" height="25" viewBox="0 0 114 25" fill="none" xmlns="http://www.w3.org/2000/svg">
<path d="M6.84239 18.9049H1.97669V5.05877H0L1.4445 0.1898H6.84239V2.20585C7.33654 1.5592 7.90678 1.02666 8.55298 0.646264C9.16118 0.265878 9.95948 0.0756836 10.9478 0.0756836C11.1379 0.0756836 11.366 0.0756836 11.6321 0.0756836C11.8982 0.0756836 12.1642 0.113722 12.4303 0.151762L10.9098 5.17289C9.2372 4.98269 8.05883 5.4011 7.37456 6.42816C7.10847 6.84658 6.95642 7.30308 6.91841 7.75954C6.84239 8.21599 6.84239 8.67244 6.84239 9.09091V18.9049Z" fill="black"/>
<path d="M32.6895 9.35752C32.6895 10.765 32.4235 12.0583 31.9293 13.2375C31.4351 14.4167 30.7509 15.4438 29.8766 16.2806C29.0023 17.1175 28.0139 17.8021 26.8735 18.2967C25.7331 18.7912 24.5167 19.0194 23.2242 19.0194C21.9318 19.0194 20.7154 18.7912 19.575 18.2967C18.4346 17.8402 17.4463 17.1555 16.5719 16.2806C15.7357 15.4057 15.0514 14.3787 14.5572 13.1995C14.0631 12.0203 13.797 10.6889 13.797 9.24341C13.797 8.10228 14.0251 6.9611 14.4812 5.85796C14.9374 4.75485 15.5836 3.76584 16.4199 2.89095C17.2562 2.01606 18.2445 1.33136 19.4229 0.798817C20.5633 0.266271 21.8558 0 23.2242 0C24.5927 0 25.8092 0.266271 26.9876 0.760774C28.1279 1.25528 29.1543 1.93998 29.9906 2.81487C30.8269 3.68976 31.4731 4.67877 31.9673 5.78188C32.4615 6.9611 32.6895 8.14032 32.6895 9.35752ZM27.7478 9.54777C27.7478 8.90107 27.6338 8.25443 27.3677 7.68382C27.1396 7.11325 26.7975 6.61876 26.3793 6.20035C25.9612 5.78188 25.4671 5.43954 24.9348 5.21132C24.4027 4.98308 23.8325 4.86897 23.2242 4.86897C22.578 4.86897 22.0079 4.98308 21.4376 5.24936C20.9055 5.47758 20.4113 5.81992 19.9931 6.23838C19.575 6.6568 19.2709 7.15129 19.0428 7.72191C18.8147 8.29247 18.7007 8.90107 18.7007 9.5858C18.7007 10.2324 18.8147 10.8791 19.0808 11.4117C19.3469 11.9822 19.651 12.4387 20.0691 12.8571C20.4873 13.2756 20.9435 13.5799 21.4756 13.8461C22.0079 14.0744 22.578 14.2265 23.1482 14.2265C23.7945 14.2265 24.3647 14.1124 24.9348 13.8461C25.5051 13.5799 25.9612 13.2375 26.3793 12.8191C26.7975 12.4006 27.1016 11.9062 27.3297 11.3356C27.6338 10.803 27.7478 10.1944 27.7478 9.54777Z" fill="black"/>
<path d="M48.2371 0.190194H53.1029V17.4979C53.1029 17.9163 53.1029 18.2967 53.1029 18.7151C53.1029 19.0955 53.065 19.5139 52.9886 19.9324C52.9128 20.3508 52.7606 20.7312 52.5705 21.1496C52.3805 21.568 52.0764 21.9865 51.6963 22.4049C50.2898 24.0405 48.0089 24.8393 44.8159 24.8393C43.4474 24.8393 42.0789 24.6872 40.7484 24.3829C39.418 24.0786 38.0495 23.6602 36.681 23.1276L38.3916 18.563C39.2659 18.9053 40.2163 19.2476 41.1666 19.5519C42.1169 19.8563 43.2193 20.0084 44.4357 20.0084C45.272 20.0084 45.9562 19.9324 46.4504 19.7421C46.9446 19.59 47.3247 19.3237 47.5908 19.0194C47.8569 18.7151 48.0089 18.3347 48.085 17.8782C48.161 17.4218 48.199 16.9273 48.199 16.3948V13.732L46.9446 17.7261H44.2456C42.9532 17.7261 41.7368 17.4979 40.6724 17.0414C39.5701 16.5849 38.6197 15.9383 37.8214 15.1395C37.0231 14.3406 36.3769 13.3897 35.9588 12.2865C35.5026 11.1834 35.2745 10.0042 35.2745 8.74893C35.2745 7.60774 35.5026 6.50465 35.9207 5.43954C36.3389 4.37446 36.9471 3.46153 37.7074 2.66272C38.4677 1.8639 39.3799 1.21724 40.4443 0.722737C41.5087 0.228233 42.6491 0 43.9035 0C44.7398 0 45.5001 0.114117 46.1843 0.342349C46.8686 0.570581 47.5528 0.874893 48.199 1.25528V0.190194H48.2371ZM48.2371 12.9713V9.69992C48.2371 8.10229 47.8189 6.92307 47.0206 6.12427C46.2223 5.32543 45.234 4.90701 44.1316 4.90701C43.5614 4.90701 43.0293 5.02112 42.535 5.28739C42.0409 5.51562 41.6228 5.85796 41.2806 6.23839C40.9385 6.61876 40.6724 7.07522 40.4823 7.56971C40.2923 8.06425 40.2163 8.5207 40.2163 9.01519C40.2163 9.54777 40.3303 10.0423 40.5204 10.5367C40.7104 10.9932 40.9765 11.4117 41.3567 11.792C41.7368 12.1724 42.1549 12.4387 42.6871 12.6669C43.1813 12.8951 43.7895 13.0093 44.4357 13.0093H48.2371V12.9713Z" fill="black"/>
<path d="M70.5516 0.1898H75.4174V14.0739H77.3938L75.9497 18.9429H70.5516V14.7206L69.297 18.9429H66.5225C65.1157 18.9429 63.8995 18.7527 62.835 18.4104C61.7704 18.0681 60.7443 17.4214 59.794 16.5465C58.8058 15.6335 58.0456 14.5685 57.4754 13.3512C56.9431 12.134 56.6388 10.8787 56.6388 9.50932C56.6388 8.25402 56.8668 7.03677 57.3611 5.89564C57.8555 4.75445 58.5015 3.76545 59.3375 2.89055C60.1741 2.01566 61.1623 1.33096 62.3027 0.836462C63.4431 0.341955 64.6598 0.0756836 65.9523 0.0756836C66.9026 0.0756836 67.7386 0.227839 68.4231 0.494111C69.1454 0.760382 69.8293 1.14077 70.5137 1.63527V0.1898H70.5516ZM70.5516 14.0739V10.0038C70.5516 9.16698 70.4374 8.40617 70.1715 7.75953C69.9436 7.11284 69.6013 6.58031 69.1833 6.1619C68.7653 5.74349 68.2709 5.43913 67.7386 5.21092C67.2064 4.98269 66.5983 4.86857 65.9902 4.86857C65.3821 4.86857 64.8119 4.98269 64.2796 5.21092C63.7474 5.43913 63.2909 5.78152 62.8729 6.19994C62.4549 6.61835 62.1505 7.11284 61.9226 7.68346C61.6946 8.25402 61.5804 8.90066 61.5804 9.58539C61.5804 10.156 61.6946 10.7265 61.9226 11.2591C62.1505 11.7916 62.4549 12.2861 62.9108 12.7046C63.3293 13.123 63.8611 13.4653 64.5076 13.6936C65.1536 13.9218 65.8759 14.0739 66.7125 14.0739H70.5516Z" fill="black"/>
<path d="M97.5805 18.9045H92.1445V8.32975C92.1445 7.18857 91.9166 6.35174 91.4601 5.81921C91.0042 5.28663 90.206 5.02038 89.0657 5.02038H85.7583V18.9045H80.8926V5.05842H78.9161L80.3224 0.189453H85.7583V4.33568L87.0508 0.189453H89.5216C90.8899 0.189453 92.1066 0.341608 93.1327 0.683958C94.1594 1.02631 95.0718 1.71101 95.832 2.77609C96.4022 3.57491 96.7439 4.37372 96.8581 5.09646C96.9724 5.81921 97.0103 6.57997 97.0103 7.34077V14.0736H98.9488L97.5805 18.9045Z" fill="black"/>
<path d="M112.327 6.12386C111.416 5.59134 110.579 5.17289 109.781 4.90661C109.021 4.64034 108.374 4.48819 107.88 4.48819C107.462 4.48819 107.12 4.6023 106.854 4.79249C106.626 4.98269 106.473 5.28698 106.473 5.62937C106.473 6.00975 106.74 6.35209 107.31 6.69443C107.842 7.03677 108.793 7.45523 110.161 7.94972C111.416 8.44421 112.366 9.12894 113.012 10.0038C113.658 10.8787 114 11.9818 114 13.2371C114 13.9218 113.848 14.6065 113.506 15.2912C113.164 15.9759 112.746 16.5845 112.137 17.1171C111.567 17.6496 110.845 18.0681 110.047 18.4104C109.249 18.7527 108.298 18.9049 107.31 18.9049C105.903 18.9049 104.687 18.7527 103.66 18.4104C102.634 18.0681 101.608 17.6877 100.657 17.1931L101.95 12.5144C102.9 13.085 103.889 13.5414 104.915 13.8838C105.942 14.1881 106.778 14.3783 107.462 14.3783C107.956 14.3783 108.336 14.2642 108.64 14.0739C108.944 13.8838 109.096 13.5795 109.096 13.161C109.096 12.8948 108.983 12.6665 108.793 12.4763C108.603 12.2861 108.336 12.134 108.07 11.9818C107.234 11.6395 106.436 11.3352 105.637 10.9928C104.877 10.6504 104.155 10.2701 103.585 9.81362C102.977 9.35717 102.52 8.82459 102.14 8.17795C101.76 7.53131 101.57 6.73247 101.57 5.74349C101.57 4.98269 101.722 4.25995 102.026 3.57525C102.33 2.89055 102.749 2.28194 103.28 1.74939C103.813 1.21685 104.459 0.798419 105.219 0.494111C105.98 0.1898 106.816 0.0756836 107.766 0.0756836C108.906 0.0756836 109.971 0.227839 110.921 0.532151C111.871 0.836462 112.822 1.17881 113.734 1.5592L112.327 6.12386Z" fill="black"/>
</svg>
