<svg width="114" height="26" viewBox="0 0 114 26" fill="none" xmlns="http://www.w3.org/2000/svg">
<path d="M6.84239 19.4049H1.97669V5.55877H0L1.4445 0.6898H6.84239V2.70585C7.33654 2.0592 7.90678 1.52666 8.55298 1.14626C9.16118 0.765878 9.95948 0.575684 10.9478 0.575684C11.1379 0.575684 11.366 0.575684 11.6321 0.575684C11.8982 0.575684 12.1642 0.613722 12.4303 0.651762L10.9098 5.67289C9.2372 5.48269 8.05883 5.9011 7.37456 6.92816C7.10847 7.34658 6.95642 7.80308 6.91841 8.25954C6.84239 8.71599 6.84239 9.17244 6.84239 9.59091V19.4049Z" fill="white"/>
<path d="M32.6895 9.85752C32.6895 11.265 32.4235 12.5583 31.9293 13.7375C31.4351 14.9167 30.7509 15.9438 29.8766 16.7806C29.0023 17.6175 28.0139 18.3021 26.8735 18.7967C25.7331 19.2912 24.5167 19.5194 23.2242 19.5194C21.9318 19.5194 20.7154 19.2912 19.575 18.7967C18.4346 18.3402 17.4463 17.6555 16.5719 16.7806C15.7357 15.9057 15.0514 14.8787 14.5572 13.6995C14.0631 12.5203 13.797 11.1889 13.797 9.74341C13.797 8.60228 14.0251 7.4611 14.4812 6.35796C14.9374 5.25485 15.5836 4.26584 16.4199 3.39095C17.2562 2.51606 18.2445 1.83136 19.4229 1.29882C20.5633 0.766271 21.8558 0.5 23.2242 0.5C24.5927 0.5 25.8092 0.766271 26.9876 1.26077C28.1279 1.75528 29.1543 2.43998 29.9906 3.31487C30.8269 4.18976 31.4731 5.17877 31.9673 6.28188C32.4615 7.4611 32.6895 8.64032 32.6895 9.85752ZM27.7478 10.0478C27.7478 9.40107 27.6338 8.75443 27.3677 8.18382C27.1396 7.61325 26.7975 7.11876 26.3793 6.70035C25.9612 6.28188 25.4671 5.93954 24.9348 5.71132C24.4027 5.48308 23.8325 5.36897 23.2242 5.36897C22.578 5.36897 22.0079 5.48308 21.4376 5.74936C20.9055 5.97758 20.4113 6.31992 19.9931 6.73838C19.575 7.1568 19.2709 7.65129 19.0428 8.22191C18.8147 8.79247 18.7007 9.40107 18.7007 10.0858C18.7007 10.7324 18.8147 11.3791 19.0808 11.9117C19.3469 12.4822 19.651 12.9387 20.0691 13.3571C20.4873 13.7756 20.9435 14.0799 21.4756 14.3461C22.0079 14.5744 22.578 14.7265 23.1482 14.7265C23.7945 14.7265 24.3647 14.6124 24.9348 14.3461C25.5051 14.0799 25.9612 13.7375 26.3793 13.3191C26.7975 12.9006 27.1016 12.4062 27.3297 11.8356C27.6338 11.303 27.7478 10.6944 27.7478 10.0478Z" fill="white"/>
<path d="M48.2371 0.690194H53.1029V17.9979C53.1029 18.4163 53.1029 18.7967 53.1029 19.2151C53.1029 19.5955 53.065 20.0139 52.9886 20.4324C52.9128 20.8508 52.7606 21.2312 52.5705 21.6496C52.3805 22.068 52.0764 22.4865 51.6963 22.9049C50.2898 24.5405 48.0089 25.3393 44.8159 25.3393C43.4474 25.3393 42.0789 25.1872 40.7484 24.8829C39.418 24.5786 38.0495 24.1602 36.681 23.6276L38.3916 19.063C39.2659 19.4053 40.2163 19.7476 41.1666 20.0519C42.1169 20.3563 43.2193 20.5084 44.4357 20.5084C45.272 20.5084 45.9562 20.4324 46.4504 20.2421C46.9446 20.09 47.3247 19.8237 47.5908 19.5194C47.8569 19.2151 48.0089 18.8347 48.085 18.3782C48.161 17.9218 48.199 17.4273 48.199 16.8948V14.232L46.9446 18.2261H44.2456C42.9532 18.2261 41.7368 17.9979 40.6724 17.5414C39.5701 17.0849 38.6197 16.4383 37.8214 15.6395C37.0231 14.8406 36.3769 13.8897 35.9588 12.7865C35.5026 11.6834 35.2745 10.5042 35.2745 9.24893C35.2745 8.10774 35.5026 7.00465 35.9207 5.93954C36.3389 4.87446 36.9471 3.96153 37.7074 3.16272C38.4677 2.3639 39.3799 1.71724 40.4443 1.22274C41.5087 0.728233 42.6491 0.5 43.9035 0.5C44.7398 0.5 45.5001 0.614117 46.1843 0.842349C46.8686 1.07058 47.5528 1.37489 48.199 1.75528V0.690194H48.2371ZM48.2371 13.4713V10.1999C48.2371 8.60229 47.8189 7.42307 47.0206 6.62427C46.2223 5.82543 45.234 5.40701 44.1316 5.40701C43.5614 5.40701 43.0293 5.52112 42.535 5.78739C42.0409 6.01562 41.6228 6.35796 41.2806 6.73839C40.9385 7.11876 40.6724 7.57522 40.4823 8.06971C40.2923 8.56425 40.2163 9.0207 40.2163 9.51519C40.2163 10.0478 40.3303 10.5423 40.5204 11.0367C40.7104 11.4932 40.9765 11.9117 41.3567 12.292C41.7368 12.6724 42.1549 12.9387 42.6871 13.1669C43.1813 13.3951 43.7895 13.5093 44.4357 13.5093H48.2371V13.4713Z" fill="white"/>
<path d="M70.5516 0.6898H75.4174V14.5739H77.3938L75.9497 19.4429H70.5516V15.2206L69.297 19.4429H66.5225C65.1157 19.4429 63.8995 19.2527 62.835 18.9104C61.7704 18.5681 60.7443 17.9214 59.794 17.0465C58.8058 16.1335 58.0456 15.0685 57.4754 13.8512C56.9431 12.634 56.6388 11.3787 56.6388 10.0093C56.6388 8.75402 56.8668 7.53677 57.3611 6.39564C57.8555 5.25445 58.5015 4.26545 59.3375 3.39055C60.1741 2.51566 61.1623 1.83096 62.3027 1.33646C63.4431 0.841955 64.6598 0.575684 65.9523 0.575684C66.9026 0.575684 67.7386 0.727839 68.4231 0.994111C69.1454 1.26038 69.8293 1.64077 70.5137 2.13527V0.6898H70.5516ZM70.5516 14.5739V10.5038C70.5516 9.66698 70.4374 8.90617 70.1715 8.25953C69.9436 7.61284 69.6013 7.08031 69.1833 6.6619C68.7653 6.24349 68.2709 5.93913 67.7386 5.71092C67.2064 5.48269 66.5983 5.36857 65.9902 5.36857C65.3821 5.36857 64.8119 5.48269 64.2796 5.71092C63.7474 5.93913 63.2909 6.28152 62.8729 6.69994C62.4549 7.11835 62.1505 7.61284 61.9226 8.18346C61.6946 8.75402 61.5804 9.40066 61.5804 10.0854C61.5804 10.656 61.6946 11.2265 61.9226 11.7591C62.1505 12.2916 62.4549 12.7861 62.9108 13.2046C63.3293 13.623 63.8611 13.9653 64.5076 14.1936C65.1536 14.4218 65.8759 14.5739 66.7125 14.5739H70.5516Z" fill="white"/>
<path d="M97.5805 19.4045H92.1445V8.82975C92.1445 7.68857 91.9166 6.85174 91.4601 6.31921C91.0042 5.78663 90.206 5.52038 89.0657 5.52038H85.7583V19.4045H80.8926V5.55842H78.9161L80.3224 0.689453H85.7583V4.83568L87.0508 0.689453H89.5216C90.8899 0.689453 92.1066 0.841608 93.1327 1.18396C94.1594 1.52631 95.0718 2.21101 95.832 3.27609C96.4022 4.07491 96.7439 4.87372 96.8581 5.59646C96.9724 6.31921 97.0103 7.07997 97.0103 7.84077V14.5736H98.9488L97.5805 19.4045Z" fill="white"/>
<path d="M112.327 6.62386C111.416 6.09134 110.579 5.67289 109.781 5.40661C109.021 5.14034 108.374 4.98819 107.88 4.98819C107.462 4.98819 107.12 5.1023 106.854 5.29249C106.626 5.48269 106.473 5.78698 106.473 6.12937C106.473 6.50975 106.74 6.85209 107.31 7.19443C107.842 7.53677 108.793 7.95523 110.161 8.44972C111.416 8.94421 112.366 9.62894 113.012 10.5038C113.658 11.3787 114 12.4818 114 13.7371C114 14.4218 113.848 15.1065 113.506 15.7912C113.164 16.4759 112.746 17.0845 112.137 17.6171C111.567 18.1496 110.845 18.5681 110.047 18.9104C109.249 19.2527 108.298 19.4049 107.31 19.4049C105.903 19.4049 104.687 19.2527 103.66 18.9104C102.634 18.5681 101.608 18.1877 100.657 17.6931L101.95 13.0144C102.9 13.585 103.889 14.0414 104.915 14.3838C105.942 14.6881 106.778 14.8783 107.462 14.8783C107.956 14.8783 108.336 14.7642 108.64 14.5739C108.944 14.3838 109.096 14.0795 109.096 13.661C109.096 13.3948 108.983 13.1665 108.793 12.9763C108.603 12.7861 108.336 12.634 108.07 12.4818C107.234 12.1395 106.436 11.8352 105.637 11.4928C104.877 11.1504 104.155 10.7701 103.585 10.3136C102.977 9.85717 102.52 9.32459 102.14 8.67795C101.76 8.03131 101.57 7.23247 101.57 6.24349C101.57 5.48269 101.722 4.75995 102.026 4.07525C102.33 3.39055 102.749 2.78194 103.28 2.24939C103.813 1.71685 104.459 1.29842 105.219 0.994111C105.98 0.6898 106.816 0.575684 107.766 0.575684C108.906 0.575684 109.971 0.727839 110.921 1.03215C111.871 1.33646 112.822 1.67881 113.734 2.0592L112.327 6.62386Z" fill="white"/>
</svg>
