<svg width="21" height="21" viewBox="0 0 21 21" fill="none" xmlns="http://www.w3.org/2000/svg">
<path d="M12.3303 3.33564L13.9636 4.96898C14.1259 5.13131 14.1266 5.4025 13.9697 5.5653L10.7969 8.73805C10.6346 8.90033 10.3735 8.90033 10.2112 8.73805L7.03618 5.56305C6.8739 5.40077 6.8739 5.13126 7.03618 4.96898L8.66951 3.33564C9.67346 2.3317 11.3263 2.3317 12.3303 3.33564Z" fill="white" stroke="white" stroke-width="0.833333"/>
<path d="M3.33613 8.66878L4.96946 7.03545C5.13175 6.87317 5.40126 6.87317 5.56354 7.03545L8.73021 10.2021C8.89249 10.3644 8.89249 10.6256 8.73021 10.7879L5.55521 13.9629C5.39293 14.1251 5.13175 14.1251 4.96946 13.9629L3.33613 12.3295C2.33218 11.3256 2.33218 9.67273 3.33613 8.66878Z" fill="white" stroke="white" stroke-width="0.833333"/>
<path d="M17.9583 8.37415L16.3249 6.74082C15.9999 6.41582 15.4749 6.41582 15.1499 6.74082L11.975 9.91582C11.65 10.2408 11.65 10.7658 11.975 11.0908L15.1499 14.2658C15.4749 14.5908 15.9999 14.5908 16.3249 14.2658L17.9583 12.6325C19.1249 11.4575 19.1249 9.54082 17.9583 8.37415Z" fill="white"/>
<path d="M6.74163 16.3242L8.37496 17.9575C9.54163 19.1242 11.4583 19.1242 12.625 17.9575L14.2583 16.3242C14.5833 15.9992 14.5833 15.4742 14.2583 15.1492L11.0833 11.9742C10.7583 11.6492 10.2333 11.6492 9.90829 11.9742L6.73329 15.1492C6.41663 15.4659 6.41663 15.9992 6.74163 16.3242Z" fill="white"/>
</svg>
