<svg width="20" height="20" viewBox="0 0 20 20" fill="none" xmlns="http://www.w3.org/2000/svg">
<path d="M16.6667 5.62484C17.9323 5.62484 18.9583 4.59882 18.9583 3.33317C18.9583 2.06752 17.9323 1.0415 16.6667 1.0415C15.401 1.0415 14.375 2.06752 14.375 3.33317C14.375 4.59882 15.401 5.62484 16.6667 5.62484Z" fill="white"/>
<path d="M15.8666 6.7915C14.5583 6.50817 13.4916 5.4415 13.2083 4.13317C13.1 3.62484 13.0916 3.13317 13.1833 2.6665C13.2916 2.14984 12.9083 1.6665 12.375 1.6665H5.83329C3.53329 1.6665 1.66663 3.53317 1.66663 5.83317V11.6248C1.66663 13.9248 3.53329 15.7915 5.83329 15.7915H7.08329C7.31663 15.7915 7.61663 15.9415 7.74996 16.1248L8.99996 17.7832C9.54996 18.5165 10.45 18.5165 11 17.7832L12.25 16.1248C12.4083 15.9165 12.65 15.7915 12.9166 15.7915H14.175C16.475 15.7915 18.3333 13.9332 18.3333 11.6332V7.62484C18.3333 7.09984 17.85 6.7165 17.3333 6.8165C16.8666 6.89984 16.375 6.89984 15.8666 6.7915ZM6.66663 9.99984C6.19996 9.99984 5.83329 9.62484 5.83329 9.1665C5.83329 8.70817 6.19996 8.33317 6.66663 8.33317C7.12496 8.33317 7.49996 8.70817 7.49996 9.1665C7.49996 9.62484 7.13329 9.99984 6.66663 9.99984ZM9.99996 9.99984C9.53329 9.99984 9.16663 9.62484 9.16663 9.1665C9.16663 8.70817 9.53329 8.33317 9.99996 8.33317C10.4583 8.33317 10.8333 8.70817 10.8333 9.1665C10.8333 9.62484 10.4666 9.99984 9.99996 9.99984ZM13.3333 9.99984C12.8666 9.99984 12.5 9.62484 12.5 9.1665C12.5 8.70817 12.8666 8.33317 13.3333 8.33317C13.7916 8.33317 14.1666 8.70817 14.1666 9.1665C14.1666 9.62484 13.8 9.99984 13.3333 9.99984Z" fill="white"/>
</svg>
