<svg width="17" height="16" viewBox="0 0 17 16" fill="none" xmlns="http://www.w3.org/2000/svg">
<path d="M12 12.6667H9.33333L6.36666 14.64C5.92666 14.9333 5.33333 14.62 5.33333 14.0867V12.6667C3.33333 12.6667 2 11.3334 2 9.33337V5.33333C2 3.33333 3.33333 2 5.33333 2H12C14 2 15.3333 3.33333 15.3333 5.33333V9.33337C15.3333 11.3334 14 12.6667 12 12.6667Z" stroke="#404040" stroke-width="1.5" stroke-miterlimit="10" stroke-linecap="round" stroke-linejoin="round"/>
<path d="M8.66665 7.95312V7.81315C8.66665 7.35982 8.94666 7.11981 9.22666 6.92647C9.5 6.73981 9.77329 6.49981 9.77329 6.05981C9.77329 5.44648 9.27998 4.95312 8.66665 4.95312C8.05331 4.95312 7.56 5.44648 7.56 6.05981" stroke="#404040" stroke-width="1.5" stroke-linecap="round" stroke-linejoin="round"/>
<path d="M8.66365 9.54671H8.66965" stroke="#404040" stroke-width="1.5" stroke-linecap="round" stroke-linejoin="round"/>
</svg>
