<svg width="20" height="20" viewBox="0 0 20 20" fill="none" xmlns="http://www.w3.org/2000/svg">
<path d="M4.7167 3.47523L4.95106 3.9169C4.98962 3.89644 5.03448 3.89728 5.07576 3.92143C5.11538 3.9446 5.13337 3.97775 5.13337 4.0169C5.13337 5.61804 6.44057 6.92523 8.04171 6.92523H11.9584C13.5595 6.92523 14.8667 5.61804 14.8667 4.0169C14.8667 3.97426 14.8859 3.94218 14.9223 3.92078C14.9595 3.89893 15.0052 3.89469 15.0513 3.9181C16.0674 4.45981 16.7584 5.53427 16.7584 6.7669V14.6086C16.7584 16.3825 15.3073 17.8336 13.5334 17.8336H6.46671C4.69285 17.8336 3.2417 16.3825 3.2417 14.6086V6.7669C3.2417 5.53318 3.93396 4.45792 4.95151 3.91666L4.7167 3.47523ZM4.7167 3.47523C5.12504 3.25856 5.63337 3.55023 5.63337 4.0169C5.63337 5.3419 6.71671 6.42523 8.04171 6.42523H11.9584C13.2834 6.42523 14.3667 5.3419 14.3667 4.0169C14.3667 3.55023 14.8667 3.25856 15.2834 3.47523H4.7167Z" fill="black" stroke="#404040"/>
<path d="M13.0252 3.22837L13.0251 3.22837V3.23317V4.01651C13.0251 4.60704 12.549 5.08318 11.9585 5.08318H8.03347C7.44294 5.08318 6.9668 4.60704 6.9668 4.01651V3.23317C6.9668 2.6461 7.44781 2.1665 8.0418 2.1665H11.9585C12.5534 2.1665 13.0308 2.64598 13.0252 3.22837Z" fill="black" stroke="#404040"/>
</svg>
