<svg width="16" height="16" viewBox="0 0 16 16" fill="none" xmlns="http://www.w3.org/2000/svg">
<path d="M13.3337 5.49992V11.9999C13.3337 13.9999 12.1403 14.6666 10.667 14.6666H5.33366C3.86033 14.6666 2.66699 13.9999 2.66699 11.9999V5.49992C2.66699 3.33325 3.86033 2.83325 5.33366 2.83325C5.33366 3.24659 5.50031 3.61992 5.77364 3.89325C6.04697 4.16658 6.42033 4.33325 6.83366 4.33325H9.16699C9.99366 4.33325 10.667 3.65992 10.667 2.83325C12.1403 2.83325 13.3337 3.33325 13.3337 5.49992Z" stroke="#404040" stroke-linecap="round" stroke-linejoin="round"/>
<path d="M10.6663 2.83325C10.6663 3.65992 9.99301 4.33325 9.16634 4.33325H6.83301C6.41967 4.33325 6.04632 4.16658 5.77299 3.89325C5.49966 3.61992 5.33301 3.24659 5.33301 2.83325C5.33301 2.00659 6.00634 1.33325 6.83301 1.33325H9.16634C9.57967 1.33325 9.95303 1.49992 10.2264 1.77325C10.4997 2.04659 10.6663 2.41992 10.6663 2.83325Z" stroke="#404040" stroke-linecap="round" stroke-linejoin="round"/>
<path d="M5.33301 8.66675H7.99967" stroke="#404040" stroke-linecap="round" stroke-linejoin="round"/>
<path d="M5.33301 11.3333H10.6663" stroke="#404040" stroke-linecap="round" stroke-linejoin="round"/>
</svg>
