<svg width="19" height="18" viewBox="0 0 19 18" fill="none" xmlns="http://www.w3.org/2000/svg">
<path d="M13.715 8.0627C13.3925 8.0627 13.1375 7.8002 13.1375 7.4852C13.1375 7.2077 12.86 6.6302 12.395 6.1277C11.9375 5.6402 11.435 5.3552 11.015 5.3552C10.6925 5.3552 10.4375 5.0927 10.4375 4.7777C10.4375 4.4627 10.7 4.2002 11.015 4.2002C11.765 4.2002 12.5525 4.6052 13.2425 5.3327C13.8875 6.0152 14.3 6.8627 14.3 7.4777C14.3 7.8002 14.0375 8.0627 13.715 8.0627Z" fill="#00967F"/>
<path d="M16.4226 8.0625C16.1001 8.0625 15.8451 7.8 15.8451 7.485C15.8451 4.8225 13.6776 2.6625 11.0226 2.6625C10.7001 2.6625 10.4451 2.4 10.4451 2.085C10.4451 1.77 10.7001 1.5 11.0151 1.5C14.3151 1.5 17.0001 4.185 17.0001 7.485C17.0001 7.8 16.7376 8.0625 16.4226 8.0625Z" fill="#00967F"/>
<path d="M8.7875 11.2125L7.4 12.6C7.1075 12.8925 6.6425 12.8925 6.3425 12.6075C6.26 12.525 6.1775 12.45 6.095 12.3675C5.3225 11.5875 4.625 10.77 4.0025 9.915C3.3875 9.06 2.8925 8.205 2.5325 7.3575C2.18 6.5025 2 5.685 2 4.905C2 4.395 2.09 3.9075 2.27 3.4575C2.45 3 2.735 2.58 3.1325 2.205C3.6125 1.7325 4.1375 1.5 4.6925 1.5C4.9025 1.5 5.1125 1.545 5.3 1.635C5.495 1.725 5.6675 1.86 5.8025 2.055L7.5425 4.5075C7.6775 4.695 7.775 4.8675 7.8425 5.0325C7.91 5.19 7.9475 5.3475 7.9475 5.49C7.9475 5.67 7.895 5.85 7.79 6.0225C7.6925 6.195 7.55 6.375 7.37 6.555L6.8 7.1475C6.7175 7.23 6.68 7.3275 6.68 7.4475C6.68 7.5075 6.6875 7.56 6.7025 7.62C6.725 7.68 6.7475 7.725 6.7625 7.77C6.8975 8.0175 7.13 8.34 7.46 8.73C7.7975 9.12 8.1575 9.5175 8.5475 9.915C8.6225 9.99 8.705 10.065 8.78 10.14C9.08 10.4325 9.0875 10.9125 8.7875 11.2125Z" fill="#00967F"/>
<path d="M16.9777 13.7478C16.9777 13.9578 16.9402 14.1753 16.8652 14.3853C16.8427 14.4453 16.8202 14.5053 16.7902 14.5653C16.6627 14.8353 16.4977 15.0903 16.2802 15.3303C15.9127 15.7353 15.5077 16.0278 15.0502 16.2153C15.0427 16.2153 15.0352 16.2228 15.0277 16.2228C14.5852 16.4028 14.1052 16.5003 13.5877 16.5003C12.8227 16.5003 12.0052 16.3203 11.1427 15.9528C10.2802 15.5853 9.4177 15.0903 8.5627 14.4678C8.2702 14.2503 7.9777 14.0328 7.7002 13.8003L10.1527 11.3478C10.3627 11.5053 10.5502 11.6253 10.7077 11.7078C10.7452 11.7228 10.7902 11.7453 10.8427 11.7678C10.9027 11.7903 10.9627 11.7978 11.0302 11.7978C11.1577 11.7978 11.2552 11.7528 11.3377 11.6703L11.9077 11.1078C12.0952 10.9203 12.2752 10.7778 12.4477 10.6878C12.6202 10.5828 12.7927 10.5303 12.9802 10.5303C13.1227 10.5303 13.2727 10.5603 13.4377 10.6278C13.6027 10.6953 13.7752 10.7928 13.9627 10.9203L16.4452 12.6828C16.6402 12.8178 16.7752 12.9753 16.8577 13.1628C16.9327 13.3503 16.9777 13.5378 16.9777 13.7478Z" fill="#00967F"/>
</svg>
