<svg width="20" height="25" viewBox="0 0 20 25" fill="none" xmlns="http://www.w3.org/2000/svg">
<path d="M9.77325 0.483262C9.67876 0.57303 9.66931 0.629725 9.66931 1.09746C9.66931 1.5652 9.67876 1.62189 9.77325 1.71166C9.82995 1.76363 9.93389 1.80615 10 1.80615C10.0662 1.80615 10.1701 1.76363 10.2268 1.71166C10.3213 1.62189 10.3308 1.5652 10.3308 1.09746C10.3308 0.629725 10.3213 0.57303 10.2268 0.483262C10.1701 0.431292 10.0662 0.38877 10 0.38877C9.93389 0.38877 9.82995 0.431292 9.77325 0.483262Z" fill="#00967F"/>
<path d="M11.6772 1.76362C11.2567 1.82031 10.685 1.96678 10.3165 2.11324C10.1606 2.17938 10.0094 2.23136 9.98108 2.23136C9.95273 2.23136 9.76847 2.16994 9.57476 2.09434C8.75268 1.77307 7.52901 1.6644 6.6455 1.83449C4.34934 2.26915 2.53982 4.1212 2.18547 6.38901C2.07681 7.08825 1.94452 9.58757 2.01066 9.72458C2.12405 9.97971 2.52092 9.96554 2.62486 9.70569C2.64848 9.63482 2.70518 8.98282 2.7477 8.25523C2.7855 7.52764 2.84219 6.77643 2.87054 6.58744C3.13984 4.70705 4.45329 3.20935 6.34785 2.6235C6.73527 2.50538 6.82032 2.49593 7.63767 2.49593C8.45031 2.49593 8.54007 2.50538 8.91332 2.61877C9.13537 2.68964 9.39523 2.77941 9.49444 2.81721L9.66925 2.8928V3.71961C9.66925 4.48499 9.6787 4.55586 9.76375 4.64091C9.81572 4.69288 9.91966 4.7354 9.99998 4.7354C10.0803 4.7354 10.1842 4.69288 10.2362 4.64091C10.3213 4.55586 10.3307 4.48499 10.3307 3.71961V2.89753L10.463 2.83138C10.6378 2.74161 11.1433 2.58098 11.4882 2.50538C11.6489 2.47231 12.0505 2.44869 12.4095 2.44869C12.934 2.45341 13.1277 2.47704 13.5056 2.57625C14.9325 2.95422 16.142 3.94639 16.7373 5.23621C16.9168 5.6189 17.1152 6.32287 17.1578 6.71973C17.1719 6.86147 17.3326 9.54033 17.5121 12.6727C17.6916 15.8052 17.8523 18.5029 17.8665 18.673C17.9373 19.4526 18.1452 20.1707 18.509 20.9077C18.6366 21.1629 18.7405 21.4085 18.7405 21.4558C18.7405 21.5692 18.6318 21.6589 18.2822 21.8338C17.6869 22.1314 16.9404 22.259 16.3073 22.1739C15.8443 22.1078 15.6034 22.0322 14.9325 21.7393C14.3986 21.503 14.3183 21.4936 14.1482 21.64C14.049 21.7251 14.0348 21.9755 14.1246 22.0889C14.2002 22.1881 15.0789 22.6039 15.4805 22.7267C16.4916 23.0338 17.6302 22.944 18.5846 22.4716C19.0476 22.2448 19.2933 22.0322 19.3831 21.7818C19.5012 21.4652 19.4634 21.2857 19.1704 20.6573C18.8444 19.977 18.6696 19.4053 18.5988 18.8242C18.5704 18.5974 18.4003 15.8288 18.2208 12.6727C18.0365 9.5167 17.8665 6.75753 17.8428 6.5402C17.6444 4.97163 16.7656 3.56369 15.4333 2.67547C14.2852 1.91481 12.9907 1.59826 11.6772 1.76362Z" fill="#00967F"/>
<path d="M5.35578 4.64577C5.13845 4.77334 5.16207 5.14186 5.3983 5.25052C5.85187 5.45841 6.31015 5.01429 5.96998 4.69774C5.84714 4.58435 5.51169 4.55601 5.35578 4.64577Z" fill="#00967F"/>
<path d="M13.6001 5.33075C13.5434 5.36855 13.4442 5.50556 13.3828 5.6284C13.2458 5.89298 12.9718 6.15283 12.6552 6.31347C12.1922 6.5497 12.2016 7.06941 12.6788 7.26784C12.9245 7.37178 13.208 7.65526 13.3592 7.95763C13.6237 8.48679 14.082 8.51986 14.3277 8.03323C14.4931 7.71195 14.7482 7.44265 15.027 7.30091C15.3388 7.145 15.4333 7.02689 15.4333 6.77648C15.4333 6.54498 15.386 6.48828 14.9136 6.18591C14.7057 6.04889 14.5592 5.91188 14.4553 5.75124C14.2049 5.35437 14.0915 5.25516 13.8883 5.25516C13.7891 5.25516 13.6568 5.28823 13.6001 5.33075ZM14.2994 6.93239C14.1482 7.06468 13.9923 7.23004 13.9119 7.35288C13.8931 7.38123 13.8364 7.34343 13.7702 7.26312C13.7135 7.1828 13.5812 7.04578 13.482 6.95129L13.3025 6.78121L13.5907 6.50245L13.8836 6.21898L14.1718 6.50718L14.4647 6.79066L14.2994 6.93239Z" fill="#00967F"/>
<path d="M9.90554 5.52455C9.67876 5.60959 9.66931 5.64266 9.66931 6.60176C9.66931 7.62227 9.68349 7.66479 10.0095 7.66479C10.3119 7.66479 10.3308 7.6081 10.3308 6.59231C10.3308 5.79857 10.3213 5.68518 10.2504 5.62376C10.1465 5.534 10 5.49148 9.90554 5.52455Z" fill="#00967F"/>
<path d="M6.8629 6.77184C6.70226 6.8994 6.69281 7.13563 6.84872 7.27737C7.00936 7.42856 7.39205 7.42383 7.53379 7.27265C7.77947 7.01279 7.58104 6.67262 7.18889 6.67262C7.05661 6.67262 6.94794 6.70569 6.8629 6.77184Z" fill="#00967F"/>
<path d="M3.90049 7.75449C3.78237 7.87733 3.75875 7.9293 3.7871 8.03325C3.83907 8.25058 3.94301 8.32617 4.18869 8.32617C4.72257 8.32617 4.77454 7.70252 4.25011 7.63165C4.0753 7.60803 4.0375 7.62221 3.90049 7.75449Z" fill="#00967F"/>
<path d="M9.7733 8.54354C9.67408 8.60968 9.66936 8.6522 9.66936 9.17191C9.66936 9.47901 9.65518 9.73886 9.64101 9.75304C9.62684 9.76721 9.4284 9.67744 9.20162 9.54988C8.97011 9.42704 8.61577 9.26168 8.41261 9.19081C8.07716 9.07269 7.97795 9.05852 7.40154 9.05852C6.85821 9.05852 6.71648 9.07269 6.43772 9.16718C5.02979 9.63965 4.15101 10.7641 4.06125 12.2098L4.0329 12.6728H3.89588C3.68328 12.6728 3.30531 12.8902 3.15412 13.0981C2.89427 13.4619 2.88482 13.5941 3.04545 14.7044C3.16829 15.5312 3.21554 15.7391 3.32421 15.9375C3.48012 16.2305 3.82974 16.5565 4.11322 16.6699L4.31637 16.7549L4.37307 17.3313C4.43921 17.9975 4.5904 18.6731 4.80773 19.24C4.97782 19.6794 5.11483 19.8542 5.29909 19.8542C5.43611 19.8542 5.65344 19.6653 5.65344 19.5424C5.65344 19.4999 5.57785 19.2684 5.48808 19.0227C5.26602 18.4321 5.14318 17.9077 5.08176 17.2793C5.05814 16.9911 5.02507 16.6888 5.01089 16.6037C4.97782 16.3958 4.74159 16.136 4.51953 16.0698C4.2833 15.999 4.0329 15.7911 3.93841 15.5927C3.90061 15.5076 3.81084 15.0493 3.73997 14.5769C3.62658 13.7879 3.62186 13.7028 3.688 13.5752C3.76832 13.4241 3.81084 13.4052 4.16046 13.3532C4.32582 13.3296 4.43921 13.2776 4.55733 13.1689L4.72742 13.0177L4.76049 12.4319C4.79828 11.8082 4.8975 11.4066 5.11483 11.0381C5.5495 10.2964 6.37158 9.80028 7.24563 9.75304C7.90708 9.71996 8.18111 9.80501 9.20635 10.372C9.68353 10.6365 10.2174 10.92 10.3969 11.0098C11.1529 11.383 11.9986 11.4775 13.0427 11.3027C14.0491 11.1373 14.4365 11.2035 14.8334 11.6004C15.0885 11.8555 15.2019 12.139 15.2349 12.5973C15.2586 12.961 15.268 12.9894 15.4287 13.15C15.5609 13.2823 15.6507 13.3296 15.835 13.3532C16.1893 13.4052 16.2318 13.4241 16.3122 13.5752C16.3783 13.7028 16.3736 13.7879 16.2602 14.5769C16.1893 15.0493 16.0996 15.5076 16.0618 15.5927C15.9909 15.7438 15.6932 16.0273 15.6035 16.0273C15.5798 16.0273 15.4665 16.0698 15.3578 16.1265C15.079 16.2588 14.9704 16.4998 14.9515 16.9911C14.942 17.3455 14.9467 17.3691 15.0743 17.473C15.2349 17.6148 15.3483 17.6148 15.5042 17.4778C15.6035 17.3927 15.6318 17.3171 15.6507 17.0667L15.6791 16.7596L15.9342 16.6462C16.2602 16.5045 16.624 16.1171 16.7468 15.7769C16.7988 15.6446 16.898 15.1202 16.9689 14.6194C17.1153 13.5989 17.1012 13.4524 16.846 13.0981C16.6949 12.8902 16.3169 12.6728 16.1043 12.6728C15.9767 12.6728 15.972 12.6634 15.92 12.3232C15.8161 11.5956 15.3956 11.0051 14.753 10.6885C14.3136 10.4712 13.8506 10.4476 12.9955 10.594C12.5325 10.6743 12.2773 10.6932 11.9372 10.6743C11.46 10.646 10.8883 10.4948 10.5434 10.2964L10.3544 10.1877L10.3308 9.39397C10.3072 8.68055 10.2977 8.59551 10.2174 8.53409C10.0946 8.44905 9.90559 8.44905 9.7733 8.54354Z" fill="#00967F"/>
<path d="M1.97291 10.8351C1.91621 10.8965 1.87369 10.9863 1.87369 11.0382C1.87369 11.0949 1.76503 12.8997 1.63746 15.0589C1.39178 19.2071 1.37761 19.3205 1.10358 20.0481C1.03744 20.2134 0.890973 20.5489 0.768133 20.7946C0.536627 21.267 0.503555 21.4796 0.612221 21.782C0.739786 22.1222 1.19807 22.434 1.94456 22.6844C2.78082 22.9631 3.69267 22.982 4.5053 22.7316C4.90217 22.6088 5.6959 22.245 5.83291 22.1269C5.96048 22.0135 5.97465 21.7442 5.85654 21.6403C5.68173 21.4938 5.60141 21.5032 5.06753 21.7395C4.39663 22.0324 4.15568 22.108 3.69267 22.1741C3.05957 22.2592 2.31308 22.1316 1.71778 21.834C1.36816 21.6592 1.25949 21.5694 1.25949 21.456C1.25949 21.4088 1.36343 21.1631 1.491 20.9079C1.85007 20.1804 2.05795 19.4669 2.13355 18.6968C2.14772 18.5409 2.25639 16.7456 2.3745 14.7093C2.58238 11.0524 2.58711 11.0004 2.49734 10.8823C2.3745 10.7122 2.10992 10.6886 1.97291 10.8351Z" fill="#00967F"/>
<path d="M6.66916 11.1136C5.98882 11.2128 5.65809 11.416 5.72424 11.6806C5.79511 11.9688 6.02661 12.0349 6.41403 11.8837C6.58412 11.8176 6.84397 11.8034 7.83614 11.7845L9.05509 11.7656L9.14958 11.6475C9.2677 11.4963 9.2677 11.3451 9.1543 11.2034C9.06454 11.09 9.05981 11.09 7.9826 11.0805C7.39203 11.0805 6.79672 11.09 6.66916 11.1136Z" fill="#00967F"/>
<path d="M9.7638 11.4917C9.67404 11.5815 9.66931 11.6476 9.66931 12.4839C9.66931 13.3202 9.67404 13.3863 9.7638 13.4761C9.81577 13.528 9.91972 13.5706 10 13.5706C10.0804 13.5706 10.1843 13.528 10.2363 13.4761C10.326 13.3863 10.3308 13.3202 10.3308 12.4839C10.3308 11.6476 10.326 11.5815 10.2363 11.4917C10.1843 11.4398 10.0804 11.3972 10 11.3972C9.91972 11.3972 9.81577 11.4398 9.7638 11.4917Z" fill="#00967F"/>
<path d="M6.83451 12.4839C6.7164 12.602 6.71167 12.8193 6.82979 12.9611C6.91956 13.0745 6.92428 13.0745 7.9448 13.0745C8.96531 13.0745 8.97004 13.0745 9.05981 12.9611C9.17792 12.8193 9.1732 12.602 9.05508 12.4839C8.96531 12.3941 8.89917 12.3894 7.9448 12.3894C6.99043 12.3894 6.92428 12.3941 6.83451 12.4839Z" fill="#00967F"/>
<path d="M9.79215 14.4257L9.66931 14.5202V15.4367C9.66931 16.3297 9.67404 16.3533 9.77325 16.4242C9.91972 16.5281 10.1229 16.5187 10.2363 16.4053C10.326 16.3155 10.3308 16.2494 10.3308 15.4178V14.5202L10.2079 14.4257C10.137 14.369 10.0473 14.3265 10 14.3265C9.95279 14.3265 9.86302 14.369 9.79215 14.4257Z" fill="#00967F"/>
<path d="M6.36207 16.5941C6.2912 16.665 6.26758 16.7501 6.26758 16.9249C6.26758 17.0997 6.2912 17.1847 6.36207 17.2556C6.60303 17.4965 6.97627 17.2981 6.97627 16.9296C6.97627 16.5611 6.60303 16.3532 6.36207 16.5941Z" fill="#00967F"/>
<path d="M8.18583 17.1659C8.08189 17.2509 8.06299 17.2982 8.06299 17.5202C8.06299 17.8226 8.17165 17.9644 8.39371 17.9644C8.61577 17.9644 8.72443 17.8226 8.72443 17.5202C8.72443 17.2982 8.70554 17.2509 8.60159 17.1659C8.53072 17.1092 8.44096 17.0667 8.39371 17.0667C8.34646 17.0667 8.2567 17.1092 8.18583 17.1659Z" fill="#00967F"/>
<path d="M9.74963 17.388C9.67876 17.4636 9.66931 17.6054 9.66931 18.3755C9.66931 19.2165 9.67404 19.2779 9.7638 19.3582C9.88664 19.4669 10.1134 19.4669 10.2363 19.3582C10.326 19.2779 10.3308 19.2165 10.3308 18.366C10.3308 17.5487 10.3213 17.4495 10.2457 17.3833C10.1276 17.2746 9.84412 17.2794 9.74963 17.388Z" fill="#00967F"/>
<path d="M14.4364 18.3046C14.3797 18.3661 14.2758 18.5173 14.2002 18.6401C14.1104 18.7866 13.9829 18.9141 13.8411 18.9944C13.4821 19.2023 13.3545 19.3488 13.3545 19.5472C13.3545 19.7882 13.4206 19.8874 13.6805 20.015C13.9309 20.1425 14.1718 20.3929 14.2711 20.6244C14.3656 20.8512 14.5167 20.9646 14.7246 20.9646C14.9467 20.9646 15.0506 20.8748 15.2443 20.5299C15.3483 20.3457 15.4522 20.237 15.6081 20.1472C15.731 20.0764 15.9011 19.9488 15.9908 19.8638C16.1373 19.7268 16.1515 19.689 16.1278 19.5189C16.0995 19.2874 16.0381 19.2165 15.7688 19.0748C15.5231 18.9519 15.3625 18.7913 15.1782 18.4984C15.0365 18.2621 14.9325 18.2007 14.701 18.2007C14.5876 18.2007 14.5026 18.2338 14.4364 18.3046ZM14.942 19.7645L14.7341 19.9772L14.5309 19.7693L14.3325 19.5661L14.5404 19.3535L14.7435 19.1456L14.9514 19.3488L15.1546 19.5519L14.942 19.7645Z" fill="#00967F"/>
<path d="M6.98105 18.9849C6.80151 19.2117 6.87711 19.6133 7.11334 19.7125C7.26925 19.7739 7.46768 19.7125 7.53855 19.5755C7.62832 19.4148 7.59997 19.0794 7.49603 18.966C7.35429 18.8148 7.10861 18.8243 6.98105 18.9849Z" fill="#00967F"/>
<path d="M9.7638 20.3267C9.67404 20.4165 9.66931 20.4826 9.66931 21.3141V22.2118L9.79215 22.3063C9.95279 22.4291 10.0473 22.4291 10.2079 22.3063L10.3308 22.2118V21.3141C10.3308 20.4826 10.326 20.4165 10.2363 20.3267C10.1843 20.2747 10.0804 20.2322 10 20.2322C9.91972 20.2322 9.81577 20.2747 9.7638 20.3267Z" fill="#00967F"/>
<path d="M5.93684 20.4826C5.7762 20.5629 5.68643 20.7566 5.74313 20.9031C5.80927 21.0732 6.3715 21.7016 6.74947 22.0323C7.48178 22.6654 8.66294 23.3221 9.33856 23.4733L9.66928 23.5489V23.9694C9.66928 24.3379 9.68345 24.3993 9.77322 24.4844C9.82992 24.5363 9.93386 24.5789 10 24.5789C10.0661 24.5789 10.1701 24.5363 10.2268 24.4844C10.3166 24.3993 10.3307 24.3379 10.3307 23.9647C10.3307 23.5394 10.3307 23.5394 10.463 23.5111C10.8788 23.4213 11.1623 23.3127 11.7387 23.0197C12.419 22.6748 12.9907 22.278 13.4868 21.8008C13.7372 21.5551 13.7797 21.4937 13.7797 21.3472C13.7797 21.1441 13.6332 20.9882 13.4395 20.9882C13.3403 20.9882 13.208 21.0779 12.8962 21.3708C12.4048 21.8244 11.9371 22.1457 11.2993 22.4528C10.6945 22.7457 10.3921 22.8308 9.97638 22.8308C9.55589 22.8308 9.25351 22.741 8.65349 22.4433C7.80778 22.0181 7.16051 21.5126 6.49907 20.7661C6.21559 20.4448 6.11165 20.3929 5.93684 20.4826Z" fill="#00967F"/>
</svg>
