<svg width="18" height="18" viewBox="0 0 18 18" fill="none" xmlns="http://www.w3.org/2000/svg">
<path d="M6.75 1.5C4.785 1.5 3.1875 3.0975 3.1875 5.0625C3.1875 6.99 4.695 8.55 6.66 8.6175C6.72 8.61 6.78 8.61 6.825 8.6175C6.84 8.6175 6.8475 8.6175 6.8625 8.6175C6.87 8.6175 6.87 8.6175 6.8775 8.6175C8.7975 8.55 10.305 6.99 10.3125 5.0625C10.3125 3.0975 8.715 1.5 6.75 1.5Z" fill="#00967F"/>
<path d="M10.56 10.6127C8.46747 9.21766 5.05497 9.21766 2.94747 10.6127C1.99497 11.2502 1.46997 12.1127 1.46997 13.0352C1.46997 13.9577 1.99497 14.8127 2.93997 15.4427C3.98997 16.1477 5.36997 16.5002 6.74997 16.5002C8.12997 16.5002 9.50997 16.1477 10.56 15.4427C11.505 14.8052 12.03 13.9502 12.03 13.0202C12.0225 12.0977 11.505 11.2427 10.56 10.6127Z" fill="#00967F"/>
<path d="M14.9925 5.50556C15.1125 6.96056 14.0775 8.23556 12.645 8.40806C12.6375 8.40806 12.6375 8.40806 12.63 8.40806H12.6075C12.5625 8.40806 12.5175 8.40806 12.48 8.42306C11.7525 8.46056 11.085 8.22806 10.5825 7.80056C11.355 7.11056 11.7975 6.07556 11.7075 4.95056C11.655 4.34306 11.445 3.78806 11.13 3.31556C11.415 3.17306 11.745 3.08306 12.0825 3.05306C13.5525 2.92556 14.865 4.02056 14.9925 5.50556Z" fill="#00967F"/>
<path d="M16.4924 12.4428C16.4324 13.1703 15.9674 13.8003 15.1874 14.2278C14.4374 14.6403 13.4924 14.8353 12.5549 14.8128C13.0949 14.3253 13.4099 13.7178 13.4699 13.0728C13.5449 12.1428 13.1024 11.2503 12.2174 10.5378C11.7149 10.1403 11.1299 9.8253 10.4924 9.5928C12.1499 9.1128 14.2349 9.4353 15.5174 10.4703C16.2074 11.0253 16.5599 11.7228 16.4924 12.4428Z" fill="#00967F"/>
</svg>
