<svg width="20" height="20" viewBox="0 0 20 20" fill="none" xmlns="http://www.w3.org/2000/svg">
<path d="M11.125 3.00289C11.6676 3.47584 12.312 4.07169 12.9525 4.76828L11.125 5.66715V3.00289Z" fill="black" stroke="#404040"/>
<path d="M11.125 16.5093L15.6173 14.3065C14.7634 16.0645 13.102 17.3681 11.125 17.7296V16.5093Z" fill="black" stroke="#404040"/>
<path d="M3.75006 11.5835L3.75006 11.5814C3.74233 9.73529 4.54944 7.97268 5.63485 6.44379C6.66676 4.99025 7.9231 3.78638 8.87506 2.97496V17.7298C5.96309 17.1923 3.75006 14.6458 3.75006 11.5835Z" fill="black" stroke="#404040"/>
<path d="M11.1167 9.88459V8.16816L14.4096 6.566C14.7529 7.05383 15.0689 7.57489 15.345 8.11012L11.1167 9.88459Z" fill="black" stroke="#404040"/>
<path d="M16.525 11.9248C16.6583 11.8581 16.7417 11.7331 16.7417 11.5914C16.7417 11.0581 16.675 10.5331 16.5583 10.0164C16.5 9.76643 16.225 9.6331 15.9917 9.7331L10.875 11.9164C10.725 11.9831 10.625 12.1331 10.625 12.2998V14.1331C10.625 14.4414 10.95 14.6414 11.225 14.5081L16.1417 12.1164L16.525 11.9248Z" fill="black"/>
</svg>
