<svg width="27" height="27" viewBox="0 0 27 27" fill="none" xmlns="http://www.w3.org/2000/svg">
<rect width="27" height="27" fill="#F5F5F5"/>
<g clip-path="url(#clip0_2481_14059)">
<rect width="430" height="1172" transform="translate(-382 -64)" fill="#FCFCFC"/>
<path d="M6.60047 21.6581C6.54814 21.6115 6.49232 21.5668 6.44637 21.5304V21.5114L6.26566 21.3444C4.14686 19.3861 2.81262 16.597 2.81262 13.5C2.81262 7.61191 7.61203 2.8125 13.5001 2.8125C19.3882 2.8125 24.1876 7.61191 24.1876 13.5C24.1876 16.5968 22.8536 19.3855 20.7244 21.3435L20.3657 21.6733C20.3048 21.7209 20.2469 21.7722 20.2197 21.7962C20.2124 21.8027 20.2073 21.8072 20.205 21.8091L20.5651 22.2413L20.205 21.8091C20.0194 21.9638 19.8197 22.1113 19.6013 22.2642L19.6013 22.2642L19.5969 22.2673C19.543 22.3058 19.5112 22.3298 19.4887 22.3468C19.4597 22.3688 19.446 22.3791 19.4198 22.3941L19.4058 22.4021L19.3923 22.4109C19.253 22.5014 19.1232 22.5771 18.9811 22.6599C18.905 22.7042 18.8255 22.7506 18.7391 22.8024C18.6998 22.8251 18.6585 22.8509 18.6285 22.8697C18.6207 22.8746 18.6137 22.879 18.6077 22.8827C18.5705 22.9058 18.546 22.92 18.5248 22.9306L18.5248 22.9305L18.5154 22.9355C18.2915 23.0527 18.0684 23.1589 17.846 23.2542L17.8308 23.2607L17.8161 23.2681C17.7207 23.3158 17.6576 23.3468 17.6001 23.3683L17.588 23.3729L17.576 23.378C17.4365 23.4378 17.3027 23.4836 17.1493 23.5361C17.0688 23.5636 16.9829 23.593 16.8881 23.6273C16.7778 23.6569 16.6741 23.6959 16.5976 23.7246L16.5942 23.7258C16.4346 23.7809 16.2739 23.8189 16.0856 23.8635C16.0165 23.8798 15.9438 23.897 15.866 23.9163C15.7948 23.9278 15.7346 23.9444 15.7001 23.9539L15.6976 23.9546C15.6623 23.9644 15.6503 23.9674 15.6474 23.9681C15.6469 23.9683 15.6467 23.9683 15.6467 23.9684L15.6288 23.9709L15.6098 23.975C15.3199 24.0371 15.0258 24.0794 14.7135 24.1117L14.6737 24.1158L14.6349 24.1255L14.6117 24.1313H14.6109L14.5854 24.1336C14.2259 24.1662 13.8611 24.1875 13.5001 24.1875C13.1532 24.1875 12.8023 24.1679 12.4452 24.1372C12.4006 24.1268 12.332 24.1133 12.2556 24.1097C11.9507 24.0776 11.663 24.0358 11.3792 23.975L11.3554 23.9699L11.3311 23.9668C11.2902 23.9617 11.251 23.9515 11.1684 23.9279L11.1594 23.9253L11.1503 23.923C10.8786 23.8551 10.6192 23.7902 10.3614 23.715L10.3509 23.7119L10.3403 23.7093C10.2868 23.6959 10.2272 23.6743 10.1314 23.6383L10.118 23.6333L10.1044 23.629C9.87168 23.5549 9.63833 23.4701 9.40435 23.3744L9.39666 23.3712L9.38888 23.3683C9.33144 23.3468 9.26827 23.3158 9.17293 23.2681L9.15397 23.2587L9.13436 23.2506C8.90745 23.1578 8.69204 23.0553 8.48785 22.9432C8.45564 22.9247 8.41996 22.9033 8.37827 22.8783L8.37564 22.8767C8.33523 22.8525 8.28877 22.8246 8.2442 22.7991L8.23525 22.794L8.22612 22.7892C8.01048 22.6763 7.80591 22.5536 7.6122 22.4213C7.57127 22.3921 7.53344 22.3659 7.49888 22.342L7.4978 22.3413C7.46203 22.3165 7.42966 22.2941 7.39536 22.2696C7.34143 22.2299 7.28909 22.1918 7.23817 22.1547C7.07409 22.0352 6.92471 21.9264 6.78397 21.8091L6.76089 21.7899L6.73589 21.7732C6.71832 21.7615 6.71245 21.7561 6.69703 21.742C6.68158 21.7279 6.65653 21.705 6.60047 21.6581ZM18.744 19.5582L18.7481 19.5609C19.1957 19.8559 19.566 20.1979 19.8524 20.5632L20.2466 21.0662L20.6955 20.6114C22.5043 18.7788 23.6251 16.265 23.6251 13.5C23.6251 7.91309 19.087 3.375 13.5001 3.375C7.91321 3.375 3.37512 7.91309 3.37512 13.5C3.37512 16.265 4.49599 18.7788 6.30478 20.6114L6.74625 21.0587L7.14205 20.5705C7.4464 20.1951 7.80929 19.8528 8.25218 19.5609L8.25464 19.5593C9.67912 18.6096 11.581 18.1181 13.5086 18.1181C15.4363 18.1181 17.3316 18.6097 18.744 19.5582Z" fill="#404040" stroke="#404040" stroke-width="1.125"/>
<path d="M9.84387 12.0149C9.84387 9.9968 11.482 8.35864 13.5001 8.35864C15.5177 8.35864 17.1556 9.99604 17.1564 12.0135C17.1459 13.9927 15.6008 15.5869 13.6363 15.6599H13.6363H13.6362H13.6362H13.6361H13.636H13.636H13.6359H13.6359H13.6358H13.6358H13.6357H13.6357H13.6356H13.6355H13.6355H13.6354H13.6354H13.6353H13.6352H13.6352H13.6351H13.6351H13.635H13.635H13.6349H13.6348H13.6348H13.6347H13.6347H13.6346H13.6345H13.6345H13.6344H13.6344H13.6343H13.6343H13.6342H13.6341H13.6341H13.634H13.634H13.6339H13.6338H13.6338H13.6337H13.6337H13.6336H13.6335H13.6335H13.6334H13.6334H13.6333H13.6332H13.6332H13.6331H13.6331H13.633H13.6329H13.6329H13.6328H13.6327H13.6327H13.6326H13.6326H13.6325H13.6324H13.6324H13.6323H13.6323H13.6322H13.6321H13.6321H13.632H13.6319H13.6319H13.6318H13.6318H13.6317H13.6316H13.6316H13.6315H13.6315H13.6314H13.6313H13.6313H13.6312H13.6311H13.6311H13.631H13.6309H13.6309H13.6308H13.6308H13.6307H13.6306H13.6306H13.6305H13.6304H13.6304H13.6303H13.6303H13.6302H13.6301H13.6301H13.63H13.6299H13.6299H13.6298H13.6297H13.6297H13.6296H13.6296H13.6295H13.6294H13.6294H13.6293H13.6292H13.6292H13.6291H13.629H13.629H13.6289H13.6288H13.6288H13.6287H13.6287H13.6286H13.6285H13.6285H13.6284H13.6283H13.6283H13.6282H13.6281H13.6281H13.628H13.6279H13.6279H13.6278H13.6277H13.6277H13.6276H13.6275H13.6275H13.6274H13.6274H13.6273H13.6272H13.6272H13.6271H13.627H13.627H13.6269H13.6268H13.6268H13.6267H13.6266H13.6266H13.6265H13.6264H13.6264H13.6263H13.6262H13.6262H13.6261H13.626H13.626H13.6259H13.6258H13.6258H13.6257H13.6256H13.6256H13.6255H13.6255H13.6254H13.6253H13.6253H13.6252H13.6251H13.6251H13.625H13.6249H13.6249H13.6248H13.6247H13.6247H13.6246H13.6245H13.6245H13.6244H13.6243H13.6243H13.6242H13.6241H13.6241H13.624H13.6239H13.6239H13.6237H13.6236H13.6235H13.6233H13.6232H13.6231H13.6229H13.6228H13.6227H13.6225H13.6224H13.6223H13.6221H13.622H13.6219H13.6217H13.6216H13.6215H13.6213H13.6212H13.621H13.6209H13.6208H13.6206H13.6205H13.6204H13.6202H13.6201H13.6199H13.6198H13.6197H13.6195H13.6194H13.6192H13.6191H13.619H13.6188H13.6187H13.6185H13.6184H13.6183H13.6181H13.618H13.6178H13.6177H13.6176H13.6174H13.6173H13.6171H13.617H13.6168H13.6167H13.6165H13.6164H13.6163H13.6161H13.616H13.6158H13.6157H13.6155H13.6154H13.6152H13.6151H13.615H13.6148H13.6147H13.6145H13.6144H13.6142H13.6141H13.6139H13.6138H13.6136H13.6135H13.6133H13.6132H13.613H13.6129H13.6127H13.6126H13.6124H13.6123H13.6121H13.612H13.6118H13.6117H13.6115H13.6114H13.6112H13.6111H13.6109H13.6108H13.6106H13.6105H13.6103H13.6102H13.61H13.6099H13.6097H13.6096H13.6094H13.6093H13.6091H13.609H13.6088H13.6087H13.6085H13.6083H13.6082H13.608H13.6079H13.6077H13.6076H13.6074H13.6073H13.6071H13.607H13.6068H13.6066H13.6065H13.6063H13.6062H13.606H13.6059H13.6057H13.6056H13.6054H13.6052H13.6051H13.6049H13.6048H13.6046H13.6045H13.6043H13.6041H13.604H13.6038H13.6037H13.6035H13.6034H13.6032H13.603H13.6029H13.6027H13.6026H13.6024H13.6022H13.6021H13.6019H13.6018H13.6016H13.6014H13.6013H13.6011H13.601H13.6008H13.6006H13.6005H13.6003H13.6002H13.6H13.5998H13.5997H13.5995H13.5994H13.5992H13.599H13.5989H13.5987H13.5986H13.5984H13.5982H13.5981H13.5979H13.5978H13.5976H13.5974H13.5973H13.5971H13.5969H13.5968H13.5966H13.5965H13.5963H13.5961H13.596H13.5958H13.5957H13.5955H13.5953H13.5952H13.595H13.5948H13.5947H13.5945H13.5943H13.5942H13.594H13.5939H13.5937H13.5935H13.5934H13.5932H13.593H13.5929H13.5927H13.5926H13.5924H13.5922H13.5921H13.5919H13.5917H13.5916H13.5914H13.5912H13.5911H13.5909H13.5907H13.5906H13.5904H13.5903H13.5901H13.5899H13.5898H13.5896H13.5894H13.5893H13.5891H13.5889H13.5888H13.5886H13.5884H13.5883H13.5881H13.588H13.5878H13.5876H13.5875H13.5873H13.5871H13.587H13.5868H13.5866H13.5865H13.5863H13.5861H13.586H13.5858H13.5857H13.5855H13.5853H13.5852H13.585H13.5848H13.5847H13.5845H13.5843H13.5842H13.584H13.5838H13.5837H13.5835H13.5833H13.5832H13.583H13.5828H13.5827H13.5825H13.5824H13.5822H13.582H13.5819H13.5817H13.5815H13.5814H13.5812H13.581H13.5809H13.5807H13.5805H13.5804H13.5802H13.5801H13.5799H13.5797H13.5796H13.5794H13.5792H13.5791H13.5789H13.5787H13.5786H13.5784H13.5782H13.5781H13.5779H13.5778H13.5776H13.5774H13.5773H13.5771H13.5769H13.5768H13.5766H13.5764H13.5763H13.5761H13.576H13.5758H13.5756H13.5755H13.5753H13.5751H13.575H13.5748H13.5746H13.5745H13.5743H13.5742H13.574H13.5738H13.5737H13.5735H13.5733H13.5732H13.573H13.5729H13.5727H13.5725H13.5724H13.5722H13.572H13.5719H13.5717H13.5716H13.5714H13.5712H13.5711H13.5709H13.5708H13.5706H13.5704H13.5703H13.5701H13.5699H13.5698H13.5696H13.5695H13.5693H13.5691H13.569H13.5688H13.5687H13.5685H13.5683H13.5682H13.568H13.5679H13.5677H13.5675H13.5674H13.5672H13.5671H13.5669H13.5668H13.5666H13.5664H13.5663H13.5661H13.566H13.5658H13.5656H13.5655H13.5653H13.5652H13.565H13.5649H13.5647H13.5645H13.5644H13.5642H13.5641H13.5639H13.5638H13.5636H13.5634H13.5633H13.5631H13.563H13.5628H13.5627H13.5625H13.5624H13.5622H13.562H13.5619H13.5617H13.5616H13.5614H13.5613H13.5611H13.561H13.5608H13.5607H13.5605H13.5603H13.5602H13.56H13.5599H13.5597H13.5596H13.5594H13.5593H13.5591H13.559H13.5588H13.5587H13.5585H13.5584H13.5582H13.5581H13.5579H13.5578H13.5576H13.5575H13.5573H13.5572H13.557H13.5569H13.5567H13.5566H13.5564H13.5563H13.5561H13.556H13.5558H13.5557H13.5555H13.5554H13.5552H13.5551H13.5549H13.5548H13.5546H13.5545H13.5543H13.5542H13.554H13.5539H13.5538H13.5536H13.5535H13.5533H13.5532H13.553H13.5529H13.5527H13.5526H13.5524H13.5523H13.5522H13.552H13.5519H13.5517H13.5516H13.5514H13.5513H13.5512H13.551H13.5509H13.5507H13.5506H13.5504H13.5503H13.5502H13.55H13.5499H13.5497H13.5496H13.5495H13.5493H13.5492H13.549H13.5489H13.5488H13.5486H13.5485H13.5484H13.5482H13.5481H13.5479H13.5478H13.5477H13.5475H13.5474H13.5473H13.5471H13.547H13.5469H13.5467H13.5466H13.5465H13.5463H13.5462H13.5461H13.5459H13.5458H13.5457H13.5455H13.5454H13.5453H13.5451H13.545H13.5449H13.5447H13.5446H13.5445H13.5443H13.5442H13.5441H13.5439H13.5438H13.5436H13.5435H13.5434H13.5432H13.5431H13.5429H13.5428H13.5427H13.5425H13.5424H13.5422H13.5421H13.542H13.5418H13.5417H13.5415H13.5414H13.5412H13.5411H13.5409H13.5408H13.5406H13.5405H13.5404H13.5402H13.5401H13.5399H13.5398H13.5396H13.5395H13.5393H13.5391H13.539H13.5388H13.5387H13.5385H13.5384H13.5382H13.5381H13.5379H13.5378H13.5376H13.5374H13.5373H13.5371H13.537H13.5368H13.5367H13.5365H13.5363H13.5362H13.536H13.5359H13.5357H13.5355H13.5354H13.5352H13.535H13.5349H13.5347H13.5346H13.5344H13.5342H13.5341H13.5339H13.5337H13.5336H13.5334H13.5332H13.5331H13.5329H13.5327H13.5325H13.5324H13.5322H13.532H13.5319H13.5317H13.5315H13.5314H13.5312H13.531H13.5308H13.5307H13.5305H13.5303H13.5301H13.53H13.5298H13.5296H13.5294H13.5293H13.5291H13.5289H13.5287H13.5286H13.5284H13.5282H13.528H13.5278H13.5277H13.5275H13.5273H13.5271H13.5269H13.5268H13.5266H13.5264H13.5262H13.526H13.5258H13.5257H13.5255H13.5253H13.5251H13.5249H13.5247H13.5246H13.5244H13.5242H13.524H13.5238H13.5236H13.5234H13.5233H13.5231H13.5229H13.5227H13.5225H13.5223H13.5221H13.5219H13.5217H13.5215H13.5214H13.5212H13.521H13.5208H13.5206H13.5204H13.5202H13.52H13.5198H13.5196H13.5194H13.5192H13.5191H13.5189H13.5187H13.5185H13.5183H13.5181H13.5179H13.5177H13.5175H13.5173H13.5171H13.5169H13.5167H13.5165H13.5163H13.5161H13.5159H13.5157H13.5155H13.5153H13.5151H13.5149H13.5147H13.5145H13.5143H13.5141H13.5139H13.5137H13.5135H13.5133H13.5131H13.5129H13.5127H13.5125H13.5123H13.5121H13.5119H13.5117H13.5115H13.5113H13.5111H13.5109H13.5107H13.5105H13.5103H13.5101H13.5099H13.5096H13.5094H13.5092H13.509H13.5088H13.5086H13.5084H13.5082H13.508H13.5078H13.5076H13.5074H13.5072H13.507H13.5068H13.5065H13.5063H13.5061H13.5059H13.5057H13.5055H13.5053H13.5051H13.5049H13.5047H13.5044H13.5042H13.504H13.5038H13.5036H13.5034H13.5032H13.503H13.5028H13.5025H13.5023H13.5021H13.5019H13.5017H13.5015H13.5013H13.5011H13.5009H13.5006H13.5004H13.5002H13.5H13.4998H13.4996H13.4994H13.4991H13.4989H13.4987H13.4985H13.4983H13.4981H13.4979H13.4976H13.4974H13.4972H13.497H13.4968H13.4966H13.4964H13.4961H13.4959H13.4957H13.4955H13.4953H13.4951H13.4948H13.4946H13.4944H13.4942H13.494H13.4938H13.4935H13.4933H13.4931H13.4929H13.4927H13.4925H13.4922H13.492H13.4918H13.4916H13.4914H13.4911H13.4909H13.4907H13.4905H13.4903H13.4901H13.4898H13.4896H13.4894H13.4892H13.489H13.4887H13.4885H13.4883H13.4881H13.4879H13.4877H13.4874H13.4872H13.487H13.4868H13.4866H13.4863H13.4861H13.4859H13.4857H13.4855H13.4852H13.485H13.4848H13.4846H13.4844H13.4841H13.4839H13.4837H13.4835H13.4833H13.4831H13.4828H13.4826H13.4824H13.4822H13.482H13.4817H13.4815H13.4813H13.4811H13.4809H13.4806H13.4804H13.4802H13.48H13.4798H13.4795H13.4793H13.4791H13.4789H13.4787H13.4784H13.4782H13.478H13.4778H13.4776H13.4773H13.4771H13.4769H13.4767H13.4765H13.4762H13.476H13.4758H13.4756H13.4754H13.4751H13.4749H13.4747H13.4745H13.4743H13.474H13.4738H13.4736H13.4734H13.4732H13.473H13.4727H13.4725H13.4723H13.4721H13.4719H13.4716H13.4714H13.4712H13.471H13.4708H13.4705H13.4703H13.4701H13.4699H13.4697H13.4695H13.4692H13.469H13.4688H13.4686H13.4684H13.4682H13.4679H13.4677H13.4675H13.4673H13.4671H13.4668H13.4666H13.4664H13.4662H13.466H13.4658H13.4655H13.4653H13.4651H13.4649H13.4647H13.4645H13.4643H13.464H13.4638H13.4636H13.4634H13.4632H13.463H13.4627H13.4625H13.4623H13.4621H13.4619H13.4617H13.4615H13.4612H13.461H13.4608H13.4606H13.4604H13.4602H13.46H13.4597H13.4595H13.4593H13.4591H13.4589H13.4587H13.4585H13.4583H13.458H13.4578H13.4576H13.4574H13.4572H13.457H13.4568H13.4566H13.4564H13.4561H13.4559H13.4557H13.4555H13.4553H13.4551H13.4549H13.4547H13.4545H13.4543H13.4541H13.4538H13.4536H13.4534H13.4532H13.453H13.4528H13.4526H13.4524H13.4522H13.4521C11.3815 15.5971 9.84387 13.9867 9.84387 12.0149Z" fill="#404040" stroke="#404040" stroke-width="1.125"/>
</g>
<defs>
<clipPath id="clip0_2481_14059">
<rect width="430" height="1172" fill="white" transform="translate(-382 -64)"/>
</clipPath>
</defs>
</svg>
