<svg width="16" height="16" viewBox="0 0 16 16" fill="none" xmlns="http://www.w3.org/2000/svg">
<path d="M8.35325 13.6134H4.13992C2.03325 13.6134 1.33325 12.2134 1.33325 10.8067V5.19339C1.33325 3.08672 2.03325 2.38672 4.13992 2.38672H8.35325C10.4599 2.38672 11.1599 3.08672 11.1599 5.19339V10.8067C11.1599 12.9134 10.4533 13.6134 8.35325 13.6134Z" stroke="#404040" stroke-linecap="round" stroke-linejoin="round"/>
<path d="M13.0132 11.3998L11.1599 10.0998V5.89318L13.0132 4.59318C13.9199 3.95984 14.6666 4.34651 14.6666 5.45984V10.5398C14.6666 11.6532 13.9199 12.0398 13.0132 11.3998Z" stroke="#404040" stroke-linecap="round" stroke-linejoin="round"/>
<path d="M7.66675 7.33325C8.21903 7.33325 8.66675 6.88554 8.66675 6.33325C8.66675 5.78097 8.21903 5.33325 7.66675 5.33325C7.11446 5.33325 6.66675 5.78097 6.66675 6.33325C6.66675 6.88554 7.11446 7.33325 7.66675 7.33325Z" stroke="#404040" stroke-linecap="round" stroke-linejoin="round"/>
</svg>
